<?xml version="1.0" encoding="utf-8" standalone="no"?>
<!DOCTYPE svg PUBLIC "-//W3C//DTD SVG 1.1//EN"
  "http://www.w3.org/Graphics/SVG/1.1/DTD/svg11.dtd">
<!-- Created with matplotlib (https://matplotlib.org/) -->
<svg height="297.190125pt" version="1.1" viewBox="0 0 421.890312 297.190125" width="421.890312pt" xmlns="http://www.w3.org/2000/svg" xmlns:xlink="http://www.w3.org/1999/xlink">
 <metadata>
  <rdf:RDF xmlns:cc="http://creativecommons.org/ns#" xmlns:dc="http://purl.org/dc/elements/1.1/" xmlns:rdf="http://www.w3.org/1999/02/22-rdf-syntax-ns#">
   <cc:Work>
    <dc:type rdf:resource="http://purl.org/dc/dcmitype/StillImage"/>
    <dc:date>2021-08-25T20:48:13.319056</dc:date>
    <dc:format>image/svg+xml</dc:format>
    <dc:creator>
     <cc:Agent>
      <dc:title>Matplotlib v3.3.4, https://matplotlib.org/</dc:title>
     </cc:Agent>
    </dc:creator>
   </cc:Work>
  </rdf:RDF>
 </metadata>
 <defs>
  <style type="text/css">*{stroke-linecap:butt;stroke-linejoin:round;}</style>
 </defs>
 <g id="figure_1">
  <g id="patch_1">
   <path d="M 0 297.190125 
L 421.890312 297.190125 
L 421.890312 0 
L 0 0 
z
" style="fill:#ffffff;"/>
  </g>
  <g id="axes_1">
   <g id="patch_2">
    <path d="M 57.570313 273.312 
L 414.690313 273.312 
L 414.690313 7.2 
L 57.570313 7.2 
z
" style="fill:#ffffff;"/>
   </g>
   <g id="matplotlib.axis_1">
    <g id="xtick_1">
     <g id="line2d_1">
      <defs>
       <path d="M 0 0 
L 0 3.5 
" id="mbaaea62d47" style="stroke:#000000;stroke-width:0.8;"/>
      </defs>
      <g>
       <use style="stroke:#000000;stroke-width:0.8;" x="73.80304" xlink:href="#mbaaea62d47" y="273.312"/>
      </g>
     </g>
     <g id="text_1">
      <!-- 0 -->
      <g transform="translate(70.62179 287.910437)scale(0.1 -0.1)">
       <defs>
        <path d="M 31.78125 66.40625 
Q 24.171875 66.40625 20.328125 58.90625 
Q 16.5 51.421875 16.5 36.375 
Q 16.5 21.390625 20.328125 13.890625 
Q 24.171875 6.390625 31.78125 6.390625 
Q 39.453125 6.390625 43.28125 13.890625 
Q 47.125 21.390625 47.125 36.375 
Q 47.125 51.421875 43.28125 58.90625 
Q 39.453125 66.40625 31.78125 66.40625 
z
M 31.78125 74.21875 
Q 44.046875 74.21875 50.515625 64.515625 
Q 56.984375 54.828125 56.984375 36.375 
Q 56.984375 17.96875 50.515625 8.265625 
Q 44.046875 -1.421875 31.78125 -1.421875 
Q 19.53125 -1.421875 13.0625 8.265625 
Q 6.59375 17.96875 6.59375 36.375 
Q 6.59375 54.828125 13.0625 64.515625 
Q 19.53125 74.21875 31.78125 74.21875 
z
" id="DejaVuSans-48"/>
       </defs>
       <use xlink:href="#DejaVuSans-48"/>
      </g>
     </g>
    </g>
    <g id="xtick_2">
     <g id="line2d_2">
      <g>
       <use style="stroke:#000000;stroke-width:0.8;" x="117.090313" xlink:href="#mbaaea62d47" y="273.312"/>
      </g>
     </g>
     <g id="text_2">
      <!-- 2 -->
      <g transform="translate(113.909063 287.910437)scale(0.1 -0.1)">
       <defs>
        <path d="M 19.1875 8.296875 
L 53.609375 8.296875 
L 53.609375 0 
L 7.328125 0 
L 7.328125 8.296875 
Q 12.9375 14.109375 22.625 23.890625 
Q 32.328125 33.6875 34.8125 36.53125 
Q 39.546875 41.84375 41.421875 45.53125 
Q 43.3125 49.21875 43.3125 52.78125 
Q 43.3125 58.59375 39.234375 62.25 
Q 35.15625 65.921875 28.609375 65.921875 
Q 23.96875 65.921875 18.8125 64.3125 
Q 13.671875 62.703125 7.8125 59.421875 
L 7.8125 69.390625 
Q 13.765625 71.78125 18.9375 73 
Q 24.125 74.21875 28.421875 74.21875 
Q 39.75 74.21875 46.484375 68.546875 
Q 53.21875 62.890625 53.21875 53.421875 
Q 53.21875 48.921875 51.53125 44.890625 
Q 49.859375 40.875 45.40625 35.40625 
Q 44.1875 33.984375 37.640625 27.21875 
Q 31.109375 20.453125 19.1875 8.296875 
z
" id="DejaVuSans-50"/>
       </defs>
       <use xlink:href="#DejaVuSans-50"/>
      </g>
     </g>
    </g>
    <g id="xtick_3">
     <g id="line2d_3">
      <g>
       <use style="stroke:#000000;stroke-width:0.8;" x="160.377585" xlink:href="#mbaaea62d47" y="273.312"/>
      </g>
     </g>
     <g id="text_3">
      <!-- 4 -->
      <g transform="translate(157.196335 287.910437)scale(0.1 -0.1)">
       <defs>
        <path d="M 37.796875 64.3125 
L 12.890625 25.390625 
L 37.796875 25.390625 
z
M 35.203125 72.90625 
L 47.609375 72.90625 
L 47.609375 25.390625 
L 58.015625 25.390625 
L 58.015625 17.1875 
L 47.609375 17.1875 
L 47.609375 0 
L 37.796875 0 
L 37.796875 17.1875 
L 4.890625 17.1875 
L 4.890625 26.703125 
z
" id="DejaVuSans-52"/>
       </defs>
       <use xlink:href="#DejaVuSans-52"/>
      </g>
     </g>
    </g>
    <g id="xtick_4">
     <g id="line2d_4">
      <g>
       <use style="stroke:#000000;stroke-width:0.8;" x="203.664858" xlink:href="#mbaaea62d47" y="273.312"/>
      </g>
     </g>
     <g id="text_4">
      <!-- 6 -->
      <g transform="translate(200.483608 287.910437)scale(0.1 -0.1)">
       <defs>
        <path d="M 33.015625 40.375 
Q 26.375 40.375 22.484375 35.828125 
Q 18.609375 31.296875 18.609375 23.390625 
Q 18.609375 15.53125 22.484375 10.953125 
Q 26.375 6.390625 33.015625 6.390625 
Q 39.65625 6.390625 43.53125 10.953125 
Q 47.40625 15.53125 47.40625 23.390625 
Q 47.40625 31.296875 43.53125 35.828125 
Q 39.65625 40.375 33.015625 40.375 
z
M 52.59375 71.296875 
L 52.59375 62.3125 
Q 48.875 64.0625 45.09375 64.984375 
Q 41.3125 65.921875 37.59375 65.921875 
Q 27.828125 65.921875 22.671875 59.328125 
Q 17.53125 52.734375 16.796875 39.40625 
Q 19.671875 43.65625 24.015625 45.921875 
Q 28.375 48.1875 33.59375 48.1875 
Q 44.578125 48.1875 50.953125 41.515625 
Q 57.328125 34.859375 57.328125 23.390625 
Q 57.328125 12.15625 50.6875 5.359375 
Q 44.046875 -1.421875 33.015625 -1.421875 
Q 20.359375 -1.421875 13.671875 8.265625 
Q 6.984375 17.96875 6.984375 36.375 
Q 6.984375 53.65625 15.1875 63.9375 
Q 23.390625 74.21875 37.203125 74.21875 
Q 40.921875 74.21875 44.703125 73.484375 
Q 48.484375 72.75 52.59375 71.296875 
z
" id="DejaVuSans-54"/>
       </defs>
       <use xlink:href="#DejaVuSans-54"/>
      </g>
     </g>
    </g>
    <g id="xtick_5">
     <g id="line2d_5">
      <g>
       <use style="stroke:#000000;stroke-width:0.8;" x="246.952131" xlink:href="#mbaaea62d47" y="273.312"/>
      </g>
     </g>
     <g id="text_5">
      <!-- 8 -->
      <g transform="translate(243.770881 287.910437)scale(0.1 -0.1)">
       <defs>
        <path d="M 31.78125 34.625 
Q 24.75 34.625 20.71875 30.859375 
Q 16.703125 27.09375 16.703125 20.515625 
Q 16.703125 13.921875 20.71875 10.15625 
Q 24.75 6.390625 31.78125 6.390625 
Q 38.8125 6.390625 42.859375 10.171875 
Q 46.921875 13.96875 46.921875 20.515625 
Q 46.921875 27.09375 42.890625 30.859375 
Q 38.875 34.625 31.78125 34.625 
z
M 21.921875 38.8125 
Q 15.578125 40.375 12.03125 44.71875 
Q 8.5 49.078125 8.5 55.328125 
Q 8.5 64.0625 14.71875 69.140625 
Q 20.953125 74.21875 31.78125 74.21875 
Q 42.671875 74.21875 48.875 69.140625 
Q 55.078125 64.0625 55.078125 55.328125 
Q 55.078125 49.078125 51.53125 44.71875 
Q 48 40.375 41.703125 38.8125 
Q 48.828125 37.15625 52.796875 32.3125 
Q 56.78125 27.484375 56.78125 20.515625 
Q 56.78125 9.90625 50.3125 4.234375 
Q 43.84375 -1.421875 31.78125 -1.421875 
Q 19.734375 -1.421875 13.25 4.234375 
Q 6.78125 9.90625 6.78125 20.515625 
Q 6.78125 27.484375 10.78125 32.3125 
Q 14.796875 37.15625 21.921875 38.8125 
z
M 18.3125 54.390625 
Q 18.3125 48.734375 21.84375 45.5625 
Q 25.390625 42.390625 31.78125 42.390625 
Q 38.140625 42.390625 41.71875 45.5625 
Q 45.3125 48.734375 45.3125 54.390625 
Q 45.3125 60.0625 41.71875 63.234375 
Q 38.140625 66.40625 31.78125 66.40625 
Q 25.390625 66.40625 21.84375 63.234375 
Q 18.3125 60.0625 18.3125 54.390625 
z
" id="DejaVuSans-56"/>
       </defs>
       <use xlink:href="#DejaVuSans-56"/>
      </g>
     </g>
    </g>
    <g id="xtick_6">
     <g id="line2d_6">
      <g>
       <use style="stroke:#000000;stroke-width:0.8;" x="290.239403" xlink:href="#mbaaea62d47" y="273.312"/>
      </g>
     </g>
     <g id="text_6">
      <!-- 10 -->
      <g transform="translate(283.876903 287.910437)scale(0.1 -0.1)">
       <defs>
        <path d="M 12.40625 8.296875 
L 28.515625 8.296875 
L 28.515625 63.921875 
L 10.984375 60.40625 
L 10.984375 69.390625 
L 28.421875 72.90625 
L 38.28125 72.90625 
L 38.28125 8.296875 
L 54.390625 8.296875 
L 54.390625 0 
L 12.40625 0 
z
" id="DejaVuSans-49"/>
       </defs>
       <use xlink:href="#DejaVuSans-49"/>
       <use x="63.623047" xlink:href="#DejaVuSans-48"/>
      </g>
     </g>
    </g>
    <g id="xtick_7">
     <g id="line2d_7">
      <g>
       <use style="stroke:#000000;stroke-width:0.8;" x="333.526676" xlink:href="#mbaaea62d47" y="273.312"/>
      </g>
     </g>
     <g id="text_7">
      <!-- 12 -->
      <g transform="translate(327.164176 287.910437)scale(0.1 -0.1)">
       <use xlink:href="#DejaVuSans-49"/>
       <use x="63.623047" xlink:href="#DejaVuSans-50"/>
      </g>
     </g>
    </g>
    <g id="xtick_8">
     <g id="line2d_8">
      <g>
       <use style="stroke:#000000;stroke-width:0.8;" x="376.813949" xlink:href="#mbaaea62d47" y="273.312"/>
      </g>
     </g>
     <g id="text_8">
      <!-- 14 -->
      <g transform="translate(370.451449 287.910437)scale(0.1 -0.1)">
       <use xlink:href="#DejaVuSans-49"/>
       <use x="63.623047" xlink:href="#DejaVuSans-52"/>
      </g>
     </g>
    </g>
   </g>
   <g id="matplotlib.axis_2">
    <g id="ytick_1">
     <g id="line2d_9">
      <defs>
       <path d="M 0 0 
L -3.5 0 
" id="mf20ecd8ef3" style="stroke:#000000;stroke-width:0.8;"/>
      </defs>
      <g>
       <use style="stroke:#000000;stroke-width:0.8;" x="57.570313" xlink:href="#mf20ecd8ef3" y="226.545298"/>
      </g>
     </g>
     <g id="text_9">
      <!-- −0.0010 -->
      <g transform="translate(7.2 230.344517)scale(0.1 -0.1)">
       <defs>
        <path d="M 10.59375 35.5 
L 73.1875 35.5 
L 73.1875 27.203125 
L 10.59375 27.203125 
z
" id="DejaVuSans-8722"/>
        <path d="M 10.6875 12.40625 
L 21 12.40625 
L 21 0 
L 10.6875 0 
z
" id="DejaVuSans-46"/>
       </defs>
       <use xlink:href="#DejaVuSans-8722"/>
       <use x="83.789062" xlink:href="#DejaVuSans-48"/>
       <use x="147.412109" xlink:href="#DejaVuSans-46"/>
       <use x="179.199219" xlink:href="#DejaVuSans-48"/>
       <use x="242.822266" xlink:href="#DejaVuSans-48"/>
       <use x="306.445312" xlink:href="#DejaVuSans-49"/>
       <use x="370.068359" xlink:href="#DejaVuSans-48"/>
      </g>
     </g>
    </g>
    <g id="ytick_2">
     <g id="line2d_10">
      <g>
       <use style="stroke:#000000;stroke-width:0.8;" x="57.570313" xlink:href="#mf20ecd8ef3" y="170.265104"/>
      </g>
     </g>
     <g id="text_10">
      <!-- −0.0005 -->
      <g transform="translate(7.2 174.064322)scale(0.1 -0.1)">
       <defs>
        <path d="M 10.796875 72.90625 
L 49.515625 72.90625 
L 49.515625 64.59375 
L 19.828125 64.59375 
L 19.828125 46.734375 
Q 21.96875 47.46875 24.109375 47.828125 
Q 26.265625 48.1875 28.421875 48.1875 
Q 40.625 48.1875 47.75 41.5 
Q 54.890625 34.8125 54.890625 23.390625 
Q 54.890625 11.625 47.5625 5.09375 
Q 40.234375 -1.421875 26.90625 -1.421875 
Q 22.3125 -1.421875 17.546875 -0.640625 
Q 12.796875 0.140625 7.71875 1.703125 
L 7.71875 11.625 
Q 12.109375 9.234375 16.796875 8.0625 
Q 21.484375 6.890625 26.703125 6.890625 
Q 35.15625 6.890625 40.078125 11.328125 
Q 45.015625 15.765625 45.015625 23.390625 
Q 45.015625 31 40.078125 35.4375 
Q 35.15625 39.890625 26.703125 39.890625 
Q 22.75 39.890625 18.8125 39.015625 
Q 14.890625 38.140625 10.796875 36.28125 
z
" id="DejaVuSans-53"/>
       </defs>
       <use xlink:href="#DejaVuSans-8722"/>
       <use x="83.789062" xlink:href="#DejaVuSans-48"/>
       <use x="147.412109" xlink:href="#DejaVuSans-46"/>
       <use x="179.199219" xlink:href="#DejaVuSans-48"/>
       <use x="242.822266" xlink:href="#DejaVuSans-48"/>
       <use x="306.445312" xlink:href="#DejaVuSans-48"/>
       <use x="370.068359" xlink:href="#DejaVuSans-53"/>
      </g>
     </g>
    </g>
    <g id="ytick_3">
     <g id="line2d_11">
      <g>
       <use style="stroke:#000000;stroke-width:0.8;" x="57.570313" xlink:href="#mf20ecd8ef3" y="113.984909"/>
      </g>
     </g>
     <g id="text_11">
      <!-- 0.0000 -->
      <g transform="translate(15.579688 117.784128)scale(0.1 -0.1)">
       <use xlink:href="#DejaVuSans-48"/>
       <use x="63.623047" xlink:href="#DejaVuSans-46"/>
       <use x="95.410156" xlink:href="#DejaVuSans-48"/>
       <use x="159.033203" xlink:href="#DejaVuSans-48"/>
       <use x="222.65625" xlink:href="#DejaVuSans-48"/>
       <use x="286.279297" xlink:href="#DejaVuSans-48"/>
      </g>
     </g>
    </g>
    <g id="ytick_4">
     <g id="line2d_12">
      <g>
       <use style="stroke:#000000;stroke-width:0.8;" x="57.570313" xlink:href="#mf20ecd8ef3" y="57.704715"/>
      </g>
     </g>
     <g id="text_12">
      <!-- 0.0005 -->
      <g transform="translate(15.579688 61.503934)scale(0.1 -0.1)">
       <use xlink:href="#DejaVuSans-48"/>
       <use x="63.623047" xlink:href="#DejaVuSans-46"/>
       <use x="95.410156" xlink:href="#DejaVuSans-48"/>
       <use x="159.033203" xlink:href="#DejaVuSans-48"/>
       <use x="222.65625" xlink:href="#DejaVuSans-48"/>
       <use x="286.279297" xlink:href="#DejaVuSans-53"/>
      </g>
     </g>
    </g>
   </g>
   <g id="line2d_13">
    <path clip-path="url(#p3a30b64076)" d="M 73.80304 113.984909 
L 95.446676 113.984909 
L 95.663113 114.260527 
L 95.879549 115.348558 
L 96.312422 120.537312 
L 96.745294 129.044436 
L 97.61104 152.376939 
L 100.208276 228.410977 
L 101.074022 246.05839 
L 101.723331 255.067784 
L 102.156203 258.882478 
L 102.589076 260.891632 
L 102.805513 261.216 
L 103.021949 261.089361 
L 103.238385 260.51603 
L 103.671258 258.055925 
L 104.104131 253.906559 
L 104.75344 244.734096 
L 105.619185 227.685268 
L 106.701367 200.42936 
L 108.649294 143.409486 
L 110.380785 95.521826 
L 111.462967 71.461632 
L 112.328713 56.764219 
L 112.978022 48.683877 
L 113.627331 43.195093 
L 114.060203 40.959645 
L 114.493076 39.826463 
L 114.709513 39.658325 
L 114.925949 39.746007 
L 115.142385 40.081065 
L 115.575258 41.455566 
L 116.008131 43.699162 
L 116.65744 48.488642 
L 117.523185 56.985425 
L 118.821803 72.431024 
L 120.769731 95.735984 
L 121.851913 105.950994 
L 122.717658 111.780752 
L 123.366967 114.579938 
L 123.79984 115.664058 
L 124.232713 116.122178 
L 124.449149 116.120184 
L 124.665585 115.967593 
L 125.098458 115.225126 
L 125.531331 113.930389 
L 126.18064 111.054761 
L 127.046385 105.783244 
L 128.345003 95.931192 
L 130.292931 80.943659 
L 131.158676 75.76622 
L 131.807985 72.936314 
L 132.240858 71.644633 
L 132.673731 70.873618 
L 133.106603 70.651392 
L 133.32304 70.752272 
L 133.755913 71.385135 
L 134.188785 72.59519 
L 134.838094 75.477683 
L 135.487403 79.585627 
L 136.353149 86.784655 
L 137.435331 98.032605 
L 139.166822 119.002054 
L 141.114749 142.087405 
L 142.196931 152.502314 
L 143.062676 158.834223 
L 143.711985 162.20217 
L 144.361294 164.28414 
L 144.794167 164.931563 
L 145.010603 165.030552 
L 145.22704 164.979735 
L 145.659913 164.431604 
L 146.092785 163.297708 
L 146.742094 160.539398 
L 147.391403 156.593295 
L 148.257149 149.693859 
L 149.339331 138.942949 
L 151.070822 118.766228 
L 153.668058 88.484767 
L 154.966676 76.12151 
L 156.048858 68.105429 
L 156.914603 63.380551 
L 157.563913 60.852577 
L 158.213222 59.184753 
L 158.646094 58.535586 
L 159.078967 58.240543 
L 159.51184 58.282184 
L 159.944713 58.64026 
L 160.377585 59.292153 
L 161.026894 60.766837 
L 161.89264 63.521657 
L 162.974822 67.924369 
L 164.706313 76.211627 
L 167.736422 90.806369 
L 169.467913 97.962213 
L 171.199403 104.182834 
L 174.229513 114.002889 
L 180.506167 133.862283 
L 181.588349 136.192587 
L 182.237658 137.197476 
L 182.886967 137.851039 
L 183.31984 138.071093 
L 183.752713 138.106032 
L 184.185585 137.946683 
L 184.618458 137.585516 
L 185.267767 136.653363 
L 185.917076 135.243652 
L 186.566385 133.355855 
L 187.432131 130.114654 
L 188.514313 124.982508 
L 189.812931 117.485488 
L 191.544422 105.965304 
L 194.790967 84.062415 
L 196.089585 76.833081 
L 197.171767 72.026388 
L 198.037513 69.126373 
L 198.686822 67.550965 
L 199.336131 66.51059 
L 199.769003 66.11883 
L 200.201876 65.968983 
L 200.634749 66.059373 
L 201.067622 66.386561 
L 201.500494 66.945423 
L 202.149803 68.203024 
L 202.799113 69.937694 
L 203.664858 72.930841 
L 204.74704 77.624271 
L 206.045658 84.35907 
L 207.993585 95.853798 
L 211.673003 117.7692 
L 213.188058 125.439799 
L 214.486676 130.944966 
L 215.568858 134.655691 
L 216.434603 137.003083 
L 217.300349 138.773582 
L 217.949658 139.714025 
L 218.598967 140.318552 
L 219.248276 140.586125 
L 219.681149 140.577769 
L 220.330458 140.287252 
L 220.979767 139.667433 
L 221.629076 138.725103 
L 222.494822 136.982872 
L 223.360567 134.711317 
L 224.442749 131.182239 
L 225.741367 126.053202 
L 227.256422 119.079058 
L 229.637222 106.844811 
L 232.450894 92.518082 
L 233.965949 85.893919 
L 235.048131 81.970249 
L 236.130313 78.885983 
L 236.996058 77.103877 
L 237.645367 76.198807 
L 238.294676 75.680099 
L 238.727549 75.553906 
L 239.160422 75.605446 
L 239.593294 75.835334 
L 240.242603 76.513406 
L 240.891913 77.585932 
L 241.757658 79.610143 
L 242.623403 82.276385 
L 243.705585 86.427935 
L 245.004203 92.427541 
L 246.735694 101.673835 
L 251.713731 129.214908 
L 253.012349 134.938765 
L 254.094531 138.828834 
L 254.960276 141.278693 
L 255.826022 143.090468 
L 256.475331 144.011579 
L 257.12464 144.548669 
L 257.557513 144.691746 
L 257.990385 144.663017 
L 258.423258 144.463645 
L 259.072567 143.84934 
L 259.721876 142.866396 
L 260.587622 141.008274 
L 261.453367 138.566772 
L 262.535549 134.78177 
L 263.834167 129.341274 
L 265.565658 121.001356 
L 270.543694 96.174512 
L 271.842313 90.941081 
L 272.924494 87.337053 
L 274.006676 84.538246 
L 274.872422 82.936271 
L 275.521731 82.127534 
L 276.17104 81.665528 
L 276.820349 81.555326 
L 277.253222 81.678111 
L 277.902531 82.155319 
L 278.55184 82.979482 
L 279.201149 84.141928 
L 280.066894 86.196282 
L 281.149076 89.518317 
L 282.231258 93.584787 
L 283.746313 100.292431 
L 285.910676 111.185762 
L 289.373658 128.721599 
L 290.888713 135.213209 
L 291.970894 139.060373 
L 293.053076 142.106131 
L 293.918822 143.898539 
L 294.568131 144.841747 
L 295.21744 145.428729 
L 295.866749 145.652927 
L 296.299622 145.599592 
L 296.732494 145.384412 
L 297.381803 144.761312 
L 298.031113 143.785345 
L 298.896858 141.957158 
L 299.762603 139.564796 
L 300.844785 135.862289 
L 302.143403 130.544686 
L 303.874894 122.401799 
L 308.636494 99.275062 
L 309.935113 94.152742 
L 311.017294 90.625504 
L 312.099476 87.886904 
L 312.965222 86.318669 
L 313.614531 85.525179 
L 314.26384 85.068439 
L 314.913149 84.952212 
L 315.346022 85.064049 
L 315.995331 85.513465 
L 316.64464 86.295091 
L 317.293949 87.399137 
L 318.159694 89.349378 
L 319.241876 92.497101 
L 320.324058 96.339499 
L 321.839113 102.653942 
L 324.003476 112.854968 
L 327.250022 128.223351 
L 328.765076 134.375312 
L 330.063694 138.712965 
L 331.145876 141.513514 
L 332.011622 143.154495 
L 332.660931 144.012304 
L 333.31024 144.538926 
L 333.959549 144.728135 
L 334.392422 144.665532 
L 335.041731 144.289294 
L 335.69104 143.578447 
L 336.340349 142.541346 
L 337.206094 140.672721 
L 338.07184 138.285521 
L 339.154022 134.649738 
L 340.45264 129.49136 
L 342.400567 120.64472 
L 346.512858 101.517557 
L 348.027913 95.684234 
L 349.110094 92.264575 
L 350.192276 89.587574 
L 351.058022 88.034771 
L 351.707331 87.233115 
L 352.35664 86.7515 
L 353.005949 86.594024 
L 353.655258 86.761122 
L 354.304567 87.249601 
L 354.953876 88.052704 
L 355.819622 89.594783 
L 356.685367 91.644317 
L 357.767549 94.853324 
L 359.066167 99.514039 
L 360.797658 106.746052 
L 366.425003 131.313466 
L 367.723622 135.681432 
L 368.805803 138.594542 
L 369.671549 140.380368 
L 370.537294 141.641391 
L 371.186603 142.22657 
L 371.835913 142.494675 
L 372.485222 142.442501 
L 373.134531 142.070579 
L 373.78384 141.383196 
L 374.433149 140.388346 
L 375.298894 138.604185 
L 376.16464 136.33158 
L 377.246822 132.876937 
L 378.54544 127.98191 
L 380.493367 119.59276 
L 384.605658 101.438555 
L 386.120713 95.885076 
L 387.202894 92.62 
L 388.285076 90.053764 
L 389.150822 88.555583 
L 389.800131 87.77433 
L 390.44944 87.295269 
L 391.098749 87.122529 
L 391.748058 87.256785 
L 392.397367 87.695279 
L 393.046676 88.431877 
L 393.912422 89.860985 
L 394.778167 91.771938 
L 395.860349 94.775963 
L 397.158967 99.152472 
L 398.457585 104.179573 
L 398.457585 104.179573 
" style="fill:none;stroke:#1f77b4;stroke-linecap:square;stroke-width:1.5;"/>
   </g>
   <g id="line2d_14">
    <path clip-path="url(#p3a30b64076)" d="M 73.80304 113.984909 
L 95.446676 113.984909 
L 95.663113 113.821518 
L 95.879549 113.173628 
L 96.312422 110.035021 
L 96.745294 104.735204 
L 97.394603 93.710282 
L 98.693222 66.302036 
L 99.99184 40.525255 
L 100.857585 28.004746 
L 101.506894 22.058855 
L 101.939767 19.919834 
L 102.156203 19.417201 
L 102.37264 19.296 
L 102.589076 19.556261 
L 102.805513 20.196017 
L 103.238385 22.596574 
L 103.671258 26.444736 
L 104.320567 34.749376 
L 105.186313 49.944841 
L 106.268494 73.904873 
L 109.947913 160.531452 
L 110.813658 174.340665 
L 111.462967 181.713546 
L 111.89584 185.080001 
L 112.328713 187.162582 
L 112.545149 187.717252 
L 112.761585 187.947462 
L 112.978022 187.854844 
L 113.194458 187.442327 
L 113.627331 185.675638 
L 114.060203 182.695557 
L 114.709513 176.100348 
L 115.575258 163.814827 
L 116.65744 144.114066 
L 118.605367 102.76726 
L 120.120422 72.112705 
L 121.202603 54.240602 
L 122.068349 43.472611 
L 122.717658 37.784758 
L 123.150531 35.201302 
L 123.583403 33.60563 
L 123.79984 33.179325 
L 124.016276 32.99952 
L 124.232713 33.064239 
L 124.449149 33.370655 
L 124.882022 34.693149 
L 125.314894 36.928261 
L 125.964203 41.8781 
L 126.829949 51.11007 
L 127.912131 65.965449 
L 129.643622 93.91159 
L 131.591549 124.64976 
L 132.673731 138.652115 
L 133.539476 147.427522 
L 134.188785 152.394795 
L 134.838094 155.90848 
L 135.270967 157.437808 
L 135.70384 158.326998 
L 136.136713 158.595266 
L 136.353149 158.504895 
L 136.786022 157.896123 
L 137.218894 156.749781 
L 137.868203 154.122779 
L 138.733949 149.202936 
L 139.816131 141.432933 
L 143.495549 113.440864 
L 144.361294 108.684079 
L 145.22704 105.109146 
L 145.876349 103.240391 
L 146.525658 102.056462 
L 146.958531 101.628272 
L 147.391403 101.467945 
L 147.824276 101.552408 
L 148.257149 101.854727 
L 148.906458 102.650012 
L 149.772203 104.172018 
L 152.36944 109.217796 
L 153.018749 110.008259 
L 153.668058 110.433803 
L 154.100931 110.485779 
L 154.533803 110.338195 
L 154.966676 109.98381 
L 155.615985 109.059574 
L 156.265294 107.673875 
L 157.13104 105.164055 
L 158.213222 101.149427 
L 159.944713 93.582593 
L 161.676203 86.249817 
L 162.758385 82.639966 
L 163.407694 81.045921 
L 164.057003 79.968063 
L 164.489876 79.563508 
L 164.922749 79.424405 
L 165.355622 79.559001 
L 165.788494 79.97192 
L 166.221367 80.664113 
L 166.870676 82.219124 
L 167.519985 84.371344 
L 168.385731 88.096015 
L 169.467913 93.919872 
L 170.982967 103.581816 
L 174.229513 124.915971 
L 175.311694 130.655777 
L 176.17744 134.353208 
L 177.043185 137.133356 
L 177.692494 138.575363 
L 178.341803 139.452704 
L 178.774676 139.724855 
L 179.207549 139.751333 
L 179.640422 139.538794 
L 180.073294 139.096172 
L 180.722603 138.025436 
L 181.371913 136.506968 
L 182.237658 133.877086 
L 183.31984 129.814042 
L 185.051331 122.203327 
L 188.297876 107.679983 
L 189.812931 102.008909 
L 191.111549 98.01863 
L 192.193731 95.341582 
L 193.275913 93.236311 
L 194.358094 91.661294 
L 195.22384 90.747608 
L 196.089585 90.11177 
L 196.955331 89.729087 
L 197.821076 89.580127 
L 198.686822 89.652171 
L 199.552567 89.939769 
L 200.418313 90.444422 
L 201.284058 91.173479 
L 202.36624 92.417969 
L 203.448422 94.05661 
L 204.530603 96.111387 
L 205.829222 99.139721 
L 207.12784 102.761854 
L 208.642894 107.6387 
L 211.023694 116.174508 
L 213.620931 125.267103 
L 214.919549 129.081956 
L 216.001731 131.63155 
L 216.867476 133.165787 
L 217.516785 133.98649 
L 218.166094 134.505461 
L 218.815403 134.711123 
L 219.464713 134.597245 
L 220.114022 134.163117 
L 220.763331 133.413588 
L 221.41264 132.358974 
L 222.278385 130.505843 
L 223.360567 127.544217 
L 224.659185 123.215449 
L 226.390676 116.5733 
L 230.070094 102.188458 
L 231.368713 97.94927 
L 232.450894 95.018767 
L 233.533076 92.730258 
L 234.398822 91.401961 
L 235.048131 90.710786 
L 235.69744 90.284588 
L 236.346749 90.122831 
L 236.996058 90.221807 
L 237.645367 90.57488 
L 238.294676 91.172773 
L 239.160422 92.330381 
L 240.026167 93.869161 
L 241.108349 96.269722 
L 242.406967 99.738442 
L 244.138458 105.100988 
L 247.60144 116.876537 
L 249.765803 123.820031 
L 251.280858 128.015551 
L 252.579476 130.980758 
L 253.661658 132.912763 
L 254.527403 134.062138 
L 255.393149 134.832408 
L 256.042458 135.149988 
L 256.691767 135.238537 
L 257.341076 135.095117 
L 257.990385 134.719284 
L 258.639694 134.113208 
L 259.50544 132.95578 
L 260.371185 131.417218 
L 261.453367 129.00135 
L 262.751985 125.478523 
L 264.483476 119.994423 
L 269.677949 102.824323 
L 270.976567 99.506184 
L 272.058749 97.318967 
L 272.924494 96.003491 
L 273.79024 95.105633 
L 274.439549 94.717971 
L 275.088858 94.580174 
L 275.738167 94.693204 
L 276.387476 95.054829 
L 277.036785 95.659703 
L 277.902531 96.829761 
L 278.768276 98.389609 
L 279.850458 100.832691 
L 281.149076 104.374135 
L 282.880567 109.844758 
L 288.291476 127.617775 
L 289.590094 130.983248 
L 290.672276 133.280192 
L 291.754458 135.045789 
L 292.620203 136.042334 
L 293.269513 136.535278 
L 293.918822 136.804838 
L 294.568131 136.848809 
L 295.21744 136.667361 
L 295.866749 136.263048 
L 296.732494 135.386117 
L 297.59824 134.140067 
L 298.680422 132.102438 
L 299.97904 129.039464 
L 301.494094 124.791373 
L 303.874894 117.265511 
L 306.688567 108.437344 
L 308.203622 104.345867 
L 309.50224 101.472153 
L 310.584422 99.628384 
L 311.450167 98.558246 
L 312.315913 97.872364 
L 312.965222 97.618768 
L 313.614531 97.592011 
L 314.26384 97.792118 
L 314.913149 98.216419 
L 315.778894 99.121326 
L 316.64464 100.395348 
L 317.726822 102.464631 
L 319.02544 105.554491 
L 320.540494 109.809163 
L 322.921294 117.275739 
L 325.734967 125.937727 
L 327.250022 129.922591 
L 328.54864 132.71271 
L 329.630822 134.500626 
L 330.496567 135.538869 
L 331.362313 136.206295 
L 332.011622 136.455567 
L 332.660931 136.48637 
L 333.31024 136.298599 
L 333.959549 135.8946 
L 334.825294 135.028192 
L 335.69104 133.804054 
L 336.773222 131.809704 
L 338.07184 128.821673 
L 339.586894 124.691338 
L 341.967694 117.405635 
L 344.781367 108.902471 
L 346.296422 104.973713 
L 347.59504 102.215437 
L 348.677222 100.442566 
L 349.542967 99.408489 
L 350.408713 98.737674 
L 351.058022 98.480457 
L 351.707331 98.436649 
L 352.35664 98.605933 
L 353.005949 98.985518 
L 353.871694 99.809415 
L 354.73744 100.978842 
L 355.819622 102.8867 
L 357.11824 105.743986 
L 358.633294 109.686929 
L 361.014094 116.621648 
L 363.827767 124.687391 
L 365.342822 128.405571 
L 366.64144 131.011664 
L 367.723622 132.682239 
L 368.589367 133.651688 
L 369.455113 134.273115 
L 370.104422 134.502828 
L 370.753731 134.526678 
L 371.40304 134.344226 
L 372.052349 133.957361 
L 372.918094 133.131173 
L 373.78384 131.965592 
L 374.866022 130.067274 
L 376.16464 127.222297 
L 377.679694 123.286853 
L 380.060494 116.336136 
L 382.874167 108.207909 
L 384.389222 104.443759 
L 385.68784 101.794583 
L 386.770022 100.085699 
L 387.635767 99.083341 
L 388.501513 98.425924 
L 389.150822 98.166376 
L 389.800131 98.109499 
L 390.44944 98.254984 
L 391.098749 98.60017 
L 391.964494 99.362162 
L 392.83024 100.452215 
L 393.912422 102.238266 
L 395.21104 104.920624 
L 396.726094 108.628791 
L 398.457585 113.337735 
L 398.457585 113.337735 
" style="fill:none;stroke:#ff7f0e;stroke-linecap:square;stroke-width:1.5;"/>
   </g>
   <g id="line2d_15">
    <path clip-path="url(#p3a30b64076)" d="M 73.80304 113.984909 
L 95.663113 113.945328 
L 95.879549 113.789843 
L 96.312422 113.061939 
L 96.961731 111.23426 
L 98.909658 104.335788 
L 101.506894 95.678037 
L 103.238385 90.545192 
L 104.537003 87.389365 
L 105.402749 85.774753 
L 106.268494 84.649516 
L 106.917803 84.174149 
L 107.350676 84.049684 
L 107.783549 84.088607 
L 108.216422 84.298004 
L 108.865731 84.944561 
L 109.51504 86.00281 
L 110.164349 87.480035 
L 111.030094 90.097455 
L 111.89584 93.425309 
L 112.978022 98.4847 
L 114.493076 106.881263 
L 119.254676 134.634686 
L 120.336858 139.28886 
L 121.202603 142.176821 
L 121.851913 143.797196 
L 122.501222 144.920436 
L 123.150531 145.52985 
L 123.583403 145.646589 
L 124.016276 145.531485 
L 124.449149 145.186366 
L 125.098458 144.245716 
L 125.747767 142.815221 
L 126.613513 140.194337 
L 127.479258 136.837555 
L 128.56144 131.769512 
L 130.076494 123.486234 
L 135.054531 95.023521 
L 136.353149 89.198932 
L 137.435331 85.236684 
L 138.517513 82.159649 
L 139.383258 80.355962 
L 140.032567 79.387619 
L 140.681876 78.744093 
L 141.331185 78.417839 
L 141.980494 78.398771 
L 142.629803 78.674717 
L 143.279113 79.23184 
L 143.928422 80.05501 
L 144.794167 81.538505 
L 145.876349 83.956725 
L 146.958531 86.926307 
L 148.257149 91.102999 
L 149.98864 97.480789 
L 152.585876 108.082064 
L 155.832422 121.295357 
L 157.347476 126.672073 
L 158.646094 130.519514 
L 159.728276 133.025666 
L 160.594022 134.4908 
L 161.243331 135.241811 
L 161.89264 135.675282 
L 162.541949 135.777698 
L 162.974822 135.657242 
L 163.624131 135.189287 
L 164.27344 134.3755 
L 164.922749 133.219237 
L 165.788494 131.160238 
L 166.65424 128.542504 
L 167.736422 124.562741 
L 169.03504 118.926129 
L 170.982967 109.319456 
L 174.229513 93.099919 
L 175.744567 86.722468 
L 176.826749 83.010356 
L 177.692494 80.649023 
L 178.55824 78.882919 
L 179.207549 77.969798 
L 179.856858 77.418993 
L 180.506167 77.233667 
L 180.93904 77.312462 
L 181.588349 77.729849 
L 182.237658 78.497337 
L 182.886967 79.600924 
L 183.752713 81.563598 
L 184.834894 84.731021 
L 186.133513 89.414906 
L 187.648567 95.786341 
L 190.678676 109.822912 
L 192.84304 119.386807 
L 194.358094 125.174413 
L 195.656713 129.269419 
L 196.738894 131.952431 
L 197.60464 133.571014 
L 198.470385 134.691936 
L 199.119694 135.195241 
L 199.769003 135.404478 
L 200.418313 135.318267 
L 201.067622 134.938062 
L 201.716931 134.268176 
L 202.36624 133.315792 
L 203.231985 131.624274 
L 204.314167 128.878186 
L 205.396349 125.506452 
L 206.911403 119.929272 
L 208.859331 111.78809 
L 212.538749 96.222656 
L 214.053803 90.840063 
L 215.135985 87.678246 
L 216.218167 85.21109 
L 217.083913 83.79665 
L 217.733222 83.084456 
L 218.382531 82.682165 
L 219.03184 82.595708 
L 219.681149 82.827187 
L 220.330458 83.374845 
L 220.979767 84.233069 
L 221.845513 85.843707 
L 222.711258 87.957019 
L 223.79344 91.238859 
L 225.092058 95.973801 
L 226.823549 103.270917 
L 232.018022 126.01969 
L 233.31664 130.531154 
L 234.398822 133.599481 
L 235.264567 135.534239 
L 236.130313 136.967554 
L 236.779622 137.698025 
L 237.428931 138.125698 
L 238.07824 138.247684 
L 238.727549 138.064663 
L 239.376858 137.580848 
L 240.026167 136.80391 
L 240.891913 135.331509 
L 241.757658 133.39273 
L 242.83984 130.38123 
L 244.138458 126.044124 
L 245.869949 119.383267 
L 250.847985 99.539988 
L 252.146603 95.375791 
L 253.228785 92.523422 
L 254.310967 90.328041 
L 255.176713 89.09123 
L 255.826022 88.483592 
L 256.475331 88.158129 
L 257.12464 88.118616 
L 257.773949 88.365693 
L 258.423258 88.896864 
L 259.072567 89.706526 
L 259.938313 91.203898 
L 260.804058 93.151994 
L 261.88624 96.163074 
L 263.184858 100.498743 
L 264.916349 107.188482 
L 270.543694 129.815388 
L 271.842313 133.83403 
L 272.924494 136.515072 
L 273.79024 138.160298 
L 274.655985 139.324957 
L 275.305294 139.868839 
L 275.954603 140.123437 
L 276.603913 140.086405 
L 277.253222 139.758896 
L 277.902531 139.14555 
L 278.55184 138.254447 
L 279.417585 136.654425 
L 280.499767 134.044444 
L 281.581949 130.841634 
L 283.097003 125.572463 
L 285.261367 117.099869 
L 288.291476 105.315193 
L 289.806531 100.283272 
L 291.105149 96.757611 
L 292.187331 94.496374 
L 293.053076 93.180802 
L 293.702385 92.498829 
L 294.351694 92.085945 
L 295.001003 91.945978 
L 295.650313 92.079698 
L 296.299622 92.484843 
L 296.948931 93.156168 
L 297.814676 94.450842 
L 298.680422 96.176956 
L 299.762603 98.886961 
L 301.061222 102.834616 
L 302.792713 108.983445 
L 308.852931 131.484898 
L 310.151549 135.07281 
L 311.233731 137.420928 
L 312.099476 138.824249 
L 312.965222 139.773538 
L 313.614531 140.17549 
L 314.26384 140.306294 
L 314.913149 140.164494 
L 315.562458 139.751833 
L 316.211767 139.073255 
L 317.077513 137.769263 
L 317.943258 136.034858 
L 319.02544 133.318271 
L 320.324058 129.374521 
L 322.055549 123.268331 
L 327.466458 103.462828 
L 328.765076 99.781965 
L 329.847258 97.317274 
L 330.713003 95.795157 
L 331.578749 94.704443 
L 332.228058 94.181763 
L 332.877367 93.918004 
L 333.526676 93.915145 
L 334.175985 94.17221 
L 334.825294 94.685308 
L 335.474603 95.447697 
L 336.340349 96.835209 
L 337.422531 99.122671 
L 338.504713 101.954168 
L 340.019767 106.656614 
L 341.967694 113.53128 
L 345.647113 126.704997 
L 347.162167 131.30271 
L 348.460785 134.520184 
L 349.542967 136.576733 
L 350.408713 137.764308 
L 351.058022 138.371223 
L 351.707331 138.726753 
L 352.35664 138.826688 
L 353.005949 138.669781 
L 353.655258 138.257777 
L 354.304567 137.595402 
L 355.170313 136.336428 
L 356.036058 134.672297 
L 357.11824 132.07562 
L 358.416858 128.315259 
L 360.148349 122.500887 
L 365.559258 103.613965 
L 366.857876 100.082437 
L 367.940058 97.70584 
L 368.805803 96.227902 
L 369.671549 95.156769 
L 370.320858 94.632286 
L 370.970167 94.352545 
L 371.619476 94.319663 
L 372.268785 94.532959 
L 372.918094 94.988988 
L 373.567403 95.681593 
L 374.433149 96.957534 
L 375.298894 98.610465 
L 376.381076 101.152777 
L 377.679694 104.790809 
L 379.411185 110.357413 
L 384.389222 126.920579 
L 385.68784 130.394371 
L 386.770022 132.768693 
L 387.852203 134.5876 
L 388.717949 135.602635 
L 389.367258 136.092593 
L 390.016567 136.343261 
L 390.665876 136.35158 
L 391.315185 136.117311 
L 391.964494 135.643047 
L 392.83024 134.647107 
L 393.695985 133.254812 
L 394.778167 131.001441 
L 396.076785 127.643061 
L 397.59184 123.022561 
L 398.457585 120.147466 
L 398.457585 120.147466 
" style="fill:none;stroke:#2ca02c;stroke-linecap:square;stroke-width:1.5;"/>
   </g>
   <g id="line2d_16">
    <path clip-path="url(#p3a30b64076)" d="M 73.80304 113.984909 
L 95.663113 113.912777 
L 95.879549 113.631237 
L 96.312422 112.33856 
L 96.961731 109.240006 
L 99.558967 95.666529 
L 100.857585 90.23428 
L 101.939767 86.639025 
L 102.805513 84.455301 
L 103.671258 82.930305 
L 104.320567 82.232629 
L 104.969876 81.920767 
L 105.402749 81.926119 
L 105.835622 82.099989 
L 106.484931 82.670762 
L 107.13424 83.602951 
L 107.999985 85.383073 
L 108.865731 87.739775 
L 109.947913 91.422205 
L 111.246531 96.764909 
L 112.978022 105.018256 
L 116.873876 124.191957 
L 118.172494 129.423345 
L 119.254676 132.964255 
L 120.120422 135.186841 
L 120.986167 136.835896 
L 121.635476 137.690013 
L 122.284785 138.21759 
L 122.934094 138.424295 
L 123.583403 138.318957 
L 124.232713 137.912843 
L 124.882022 137.219052 
L 125.747767 135.871632 
L 126.613513 134.075574 
L 127.695694 131.259872 
L 128.994313 127.152619 
L 130.509367 121.54861 
L 132.673731 112.521648 
L 137.435331 92.25318 
L 138.950385 86.874923 
L 140.249003 83.114663 
L 141.114749 81.153139 
L 141.980494 79.694834 
L 142.629803 78.961658 
L 143.279113 78.557241 
L 143.711985 78.477182 
L 144.144858 78.552349 
L 144.794167 78.960264 
L 145.443476 79.724148 
L 146.092785 80.840948 
L 146.958531 82.863061 
L 147.824276 85.45985 
L 148.906458 89.430119 
L 150.205076 95.06677 
L 152.153003 104.657233 
L 155.399549 120.680186 
L 156.698167 126.068631 
L 157.780349 129.781073 
L 158.646094 132.149516 
L 159.51184 133.932473 
L 160.161149 134.867351 
L 160.810458 135.450205 
L 161.459767 135.680269 
L 161.89264 135.639543 
L 162.541949 135.29334 
L 163.191258 134.615774 
L 163.840567 133.622536 
L 164.706313 131.840639 
L 165.788494 128.953862 
L 167.087113 124.680387 
L 168.602167 118.862391 
L 171.199403 107.822185 
L 174.013076 96.134677 
L 175.528131 90.668195 
L 176.826749 86.727823 
L 177.908931 84.090243 
L 178.774676 82.459954 
L 179.640422 81.292825 
L 180.289731 80.737901 
L 180.93904 80.467443 
L 181.588349 80.487493 
L 182.237658 80.801283 
L 182.886967 81.409034 
L 183.536276 82.307787 
L 184.402022 83.947437 
L 185.267767 86.068478 
L 186.349949 89.341913 
L 187.648567 94.057212 
L 189.380058 101.334292 
L 194.574531 123.971651 
L 195.873149 128.363626 
L 196.955331 131.283586 
L 197.821076 133.06627 
L 198.686822 134.319108 
L 199.336131 134.897384 
L 199.98544 135.160512 
L 200.634749 135.107951 
L 201.284058 134.74308 
L 201.933367 134.073051 
L 202.582676 133.10861 
L 203.448422 131.389549 
L 204.530603 128.605102 
L 205.829222 124.466348 
L 207.344276 118.799947 
L 209.941513 108.01552 
L 212.538749 97.569413 
L 214.053803 92.381273 
L 215.135985 89.314253 
L 216.218167 86.89176 
L 217.083913 85.471313 
L 217.733222 84.728599 
L 218.382531 84.273072 
L 219.03184 84.110892 
L 219.681149 84.244918 
L 220.330458 84.674633 
L 220.979767 85.396092 
L 221.845513 86.79863 
L 222.711258 88.67954 
L 223.79344 91.646025 
L 225.092058 95.982534 
L 226.607113 101.857653 
L 229.637222 114.781704 
L 231.801585 123.513778 
L 233.31664 128.698869 
L 234.398822 131.732713 
L 235.481003 134.107604 
L 236.346749 135.489091 
L 236.996058 136.20759 
L 237.645367 136.647357 
L 238.294676 136.805954 
L 238.943985 136.684037 
L 239.593294 136.285283 
L 240.242603 135.616279 
L 241.108349 134.320481 
L 241.974094 132.590682 
L 243.056276 129.875365 
L 244.354894 125.923398 
L 246.086385 119.774994 
L 251.930167 98.013938 
L 253.228785 94.352907 
L 254.310967 91.948957 
L 255.176713 90.511907 
L 256.042458 89.544573 
L 256.691767 89.142527 
L 257.341076 89.025358 
L 257.990385 89.196209 
L 258.639694 89.654673 
L 259.289003 90.396732 
L 260.154749 91.813597 
L 261.020494 93.692805 
L 262.102676 96.632318 
L 263.401294 100.895383 
L 265.132785 107.484534 
L 270.110822 127.205484 
L 271.40944 131.340439 
L 272.491622 134.17614 
L 273.573803 136.371364 
L 274.439549 137.62761 
L 275.088858 138.26549 
L 275.738167 138.637722 
L 276.387476 138.743213 
L 277.036785 138.583772 
L 277.686094 138.163989 
L 278.335403 137.491104 
L 279.201149 136.217374 
L 280.066894 134.540704 
L 281.149076 131.933779 
L 282.447694 128.167485 
L 284.179185 122.340817 
L 290.022967 101.75913 
L 291.321585 98.262609 
L 292.403767 95.944587 
L 293.269513 94.539382 
L 294.135258 93.569707 
L 294.784567 93.143287 
L 295.433876 92.982607 
L 296.083185 93.091349 
L 296.732494 93.469913 
L 297.381803 94.115337 
L 298.247549 95.379553 
L 299.113294 97.082175 
L 300.195476 99.773392 
L 301.494094 103.709248 
L 303.225585 109.837147 
L 308.420058 129.039445 
L 309.718676 132.81793 
L 310.800858 135.370119 
L 311.666603 136.966853 
L 312.532349 138.137679 
L 313.181658 138.725105 
L 313.830967 139.058513 
L 314.480276 139.136718 
L 315.129585 138.961382 
L 315.778894 138.536906 
L 316.428203 137.870293 
L 317.293949 136.621485 
L 318.159694 134.987902 
L 319.241876 132.458832 
L 320.540494 128.817853 
L 322.271985 123.203109 
L 328.115767 103.455252 
L 329.414385 100.098312 
L 330.496567 97.864357 
L 331.362313 96.500883 
L 332.228058 95.54744 
L 332.877367 95.115252 
L 333.526676 94.932759 
L 334.175985 95.003304 
L 334.825294 95.327197 
L 335.474603 95.901646 
L 336.340349 97.046648 
L 337.206094 98.603601 
L 338.288276 101.079411 
L 339.586894 104.716543 
L 341.318385 110.400575 
L 346.729294 128.940954 
L 348.027913 132.363771 
L 349.110094 134.641005 
L 349.97584 136.03663 
L 350.841585 137.026155 
L 351.490894 137.491974 
L 352.140203 137.716938 
L 352.789513 137.700442 
L 353.438822 137.444575 
L 354.088131 136.954016 
L 354.953876 135.947545 
L 355.819622 134.560091 
L 356.901803 132.336217 
L 358.200422 129.04549 
L 359.715476 124.535602 
L 362.096276 116.611548 
L 365.126385 106.6422 
L 366.64144 102.375907 
L 367.940058 99.373529 
L 369.02224 97.440292 
L 369.887985 96.313171 
L 370.753731 95.58624 
L 371.40304 95.3141 
L 372.052349 95.280654 
L 372.701658 95.487026 
L 373.350967 95.931445 
L 374.000276 96.609205 
L 374.866022 97.862269 
L 375.731767 99.490329 
L 376.813949 101.999394 
L 378.112567 105.591721 
L 379.844058 111.074009 
L 384.389222 125.838367 
L 385.68784 129.26423 
L 386.770022 131.614407 
L 387.852203 133.428636 
L 388.717949 134.458358 
L 389.583694 135.093771 
L 390.233003 135.305762 
L 390.882313 135.289848 
L 391.531622 135.04777 
L 392.180931 134.583729 
L 393.046676 133.631362 
L 393.912422 132.317858 
L 394.994603 130.211286 
L 396.293222 127.092005 
L 397.808276 122.813979 
L 398.457585 120.827825 
L 398.457585 120.827825 
" style="fill:none;stroke:#d62728;stroke-linecap:square;stroke-width:1.5;"/>
   </g>
   <g id="patch_3">
    <path d="M 57.570313 273.312 
L 57.570313 7.2 
" style="fill:none;stroke:#000000;stroke-linecap:square;stroke-linejoin:miter;stroke-width:0.8;"/>
   </g>
   <g id="patch_4">
    <path d="M 414.690313 273.312 
L 414.690313 7.2 
" style="fill:none;stroke:#000000;stroke-linecap:square;stroke-linejoin:miter;stroke-width:0.8;"/>
   </g>
   <g id="patch_5">
    <path d="M 57.570313 273.312 
L 414.690313 273.312 
" style="fill:none;stroke:#000000;stroke-linecap:square;stroke-linejoin:miter;stroke-width:0.8;"/>
   </g>
   <g id="patch_6">
    <path d="M 57.570313 7.2 
L 414.690313 7.2 
" style="fill:none;stroke:#000000;stroke-linecap:square;stroke-linejoin:miter;stroke-width:0.8;"/>
   </g>
   <g id="legend_1">
    <g id="patch_7">
     <path d="M 336.641875 75.025 
L 407.690313 75.025 
Q 409.690313 75.025 409.690313 73.025 
L 409.690313 14.2 
Q 409.690313 12.2 407.690313 12.2 
L 336.641875 12.2 
Q 334.641875 12.2 334.641875 14.2 
L 334.641875 73.025 
Q 334.641875 75.025 336.641875 75.025 
z
" style="fill:#ffffff;opacity:0.8;stroke:#cccccc;stroke-linejoin:miter;"/>
    </g>
    <g id="line2d_17">
     <path d="M 338.641875 20.298437 
L 358.641875 20.298437 
" style="fill:none;stroke:#1f77b4;stroke-linecap:square;stroke-width:1.5;"/>
    </g>
    <g id="line2d_18"/>
    <g id="text_13">
     <!-- v_pss_1 -->
     <g transform="translate(366.641875 23.798437)scale(0.1 -0.1)">
      <defs>
       <path d="M 2.984375 54.6875 
L 12.5 54.6875 
L 29.59375 8.796875 
L 46.6875 54.6875 
L 56.203125 54.6875 
L 35.6875 0 
L 23.484375 0 
z
" id="DejaVuSans-118"/>
       <path d="M 50.984375 -16.609375 
L 50.984375 -23.578125 
L -0.984375 -23.578125 
L -0.984375 -16.609375 
z
" id="DejaVuSans-95"/>
       <path d="M 18.109375 8.203125 
L 18.109375 -20.796875 
L 9.078125 -20.796875 
L 9.078125 54.6875 
L 18.109375 54.6875 
L 18.109375 46.390625 
Q 20.953125 51.265625 25.265625 53.625 
Q 29.59375 56 35.59375 56 
Q 45.5625 56 51.78125 48.09375 
Q 58.015625 40.1875 58.015625 27.296875 
Q 58.015625 14.40625 51.78125 6.484375 
Q 45.5625 -1.421875 35.59375 -1.421875 
Q 29.59375 -1.421875 25.265625 0.953125 
Q 20.953125 3.328125 18.109375 8.203125 
z
M 48.6875 27.296875 
Q 48.6875 37.203125 44.609375 42.84375 
Q 40.53125 48.484375 33.40625 48.484375 
Q 26.265625 48.484375 22.1875 42.84375 
Q 18.109375 37.203125 18.109375 27.296875 
Q 18.109375 17.390625 22.1875 11.75 
Q 26.265625 6.109375 33.40625 6.109375 
Q 40.53125 6.109375 44.609375 11.75 
Q 48.6875 17.390625 48.6875 27.296875 
z
" id="DejaVuSans-112"/>
       <path d="M 44.28125 53.078125 
L 44.28125 44.578125 
Q 40.484375 46.53125 36.375 47.5 
Q 32.28125 48.484375 27.875 48.484375 
Q 21.1875 48.484375 17.84375 46.4375 
Q 14.5 44.390625 14.5 40.28125 
Q 14.5 37.15625 16.890625 35.375 
Q 19.28125 33.59375 26.515625 31.984375 
L 29.59375 31.296875 
Q 39.15625 29.25 43.1875 25.515625 
Q 47.21875 21.78125 47.21875 15.09375 
Q 47.21875 7.46875 41.1875 3.015625 
Q 35.15625 -1.421875 24.609375 -1.421875 
Q 20.21875 -1.421875 15.453125 -0.5625 
Q 10.6875 0.296875 5.421875 2 
L 5.421875 11.28125 
Q 10.40625 8.6875 15.234375 7.390625 
Q 20.0625 6.109375 24.8125 6.109375 
Q 31.15625 6.109375 34.5625 8.28125 
Q 37.984375 10.453125 37.984375 14.40625 
Q 37.984375 18.0625 35.515625 20.015625 
Q 33.0625 21.96875 24.703125 23.78125 
L 21.578125 24.515625 
Q 13.234375 26.265625 9.515625 29.90625 
Q 5.8125 33.546875 5.8125 39.890625 
Q 5.8125 47.609375 11.28125 51.796875 
Q 16.75 56 26.8125 56 
Q 31.78125 56 36.171875 55.265625 
Q 40.578125 54.546875 44.28125 53.078125 
z
" id="DejaVuSans-115"/>
      </defs>
      <use xlink:href="#DejaVuSans-118"/>
      <use x="59.179688" xlink:href="#DejaVuSans-95"/>
      <use x="109.179688" xlink:href="#DejaVuSans-112"/>
      <use x="172.65625" xlink:href="#DejaVuSans-115"/>
      <use x="224.755859" xlink:href="#DejaVuSans-115"/>
      <use x="276.855469" xlink:href="#DejaVuSans-95"/>
      <use x="326.855469" xlink:href="#DejaVuSans-49"/>
     </g>
    </g>
    <g id="line2d_19">
     <path d="M 338.641875 35.254687 
L 358.641875 35.254687 
" style="fill:none;stroke:#ff7f0e;stroke-linecap:square;stroke-width:1.5;"/>
    </g>
    <g id="line2d_20"/>
    <g id="text_14">
     <!-- v_pss_2 -->
     <g transform="translate(366.641875 38.754687)scale(0.1 -0.1)">
      <use xlink:href="#DejaVuSans-118"/>
      <use x="59.179688" xlink:href="#DejaVuSans-95"/>
      <use x="109.179688" xlink:href="#DejaVuSans-112"/>
      <use x="172.65625" xlink:href="#DejaVuSans-115"/>
      <use x="224.755859" xlink:href="#DejaVuSans-115"/>
      <use x="276.855469" xlink:href="#DejaVuSans-95"/>
      <use x="326.855469" xlink:href="#DejaVuSans-50"/>
     </g>
    </g>
    <g id="line2d_21">
     <path d="M 338.641875 50.210937 
L 358.641875 50.210937 
" style="fill:none;stroke:#2ca02c;stroke-linecap:square;stroke-width:1.5;"/>
    </g>
    <g id="line2d_22"/>
    <g id="text_15">
     <!-- v_pss_3 -->
     <g transform="translate(366.641875 53.710937)scale(0.1 -0.1)">
      <defs>
       <path d="M 40.578125 39.3125 
Q 47.65625 37.796875 51.625 33 
Q 55.609375 28.21875 55.609375 21.1875 
Q 55.609375 10.40625 48.1875 4.484375 
Q 40.765625 -1.421875 27.09375 -1.421875 
Q 22.515625 -1.421875 17.65625 -0.515625 
Q 12.796875 0.390625 7.625 2.203125 
L 7.625 11.71875 
Q 11.71875 9.328125 16.59375 8.109375 
Q 21.484375 6.890625 26.8125 6.890625 
Q 36.078125 6.890625 40.9375 10.546875 
Q 45.796875 14.203125 45.796875 21.1875 
Q 45.796875 27.640625 41.28125 31.265625 
Q 36.765625 34.90625 28.71875 34.90625 
L 20.21875 34.90625 
L 20.21875 43.015625 
L 29.109375 43.015625 
Q 36.375 43.015625 40.234375 45.921875 
Q 44.09375 48.828125 44.09375 54.296875 
Q 44.09375 59.90625 40.109375 62.90625 
Q 36.140625 65.921875 28.71875 65.921875 
Q 24.65625 65.921875 20.015625 65.03125 
Q 15.375 64.15625 9.8125 62.3125 
L 9.8125 71.09375 
Q 15.4375 72.65625 20.34375 73.4375 
Q 25.25 74.21875 29.59375 74.21875 
Q 40.828125 74.21875 47.359375 69.109375 
Q 53.90625 64.015625 53.90625 55.328125 
Q 53.90625 49.265625 50.4375 45.09375 
Q 46.96875 40.921875 40.578125 39.3125 
z
" id="DejaVuSans-51"/>
      </defs>
      <use xlink:href="#DejaVuSans-118"/>
      <use x="59.179688" xlink:href="#DejaVuSans-95"/>
      <use x="109.179688" xlink:href="#DejaVuSans-112"/>
      <use x="172.65625" xlink:href="#DejaVuSans-115"/>
      <use x="224.755859" xlink:href="#DejaVuSans-115"/>
      <use x="276.855469" xlink:href="#DejaVuSans-95"/>
      <use x="326.855469" xlink:href="#DejaVuSans-51"/>
     </g>
    </g>
    <g id="line2d_23">
     <path d="M 338.641875 65.167187 
L 358.641875 65.167187 
" style="fill:none;stroke:#d62728;stroke-linecap:square;stroke-width:1.5;"/>
    </g>
    <g id="line2d_24"/>
    <g id="text_16">
     <!-- v_pss_4 -->
     <g transform="translate(366.641875 68.667187)scale(0.1 -0.1)">
      <use xlink:href="#DejaVuSans-118"/>
      <use x="59.179688" xlink:href="#DejaVuSans-95"/>
      <use x="109.179688" xlink:href="#DejaVuSans-112"/>
      <use x="172.65625" xlink:href="#DejaVuSans-115"/>
      <use x="224.755859" xlink:href="#DejaVuSans-115"/>
      <use x="276.855469" xlink:href="#DejaVuSans-95"/>
      <use x="326.855469" xlink:href="#DejaVuSans-52"/>
     </g>
    </g>
   </g>
  </g>
 </g>
 <defs>
  <clipPath id="p3a30b64076">
   <rect height="266.112" width="357.12" x="57.570313" y="7.2"/>
  </clipPath>
 </defs>
</svg>
