<?xml version="1.0" encoding="utf-8" standalone="no"?>
<!DOCTYPE svg PUBLIC "-//W3C//DTD SVG 1.1//EN"
  "http://www.w3.org/Graphics/SVG/1.1/DTD/svg11.dtd">
<svg xmlns:xlink="http://www.w3.org/1999/xlink" width="413.510625pt" height="297.190125pt" viewBox="0 0 413.510625 297.190125" xmlns="http://www.w3.org/2000/svg" version="1.1">
 <metadata>
  <rdf:RDF xmlns:dc="http://purl.org/dc/elements/1.1/" xmlns:cc="http://creativecommons.org/ns#" xmlns:rdf="http://www.w3.org/1999/02/22-rdf-syntax-ns#">
   <cc:Work>
    <dc:type rdf:resource="http://purl.org/dc/dcmitype/StillImage"/>
    <dc:date>2022-10-11T21:44:17.616516</dc:date>
    <dc:format>image/svg+xml</dc:format>
    <dc:creator>
     <cc:Agent>
      <dc:title>Matplotlib v3.5.2, https://matplotlib.org/</dc:title>
     </cc:Agent>
    </dc:creator>
   </cc:Work>
  </rdf:RDF>
 </metadata>
 <defs>
  <style type="text/css">*{stroke-linejoin: round; stroke-linecap: butt}</style>
 </defs>
 <g id="figure_1">
  <g id="patch_1">
   <path d="M 0 297.190125 
L 413.510625 297.190125 
L 413.510625 0 
L 0 0 
z
" style="fill: #ffffff"/>
  </g>
  <g id="axes_1">
   <g id="patch_2">
    <path d="M 49.190625 273.312 
L 406.310625 273.312 
L 406.310625 7.2 
L 49.190625 7.2 
z
" style="fill: #ffffff"/>
   </g>
   <g id="matplotlib.axis_1">
    <g id="xtick_1">
     <g id="line2d_1">
      <defs>
       <path id="m6fc406aa22" d="M 0 0 
L 0 3.5 
" style="stroke: #000000; stroke-width: 0.8"/>
      </defs>
      <g>
       <use xlink:href="#m6fc406aa22" x="65.423352" y="273.312" style="stroke: #000000; stroke-width: 0.8"/>
      </g>
     </g>
     <g id="text_1">
      <!-- 0 -->
      <g transform="translate(62.242102 287.910438)scale(0.1 -0.1)">
       <defs>
        <path id="DejaVuSans-30" d="M 2034 4250 
Q 1547 4250 1301 3770 
Q 1056 3291 1056 2328 
Q 1056 1369 1301 889 
Q 1547 409 2034 409 
Q 2525 409 2770 889 
Q 3016 1369 3016 2328 
Q 3016 3291 2770 3770 
Q 2525 4250 2034 4250 
z
M 2034 4750 
Q 2819 4750 3233 4129 
Q 3647 3509 3647 2328 
Q 3647 1150 3233 529 
Q 2819 -91 2034 -91 
Q 1250 -91 836 529 
Q 422 1150 422 2328 
Q 422 3509 836 4129 
Q 1250 4750 2034 4750 
z
" transform="scale(0.015625)"/>
       </defs>
       <use xlink:href="#DejaVuSans-30"/>
      </g>
     </g>
    </g>
    <g id="xtick_2">
     <g id="line2d_2">
      <g>
       <use xlink:href="#m6fc406aa22" x="130.419257" y="273.312" style="stroke: #000000; stroke-width: 0.8"/>
      </g>
     </g>
     <g id="text_2">
      <!-- 2 -->
      <g transform="translate(127.238007 287.910438)scale(0.1 -0.1)">
       <defs>
        <path id="DejaVuSans-32" d="M 1228 531 
L 3431 531 
L 3431 0 
L 469 0 
L 469 531 
Q 828 903 1448 1529 
Q 2069 2156 2228 2338 
Q 2531 2678 2651 2914 
Q 2772 3150 2772 3378 
Q 2772 3750 2511 3984 
Q 2250 4219 1831 4219 
Q 1534 4219 1204 4116 
Q 875 4013 500 3803 
L 500 4441 
Q 881 4594 1212 4672 
Q 1544 4750 1819 4750 
Q 2544 4750 2975 4387 
Q 3406 4025 3406 3419 
Q 3406 3131 3298 2873 
Q 3191 2616 2906 2266 
Q 2828 2175 2409 1742 
Q 1991 1309 1228 531 
z
" transform="scale(0.015625)"/>
       </defs>
       <use xlink:href="#DejaVuSans-32"/>
      </g>
     </g>
    </g>
    <g id="xtick_3">
     <g id="line2d_3">
      <g>
       <use xlink:href="#m6fc406aa22" x="195.415162" y="273.312" style="stroke: #000000; stroke-width: 0.8"/>
      </g>
     </g>
     <g id="text_3">
      <!-- 4 -->
      <g transform="translate(192.233912 287.910438)scale(0.1 -0.1)">
       <defs>
        <path id="DejaVuSans-34" d="M 2419 4116 
L 825 1625 
L 2419 1625 
L 2419 4116 
z
M 2253 4666 
L 3047 4666 
L 3047 1625 
L 3713 1625 
L 3713 1100 
L 3047 1100 
L 3047 0 
L 2419 0 
L 2419 1100 
L 313 1100 
L 313 1709 
L 2253 4666 
z
" transform="scale(0.015625)"/>
       </defs>
       <use xlink:href="#DejaVuSans-34"/>
      </g>
     </g>
    </g>
    <g id="xtick_4">
     <g id="line2d_4">
      <g>
       <use xlink:href="#m6fc406aa22" x="260.411067" y="273.312" style="stroke: #000000; stroke-width: 0.8"/>
      </g>
     </g>
     <g id="text_4">
      <!-- 6 -->
      <g transform="translate(257.229817 287.910438)scale(0.1 -0.1)">
       <defs>
        <path id="DejaVuSans-36" d="M 2113 2584 
Q 1688 2584 1439 2293 
Q 1191 2003 1191 1497 
Q 1191 994 1439 701 
Q 1688 409 2113 409 
Q 2538 409 2786 701 
Q 3034 994 3034 1497 
Q 3034 2003 2786 2293 
Q 2538 2584 2113 2584 
z
M 3366 4563 
L 3366 3988 
Q 3128 4100 2886 4159 
Q 2644 4219 2406 4219 
Q 1781 4219 1451 3797 
Q 1122 3375 1075 2522 
Q 1259 2794 1537 2939 
Q 1816 3084 2150 3084 
Q 2853 3084 3261 2657 
Q 3669 2231 3669 1497 
Q 3669 778 3244 343 
Q 2819 -91 2113 -91 
Q 1303 -91 875 529 
Q 447 1150 447 2328 
Q 447 3434 972 4092 
Q 1497 4750 2381 4750 
Q 2619 4750 2861 4703 
Q 3103 4656 3366 4563 
z
" transform="scale(0.015625)"/>
       </defs>
       <use xlink:href="#DejaVuSans-36"/>
      </g>
     </g>
    </g>
    <g id="xtick_5">
     <g id="line2d_5">
      <g>
       <use xlink:href="#m6fc406aa22" x="325.406972" y="273.312" style="stroke: #000000; stroke-width: 0.8"/>
      </g>
     </g>
     <g id="text_5">
      <!-- 8 -->
      <g transform="translate(322.225722 287.910438)scale(0.1 -0.1)">
       <defs>
        <path id="DejaVuSans-38" d="M 2034 2216 
Q 1584 2216 1326 1975 
Q 1069 1734 1069 1313 
Q 1069 891 1326 650 
Q 1584 409 2034 409 
Q 2484 409 2743 651 
Q 3003 894 3003 1313 
Q 3003 1734 2745 1975 
Q 2488 2216 2034 2216 
z
M 1403 2484 
Q 997 2584 770 2862 
Q 544 3141 544 3541 
Q 544 4100 942 4425 
Q 1341 4750 2034 4750 
Q 2731 4750 3128 4425 
Q 3525 4100 3525 3541 
Q 3525 3141 3298 2862 
Q 3072 2584 2669 2484 
Q 3125 2378 3379 2068 
Q 3634 1759 3634 1313 
Q 3634 634 3220 271 
Q 2806 -91 2034 -91 
Q 1263 -91 848 271 
Q 434 634 434 1313 
Q 434 1759 690 2068 
Q 947 2378 1403 2484 
z
M 1172 3481 
Q 1172 3119 1398 2916 
Q 1625 2713 2034 2713 
Q 2441 2713 2670 2916 
Q 2900 3119 2900 3481 
Q 2900 3844 2670 4047 
Q 2441 4250 2034 4250 
Q 1625 4250 1398 4047 
Q 1172 3844 1172 3481 
z
" transform="scale(0.015625)"/>
       </defs>
       <use xlink:href="#DejaVuSans-38"/>
      </g>
     </g>
    </g>
    <g id="xtick_6">
     <g id="line2d_6">
      <g>
       <use xlink:href="#m6fc406aa22" x="390.402877" y="273.312" style="stroke: #000000; stroke-width: 0.8"/>
      </g>
     </g>
     <g id="text_6">
      <!-- 10 -->
      <g transform="translate(384.040377 287.910438)scale(0.1 -0.1)">
       <defs>
        <path id="DejaVuSans-31" d="M 794 531 
L 1825 531 
L 1825 4091 
L 703 3866 
L 703 4441 
L 1819 4666 
L 2450 4666 
L 2450 531 
L 3481 531 
L 3481 0 
L 794 0 
L 794 531 
z
" transform="scale(0.015625)"/>
       </defs>
       <use xlink:href="#DejaVuSans-31"/>
       <use xlink:href="#DejaVuSans-30" x="63.623047"/>
      </g>
     </g>
    </g>
   </g>
   <g id="matplotlib.axis_2">
    <g id="ytick_1">
     <g id="line2d_7">
      <defs>
       <path id="m51574cf8cf" d="M 0 0 
L -3.5 0 
" style="stroke: #000000; stroke-width: 0.8"/>
      </defs>
      <g>
       <use xlink:href="#m51574cf8cf" x="49.190625" y="227.811516" style="stroke: #000000; stroke-width: 0.8"/>
      </g>
     </g>
     <g id="text_7">
      <!-- 0.9990 -->
      <g transform="translate(7.2 231.610734)scale(0.1 -0.1)">
       <defs>
        <path id="DejaVuSans-2e" d="M 684 794 
L 1344 794 
L 1344 0 
L 684 0 
L 684 794 
z
" transform="scale(0.015625)"/>
        <path id="DejaVuSans-39" d="M 703 97 
L 703 672 
Q 941 559 1184 500 
Q 1428 441 1663 441 
Q 2288 441 2617 861 
Q 2947 1281 2994 2138 
Q 2813 1869 2534 1725 
Q 2256 1581 1919 1581 
Q 1219 1581 811 2004 
Q 403 2428 403 3163 
Q 403 3881 828 4315 
Q 1253 4750 1959 4750 
Q 2769 4750 3195 4129 
Q 3622 3509 3622 2328 
Q 3622 1225 3098 567 
Q 2575 -91 1691 -91 
Q 1453 -91 1209 -44 
Q 966 3 703 97 
z
M 1959 2075 
Q 2384 2075 2632 2365 
Q 2881 2656 2881 3163 
Q 2881 3666 2632 3958 
Q 2384 4250 1959 4250 
Q 1534 4250 1286 3958 
Q 1038 3666 1038 3163 
Q 1038 2656 1286 2365 
Q 1534 2075 1959 2075 
z
" transform="scale(0.015625)"/>
       </defs>
       <use xlink:href="#DejaVuSans-30"/>
       <use xlink:href="#DejaVuSans-2e" x="63.623047"/>
       <use xlink:href="#DejaVuSans-39" x="95.410156"/>
       <use xlink:href="#DejaVuSans-39" x="159.033203"/>
       <use xlink:href="#DejaVuSans-39" x="222.65625"/>
       <use xlink:href="#DejaVuSans-30" x="286.279297"/>
      </g>
     </g>
    </g>
    <g id="ytick_2">
     <g id="line2d_8">
      <g>
       <use xlink:href="#m51574cf8cf" x="49.190625" y="170.148026" style="stroke: #000000; stroke-width: 0.8"/>
      </g>
     </g>
     <g id="text_8">
      <!-- 0.9995 -->
      <g transform="translate(7.2 173.947244)scale(0.1 -0.1)">
       <defs>
        <path id="DejaVuSans-35" d="M 691 4666 
L 3169 4666 
L 3169 4134 
L 1269 4134 
L 1269 2991 
Q 1406 3038 1543 3061 
Q 1681 3084 1819 3084 
Q 2600 3084 3056 2656 
Q 3513 2228 3513 1497 
Q 3513 744 3044 326 
Q 2575 -91 1722 -91 
Q 1428 -91 1123 -41 
Q 819 9 494 109 
L 494 744 
Q 775 591 1075 516 
Q 1375 441 1709 441 
Q 2250 441 2565 725 
Q 2881 1009 2881 1497 
Q 2881 1984 2565 2268 
Q 2250 2553 1709 2553 
Q 1456 2553 1204 2497 
Q 953 2441 691 2322 
L 691 4666 
z
" transform="scale(0.015625)"/>
       </defs>
       <use xlink:href="#DejaVuSans-30"/>
       <use xlink:href="#DejaVuSans-2e" x="63.623047"/>
       <use xlink:href="#DejaVuSans-39" x="95.410156"/>
       <use xlink:href="#DejaVuSans-39" x="159.033203"/>
       <use xlink:href="#DejaVuSans-39" x="222.65625"/>
       <use xlink:href="#DejaVuSans-35" x="286.279297"/>
      </g>
     </g>
    </g>
    <g id="ytick_3">
     <g id="line2d_9">
      <g>
       <use xlink:href="#m51574cf8cf" x="49.190625" y="112.484536" style="stroke: #000000; stroke-width: 0.8"/>
      </g>
     </g>
     <g id="text_9">
      <!-- 1.0000 -->
      <g transform="translate(7.2 116.283754)scale(0.1 -0.1)">
       <use xlink:href="#DejaVuSans-31"/>
       <use xlink:href="#DejaVuSans-2e" x="63.623047"/>
       <use xlink:href="#DejaVuSans-30" x="95.410156"/>
       <use xlink:href="#DejaVuSans-30" x="159.033203"/>
       <use xlink:href="#DejaVuSans-30" x="222.65625"/>
       <use xlink:href="#DejaVuSans-30" x="286.279297"/>
      </g>
     </g>
    </g>
    <g id="ytick_4">
     <g id="line2d_10">
      <g>
       <use xlink:href="#m51574cf8cf" x="49.190625" y="54.821045" style="stroke: #000000; stroke-width: 0.8"/>
      </g>
     </g>
     <g id="text_10">
      <!-- 1.0005 -->
      <g transform="translate(7.2 58.620264)scale(0.1 -0.1)">
       <use xlink:href="#DejaVuSans-31"/>
       <use xlink:href="#DejaVuSans-2e" x="63.623047"/>
       <use xlink:href="#DejaVuSans-30" x="95.410156"/>
       <use xlink:href="#DejaVuSans-30" x="159.033203"/>
       <use xlink:href="#DejaVuSans-30" x="222.65625"/>
       <use xlink:href="#DejaVuSans-35" x="286.279297"/>
      </g>
     </g>
    </g>
   </g>
   <g id="line2d_11">
    <path d="M 65.423352 112.484536 
L 98.246284 112.569697 
L 98.571264 112.980189 
L 98.896243 113.744277 
L 99.546202 116.330625 
L 100.196161 120.313326 
L 100.84612 125.65449 
L 101.821059 136.069829 
L 102.795998 149.091808 
L 104.095916 169.823696 
L 107.99567 236.329196 
L 108.970609 247.950339 
L 109.620568 253.794391 
L 110.270527 257.990025 
L 110.920486 260.473227 
L 111.245465 261.062575 
L 111.570445 261.216 
L 111.895424 260.935244 
L 112.220404 260.224002 
L 112.545383 259.087846 
L 113.195342 255.571973 
L 113.845301 250.466582 
L 114.82024 240.060539 
L 115.795179 226.752981 
L 117.095097 205.407495 
L 119.044974 168.541633 
L 122.294769 106.307412 
L 123.594687 84.968303 
L 124.894605 67.181591 
L 125.869544 56.570302 
L 126.844482 48.484344 
L 127.494442 44.532059 
L 128.144401 41.728233 
L 128.79436 40.051092 
L 129.119339 39.623661 
L 129.444319 39.46229 
L 129.769298 39.559801 
L 130.094278 39.908141 
L 130.419257 40.498434 
L 131.069216 42.365567 
L 131.719175 45.075691 
L 132.694114 50.51087 
L 133.669053 57.273634 
L 135.29395 70.461649 
L 138.543745 97.668011 
L 139.843663 106.617248 
L 140.818602 112.016243 
L 141.793541 116.095587 
L 142.4435 118.026793 
L 143.093459 119.3074 
L 143.743418 119.934784 
L 144.068397 120.006143 
L 144.393377 119.918878 
L 144.718356 119.676115 
L 145.368315 118.740142 
L 146.018274 117.237041 
L 146.668234 115.215713 
L 147.643172 111.340877 
L 148.94309 104.962849 
L 153.817783 79.136639 
L 154.792722 75.564459 
L 155.442681 73.757956 
L 156.09264 72.467495 
L 156.742599 71.730951 
L 157.067578 71.5796 
L 157.392558 71.576524 
L 157.717537 71.723677 
L 158.042517 72.022366 
L 158.692476 73.076369 
L 159.342435 74.736129 
L 159.992394 76.989075 
L 160.967333 81.429005 
L 161.942271 87.035884 
L 163.242189 96.048532 
L 164.867087 109.101576 
L 169.4168 146.884418 
L 170.716718 155.441593 
L 171.691657 160.610408 
L 172.666596 164.530255 
L 173.316555 166.389566 
L 173.966514 167.615836 
L 174.616473 168.193155 
L 174.941452 168.235883 
L 175.266432 168.114378 
L 175.591411 167.829111 
L 176.24137 166.771841 
L 176.891329 165.078386 
L 177.541288 162.771125 
L 178.516227 158.226855 
L 179.491166 152.5007 
L 180.791084 143.308148 
L 182.415981 129.949718 
L 188.590592 76.820981 
L 189.89051 68.19661 
L 191.190428 61.206827 
L 192.165367 57.139603 
L 193.140306 54.120639 
L 193.790265 52.694126 
L 194.440224 51.731099 
L 195.090183 51.221088 
L 195.740142 51.148836 
L 196.390101 51.494712 
L 197.04006 52.235166 
L 197.690019 53.343228 
L 198.664958 55.628583 
L 199.639896 58.563126 
L 200.939814 63.281381 
L 202.564712 70.069673 
L 208.089364 94.054042 
L 209.714261 99.936847 
L 211.339159 104.967665 
L 212.964057 109.154626 
L 214.588954 112.596411 
L 216.213852 115.452448 
L 218.163729 118.368572 
L 221.738504 123.164032 
L 226.938176 129.926924 
L 228.563074 131.629783 
L 229.862992 132.62595 
L 230.83793 133.082643 
L 231.812869 133.236263 
L 232.462828 133.147772 
L 233.112787 132.892257 
L 233.762746 132.458955 
L 234.737685 131.45608 
L 235.712623 130.009858 
L 236.687562 128.107672 
L 237.662501 125.748397 
L 238.962419 121.912409 
L 240.262337 117.344644 
L 241.887234 110.757478 
L 244.162091 100.388962 
L 248.711804 79.245825 
L 250.336702 72.822683 
L 251.63662 68.503219 
L 252.611559 65.838466 
L 253.586497 63.722495 
L 254.561436 62.193972 
L 255.211395 61.515133 
L 255.861354 61.114628 
L 256.511313 60.995043 
L 257.161272 61.156545 
L 257.811231 61.596914 
L 258.46119 62.311599 
L 259.111149 63.293799 
L 260.086088 65.248558 
L 261.061026 67.746027 
L 262.360944 71.836603 
L 263.660863 76.672231 
L 265.28576 83.530597 
L 267.885596 95.616217 
L 271.785351 113.709134 
L 273.735228 121.660276 
L 275.360125 127.3509 
L 276.660044 131.179979 
L 277.959962 134.308536 
L 278.9349 136.175964 
L 279.909839 137.625812 
L 280.884777 138.65783 
L 281.859716 139.276747 
L 282.509675 139.464186 
L 283.159634 139.475627 
L 283.809593 139.315366 
L 284.459552 138.988274 
L 285.434491 138.196695 
L 286.409429 137.061809 
L 287.384368 135.605204 
L 288.684286 133.202323 
L 289.984204 130.325169 
L 291.609102 126.151869 
L 293.558979 120.455115 
L 296.158815 112.04027 
L 303.308365 88.269147 
L 305.258242 82.770722 
L 306.883139 78.863007 
L 308.183057 76.276842 
L 309.482976 74.239787 
L 310.457914 73.106164 
L 311.432853 72.332834 
L 312.082812 72.025673 
L 312.732771 71.889852 
L 313.38273 71.928381 
L 314.032689 72.143373 
L 314.682648 72.535995 
L 315.657587 73.458113 
L 316.632525 74.776396 
L 317.607464 76.481863 
L 318.907382 79.332507 
L 320.2073 82.796485 
L 321.832197 87.88812 
L 323.782075 94.898784 
L 326.381911 105.211009 
L 330.606645 122.074238 
L 332.556522 128.937314 
L 334.181419 133.83223 
L 335.481338 137.07895 
L 336.781256 139.650091 
L 337.756194 141.100591 
L 338.731133 142.122219 
L 339.381092 142.55949 
L 340.031051 142.799613 
L 340.68101 142.842176 
L 341.330969 142.687987 
L 341.980928 142.339057 
L 342.630887 141.79857 
L 343.605826 140.638435 
L 344.580764 139.076449 
L 345.555703 137.136919 
L 346.855621 134.014285 
L 348.480519 129.363042 
L 350.430396 122.923445 
L 353.030232 113.447438 
L 357.579945 96.797556 
L 359.529822 90.512113 
L 361.15472 85.974007 
L 362.454638 82.899561 
L 363.754556 80.380718 
L 364.729495 78.883231 
L 365.704433 77.737555 
L 366.679372 76.954006 
L 367.654311 76.539022 
L 368.30427 76.468558 
L 368.954229 76.562949 
L 369.604188 76.821275 
L 370.579126 77.512325 
L 371.554065 78.559725 
L 372.529003 79.951326 
L 373.828921 82.314845 
L 375.12884 85.216377 
L 376.753737 89.514479 
L 378.703614 95.485578 
L 380.978471 103.24687 
L 387.803041 127.07862 
L 389.427939 131.850673 
L 390.077898 133.573759 
L 390.077898 133.573759 
" clip-path="url(#p7ff2ad1f70)" style="fill: none; stroke: #1f77b4; stroke-width: 1.5; stroke-linecap: square"/>
   </g>
   <g id="line2d_12">
    <path d="M 65.423352 112.484536 
L 98.246284 112.43289 
L 98.571264 112.183035 
L 98.896243 111.714152 
L 99.546202 110.098151 
L 100.196161 107.548355 
L 100.84612 104.053785 
L 101.821059 97.099864 
L 102.795998 88.285754 
L 104.095916 74.208043 
L 107.345711 36.401118 
L 108.32065 28.027552 
L 108.970609 23.871724 
L 109.620568 21.005234 
L 109.945547 20.083078 
L 110.270527 19.511736 
L 110.595506 19.296 
L 110.920486 19.438521 
L 111.245465 19.939881 
L 111.570445 20.79867 
L 112.220404 23.57337 
L 112.870363 27.714359 
L 113.520322 33.146507 
L 114.495261 43.492563 
L 115.795179 60.70932 
L 117.420076 85.972267 
L 120.994851 143.223911 
L 122.294769 160.30632 
L 123.269708 170.666601 
L 124.244646 178.534795 
L 124.894605 182.270876 
L 125.544564 184.742379 
L 125.869544 185.495278 
L 126.194523 185.924337 
L 126.519503 186.029752 
L 126.844482 185.813021 
L 127.169462 185.27692 
L 127.819421 183.263938 
L 128.46938 180.037418 
L 129.119339 175.662157 
L 130.094278 167.127713 
L 131.069216 156.531271 
L 132.369134 139.887082 
L 134.643991 106.862339 
L 137.243827 69.697384 
L 138.543745 53.824827 
L 139.518684 43.818115 
L 140.493623 35.747569 
L 141.468561 29.817105 
L 142.11852 27.119837 
L 142.768479 25.453161 
L 143.093459 25.008454 
L 143.418438 24.822138 
L 143.743418 24.892555 
L 144.068397 25.217156 
L 144.393377 25.792518 
L 145.043336 27.677607 
L 145.693295 30.503883 
L 146.343254 34.215104 
L 147.318193 41.290835 
L 148.618111 53.112374 
L 150.243008 70.663619 
L 155.442681 129.457393 
L 156.742599 140.833232 
L 157.717537 147.772493 
L 158.692476 153.19523 
L 159.342435 155.928149 
L 159.992394 157.943653 
L 160.642353 159.244007 
L 160.967333 159.629579 
L 161.292312 159.841913 
L 161.617292 159.884136 
L 161.942271 159.759948 
L 162.267251 159.473601 
L 162.91721 158.434008 
L 163.567169 156.809285 
L 164.217128 154.650266 
L 165.192066 150.535279 
L 166.491985 143.744292 
L 168.441862 131.859955 
L 171.366677 113.764143 
L 172.991575 105.239727 
L 174.291493 99.765391 
L 175.266432 96.570394 
L 176.24137 94.196063 
L 176.891329 93.069352 
L 177.541288 92.298023 
L 178.191247 91.866887 
L 178.841206 91.755073 
L 179.491166 91.936609 
L 180.141125 92.381063 
L 181.116063 93.465096 
L 182.091002 94.935825 
L 183.715899 97.873787 
L 185.990756 101.939824 
L 186.965695 103.315403 
L 187.940633 104.319993 
L 188.590592 104.744248 
L 189.240551 104.9512 
L 189.89051 104.928362 
L 190.540469 104.668246 
L 191.190428 104.168411 
L 191.840387 103.431424 
L 192.815326 101.898861 
L 193.790265 99.895142 
L 195.090183 96.607334 
L 196.71508 91.805268 
L 200.289855 80.925994 
L 201.589773 77.725429 
L 202.564712 75.841262 
L 203.53965 74.497763 
L 204.189609 73.938116 
L 204.839568 73.666911 
L 205.489528 73.696529 
L 206.139487 74.035196 
L 206.789446 74.686875 
L 207.439405 75.651213 
L 208.414343 77.672621 
L 209.389282 80.352664 
L 210.36422 83.637772 
L 211.664139 88.832369 
L 213.289036 96.326371 
L 219.138668 124.711503 
L 220.438586 129.65071 
L 221.413524 132.71981 
L 222.388463 135.173468 
L 223.363401 136.966639 
L 224.01336 137.781113 
L 224.66332 138.286269 
L 225.313279 138.48225 
L 225.963238 138.372684 
L 226.613197 137.964544 
L 227.263156 137.267963 
L 227.913115 136.296012 
L 228.888053 134.356885 
L 229.862992 131.897112 
L 231.16291 127.934177 
L 232.787808 122.153665 
L 235.712623 110.629083 
L 238.31246 100.660723 
L 239.937357 95.145803 
L 241.562255 90.434597 
L 242.862173 87.32763 
L 244.162091 84.839127 
L 245.13703 83.377843 
L 246.111968 82.25287 
L 247.086907 81.447247 
L 248.061845 80.938842 
L 249.036784 80.701762 
L 250.011722 80.707754 
L 250.986661 80.927572 
L 252.286579 81.503393 
L 253.586497 82.3437 
L 255.211395 83.681743 
L 257.161272 85.601739 
L 259.436129 88.172327 
L 261.710985 91.071092 
L 263.985842 94.345998 
L 265.935719 97.510843 
L 268.210576 101.664557 
L 270.485433 106.287848 
L 274.710166 115.542539 
L 277.310003 120.935776 
L 278.9349 123.841254 
L 280.234818 125.772338 
L 281.534736 127.267382 
L 282.509675 128.060115 
L 283.484614 128.54361 
L 284.459552 128.698573 
L 285.109511 128.612485 
L 285.75947 128.37189 
L 286.734409 127.719308 
L 287.709347 126.719086 
L 288.684286 125.380293 
L 289.984204 123.09709 
L 291.284122 120.296938 
L 292.90902 116.185043 
L 294.858897 110.59522 
L 301.033508 92.270034 
L 302.658406 88.316325 
L 303.958324 85.656789 
L 305.258242 83.514931 
L 306.23318 82.276813 
L 307.208119 81.369188 
L 308.183057 80.799169 
L 309.157996 80.568237 
L 310.132935 80.67248 
L 311.107873 81.102928 
L 312.082812 81.845983 
L 313.05775 82.883912 
L 314.357668 84.689227 
L 315.657587 86.921989 
L 317.282484 90.213847 
L 319.232361 94.717073 
L 322.482157 102.936472 
L 326.381911 112.695532 
L 328.656768 117.7662 
L 330.606645 121.519478 
L 332.231542 124.138789 
L 333.53146 125.861556 
L 334.831378 127.2281 
L 336.131297 128.219996 
L 337.106235 128.709429 
L 338.081174 128.975853 
L 339.056112 129.016511 
L 340.031051 128.83026 
L 341.005989 128.417684 
L 341.980928 127.781222 
L 342.955867 126.9253 
L 344.255785 125.454307 
L 345.555703 123.626723 
L 347.1806 120.885711 
L 348.805498 117.706528 
L 351.080355 112.695716 
L 358.879863 94.831179 
L 360.504761 91.890391 
L 361.804679 89.92779 
L 363.104597 88.366513 
L 364.079536 87.483849 
L 365.054474 86.863513 
L 366.029413 86.515383 
L 367.004351 86.445616 
L 367.97929 86.656541 
L 368.954229 87.146607 
L 369.929167 87.910404 
L 370.904106 88.938754 
L 372.204024 90.698794 
L 373.503942 92.866345 
L 375.12884 96.072968 
L 377.078717 100.497496 
L 380.003532 107.838477 
L 384.228266 118.426874 
L 386.178143 122.727524 
L 387.803041 125.818622 
L 389.102959 127.899375 
L 390.077898 129.204712 
L 390.077898 129.204712 
" clip-path="url(#p7ff2ad1f70)" style="fill: none; stroke: #ff7f0e; stroke-width: 1.5; stroke-linecap: square"/>
   </g>
   <g id="line2d_13">
    <path d="M 65.423352 112.484536 
L 98.571264 112.416905 
L 99.221223 112.163749 
L 100.196161 111.453698 
L 101.1711 110.387609 
L 102.146039 109.003874 
L 103.445957 106.704548 
L 104.745875 103.906632 
L 107.020731 98.268818 
L 109.945547 91.171589 
L 111.895424 86.989567 
L 113.520322 84.050637 
L 114.82024 82.175753 
L 115.795179 81.103569 
L 116.770117 80.355944 
L 117.745056 79.964705 
L 118.395015 79.916068 
L 119.044974 80.045894 
L 119.694933 80.360506 
L 120.344892 80.865034 
L 121.319831 81.985766 
L 122.294769 83.548116 
L 123.269708 85.549439 
L 124.569626 88.877837 
L 125.869544 92.905368 
L 127.494442 98.78115 
L 129.444319 106.734005 
L 134.968971 129.84293 
L 136.593868 135.386347 
L 137.893786 139.030139 
L 138.868725 141.224442 
L 139.843663 142.914425 
L 140.818602 144.072029 
L 141.468561 144.538627 
L 142.11852 144.75744 
L 142.768479 144.727541 
L 143.418438 144.449963 
L 144.068397 143.927661 
L 144.718356 143.165468 
L 145.693295 141.587409 
L 146.668234 139.514685 
L 147.968152 136.048075 
L 149.26807 131.879715 
L 150.892967 125.879362 
L 153.167824 116.511598 
L 158.042517 96.116362 
L 159.992394 89.070614 
L 161.617292 84.065475 
L 162.91721 80.719527 
L 164.217128 78.002463 
L 165.192066 76.390263 
L 166.167005 75.145882 
L 167.141944 74.266863 
L 168.116882 73.746616 
L 169.091821 73.57501 
L 170.066759 73.73895 
L 171.041698 74.22291 
L 172.016636 75.009422 
L 172.991575 76.07951 
L 174.291493 77.912567 
L 175.591411 80.164302 
L 177.216309 83.49007 
L 179.166186 88.098359 
L 181.441043 94.109232 
L 185.015817 104.315028 
L 189.240551 116.274075 
L 191.515408 122.031119 
L 193.140306 125.609336 
L 194.440224 128.055391 
L 195.740142 130.063461 
L 196.71508 131.246724 
L 197.690019 132.128257 
L 198.664958 132.688352 
L 199.639896 132.91056 
L 200.289855 132.864577 
L 200.939814 132.660035 
L 201.914753 132.052313 
L 202.889691 131.08223 
L 203.86463 129.753148 
L 204.839568 128.073845 
L 206.139487 125.315456 
L 207.439405 122.009394 
L 209.064302 117.207874 
L 211.014179 110.681553 
L 214.263975 98.843804 
L 217.18879 88.434333 
L 219.138668 82.295959 
L 220.763565 77.966808 
L 222.063483 75.139317 
L 223.038422 73.435029 
L 224.01336 72.112487 
L 224.988299 71.187778 
L 225.638258 70.79754 
L 226.288217 70.590187 
L 226.938176 70.565993 
L 227.588135 70.724045 
L 228.238094 71.06227 
L 229.213033 71.900126 
L 230.187971 73.120561 
L 231.16291 74.703114 
L 232.462828 77.332457 
L 233.762746 80.489709 
L 235.387644 85.053864 
L 237.337521 91.202339 
L 241.887234 106.632472 
L 244.487071 114.918718 
L 246.436948 120.367144 
L 248.061845 124.222431 
L 249.361763 126.783031 
L 250.661682 128.833448 
L 251.63662 130.0179 
L 252.611559 130.889291 
L 253.586497 131.441991 
L 254.561436 131.673564 
L 255.536374 131.584706 
L 256.511313 131.179155 
L 257.486252 130.463614 
L 258.46119 129.447647 
L 259.436129 128.143591 
L 260.736047 125.983002 
L 262.035965 123.379762 
L 263.660863 119.580219 
L 265.61074 114.371829 
L 268.210576 106.69716 
L 273.410248 91.10993 
L 275.360125 85.994098 
L 276.985023 82.325548 
L 278.284941 79.87281 
L 279.584859 77.910435 
L 280.559798 76.789232 
L 281.534736 75.986624 
L 282.509675 75.514934 
L 283.484614 75.382575 
L 284.134573 75.485152 
L 285.109511 75.925833 
L 286.08445 76.707889 
L 287.059388 77.824208 
L 288.034327 79.263383 
L 289.334245 81.656945 
L 290.634163 84.548199 
L 292.259061 88.769961 
L 294.208938 94.540263 
L 297.133754 104.04414 
L 301.033508 116.664709 
L 302.983385 122.255618 
L 304.608283 126.275152 
L 305.908201 128.974808 
L 307.208119 131.154654 
L 308.183057 132.421769 
L 309.157996 133.358256 
L 310.132935 133.954922 
L 311.107873 134.206966 
L 311.757832 134.183159 
L 312.732771 133.86209 
L 313.707709 133.204933 
L 314.682648 132.222601 
L 315.657587 130.929929 
L 316.957505 128.756086 
L 318.257423 126.116843 
L 319.88232 122.258916 
L 321.832197 116.993871 
L 324.757013 108.350367 
L 328.656768 96.892312 
L 330.606645 91.79535 
L 332.231542 88.103571 
L 333.53146 85.598077 
L 334.831378 83.545054 
L 335.806317 82.326893 
L 336.781256 81.399621 
L 337.756194 80.773446 
L 338.731133 80.455258 
L 339.706071 80.448574 
L 340.68101 80.753504 
L 341.655949 81.366762 
L 342.630887 82.281696 
L 343.605826 83.488355 
L 344.905744 85.527841 
L 346.205662 88.022575 
L 347.830559 91.706242 
L 349.780437 96.804326 
L 352.380273 104.37411 
L 357.904925 120.747463 
L 359.854802 125.741458 
L 361.4797 129.298106 
L 362.779618 131.661607 
L 364.079536 133.541846 
L 365.054474 134.610407 
L 366.029413 135.371626 
L 367.004351 135.816473 
L 367.97929 135.939811 
L 368.954229 135.740486 
L 369.929167 135.221366 
L 370.904106 134.389316 
L 371.879044 133.255128 
L 373.178962 131.298603 
L 374.478881 128.875681 
L 376.103778 125.275406 
L 378.053655 120.285975 
L 380.653492 112.91416 
L 385.203205 99.872145 
L 387.153082 94.935493 
L 388.77798 91.381639 
L 390.077898 88.990145 
L 390.077898 88.990145 
" clip-path="url(#p7ff2ad1f70)" style="fill: none; stroke: #2ca02c; stroke-width: 1.5; stroke-linecap: square"/>
   </g>
   <g id="line2d_14">
    <path d="M 65.423352 112.484536 
L 98.246284 112.463026 
L 98.896243 112.173348 
L 99.546202 111.569705 
L 100.521141 110.180835 
L 101.49608 108.321654 
L 102.795998 105.230517 
L 104.095916 101.520809 
L 108.970609 86.650347 
L 110.270527 83.758273 
L 111.245465 82.008036 
L 112.220404 80.637735 
L 113.195342 79.659632 
L 114.170281 79.079665 
L 114.82024 78.914509 
L 115.470199 78.925282 
L 116.120158 79.109915 
L 116.770117 79.465581 
L 117.745056 80.311956 
L 118.719994 81.520922 
L 119.694933 83.075591 
L 120.994851 85.65218 
L 122.294769 88.754277 
L 123.919667 93.270967 
L 125.869544 99.42 
L 129.769298 112.781879 
L 132.369134 121.217121 
L 133.994032 125.823542 
L 135.29395 128.996969 
L 136.593868 131.644896 
L 137.893786 133.723536 
L 138.868725 134.893434 
L 139.843663 135.724841 
L 140.818602 136.218319 
L 141.793541 136.378295 
L 142.768479 136.212323 
L 143.743418 135.730444 
L 144.718356 134.944658 
L 145.693295 133.868549 
L 146.993213 132.00808 
L 148.293131 129.696847 
L 149.918029 126.23903 
L 151.542926 122.235296 
L 153.492804 116.854053 
L 156.417619 108.011314 
L 161.942271 91.134509 
L 163.892148 85.887953 
L 165.517046 82.067682 
L 166.816964 79.465209 
L 168.116882 77.334217 
L 169.091821 76.080524 
L 170.066759 75.146759 
L 171.041698 74.551925 
L 171.691657 74.351428 
L 172.341616 74.312015 
L 172.991575 74.43628 
L 173.641534 74.725817 
L 174.616473 75.470852 
L 175.591411 76.585694 
L 176.56635 78.061466 
L 177.866268 80.564047 
L 179.166186 83.629653 
L 180.791084 88.146792 
L 182.740961 94.345828 
L 185.990756 105.648503 
L 188.915572 115.587986 
L 190.865449 121.438731 
L 192.490347 125.561338 
L 193.790265 128.255843 
L 194.765203 129.884441 
L 195.740142 131.155637 
L 196.71508 132.056556 
L 197.690019 132.58009 
L 198.339978 132.718532 
L 198.989937 132.68947 
L 199.639896 132.49492 
L 200.614835 131.899686 
L 201.589773 130.953317 
L 202.564712 129.674352 
L 203.86463 127.490833 
L 205.164548 124.817917 
L 206.789446 120.895095 
L 208.739323 115.530153 
L 211.664139 106.69339 
L 216.213852 92.946438 
L 218.163729 87.701218 
L 219.788627 83.851389 
L 221.413524 80.58691 
L 222.713442 78.457547 
L 224.01336 76.799086 
L 224.988299 75.883446 
L 225.963238 75.260887 
L 226.938176 74.939144 
L 227.913115 74.923164 
L 228.888053 75.214955 
L 229.862992 75.813465 
L 230.83793 76.714469 
L 231.812869 77.910482 
L 233.112787 79.944928 
L 234.412705 82.449465 
L 236.037603 86.171462 
L 237.98748 91.357143 
L 240.262337 98.103313 
L 246.436948 116.805975 
L 248.386825 121.759401 
L 250.011722 125.201696 
L 251.311641 127.419275 
L 252.286579 128.736764 
L 253.261518 129.739791 
L 254.236456 130.416455 
L 255.211395 130.759104 
L 255.861354 130.800148 
L 256.511313 130.691249 
L 257.486252 130.249019 
L 258.46119 129.47835 
L 259.436129 128.389984 
L 260.411067 126.998573 
L 261.710985 124.70413 
L 263.010903 121.956626 
L 264.635801 117.980542 
L 266.585678 112.59951 
L 269.835473 102.85161 
L 273.085269 93.268987 
L 275.035146 88.133374 
L 276.660044 84.429431 
L 277.959962 81.933126 
L 279.25988 79.909991 
L 280.234818 78.729488 
L 281.209757 77.853768 
L 282.184695 77.293321 
L 283.159634 77.054828 
L 284.134573 77.141067 
L 285.109511 77.550866 
L 286.08445 78.279102 
L 287.059388 79.316761 
L 288.034327 80.651043 
L 289.334245 82.86262 
L 290.634163 85.523703 
L 292.259061 89.393232 
L 294.208938 94.65855 
L 297.133754 103.292933 
L 301.033508 114.749127 
L 302.983385 119.858934 
L 304.608283 123.573777 
L 305.908201 126.1091 
L 307.208119 128.205173 
L 308.508037 129.824811 
L 309.482976 130.710128 
L 310.457914 131.304218 
L 311.432853 131.602619 
L 312.407791 131.604093 
L 313.38273 131.310593 
L 314.357668 130.727181 
L 315.332607 129.861939 
L 316.307546 128.725856 
L 317.607464 126.813946 
L 318.907382 124.485157 
L 320.532279 121.060941 
L 322.482157 116.343311 
L 325.081993 109.374685 
L 330.281665 95.263683 
L 332.231542 90.677091 
L 333.85644 87.420062 
L 335.156358 85.269833 
L 336.456276 83.580482 
L 337.431215 82.641512 
L 338.406153 81.999363 
L 339.381092 81.664185 
L 340.35603 81.64227 
L 341.330969 81.935891 
L 342.305908 82.543197 
L 343.280846 83.458178 
L 344.255785 84.670693 
L 345.555703 86.725163 
L 346.855621 89.238808 
L 348.480519 92.941448 
L 350.430396 98.034052 
L 353.355211 106.458323 
L 357.254966 117.681529 
L 359.204843 122.674734 
L 360.82974 126.286935 
L 362.129659 128.736472 
L 363.429577 130.744837 
L 364.729495 132.277223 
L 365.704433 133.09936 
L 366.679372 133.634054 
L 367.654311 133.878686 
L 368.629249 133.833964 
L 369.604188 133.503802 
L 370.579126 132.895165 
L 371.554065 132.017899 
L 372.529003 130.884537 
L 373.828921 129.001318 
L 375.12884 126.731625 
L 376.753737 123.424956 
L 378.703614 118.909575 
L 381.62843 111.445109 
L 386.178143 99.787914 
L 388.128021 95.380944 
L 389.752918 92.204698 
L 390.077898 91.634268 
L 390.077898 91.634268 
" clip-path="url(#p7ff2ad1f70)" style="fill: none; stroke: #d62728; stroke-width: 1.5; stroke-linecap: square"/>
   </g>
   <g id="patch_3">
    <path d="M 49.190625 273.312 
L 49.190625 7.2 
" style="fill: none; stroke: #000000; stroke-width: 0.8; stroke-linejoin: miter; stroke-linecap: square"/>
   </g>
   <g id="patch_4">
    <path d="M 406.310625 273.312 
L 406.310625 7.2 
" style="fill: none; stroke: #000000; stroke-width: 0.8; stroke-linejoin: miter; stroke-linecap: square"/>
   </g>
   <g id="patch_5">
    <path d="M 49.190625 273.312 
L 406.310625 273.312 
" style="fill: none; stroke: #000000; stroke-width: 0.8; stroke-linejoin: miter; stroke-linecap: square"/>
   </g>
   <g id="patch_6">
    <path d="M 49.190625 7.2 
L 406.310625 7.2 
" style="fill: none; stroke: #000000; stroke-width: 0.8; stroke-linejoin: miter; stroke-linecap: square"/>
   </g>
   <g id="legend_1">
    <g id="patch_7">
     <path d="M 321.459063 75.025 
L 399.310625 75.025 
Q 401.310625 75.025 401.310625 73.025 
L 401.310625 14.2 
Q 401.310625 12.2 399.310625 12.2 
L 321.459063 12.2 
Q 319.459063 12.2 319.459063 14.2 
L 319.459063 73.025 
Q 319.459063 75.025 321.459063 75.025 
z
" style="fill: #ffffff; opacity: 0.8; stroke: #cccccc; stroke-linejoin: miter"/>
    </g>
    <g id="line2d_15">
     <path d="M 323.459063 20.298438 
L 333.459063 20.298438 
L 343.459063 20.298438 
" style="fill: none; stroke: #1f77b4; stroke-width: 1.5; stroke-linecap: square"/>
    </g>
    <g id="text_11">
     <!-- omega_1 -->
     <g transform="translate(351.459063 23.798438)scale(0.1 -0.1)">
      <defs>
       <path id="DejaVuSans-6f" d="M 1959 3097 
Q 1497 3097 1228 2736 
Q 959 2375 959 1747 
Q 959 1119 1226 758 
Q 1494 397 1959 397 
Q 2419 397 2687 759 
Q 2956 1122 2956 1747 
Q 2956 2369 2687 2733 
Q 2419 3097 1959 3097 
z
M 1959 3584 
Q 2709 3584 3137 3096 
Q 3566 2609 3566 1747 
Q 3566 888 3137 398 
Q 2709 -91 1959 -91 
Q 1206 -91 779 398 
Q 353 888 353 1747 
Q 353 2609 779 3096 
Q 1206 3584 1959 3584 
z
" transform="scale(0.015625)"/>
       <path id="DejaVuSans-6d" d="M 3328 2828 
Q 3544 3216 3844 3400 
Q 4144 3584 4550 3584 
Q 5097 3584 5394 3201 
Q 5691 2819 5691 2113 
L 5691 0 
L 5113 0 
L 5113 2094 
Q 5113 2597 4934 2840 
Q 4756 3084 4391 3084 
Q 3944 3084 3684 2787 
Q 3425 2491 3425 1978 
L 3425 0 
L 2847 0 
L 2847 2094 
Q 2847 2600 2669 2842 
Q 2491 3084 2119 3084 
Q 1678 3084 1418 2786 
Q 1159 2488 1159 1978 
L 1159 0 
L 581 0 
L 581 3500 
L 1159 3500 
L 1159 2956 
Q 1356 3278 1631 3431 
Q 1906 3584 2284 3584 
Q 2666 3584 2933 3390 
Q 3200 3197 3328 2828 
z
" transform="scale(0.015625)"/>
       <path id="DejaVuSans-65" d="M 3597 1894 
L 3597 1613 
L 953 1613 
Q 991 1019 1311 708 
Q 1631 397 2203 397 
Q 2534 397 2845 478 
Q 3156 559 3463 722 
L 3463 178 
Q 3153 47 2828 -22 
Q 2503 -91 2169 -91 
Q 1331 -91 842 396 
Q 353 884 353 1716 
Q 353 2575 817 3079 
Q 1281 3584 2069 3584 
Q 2775 3584 3186 3129 
Q 3597 2675 3597 1894 
z
M 3022 2063 
Q 3016 2534 2758 2815 
Q 2500 3097 2075 3097 
Q 1594 3097 1305 2825 
Q 1016 2553 972 2059 
L 3022 2063 
z
" transform="scale(0.015625)"/>
       <path id="DejaVuSans-67" d="M 2906 1791 
Q 2906 2416 2648 2759 
Q 2391 3103 1925 3103 
Q 1463 3103 1205 2759 
Q 947 2416 947 1791 
Q 947 1169 1205 825 
Q 1463 481 1925 481 
Q 2391 481 2648 825 
Q 2906 1169 2906 1791 
z
M 3481 434 
Q 3481 -459 3084 -895 
Q 2688 -1331 1869 -1331 
Q 1566 -1331 1297 -1286 
Q 1028 -1241 775 -1147 
L 775 -588 
Q 1028 -725 1275 -790 
Q 1522 -856 1778 -856 
Q 2344 -856 2625 -561 
Q 2906 -266 2906 331 
L 2906 616 
Q 2728 306 2450 153 
Q 2172 0 1784 0 
Q 1141 0 747 490 
Q 353 981 353 1791 
Q 353 2603 747 3093 
Q 1141 3584 1784 3584 
Q 2172 3584 2450 3431 
Q 2728 3278 2906 2969 
L 2906 3500 
L 3481 3500 
L 3481 434 
z
" transform="scale(0.015625)"/>
       <path id="DejaVuSans-61" d="M 2194 1759 
Q 1497 1759 1228 1600 
Q 959 1441 959 1056 
Q 959 750 1161 570 
Q 1363 391 1709 391 
Q 2188 391 2477 730 
Q 2766 1069 2766 1631 
L 2766 1759 
L 2194 1759 
z
M 3341 1997 
L 3341 0 
L 2766 0 
L 2766 531 
Q 2569 213 2275 61 
Q 1981 -91 1556 -91 
Q 1019 -91 701 211 
Q 384 513 384 1019 
Q 384 1609 779 1909 
Q 1175 2209 1959 2209 
L 2766 2209 
L 2766 2266 
Q 2766 2663 2505 2880 
Q 2244 3097 1772 3097 
Q 1472 3097 1187 3025 
Q 903 2953 641 2809 
L 641 3341 
Q 956 3463 1253 3523 
Q 1550 3584 1831 3584 
Q 2591 3584 2966 3190 
Q 3341 2797 3341 1997 
z
" transform="scale(0.015625)"/>
       <path id="DejaVuSans-5f" d="M 3263 -1063 
L 3263 -1509 
L -63 -1509 
L -63 -1063 
L 3263 -1063 
z
" transform="scale(0.015625)"/>
      </defs>
      <use xlink:href="#DejaVuSans-6f"/>
      <use xlink:href="#DejaVuSans-6d" x="61.181641"/>
      <use xlink:href="#DejaVuSans-65" x="158.59375"/>
      <use xlink:href="#DejaVuSans-67" x="220.117188"/>
      <use xlink:href="#DejaVuSans-61" x="283.59375"/>
      <use xlink:href="#DejaVuSans-5f" x="344.873047"/>
      <use xlink:href="#DejaVuSans-31" x="394.873047"/>
     </g>
    </g>
    <g id="line2d_16">
     <path d="M 323.459063 35.254688 
L 333.459063 35.254688 
L 343.459063 35.254688 
" style="fill: none; stroke: #ff7f0e; stroke-width: 1.5; stroke-linecap: square"/>
    </g>
    <g id="text_12">
     <!-- omega_2 -->
     <g transform="translate(351.459063 38.754688)scale(0.1 -0.1)">
      <use xlink:href="#DejaVuSans-6f"/>
      <use xlink:href="#DejaVuSans-6d" x="61.181641"/>
      <use xlink:href="#DejaVuSans-65" x="158.59375"/>
      <use xlink:href="#DejaVuSans-67" x="220.117188"/>
      <use xlink:href="#DejaVuSans-61" x="283.59375"/>
      <use xlink:href="#DejaVuSans-5f" x="344.873047"/>
      <use xlink:href="#DejaVuSans-32" x="394.873047"/>
     </g>
    </g>
    <g id="line2d_17">
     <path d="M 323.459063 50.210938 
L 333.459063 50.210938 
L 343.459063 50.210938 
" style="fill: none; stroke: #2ca02c; stroke-width: 1.5; stroke-linecap: square"/>
    </g>
    <g id="text_13">
     <!-- omega_3 -->
     <g transform="translate(351.459063 53.710938)scale(0.1 -0.1)">
      <defs>
       <path id="DejaVuSans-33" d="M 2597 2516 
Q 3050 2419 3304 2112 
Q 3559 1806 3559 1356 
Q 3559 666 3084 287 
Q 2609 -91 1734 -91 
Q 1441 -91 1130 -33 
Q 819 25 488 141 
L 488 750 
Q 750 597 1062 519 
Q 1375 441 1716 441 
Q 2309 441 2620 675 
Q 2931 909 2931 1356 
Q 2931 1769 2642 2001 
Q 2353 2234 1838 2234 
L 1294 2234 
L 1294 2753 
L 1863 2753 
Q 2328 2753 2575 2939 
Q 2822 3125 2822 3475 
Q 2822 3834 2567 4026 
Q 2313 4219 1838 4219 
Q 1578 4219 1281 4162 
Q 984 4106 628 3988 
L 628 4550 
Q 988 4650 1302 4700 
Q 1616 4750 1894 4750 
Q 2613 4750 3031 4423 
Q 3450 4097 3450 3541 
Q 3450 3153 3228 2886 
Q 3006 2619 2597 2516 
z
" transform="scale(0.015625)"/>
      </defs>
      <use xlink:href="#DejaVuSans-6f"/>
      <use xlink:href="#DejaVuSans-6d" x="61.181641"/>
      <use xlink:href="#DejaVuSans-65" x="158.59375"/>
      <use xlink:href="#DejaVuSans-67" x="220.117188"/>
      <use xlink:href="#DejaVuSans-61" x="283.59375"/>
      <use xlink:href="#DejaVuSans-5f" x="344.873047"/>
      <use xlink:href="#DejaVuSans-33" x="394.873047"/>
     </g>
    </g>
    <g id="line2d_18">
     <path d="M 323.459063 65.167188 
L 333.459063 65.167188 
L 343.459063 65.167188 
" style="fill: none; stroke: #d62728; stroke-width: 1.5; stroke-linecap: square"/>
    </g>
    <g id="text_14">
     <!-- omega_4 -->
     <g transform="translate(351.459063 68.667188)scale(0.1 -0.1)">
      <use xlink:href="#DejaVuSans-6f"/>
      <use xlink:href="#DejaVuSans-6d" x="61.181641"/>
      <use xlink:href="#DejaVuSans-65" x="158.59375"/>
      <use xlink:href="#DejaVuSans-67" x="220.117188"/>
      <use xlink:href="#DejaVuSans-61" x="283.59375"/>
      <use xlink:href="#DejaVuSans-5f" x="344.873047"/>
      <use xlink:href="#DejaVuSans-34" x="394.873047"/>
     </g>
    </g>
   </g>
  </g>
 </g>
 <defs>
  <clipPath id="p7ff2ad1f70">
   <rect x="49.190625" y="7.2" width="357.12" height="266.112"/>
  </clipPath>
 </defs>
</svg>
