<?xml version="1.0" encoding="utf-8" standalone="no"?>
<!DOCTYPE svg PUBLIC "-//W3C//DTD SVG 1.1//EN"
  "http://www.w3.org/Graphics/SVG/1.1/DTD/svg11.dtd">
<svg height="248.518125pt" version="1.1" viewBox="0 0 384.828125 248.518125" width="384.828125pt" xmlns="http://www.w3.org/2000/svg" xmlns:xlink="http://www.w3.org/1999/xlink">
 <metadata>
  <rdf:RDF xmlns:cc="http://creativecommons.org/ns#" xmlns:dc="http://purl.org/dc/elements/1.1/" xmlns:rdf="http://www.w3.org/1999/02/22-rdf-syntax-ns#">
   <cc:Work>
    <dc:type rdf:resource="http://purl.org/dc/dcmitype/StillImage"/>
    <dc:date>2021-11-16T07:48:03.844886</dc:date>
    <dc:format>image/svg+xml</dc:format>
    <dc:creator>
     <cc:Agent>
      <dc:title>Matplotlib v3.4.3, https://matplotlib.org/</dc:title>
     </cc:Agent>
    </dc:creator>
   </cc:Work>
  </rdf:RDF>
 </metadata>
 <defs>
  <style type="text/css">*{stroke-linecap:butt;stroke-linejoin:round;}</style>
 </defs>
 <g id="figure_1">
  <g id="patch_1">
   <path d="M 0 248.518125 
L 384.828125 248.518125 
L 384.828125 0 
L 0 0 
z
" style="fill:none;"/>
  </g>
  <g id="axes_1">
   <g id="patch_2">
    <path d="M 42.828125 224.64 
L 377.628125 224.64 
L 377.628125 7.2 
L 42.828125 7.2 
z
" style="fill:#ffffff;"/>
   </g>
   <g id="matplotlib.axis_1">
    <g id="xtick_1">
     <g id="line2d_1">
      <defs>
       <path d="M 0 0 
L 0 3.5 
" id="mef8dca379d" style="stroke:#000000;stroke-width:0.8;"/>
      </defs>
      <g>
       <use style="stroke:#000000;stroke-width:0.8;" x="58.046307" xlink:href="#mef8dca379d" y="224.64"/>
      </g>
     </g>
     <g id="text_1">
      <!-- 0 -->
      <g transform="translate(54.865057 239.238438)scale(0.1 -0.1)">
       <defs>
        <path d="M 2034 4250 
Q 1547 4250 1301 3770 
Q 1056 3291 1056 2328 
Q 1056 1369 1301 889 
Q 1547 409 2034 409 
Q 2525 409 2770 889 
Q 3016 1369 3016 2328 
Q 3016 3291 2770 3770 
Q 2525 4250 2034 4250 
z
M 2034 4750 
Q 2819 4750 3233 4129 
Q 3647 3509 3647 2328 
Q 3647 1150 3233 529 
Q 2819 -91 2034 -91 
Q 1250 -91 836 529 
Q 422 1150 422 2328 
Q 422 3509 836 4129 
Q 1250 4750 2034 4750 
z
" id="DejaVuSans-30" transform="scale(0.015625)"/>
       </defs>
       <use xlink:href="#DejaVuSans-30"/>
      </g>
     </g>
    </g>
    <g id="xtick_2">
     <g id="line2d_2">
      <g>
       <use style="stroke:#000000;stroke-width:0.8;" x="108.943236" xlink:href="#mef8dca379d" y="224.64"/>
      </g>
     </g>
     <g id="text_2">
      <!-- 5 -->
      <g transform="translate(105.761986 239.238438)scale(0.1 -0.1)">
       <defs>
        <path d="M 691 4666 
L 3169 4666 
L 3169 4134 
L 1269 4134 
L 1269 2991 
Q 1406 3038 1543 3061 
Q 1681 3084 1819 3084 
Q 2600 3084 3056 2656 
Q 3513 2228 3513 1497 
Q 3513 744 3044 326 
Q 2575 -91 1722 -91 
Q 1428 -91 1123 -41 
Q 819 9 494 109 
L 494 744 
Q 775 591 1075 516 
Q 1375 441 1709 441 
Q 2250 441 2565 725 
Q 2881 1009 2881 1497 
Q 2881 1984 2565 2268 
Q 2250 2553 1709 2553 
Q 1456 2553 1204 2497 
Q 953 2441 691 2322 
L 691 4666 
z
" id="DejaVuSans-35" transform="scale(0.015625)"/>
       </defs>
       <use xlink:href="#DejaVuSans-35"/>
      </g>
     </g>
    </g>
    <g id="xtick_3">
     <g id="line2d_3">
      <g>
       <use style="stroke:#000000;stroke-width:0.8;" x="159.840165" xlink:href="#mef8dca379d" y="224.64"/>
      </g>
     </g>
     <g id="text_3">
      <!-- 10 -->
      <g transform="translate(153.477665 239.238438)scale(0.1 -0.1)">
       <defs>
        <path d="M 794 531 
L 1825 531 
L 1825 4091 
L 703 3866 
L 703 4441 
L 1819 4666 
L 2450 4666 
L 2450 531 
L 3481 531 
L 3481 0 
L 794 0 
L 794 531 
z
" id="DejaVuSans-31" transform="scale(0.015625)"/>
       </defs>
       <use xlink:href="#DejaVuSans-31"/>
       <use x="63.623047" xlink:href="#DejaVuSans-30"/>
      </g>
     </g>
    </g>
    <g id="xtick_4">
     <g id="line2d_4">
      <g>
       <use style="stroke:#000000;stroke-width:0.8;" x="210.737094" xlink:href="#mef8dca379d" y="224.64"/>
      </g>
     </g>
     <g id="text_4">
      <!-- 15 -->
      <g transform="translate(204.374594 239.238438)scale(0.1 -0.1)">
       <use xlink:href="#DejaVuSans-31"/>
       <use x="63.623047" xlink:href="#DejaVuSans-35"/>
      </g>
     </g>
    </g>
    <g id="xtick_5">
     <g id="line2d_5">
      <g>
       <use style="stroke:#000000;stroke-width:0.8;" x="261.634023" xlink:href="#mef8dca379d" y="224.64"/>
      </g>
     </g>
     <g id="text_5">
      <!-- 20 -->
      <g transform="translate(255.271523 239.238438)scale(0.1 -0.1)">
       <defs>
        <path d="M 1228 531 
L 3431 531 
L 3431 0 
L 469 0 
L 469 531 
Q 828 903 1448 1529 
Q 2069 2156 2228 2338 
Q 2531 2678 2651 2914 
Q 2772 3150 2772 3378 
Q 2772 3750 2511 3984 
Q 2250 4219 1831 4219 
Q 1534 4219 1204 4116 
Q 875 4013 500 3803 
L 500 4441 
Q 881 4594 1212 4672 
Q 1544 4750 1819 4750 
Q 2544 4750 2975 4387 
Q 3406 4025 3406 3419 
Q 3406 3131 3298 2873 
Q 3191 2616 2906 2266 
Q 2828 2175 2409 1742 
Q 1991 1309 1228 531 
z
" id="DejaVuSans-32" transform="scale(0.015625)"/>
       </defs>
       <use xlink:href="#DejaVuSans-32"/>
       <use x="63.623047" xlink:href="#DejaVuSans-30"/>
      </g>
     </g>
    </g>
    <g id="xtick_6">
     <g id="line2d_6">
      <g>
       <use style="stroke:#000000;stroke-width:0.8;" x="312.530953" xlink:href="#mef8dca379d" y="224.64"/>
      </g>
     </g>
     <g id="text_6">
      <!-- 25 -->
      <g transform="translate(306.168453 239.238438)scale(0.1 -0.1)">
       <use xlink:href="#DejaVuSans-32"/>
       <use x="63.623047" xlink:href="#DejaVuSans-35"/>
      </g>
     </g>
    </g>
    <g id="xtick_7">
     <g id="line2d_7">
      <g>
       <use style="stroke:#000000;stroke-width:0.8;" x="363.427882" xlink:href="#mef8dca379d" y="224.64"/>
      </g>
     </g>
     <g id="text_7">
      <!-- 30 -->
      <g transform="translate(357.065382 239.238438)scale(0.1 -0.1)">
       <defs>
        <path d="M 2597 2516 
Q 3050 2419 3304 2112 
Q 3559 1806 3559 1356 
Q 3559 666 3084 287 
Q 2609 -91 1734 -91 
Q 1441 -91 1130 -33 
Q 819 25 488 141 
L 488 750 
Q 750 597 1062 519 
Q 1375 441 1716 441 
Q 2309 441 2620 675 
Q 2931 909 2931 1356 
Q 2931 1769 2642 2001 
Q 2353 2234 1838 2234 
L 1294 2234 
L 1294 2753 
L 1863 2753 
Q 2328 2753 2575 2939 
Q 2822 3125 2822 3475 
Q 2822 3834 2567 4026 
Q 2313 4219 1838 4219 
Q 1578 4219 1281 4162 
Q 984 4106 628 3988 
L 628 4550 
Q 988 4650 1302 4700 
Q 1616 4750 1894 4750 
Q 2613 4750 3031 4423 
Q 3450 4097 3450 3541 
Q 3450 3153 3228 2886 
Q 3006 2619 2597 2516 
z
" id="DejaVuSans-33" transform="scale(0.015625)"/>
       </defs>
       <use xlink:href="#DejaVuSans-33"/>
       <use x="63.623047" xlink:href="#DejaVuSans-30"/>
      </g>
     </g>
    </g>
   </g>
   <g id="matplotlib.axis_2">
    <g id="ytick_1">
     <g id="line2d_8">
      <defs>
       <path d="M 0 0 
L -3.5 0 
" id="m3e3d188115" style="stroke:#000000;stroke-width:0.8;"/>
      </defs>
      <g>
       <use style="stroke:#000000;stroke-width:0.8;" x="42.828125" xlink:href="#m3e3d188115" y="208.439815"/>
      </g>
     </g>
     <g id="text_8">
      <!-- 0.970 -->
      <g transform="translate(7.2 212.239034)scale(0.1 -0.1)">
       <defs>
        <path d="M 684 794 
L 1344 794 
L 1344 0 
L 684 0 
L 684 794 
z
" id="DejaVuSans-2e" transform="scale(0.015625)"/>
        <path d="M 703 97 
L 703 672 
Q 941 559 1184 500 
Q 1428 441 1663 441 
Q 2288 441 2617 861 
Q 2947 1281 2994 2138 
Q 2813 1869 2534 1725 
Q 2256 1581 1919 1581 
Q 1219 1581 811 2004 
Q 403 2428 403 3163 
Q 403 3881 828 4315 
Q 1253 4750 1959 4750 
Q 2769 4750 3195 4129 
Q 3622 3509 3622 2328 
Q 3622 1225 3098 567 
Q 2575 -91 1691 -91 
Q 1453 -91 1209 -44 
Q 966 3 703 97 
z
M 1959 2075 
Q 2384 2075 2632 2365 
Q 2881 2656 2881 3163 
Q 2881 3666 2632 3958 
Q 2384 4250 1959 4250 
Q 1534 4250 1286 3958 
Q 1038 3666 1038 3163 
Q 1038 2656 1286 2365 
Q 1534 2075 1959 2075 
z
" id="DejaVuSans-39" transform="scale(0.015625)"/>
        <path d="M 525 4666 
L 3525 4666 
L 3525 4397 
L 1831 0 
L 1172 0 
L 2766 4134 
L 525 4134 
L 525 4666 
z
" id="DejaVuSans-37" transform="scale(0.015625)"/>
       </defs>
       <use xlink:href="#DejaVuSans-30"/>
       <use x="63.623047" xlink:href="#DejaVuSans-2e"/>
       <use x="95.410156" xlink:href="#DejaVuSans-39"/>
       <use x="159.033203" xlink:href="#DejaVuSans-37"/>
       <use x="222.65625" xlink:href="#DejaVuSans-30"/>
      </g>
     </g>
    </g>
    <g id="ytick_2">
     <g id="line2d_9">
      <g>
       <use style="stroke:#000000;stroke-width:0.8;" x="42.828125" xlink:href="#m3e3d188115" y="178.135359"/>
      </g>
     </g>
     <g id="text_9">
      <!-- 0.975 -->
      <g transform="translate(7.2 181.934578)scale(0.1 -0.1)">
       <use xlink:href="#DejaVuSans-30"/>
       <use x="63.623047" xlink:href="#DejaVuSans-2e"/>
       <use x="95.410156" xlink:href="#DejaVuSans-39"/>
       <use x="159.033203" xlink:href="#DejaVuSans-37"/>
       <use x="222.65625" xlink:href="#DejaVuSans-35"/>
      </g>
     </g>
    </g>
    <g id="ytick_3">
     <g id="line2d_10">
      <g>
       <use style="stroke:#000000;stroke-width:0.8;" x="42.828125" xlink:href="#m3e3d188115" y="147.830903"/>
      </g>
     </g>
     <g id="text_10">
      <!-- 0.980 -->
      <g transform="translate(7.2 151.630122)scale(0.1 -0.1)">
       <defs>
        <path d="M 2034 2216 
Q 1584 2216 1326 1975 
Q 1069 1734 1069 1313 
Q 1069 891 1326 650 
Q 1584 409 2034 409 
Q 2484 409 2743 651 
Q 3003 894 3003 1313 
Q 3003 1734 2745 1975 
Q 2488 2216 2034 2216 
z
M 1403 2484 
Q 997 2584 770 2862 
Q 544 3141 544 3541 
Q 544 4100 942 4425 
Q 1341 4750 2034 4750 
Q 2731 4750 3128 4425 
Q 3525 4100 3525 3541 
Q 3525 3141 3298 2862 
Q 3072 2584 2669 2484 
Q 3125 2378 3379 2068 
Q 3634 1759 3634 1313 
Q 3634 634 3220 271 
Q 2806 -91 2034 -91 
Q 1263 -91 848 271 
Q 434 634 434 1313 
Q 434 1759 690 2068 
Q 947 2378 1403 2484 
z
M 1172 3481 
Q 1172 3119 1398 2916 
Q 1625 2713 2034 2713 
Q 2441 2713 2670 2916 
Q 2900 3119 2900 3481 
Q 2900 3844 2670 4047 
Q 2441 4250 2034 4250 
Q 1625 4250 1398 4047 
Q 1172 3844 1172 3481 
z
" id="DejaVuSans-38" transform="scale(0.015625)"/>
       </defs>
       <use xlink:href="#DejaVuSans-30"/>
       <use x="63.623047" xlink:href="#DejaVuSans-2e"/>
       <use x="95.410156" xlink:href="#DejaVuSans-39"/>
       <use x="159.033203" xlink:href="#DejaVuSans-38"/>
       <use x="222.65625" xlink:href="#DejaVuSans-30"/>
      </g>
     </g>
    </g>
    <g id="ytick_4">
     <g id="line2d_11">
      <g>
       <use style="stroke:#000000;stroke-width:0.8;" x="42.828125" xlink:href="#m3e3d188115" y="117.526447"/>
      </g>
     </g>
     <g id="text_11">
      <!-- 0.985 -->
      <g transform="translate(7.2 121.325666)scale(0.1 -0.1)">
       <use xlink:href="#DejaVuSans-30"/>
       <use x="63.623047" xlink:href="#DejaVuSans-2e"/>
       <use x="95.410156" xlink:href="#DejaVuSans-39"/>
       <use x="159.033203" xlink:href="#DejaVuSans-38"/>
       <use x="222.65625" xlink:href="#DejaVuSans-35"/>
      </g>
     </g>
    </g>
    <g id="ytick_5">
     <g id="line2d_12">
      <g>
       <use style="stroke:#000000;stroke-width:0.8;" x="42.828125" xlink:href="#m3e3d188115" y="87.221991"/>
      </g>
     </g>
     <g id="text_12">
      <!-- 0.990 -->
      <g transform="translate(7.2 91.02121)scale(0.1 -0.1)">
       <use xlink:href="#DejaVuSans-30"/>
       <use x="63.623047" xlink:href="#DejaVuSans-2e"/>
       <use x="95.410156" xlink:href="#DejaVuSans-39"/>
       <use x="159.033203" xlink:href="#DejaVuSans-39"/>
       <use x="222.65625" xlink:href="#DejaVuSans-30"/>
      </g>
     </g>
    </g>
    <g id="ytick_6">
     <g id="line2d_13">
      <g>
       <use style="stroke:#000000;stroke-width:0.8;" x="42.828125" xlink:href="#m3e3d188115" y="56.917535"/>
      </g>
     </g>
     <g id="text_13">
      <!-- 0.995 -->
      <g transform="translate(7.2 60.716754)scale(0.1 -0.1)">
       <use xlink:href="#DejaVuSans-30"/>
       <use x="63.623047" xlink:href="#DejaVuSans-2e"/>
       <use x="95.410156" xlink:href="#DejaVuSans-39"/>
       <use x="159.033203" xlink:href="#DejaVuSans-39"/>
       <use x="222.65625" xlink:href="#DejaVuSans-35"/>
      </g>
     </g>
    </g>
    <g id="ytick_7">
     <g id="line2d_14">
      <g>
       <use style="stroke:#000000;stroke-width:0.8;" x="42.828125" xlink:href="#m3e3d188115" y="26.613079"/>
      </g>
     </g>
     <g id="text_14">
      <!-- 1.000 -->
      <g transform="translate(7.2 30.412297)scale(0.1 -0.1)">
       <use xlink:href="#DejaVuSans-31"/>
       <use x="63.623047" xlink:href="#DejaVuSans-2e"/>
       <use x="95.410156" xlink:href="#DejaVuSans-30"/>
       <use x="159.033203" xlink:href="#DejaVuSans-30"/>
       <use x="222.65625" xlink:href="#DejaVuSans-30"/>
      </g>
     </g>
    </g>
   </g>
   <g id="line2d_15">
    <path clip-path="url(#pc66ca07f8a)" d="M 58.046307 26.613079 
L 68.225693 26.613079 
L 69.243631 46.494624 
L 70.26157 63.177728 
L 71.279508 73.845271 
L 72.297447 78.854181 
L 73.315386 80.112931 
L 74.333324 80.005943 
L 75.351263 80.418676 
L 76.369201 82.270216 
L 77.38714 85.613114 
L 78.405078 90.045033 
L 80.440956 100.619717 
L 81.458894 106.597872 
L 82.476833 113.386113 
L 83.494771 121.48935 
L 84.51271 131.383827 
L 86.548587 156.072291 
L 87.566526 168.633135 
L 88.584464 178.849243 
L 89.602403 185.04276 
L 90.620341 186.538284 
L 91.63828 183.906294 
L 92.656219 178.677476 
L 93.674157 172.802109 
L 94.692096 168.1229 
L 95.710034 165.973886 
L 96.727973 166.944107 
L 97.745912 170.837293 
L 98.76385 176.84073 
L 101.817666 197.416497 
L 102.835604 203.143193 
L 103.853543 208.061013 
L 104.871482 211.988492 
L 105.88942 214.444074 
L 106.907359 214.756364 
L 107.925297 212.38502 
L 108.943236 207.257845 
L 109.961175 199.936391 
L 111.997052 183.507369 
L 113.01499 177.200017 
L 114.032929 173.594786 
L 115.050867 173.030512 
L 116.068806 175.181716 
L 117.086745 179.22365 
L 119.122622 188.714029 
L 120.14056 192.173675 
L 121.158499 193.777566 
L 122.176438 193.090088 
L 123.194376 189.941146 
L 124.212315 184.42364 
L 125.230253 176.885501 
L 129.302008 141.007368 
L 130.319946 134.973943 
L 131.337885 131.34264 
L 132.355823 130.095261 
L 133.373762 130.854552 
L 134.391701 133.01822 
L 136.427578 138.593984 
L 137.445516 140.33903 
L 138.463455 140.257822 
L 139.481393 137.701982 
L 140.499332 132.409168 
L 141.517271 124.609642 
L 143.553148 104.601796 
L 144.571086 94.582712 
L 145.589025 86.030079 
L 146.606964 79.748312 
L 147.624902 76.101472 
L 148.642841 74.972588 
L 149.660779 75.864635 
L 150.678718 78.087998 
L 152.714595 83.69055 
L 153.732534 85.719269 
L 154.750472 86.348812 
L 155.768411 84.994911 
L 156.786349 81.3014 
L 157.804288 75.290087 
L 158.822227 67.425434 
L 160.858104 49.792948 
L 161.876042 42.236648 
L 162.893981 36.801505 
L 163.911919 33.98917 
L 164.929858 33.807084 
L 165.947797 35.828526 
L 166.965735 39.359462 
L 169.001612 47.820448 
L 170.019551 51.257261 
L 171.03749 53.275634 
L 172.055428 53.364745 
L 173.073367 51.258326 
L 174.091305 47.032087 
L 175.109244 41.137933 
L 177.145121 27.659556 
L 178.16306 22.057605 
L 179.180998 18.373857 
L 180.198937 17.083636 
L 181.216875 18.228287 
L 182.234814 21.457013 
L 183.252753 26.162643 
L 185.28863 37.120918 
L 186.306568 41.926102 
L 187.324507 45.386725 
L 188.342445 46.979912 
L 189.360384 46.430899 
L 190.378323 43.808844 
L 191.396261 39.553551 
L 193.432138 29.337078 
L 194.450077 25.260912 
L 195.468016 22.961515 
L 196.485954 22.879467 
L 197.503893 25.050874 
L 198.521831 29.147767 
L 199.53977 34.602934 
L 202.593586 52.382245 
L 203.611524 56.600888 
L 204.629463 59.057218 
L 205.647401 59.478433 
L 206.66534 57.903461 
L 207.683279 54.716612 
L 209.719156 46.431661 
L 210.737094 43.099921 
L 211.755033 41.352098 
L 212.772971 41.631923 
L 213.79091 44.007134 
L 214.808849 48.197292 
L 215.826787 53.682388 
L 218.880603 71.508685 
L 219.898542 75.823335 
L 220.91648 78.458959 
L 221.934419 79.148823 
L 222.952357 77.910755 
L 223.970296 75.081154 
L 227.024112 64.010218 
L 228.04205 62.102245 
L 229.059989 62.037056 
L 230.077927 63.922881 
L 231.095866 67.537331 
L 232.113805 72.418223 
L 235.16762 88.664053 
L 236.185559 92.614178 
L 237.203497 94.986592 
L 238.221436 95.503379 
L 239.239375 94.149678 
L 240.257313 91.211323 
L 243.311129 79.292353 
L 244.329068 76.803249 
L 245.347006 76.009417 
L 246.364945 77.06108 
L 247.382883 79.790778 
L 248.400822 83.788844 
L 251.454638 97.757521 
L 252.472576 101.150105 
L 253.490515 103.084039 
L 254.508453 103.268825 
L 255.526392 101.655415 
L 256.544331 98.478262 
L 259.598146 85.421885 
L 260.616085 82.300214 
L 261.634023 80.752927 
L 262.651962 80.971492 
L 263.669901 82.84085 
L 264.687839 86.000407 
L 267.741655 97.898433 
L 268.759594 100.809866 
L 269.777532 102.381378 
L 270.795471 102.313435 
L 271.813409 100.530036 
L 272.831348 97.22285 
L 274.867225 88.034795 
L 275.885164 83.526895 
L 276.903102 79.995735 
L 277.921041 77.936376 
L 278.938979 77.572002 
L 279.956918 78.831745 
L 280.974857 81.399082 
L 284.028672 91.924267 
L 285.046611 94.571129 
L 286.064549 95.9891 
L 287.082488 95.873509 
L 288.100427 94.128516 
L 289.118365 90.911802 
L 291.154242 81.888473 
L 292.172181 77.37515 
L 293.19012 73.747752 
L 294.208058 71.501474 
L 295.225997 70.879665 
L 296.243935 71.845096 
L 297.261874 74.11826 
L 299.297751 80.744684 
L 300.31569 84.043316 
L 301.333628 86.645659 
L 302.351567 88.115759 
L 303.369505 88.149263 
L 304.387444 86.637855 
L 305.405383 83.713105 
L 306.423321 79.746719 
L 308.459198 71.027834 
L 309.477137 67.562835 
L 310.495075 65.392042 
L 311.513014 64.769439 
L 312.530953 65.6828 
L 313.548891 67.883951 
L 314.56683 70.961368 
L 316.602707 77.743528 
L 317.620646 80.439461 
L 318.638584 82.08357 
L 319.656523 82.376011 
L 320.674461 81.201646 
L 321.6924 78.672089 
L 322.710338 75.127929 
L 324.746216 67.18729 
L 325.764154 64.014603 
L 326.782093 62.049198 
L 327.800031 61.54908 
L 328.81797 62.520957 
L 329.835909 64.743992 
L 330.853847 67.835034 
L 332.889724 74.714753 
L 333.907663 77.532422 
L 334.925601 79.366111 
L 335.94354 79.92272 
L 336.961479 79.083268 
L 337.979417 76.942868 
L 338.997356 73.814257 
L 341.033233 66.644742 
L 342.051172 63.764266 
L 343.06911 62.004037 
L 344.087049 61.622844 
L 345.104987 62.642986 
L 346.122926 64.868499 
L 347.140864 67.943559 
L 349.176742 74.832387 
L 350.19468 77.71454 
L 351.212619 79.672819 
L 352.230557 80.42166 
L 353.248496 79.839448 
L 354.266435 78.006459 
L 355.284373 75.2095 
L 357.32025 68.643855 
L 358.338189 65.974474 
L 359.356127 64.340149 
L 360.374066 63.999509 
L 361.392005 64.988995 
L 362.409943 67.136149 
L 362.409943 67.136149 
" style="fill:none;stroke:#1f77b4;stroke-linecap:square;stroke-width:1.5;"/>
   </g>
   <g id="line2d_16">
    <path clip-path="url(#pc66ca07f8a)" d="M 58.046307 26.613079 
L 68.225693 26.613079 
L 69.243631 46.494624 
L 70.26157 63.177728 
L 71.279508 73.845271 
L 72.297447 78.854181 
L 73.315386 80.112931 
L 74.333324 80.005943 
L 75.351263 80.418676 
L 76.369201 82.270216 
L 77.38714 85.613114 
L 78.405078 90.045033 
L 80.440956 100.619717 
L 81.458894 106.597872 
L 82.476833 113.386113 
L 83.494771 121.48935 
L 84.51271 131.383827 
L 86.548587 156.072291 
L 87.566526 168.633135 
L 88.584464 178.849243 
L 89.602403 185.04276 
L 90.620341 186.538284 
L 91.63828 183.906294 
L 92.656219 178.677476 
L 93.674157 172.802109 
L 94.692096 168.1229 
L 95.710034 165.973886 
L 96.727973 166.944107 
L 97.745912 170.837293 
L 98.76385 176.84073 
L 101.817666 197.416497 
L 102.835604 203.143193 
L 103.853543 208.061013 
L 104.871482 211.988492 
L 105.88942 214.444074 
L 106.907359 214.756364 
L 107.925297 212.38502 
L 108.943236 207.257845 
L 109.961175 199.936391 
L 111.997052 183.507369 
L 113.01499 177.200017 
L 114.032929 173.594786 
L 115.050867 173.030512 
L 116.068806 175.181716 
L 117.086745 179.22365 
L 119.122622 188.714029 
L 120.14056 192.173675 
L 121.158499 193.777566 
L 122.176438 193.090088 
L 123.194376 189.941146 
L 124.212315 184.42364 
L 125.230253 176.885501 
L 129.302008 141.007368 
L 130.319946 134.973943 
L 131.337885 131.34264 
L 132.355823 130.095261 
L 133.373762 130.854552 
L 134.391701 133.01822 
L 136.427578 138.593984 
L 137.445516 140.33903 
L 138.463455 140.257822 
L 139.481393 137.701982 
L 140.499332 132.409168 
L 141.517271 124.609642 
L 143.553148 104.601796 
L 144.571086 94.582712 
L 145.589025 86.030079 
L 146.606964 79.748312 
L 147.624902 76.101472 
L 148.642841 74.972588 
L 149.660779 75.864635 
L 150.678718 78.087998 
L 152.714595 83.69055 
L 153.732534 85.719269 
L 154.750472 86.348812 
L 155.768411 84.994911 
L 156.786349 81.3014 
L 157.804288 75.290087 
L 158.822227 67.425434 
L 160.858104 49.792948 
L 161.876042 42.236648 
L 162.893981 36.801505 
L 163.911919 33.98917 
L 164.929858 33.807084 
L 165.947797 35.828526 
L 166.965735 39.359462 
L 169.001612 47.820448 
L 170.019551 51.257261 
L 171.03749 53.275634 
L 172.055428 53.364745 
L 173.073367 51.258326 
L 174.091305 47.032087 
L 175.109244 41.137933 
L 177.145121 27.659556 
L 178.16306 22.057605 
L 179.180998 18.373857 
L 180.198937 17.083636 
L 181.216875 18.228287 
L 182.234814 21.457013 
L 183.252753 26.162643 
L 185.28863 37.120918 
L 186.306568 41.926102 
L 187.324507 45.386725 
L 188.342445 46.979912 
L 189.360384 46.430899 
L 190.378323 43.808844 
L 191.396261 39.553551 
L 193.432138 29.337078 
L 194.450077 25.260912 
L 195.468016 22.961515 
L 196.485954 22.879467 
L 197.503893 25.050874 
L 198.521831 29.147767 
L 199.53977 34.602934 
L 202.593586 52.382245 
L 203.611524 56.600888 
L 204.629463 59.057218 
L 205.647401 59.478433 
L 206.66534 57.903461 
L 207.683279 54.716612 
L 209.719156 46.431661 
L 210.737094 43.099921 
L 211.755033 41.352098 
L 212.772971 41.631923 
L 213.79091 44.007134 
L 214.808849 48.197292 
L 215.826787 53.682388 
L 218.880603 71.508685 
L 219.898542 75.823335 
L 220.91648 78.458959 
L 221.934419 79.148823 
L 222.952357 77.910755 
L 223.970296 75.081154 
L 227.024112 64.010218 
L 228.04205 62.102245 
L 229.059989 62.037056 
L 230.077927 63.922881 
L 231.095866 67.537331 
L 232.113805 72.418223 
L 235.16762 88.664053 
L 236.185559 92.614178 
L 237.203497 94.986592 
L 238.221436 95.503379 
L 239.239375 94.149678 
L 240.257313 91.211323 
L 243.311129 79.292353 
L 244.329068 76.803249 
L 245.347006 76.009417 
L 246.364945 77.06108 
L 247.382883 79.790778 
L 248.400822 83.788844 
L 251.454638 97.757521 
L 252.472576 101.150105 
L 253.490515 103.084039 
L 254.508453 103.268825 
L 255.526392 101.655415 
L 256.544331 98.478262 
L 259.598146 85.421885 
L 260.616085 82.300214 
L 261.634023 80.752927 
L 262.651962 80.971492 
L 263.669901 82.84085 
L 264.687839 86.000407 
L 267.741655 97.898433 
L 268.759594 100.809866 
L 269.777532 102.381378 
L 270.795471 102.313435 
L 271.813409 100.530036 
L 272.831348 97.22285 
L 274.867225 88.034795 
L 275.885164 83.526895 
L 276.903102 79.995735 
L 277.921041 77.936376 
L 278.938979 77.572002 
L 279.956918 78.831745 
L 280.974857 81.399082 
L 284.028672 91.924267 
L 285.046611 94.571129 
L 286.064549 95.9891 
L 287.082488 95.873509 
L 288.100427 94.128516 
L 289.118365 90.911802 
L 291.154242 81.888473 
L 292.172181 77.37515 
L 293.19012 73.747752 
L 294.208058 71.501474 
L 295.225997 70.879665 
L 296.243935 71.845096 
L 297.261874 74.11826 
L 299.297751 80.744684 
L 300.31569 84.043316 
L 301.333628 86.645659 
L 302.351567 88.115759 
L 303.369505 88.149263 
L 304.387444 86.637855 
L 305.405383 83.713105 
L 306.423321 79.746719 
L 308.459198 71.027834 
L 309.477137 67.562835 
L 310.495075 65.392042 
L 311.513014 64.769439 
L 312.530953 65.6828 
L 313.548891 67.883951 
L 314.56683 70.961368 
L 316.602707 77.743528 
L 317.620646 80.439461 
L 318.638584 82.08357 
L 319.656523 82.376011 
L 320.674461 81.201646 
L 321.6924 78.672089 
L 322.710338 75.127929 
L 324.746216 67.18729 
L 325.764154 64.014603 
L 326.782093 62.049198 
L 327.800031 61.54908 
L 328.81797 62.520957 
L 329.835909 64.743992 
L 330.853847 67.835034 
L 332.889724 74.714753 
L 333.907663 77.532422 
L 334.925601 79.366111 
L 335.94354 79.92272 
L 336.961479 79.083268 
L 337.979417 76.942868 
L 338.997356 73.814257 
L 341.033233 66.644742 
L 342.051172 63.764266 
L 343.06911 62.004037 
L 344.087049 61.622844 
L 345.104987 62.642986 
L 346.122926 64.868499 
L 347.140864 67.943559 
L 349.176742 74.832387 
L 350.19468 77.71454 
L 351.212619 79.672819 
L 352.230557 80.42166 
L 353.248496 79.839448 
L 354.266435 78.006459 
L 355.284373 75.2095 
L 357.32025 68.643855 
L 358.338189 65.974474 
L 359.356127 64.340149 
L 360.374066 63.999509 
L 361.392005 64.988995 
L 362.409943 67.136149 
L 362.409943 67.136149 
" style="fill:none;stroke:#ff7f0e;stroke-linecap:square;stroke-width:1.5;"/>
   </g>
   <g id="line2d_17">
    <path clip-path="url(#pc66ca07f8a)" d="M 58.046307 26.613079 
L 68.225693 26.613079 
L 69.243631 46.459212 
L 70.26157 63.114762 
L 71.279508 73.794963 
L 72.297447 78.835984 
L 73.315386 80.129206 
L 74.333324 80.045469 
L 75.351263 80.464146 
L 76.369201 82.306132 
L 77.38714 85.631135 
L 78.405078 90.04553 
L 80.440956 100.609978 
L 81.458894 106.596797 
L 82.476833 113.396981 
L 83.494771 121.508313 
L 84.51271 131.40109 
L 86.548587 156.054669 
L 87.566526 168.593497 
L 88.584464 178.795607 
L 89.602403 184.988558 
L 90.620341 186.497003 
L 91.63828 183.88672 
L 92.656219 178.681419 
L 93.674157 172.82481 
L 94.692096 168.155356 
L 95.710034 166.006074 
L 96.727973 166.968008 
L 97.745912 170.848856 
L 98.76385 176.840312 
L 101.817666 197.404152 
L 102.835604 203.131436 
L 103.853543 208.04779 
L 104.871482 211.970692 
L 105.88942 214.419838 
L 106.907359 214.726776 
L 107.925297 212.354303 
L 108.943236 207.232009 
L 109.961175 199.921067 
L 111.997052 183.519455 
L 113.01499 177.222229 
L 114.032929 173.621315 
L 115.050867 173.054809 
L 116.068806 175.198147 
L 117.086745 179.228801 
L 119.122622 188.697387 
L 120.14056 192.150562 
L 121.158499 193.751662 
L 122.176438 193.064315 
L 123.194376 189.917359 
L 124.212315 184.402967 
L 125.230253 176.868897 
L 129.302008 141.017063 
L 130.319946 134.989916 
L 131.337885 131.362531 
L 132.355823 130.115694 
L 133.373762 130.871681 
L 134.391701 133.028479 
L 136.427578 138.584513 
L 137.445516 140.320184 
L 138.463455 140.232261 
L 139.481393 137.673514 
L 140.499332 132.381969 
L 141.517271 124.587488 
L 143.553148 104.596731 
L 144.571086 94.58695 
L 145.589025 86.042399 
L 146.606964 79.766534 
L 147.624902 76.122824 
L 148.642841 74.994089 
L 149.660779 75.883464 
L 150.678718 78.101781 
L 152.714595 83.689581 
L 153.732534 85.710065 
L 154.750472 86.332077 
L 155.768411 84.972547 
L 156.786349 81.276468 
L 157.804288 75.26642 
L 158.822227 67.406936 
L 160.858104 49.79291 
L 161.876042 42.246761 
L 162.893981 36.820083 
L 163.911919 34.013164 
L 164.929858 33.832698 
L 165.947797 35.85196 
L 166.965735 39.377579 
L 169.001612 47.82277 
L 170.019551 51.251203 
L 171.03749 53.262104 
L 172.055428 53.345524 
L 173.073367 51.236041 
L 174.091305 47.010021 
L 175.109244 41.119601 
L 177.145121 27.657177 
L 178.16306 22.065038 
L 179.180998 18.390226 
L 180.198937 17.106555 
L 181.216875 18.2543 
L 182.234814 21.482278 
L 183.252753 26.183644 
L 185.28863 37.126483 
L 186.306568 41.922706 
L 187.324507 45.375019 
L 188.342445 46.96163 
L 189.360384 46.408751 
L 190.378323 43.786247 
L 191.396261 39.534151 
L 193.432138 29.332926 
L 194.450077 25.26646 
L 195.468016 22.976097 
L 196.485954 22.900931 
L 197.503893 25.075984 
L 198.521831 29.172837 
L 199.53977 34.624499 
L 202.593586 52.380666 
L 203.611524 56.590738 
L 204.629463 59.039872 
L 205.647401 59.456347 
L 206.66534 57.879956 
L 207.683279 54.695409 
L 209.719156 46.424694 
L 210.737094 43.102661 
L 211.755033 41.364197 
L 212.772971 41.651463 
L 213.79091 44.031008 
L 214.808849 48.221836 
L 215.826787 53.704068 
L 218.880603 71.508206 
L 219.898542 75.814191 
L 220.91648 78.442264 
L 221.934419 79.126782 
L 222.952357 77.886494 
L 223.970296 75.058322 
L 227.024112 64.009784 
L 228.04205 62.111358 
L 229.059989 62.054152 
L 230.077927 63.945102 
L 231.095866 67.561112 
L 232.113805 72.439976 
L 235.16762 88.664909 
L 236.185559 92.606265 
L 237.203497 94.970763 
L 238.221436 95.481601 
L 239.239375 94.124907 
L 240.257313 91.187143 
L 243.311129 79.288976 
L 244.329068 76.809531 
L 245.347006 76.02415 
L 246.364945 77.081679 
L 247.382883 79.813817 
L 248.400822 83.810729 
L 251.454638 97.760061 
L 252.472576 101.143879 
L 253.490515 103.069617 
L 254.508453 103.247911 
L 255.526392 101.630761 
L 256.544331 98.453356 
L 259.598146 85.416043 
L 260.616085 82.304067 
L 261.634023 80.76562 
L 262.651962 80.990718 
L 263.669901 82.863336 
L 264.687839 86.022572 
L 267.741655 97.902834 
L 268.759594 100.805582 
L 269.777532 102.368729 
L 270.795471 102.29388 
L 271.813409 100.506122 
L 272.831348 97.197939 
L 274.867225 88.018636 
L 275.885164 83.519267 
L 276.903102 79.997713 
L 277.921041 77.947428 
L 278.938979 77.590098 
L 279.956918 78.853788 
L 280.974857 81.421539 
L 284.028672 91.930494 
L 285.046611 94.568807 
L 286.064549 95.978338 
L 287.082488 95.855555 
L 288.100427 94.105728 
L 289.118365 90.887409 
L 291.154242 81.871593 
L 292.172181 77.366374 
L 293.19012 73.74839 
L 294.208058 71.511261 
L 295.225997 70.896821 
L 296.243935 71.866705 
L 297.261874 74.140871 
L 299.297751 80.759713 
L 300.31569 84.051094 
L 301.333628 86.645077 
L 302.351567 88.106755 
L 303.369505 88.132907 
L 304.387444 86.616334 
L 305.405383 83.689512 
L 306.423321 79.724619 
L 308.459198 71.018346 
L 309.477137 67.562493 
L 310.495075 65.400795 
L 311.513014 64.785723 
L 312.530953 65.703878 
L 313.548891 67.906478 
L 314.56683 70.981997 
L 316.602707 77.752465 
L 317.620646 80.440263 
L 318.638584 82.076041 
L 319.656523 82.361073 
L 320.674461 81.181333 
L 321.6924 78.649357 
L 322.710338 75.106247 
L 324.746216 67.177311 
L 325.764154 64.013452 
L 326.782093 62.056992 
L 327.800031 61.564445 
L 328.81797 62.541333 
L 329.835909 64.766159 
L 330.853847 67.855702 
L 332.889724 74.724458 
L 333.907663 77.534247 
L 334.925601 79.359751 
L 335.94354 79.908968 
L 336.961479 79.064018 
L 337.979417 76.920936 
L 338.997356 73.793002 
L 341.033233 66.634333 
L 342.051172 63.76234 
L 343.06911 62.010848 
L 344.087049 61.637193 
L 345.104987 62.662484 
L 346.122926 64.890064 
L 347.140864 67.963976 
L 349.176742 74.842553 
L 350.19468 77.717103 
L 351.212619 79.667383 
L 352.230557 80.408902 
L 353.248496 79.821124 
L 354.266435 77.985245 
L 355.284373 75.188635 
L 357.32025 68.633014 
L 358.338189 65.971757 
L 359.356127 64.345933 
L 360.374066 64.012756 
L 361.392005 65.007487 
L 362.409943 67.156945 
L 362.409943 67.156945 
" style="fill:none;stroke:#2ca02c;stroke-linecap:square;stroke-width:1.5;"/>
   </g>
   <g id="patch_3">
    <path d="M 42.828125 224.64 
L 42.828125 7.2 
" style="fill:none;stroke:#000000;stroke-linecap:square;stroke-linejoin:miter;stroke-width:0.8;"/>
   </g>
   <g id="patch_4">
    <path d="M 377.628125 224.64 
L 377.628125 7.2 
" style="fill:none;stroke:#000000;stroke-linecap:square;stroke-linejoin:miter;stroke-width:0.8;"/>
   </g>
   <g id="patch_5">
    <path d="M 42.828125 224.64 
L 377.628125 224.64 
" style="fill:none;stroke:#000000;stroke-linecap:square;stroke-linejoin:miter;stroke-width:0.8;"/>
   </g>
   <g id="patch_6">
    <path d="M 42.828125 7.2 
L 377.628125 7.2 
" style="fill:none;stroke:#000000;stroke-linecap:square;stroke-linejoin:miter;stroke-width:0.8;"/>
   </g>
  </g>
 </g>
 <defs>
  <clipPath id="pc66ca07f8a">
   <rect height="217.44" width="334.8" x="42.828125" y="7.2"/>
  </clipPath>
 </defs>
</svg>
