<?xml version="1.0" encoding="utf-8" standalone="no"?>
<!DOCTYPE svg PUBLIC "-//W3C//DTD SVG 1.1//EN"
  "http://www.w3.org/Graphics/SVG/1.1/DTD/svg11.dtd">
<!-- Created with matplotlib (https://matplotlib.org/) -->
<svg height="248.518125pt" version="1.1" viewBox="0 0 393.207812 248.518125" width="393.207812pt" xmlns="http://www.w3.org/2000/svg" xmlns:xlink="http://www.w3.org/1999/xlink">
 <metadata>
  <rdf:RDF xmlns:cc="http://creativecommons.org/ns#" xmlns:dc="http://purl.org/dc/elements/1.1/" xmlns:rdf="http://www.w3.org/1999/02/22-rdf-syntax-ns#">
   <cc:Work>
    <dc:type rdf:resource="http://purl.org/dc/dcmitype/StillImage"/>
    <dc:date>2021-04-15T15:28:08.346654</dc:date>
    <dc:format>image/svg+xml</dc:format>
    <dc:creator>
     <cc:Agent>
      <dc:title>Matplotlib v3.3.2, https://matplotlib.org/</dc:title>
     </cc:Agent>
    </dc:creator>
   </cc:Work>
  </rdf:RDF>
 </metadata>
 <defs>
  <style type="text/css">*{stroke-linecap:butt;stroke-linejoin:round;}</style>
 </defs>
 <g id="figure_1">
  <g id="patch_1">
   <path d="M 0 248.518125 
L 393.207812 248.518125 
L 393.207812 0 
L 0 0 
z
" style="fill:none;"/>
  </g>
  <g id="axes_1">
   <g id="patch_2">
    <path d="M 51.207813 224.64 
L 386.007812 224.64 
L 386.007812 7.2 
L 51.207813 7.2 
z
" style="fill:#ffffff;"/>
   </g>
   <g id="matplotlib.axis_1">
    <g id="xtick_1">
     <g id="line2d_1">
      <defs>
       <path d="M 0 0 
L 0 3.5 
" id="mec0b49d9d2" style="stroke:#000000;stroke-width:0.8;"/>
      </defs>
      <g>
       <use style="stroke:#000000;stroke-width:0.8;" x="66.425994" xlink:href="#mec0b49d9d2" y="224.64"/>
      </g>
     </g>
     <g id="text_1">
      <!-- 0 -->
      <g transform="translate(63.244744 239.238438)scale(0.1 -0.1)">
       <defs>
        <path d="M 31.78125 66.40625 
Q 24.171875 66.40625 20.328125 58.90625 
Q 16.5 51.421875 16.5 36.375 
Q 16.5 21.390625 20.328125 13.890625 
Q 24.171875 6.390625 31.78125 6.390625 
Q 39.453125 6.390625 43.28125 13.890625 
Q 47.125 21.390625 47.125 36.375 
Q 47.125 51.421875 43.28125 58.90625 
Q 39.453125 66.40625 31.78125 66.40625 
z
M 31.78125 74.21875 
Q 44.046875 74.21875 50.515625 64.515625 
Q 56.984375 54.828125 56.984375 36.375 
Q 56.984375 17.96875 50.515625 8.265625 
Q 44.046875 -1.421875 31.78125 -1.421875 
Q 19.53125 -1.421875 13.0625 8.265625 
Q 6.59375 17.96875 6.59375 36.375 
Q 6.59375 54.828125 13.0625 64.515625 
Q 19.53125 74.21875 31.78125 74.21875 
z
" id="DejaVuSans-48"/>
       </defs>
       <use xlink:href="#DejaVuSans-48"/>
      </g>
     </g>
    </g>
    <g id="xtick_2">
     <g id="line2d_2">
      <g>
       <use style="stroke:#000000;stroke-width:0.8;" x="107.007813" xlink:href="#mec0b49d9d2" y="224.64"/>
      </g>
     </g>
     <g id="text_2">
      <!-- 2 -->
      <g transform="translate(103.826563 239.238438)scale(0.1 -0.1)">
       <defs>
        <path d="M 19.1875 8.296875 
L 53.609375 8.296875 
L 53.609375 0 
L 7.328125 0 
L 7.328125 8.296875 
Q 12.9375 14.109375 22.625 23.890625 
Q 32.328125 33.6875 34.8125 36.53125 
Q 39.546875 41.84375 41.421875 45.53125 
Q 43.3125 49.21875 43.3125 52.78125 
Q 43.3125 58.59375 39.234375 62.25 
Q 35.15625 65.921875 28.609375 65.921875 
Q 23.96875 65.921875 18.8125 64.3125 
Q 13.671875 62.703125 7.8125 59.421875 
L 7.8125 69.390625 
Q 13.765625 71.78125 18.9375 73 
Q 24.125 74.21875 28.421875 74.21875 
Q 39.75 74.21875 46.484375 68.546875 
Q 53.21875 62.890625 53.21875 53.421875 
Q 53.21875 48.921875 51.53125 44.890625 
Q 49.859375 40.875 45.40625 35.40625 
Q 44.1875 33.984375 37.640625 27.21875 
Q 31.109375 20.453125 19.1875 8.296875 
z
" id="DejaVuSans-50"/>
       </defs>
       <use xlink:href="#DejaVuSans-50"/>
      </g>
     </g>
    </g>
    <g id="xtick_3">
     <g id="line2d_3">
      <g>
       <use style="stroke:#000000;stroke-width:0.8;" x="147.589631" xlink:href="#mec0b49d9d2" y="224.64"/>
      </g>
     </g>
     <g id="text_3">
      <!-- 4 -->
      <g transform="translate(144.408381 239.238438)scale(0.1 -0.1)">
       <defs>
        <path d="M 37.796875 64.3125 
L 12.890625 25.390625 
L 37.796875 25.390625 
z
M 35.203125 72.90625 
L 47.609375 72.90625 
L 47.609375 25.390625 
L 58.015625 25.390625 
L 58.015625 17.1875 
L 47.609375 17.1875 
L 47.609375 0 
L 37.796875 0 
L 37.796875 17.1875 
L 4.890625 17.1875 
L 4.890625 26.703125 
z
" id="DejaVuSans-52"/>
       </defs>
       <use xlink:href="#DejaVuSans-52"/>
      </g>
     </g>
    </g>
    <g id="xtick_4">
     <g id="line2d_4">
      <g>
       <use style="stroke:#000000;stroke-width:0.8;" x="188.171449" xlink:href="#mec0b49d9d2" y="224.64"/>
      </g>
     </g>
     <g id="text_4">
      <!-- 6 -->
      <g transform="translate(184.990199 239.238438)scale(0.1 -0.1)">
       <defs>
        <path d="M 33.015625 40.375 
Q 26.375 40.375 22.484375 35.828125 
Q 18.609375 31.296875 18.609375 23.390625 
Q 18.609375 15.53125 22.484375 10.953125 
Q 26.375 6.390625 33.015625 6.390625 
Q 39.65625 6.390625 43.53125 10.953125 
Q 47.40625 15.53125 47.40625 23.390625 
Q 47.40625 31.296875 43.53125 35.828125 
Q 39.65625 40.375 33.015625 40.375 
z
M 52.59375 71.296875 
L 52.59375 62.3125 
Q 48.875 64.0625 45.09375 64.984375 
Q 41.3125 65.921875 37.59375 65.921875 
Q 27.828125 65.921875 22.671875 59.328125 
Q 17.53125 52.734375 16.796875 39.40625 
Q 19.671875 43.65625 24.015625 45.921875 
Q 28.375 48.1875 33.59375 48.1875 
Q 44.578125 48.1875 50.953125 41.515625 
Q 57.328125 34.859375 57.328125 23.390625 
Q 57.328125 12.15625 50.6875 5.359375 
Q 44.046875 -1.421875 33.015625 -1.421875 
Q 20.359375 -1.421875 13.671875 8.265625 
Q 6.984375 17.96875 6.984375 36.375 
Q 6.984375 53.65625 15.1875 63.9375 
Q 23.390625 74.21875 37.203125 74.21875 
Q 40.921875 74.21875 44.703125 73.484375 
Q 48.484375 72.75 52.59375 71.296875 
z
" id="DejaVuSans-54"/>
       </defs>
       <use xlink:href="#DejaVuSans-54"/>
      </g>
     </g>
    </g>
    <g id="xtick_5">
     <g id="line2d_5">
      <g>
       <use style="stroke:#000000;stroke-width:0.8;" x="228.753267" xlink:href="#mec0b49d9d2" y="224.64"/>
      </g>
     </g>
     <g id="text_5">
      <!-- 8 -->
      <g transform="translate(225.572017 239.238438)scale(0.1 -0.1)">
       <defs>
        <path d="M 31.78125 34.625 
Q 24.75 34.625 20.71875 30.859375 
Q 16.703125 27.09375 16.703125 20.515625 
Q 16.703125 13.921875 20.71875 10.15625 
Q 24.75 6.390625 31.78125 6.390625 
Q 38.8125 6.390625 42.859375 10.171875 
Q 46.921875 13.96875 46.921875 20.515625 
Q 46.921875 27.09375 42.890625 30.859375 
Q 38.875 34.625 31.78125 34.625 
z
M 21.921875 38.8125 
Q 15.578125 40.375 12.03125 44.71875 
Q 8.5 49.078125 8.5 55.328125 
Q 8.5 64.0625 14.71875 69.140625 
Q 20.953125 74.21875 31.78125 74.21875 
Q 42.671875 74.21875 48.875 69.140625 
Q 55.078125 64.0625 55.078125 55.328125 
Q 55.078125 49.078125 51.53125 44.71875 
Q 48 40.375 41.703125 38.8125 
Q 48.828125 37.15625 52.796875 32.3125 
Q 56.78125 27.484375 56.78125 20.515625 
Q 56.78125 9.90625 50.3125 4.234375 
Q 43.84375 -1.421875 31.78125 -1.421875 
Q 19.734375 -1.421875 13.25 4.234375 
Q 6.78125 9.90625 6.78125 20.515625 
Q 6.78125 27.484375 10.78125 32.3125 
Q 14.796875 37.15625 21.921875 38.8125 
z
M 18.3125 54.390625 
Q 18.3125 48.734375 21.84375 45.5625 
Q 25.390625 42.390625 31.78125 42.390625 
Q 38.140625 42.390625 41.71875 45.5625 
Q 45.3125 48.734375 45.3125 54.390625 
Q 45.3125 60.0625 41.71875 63.234375 
Q 38.140625 66.40625 31.78125 66.40625 
Q 25.390625 66.40625 21.84375 63.234375 
Q 18.3125 60.0625 18.3125 54.390625 
z
" id="DejaVuSans-56"/>
       </defs>
       <use xlink:href="#DejaVuSans-56"/>
      </g>
     </g>
    </g>
    <g id="xtick_6">
     <g id="line2d_6">
      <g>
       <use style="stroke:#000000;stroke-width:0.8;" x="269.335085" xlink:href="#mec0b49d9d2" y="224.64"/>
      </g>
     </g>
     <g id="text_6">
      <!-- 10 -->
      <g transform="translate(262.972585 239.238438)scale(0.1 -0.1)">
       <defs>
        <path d="M 12.40625 8.296875 
L 28.515625 8.296875 
L 28.515625 63.921875 
L 10.984375 60.40625 
L 10.984375 69.390625 
L 28.421875 72.90625 
L 38.28125 72.90625 
L 38.28125 8.296875 
L 54.390625 8.296875 
L 54.390625 0 
L 12.40625 0 
z
" id="DejaVuSans-49"/>
       </defs>
       <use xlink:href="#DejaVuSans-49"/>
       <use x="63.623047" xlink:href="#DejaVuSans-48"/>
      </g>
     </g>
    </g>
    <g id="xtick_7">
     <g id="line2d_7">
      <g>
       <use style="stroke:#000000;stroke-width:0.8;" x="309.916903" xlink:href="#mec0b49d9d2" y="224.64"/>
      </g>
     </g>
     <g id="text_7">
      <!-- 12 -->
      <g transform="translate(303.554403 239.238438)scale(0.1 -0.1)">
       <use xlink:href="#DejaVuSans-49"/>
       <use x="63.623047" xlink:href="#DejaVuSans-50"/>
      </g>
     </g>
    </g>
    <g id="xtick_8">
     <g id="line2d_8">
      <g>
       <use style="stroke:#000000;stroke-width:0.8;" x="350.498722" xlink:href="#mec0b49d9d2" y="224.64"/>
      </g>
     </g>
     <g id="text_8">
      <!-- 14 -->
      <g transform="translate(344.136222 239.238438)scale(0.1 -0.1)">
       <use xlink:href="#DejaVuSans-49"/>
       <use x="63.623047" xlink:href="#DejaVuSans-52"/>
      </g>
     </g>
    </g>
   </g>
   <g id="matplotlib.axis_2">
    <g id="ytick_1">
     <g id="line2d_9">
      <defs>
       <path d="M 0 0 
L -3.5 0 
" id="meba213fd0e" style="stroke:#000000;stroke-width:0.8;"/>
      </defs>
      <g>
       <use style="stroke:#000000;stroke-width:0.8;" x="51.207813" xlink:href="#meba213fd0e" y="209.274964"/>
      </g>
     </g>
     <g id="text_9">
      <!-- −0.075 -->
      <g transform="translate(7.2 213.074183)scale(0.1 -0.1)">
       <defs>
        <path d="M 10.59375 35.5 
L 73.1875 35.5 
L 73.1875 27.203125 
L 10.59375 27.203125 
z
" id="DejaVuSans-8722"/>
        <path d="M 10.6875 12.40625 
L 21 12.40625 
L 21 0 
L 10.6875 0 
z
" id="DejaVuSans-46"/>
        <path d="M 8.203125 72.90625 
L 55.078125 72.90625 
L 55.078125 68.703125 
L 28.609375 0 
L 18.3125 0 
L 43.21875 64.59375 
L 8.203125 64.59375 
z
" id="DejaVuSans-55"/>
        <path d="M 10.796875 72.90625 
L 49.515625 72.90625 
L 49.515625 64.59375 
L 19.828125 64.59375 
L 19.828125 46.734375 
Q 21.96875 47.46875 24.109375 47.828125 
Q 26.265625 48.1875 28.421875 48.1875 
Q 40.625 48.1875 47.75 41.5 
Q 54.890625 34.8125 54.890625 23.390625 
Q 54.890625 11.625 47.5625 5.09375 
Q 40.234375 -1.421875 26.90625 -1.421875 
Q 22.3125 -1.421875 17.546875 -0.640625 
Q 12.796875 0.140625 7.71875 1.703125 
L 7.71875 11.625 
Q 12.109375 9.234375 16.796875 8.0625 
Q 21.484375 6.890625 26.703125 6.890625 
Q 35.15625 6.890625 40.078125 11.328125 
Q 45.015625 15.765625 45.015625 23.390625 
Q 45.015625 31 40.078125 35.4375 
Q 35.15625 39.890625 26.703125 39.890625 
Q 22.75 39.890625 18.8125 39.015625 
Q 14.890625 38.140625 10.796875 36.28125 
z
" id="DejaVuSans-53"/>
       </defs>
       <use xlink:href="#DejaVuSans-8722"/>
       <use x="83.789062" xlink:href="#DejaVuSans-48"/>
       <use x="147.412109" xlink:href="#DejaVuSans-46"/>
       <use x="179.199219" xlink:href="#DejaVuSans-48"/>
       <use x="242.822266" xlink:href="#DejaVuSans-55"/>
       <use x="306.445312" xlink:href="#DejaVuSans-53"/>
      </g>
     </g>
    </g>
    <g id="ytick_2">
     <g id="line2d_10">
      <g>
       <use style="stroke:#000000;stroke-width:0.8;" x="51.207813" xlink:href="#meba213fd0e" y="182.479868"/>
      </g>
     </g>
     <g id="text_10">
      <!-- −0.050 -->
      <g transform="translate(7.2 186.279087)scale(0.1 -0.1)">
       <use xlink:href="#DejaVuSans-8722"/>
       <use x="83.789062" xlink:href="#DejaVuSans-48"/>
       <use x="147.412109" xlink:href="#DejaVuSans-46"/>
       <use x="179.199219" xlink:href="#DejaVuSans-48"/>
       <use x="242.822266" xlink:href="#DejaVuSans-53"/>
       <use x="306.445312" xlink:href="#DejaVuSans-48"/>
      </g>
     </g>
    </g>
    <g id="ytick_3">
     <g id="line2d_11">
      <g>
       <use style="stroke:#000000;stroke-width:0.8;" x="51.207813" xlink:href="#meba213fd0e" y="155.684772"/>
      </g>
     </g>
     <g id="text_11">
      <!-- −0.025 -->
      <g transform="translate(7.2 159.483991)scale(0.1 -0.1)">
       <use xlink:href="#DejaVuSans-8722"/>
       <use x="83.789062" xlink:href="#DejaVuSans-48"/>
       <use x="147.412109" xlink:href="#DejaVuSans-46"/>
       <use x="179.199219" xlink:href="#DejaVuSans-48"/>
       <use x="242.822266" xlink:href="#DejaVuSans-50"/>
       <use x="306.445312" xlink:href="#DejaVuSans-53"/>
      </g>
     </g>
    </g>
    <g id="ytick_4">
     <g id="line2d_12">
      <g>
       <use style="stroke:#000000;stroke-width:0.8;" x="51.207813" xlink:href="#meba213fd0e" y="128.889676"/>
      </g>
     </g>
     <g id="text_12">
      <!-- 0.000 -->
      <g transform="translate(15.579688 132.688895)scale(0.1 -0.1)">
       <use xlink:href="#DejaVuSans-48"/>
       <use x="63.623047" xlink:href="#DejaVuSans-46"/>
       <use x="95.410156" xlink:href="#DejaVuSans-48"/>
       <use x="159.033203" xlink:href="#DejaVuSans-48"/>
       <use x="222.65625" xlink:href="#DejaVuSans-48"/>
      </g>
     </g>
    </g>
    <g id="ytick_5">
     <g id="line2d_13">
      <g>
       <use style="stroke:#000000;stroke-width:0.8;" x="51.207813" xlink:href="#meba213fd0e" y="102.094581"/>
      </g>
     </g>
     <g id="text_13">
      <!-- 0.025 -->
      <g transform="translate(15.579688 105.893799)scale(0.1 -0.1)">
       <use xlink:href="#DejaVuSans-48"/>
       <use x="63.623047" xlink:href="#DejaVuSans-46"/>
       <use x="95.410156" xlink:href="#DejaVuSans-48"/>
       <use x="159.033203" xlink:href="#DejaVuSans-50"/>
       <use x="222.65625" xlink:href="#DejaVuSans-53"/>
      </g>
     </g>
    </g>
    <g id="ytick_6">
     <g id="line2d_14">
      <g>
       <use style="stroke:#000000;stroke-width:0.8;" x="51.207813" xlink:href="#meba213fd0e" y="75.299485"/>
      </g>
     </g>
     <g id="text_14">
      <!-- 0.050 -->
      <g transform="translate(15.579688 79.098704)scale(0.1 -0.1)">
       <use xlink:href="#DejaVuSans-48"/>
       <use x="63.623047" xlink:href="#DejaVuSans-46"/>
       <use x="95.410156" xlink:href="#DejaVuSans-48"/>
       <use x="159.033203" xlink:href="#DejaVuSans-53"/>
       <use x="222.65625" xlink:href="#DejaVuSans-48"/>
      </g>
     </g>
    </g>
    <g id="ytick_7">
     <g id="line2d_15">
      <g>
       <use style="stroke:#000000;stroke-width:0.8;" x="51.207813" xlink:href="#meba213fd0e" y="48.504389"/>
      </g>
     </g>
     <g id="text_15">
      <!-- 0.075 -->
      <g transform="translate(15.579688 52.303608)scale(0.1 -0.1)">
       <use xlink:href="#DejaVuSans-48"/>
       <use x="63.623047" xlink:href="#DejaVuSans-46"/>
       <use x="95.410156" xlink:href="#DejaVuSans-48"/>
       <use x="159.033203" xlink:href="#DejaVuSans-55"/>
       <use x="222.65625" xlink:href="#DejaVuSans-53"/>
      </g>
     </g>
    </g>
    <g id="ytick_8">
     <g id="line2d_16">
      <g>
       <use style="stroke:#000000;stroke-width:0.8;" x="51.207813" xlink:href="#meba213fd0e" y="21.709293"/>
      </g>
     </g>
     <g id="text_16">
      <!-- 0.100 -->
      <g transform="translate(15.579688 25.508512)scale(0.1 -0.1)">
       <use xlink:href="#DejaVuSans-48"/>
       <use x="63.623047" xlink:href="#DejaVuSans-46"/>
       <use x="95.410156" xlink:href="#DejaVuSans-49"/>
       <use x="159.033203" xlink:href="#DejaVuSans-48"/>
       <use x="222.65625" xlink:href="#DejaVuSans-48"/>
      </g>
     </g>
    </g>
   </g>
   <g id="line2d_17">
    <path clip-path="url(#pb73a8ab0e9)" d="M 66.425994 128.889676 
L 86.716903 128.889676 
L 86.919813 118.686687 
L 87.52854 66.299101 
L 87.934358 44.728389 
L 88.340176 32.973194 
L 88.745994 28.296321 
L 88.948903 27.85706 
L 89.151813 28.390459 
L 89.557631 31.789565 
L 89.963449 37.644092 
L 90.572176 49.896311 
L 91.586722 76.535373 
L 95.239085 180.662273 
L 96.050722 196.442712 
L 96.659449 205.218219 
L 97.268176 211.180706 
L 97.673994 213.560138 
L 98.079813 214.669799 
L 98.282722 214.756364 
L 98.485631 214.537299 
L 98.891449 213.208563 
L 99.297267 210.746502 
L 99.905994 205.10359 
L 100.717631 194.453428 
L 101.732176 177.405558 
L 105.587449 107.840909 
L 106.399085 97.998623 
L 107.007813 92.529965 
L 107.61654 88.807314 
L 108.022358 87.310922 
L 108.428176 86.595504 
L 108.631085 86.524972 
L 108.833994 86.641434 
L 109.239813 87.41791 
L 109.645631 88.883713 
L 110.254358 92.261561 
L 111.065994 98.636151 
L 112.08054 108.781431 
L 115.327085 143.187977 
L 116.138722 149.116767 
L 116.747449 152.29485 
L 117.356176 154.271862 
L 117.761994 154.895426 
L 117.964903 154.996778 
L 118.167813 154.958295 
L 118.573631 154.466671 
L 118.979449 153.435903 
L 119.588176 150.933824 
L 120.196903 147.390034 
L 121.00854 141.31061 
L 122.225994 130.205517 
L 124.660903 107.20385 
L 125.675449 99.833977 
L 126.487085 95.661032 
L 127.095813 93.706377 
L 127.501631 93.000364 
L 127.907449 92.783504 
L 128.110358 92.859249 
L 128.516176 93.376544 
L 128.921994 94.372928 
L 129.530722 96.727995 
L 130.139449 100.039611 
L 130.951085 105.745101 
L 132.16854 116.367493 
L 135.820903 150.297892 
L 136.835449 156.964231 
L 137.647085 160.734815 
L 138.255813 162.563886 
L 138.661631 163.294209 
L 139.067449 163.633341 
L 139.473267 163.587182 
L 139.879085 163.166487 
L 140.284903 162.386584 
L 140.893631 160.587054 
L 141.705267 157.143303 
L 142.719813 151.497388 
L 144.140176 142.047278 
L 146.575085 125.629866 
L 147.79254 118.998857 
L 148.807085 114.814199 
L 149.618722 112.452995 
L 150.227449 111.269128 
L 150.836176 110.574676 
L 151.241994 110.370378 
L 151.647813 110.360068 
L 152.053631 110.530162 
L 152.662358 111.089296 
L 153.271085 111.960738 
L 154.082722 113.497737 
L 155.503085 116.776218 
L 157.532176 121.409672 
L 158.546722 123.224975 
L 159.358358 124.323317 
L 160.169994 125.09024 
L 160.981631 125.544683 
L 161.793267 125.733943 
L 162.807813 125.705895 
L 165.445631 125.458166 
L 166.257267 125.678058 
L 167.068903 126.161248 
L 167.88054 126.947594 
L 168.692176 128.05198 
L 169.706722 129.860245 
L 170.924176 132.548569 
L 175.185267 142.554763 
L 175.996903 143.783004 
L 176.80854 144.585109 
L 177.417267 144.872559 
L 178.025994 144.872587 
L 178.634722 144.576702 
L 179.243449 143.983903 
L 179.852176 143.100665 
L 180.663813 141.495911 
L 181.678358 138.878849 
L 182.895813 135.031946 
L 185.127813 126.979246 
L 186.953994 120.669858 
L 188.171449 117.175855 
L 189.185994 114.907081 
L 189.997631 113.581184 
L 190.809267 112.71976 
L 191.417994 112.383967 
L 192.026722 112.311199 
L 192.635449 112.493196 
L 193.244176 112.916992 
L 194.055813 113.828115 
L 194.867449 115.088505 
L 195.881994 117.066398 
L 197.302358 120.364934 
L 202.375085 132.677541 
L 203.795449 135.321032 
L 205.012903 137.145489 
L 206.230358 138.548869 
L 207.244903 139.400081 
L 208.259449 139.969834 
L 209.273994 140.266651 
L 210.28854 140.298021 
L 211.303085 140.069587 
L 212.317631 139.585318 
L 213.332176 138.848492 
L 214.549631 137.637365 
L 215.767085 136.0834 
L 217.187449 133.873666 
L 218.810722 130.9171 
L 221.854358 124.762012 
L 223.883449 120.913355 
L 225.303813 118.712123 
L 226.318358 117.512871 
L 227.129994 116.823631 
L 227.941631 116.400907 
L 228.753267 116.262025 
L 229.564903 116.416775 
L 230.37654 116.866837 
L 231.188176 117.60537 
L 232.202722 118.910276 
L 233.217267 120.59437 
L 234.637631 123.46329 
L 236.666722 128.181073 
L 239.30454 134.288314 
L 240.724903 137.063809 
L 241.942358 138.959524 
L 242.956903 140.130936 
L 243.76854 140.777002 
L 244.580176 141.154902 
L 245.391813 141.263148 
L 246.203449 141.106659 
L 247.015085 140.696226 
L 247.826722 140.047861 
L 248.841267 138.93444 
L 250.058722 137.218117 
L 251.479085 134.812433 
L 253.711085 130.533795 
L 256.754722 124.740729 
L 258.377994 122.12317 
L 259.595449 120.524003 
L 260.812903 119.306445 
L 261.827449 118.618737 
L 262.639085 118.297661 
L 263.450722 118.187806 
L 264.262358 118.292527 
L 265.073994 118.611508 
L 265.885631 119.140603 
L 266.900176 120.084509 
L 268.117631 121.597318 
L 269.537994 123.806112 
L 271.364176 127.142317 
L 275.625267 135.180943 
L 277.045631 137.309134 
L 278.263085 138.710122 
L 279.277631 139.524411 
L 280.089267 139.923897 
L 280.900903 140.090205 
L 281.71254 140.020638 
L 282.524176 139.717993 
L 283.335813 139.190421 
L 284.350358 138.235278 
L 285.567813 136.704131 
L 286.988176 134.490162 
L 289.017267 130.823925 
L 292.466722 124.528215 
L 293.887085 122.368935 
L 295.10454 120.877141 
L 296.119085 119.937253 
L 297.133631 119.302537 
L 297.945267 119.026589 
L 298.756903 118.961682 
L 299.56854 119.107966 
L 300.380176 119.461431 
L 301.394722 120.181938 
L 302.409267 121.188852 
L 303.626722 122.72785 
L 305.047085 124.886449 
L 307.279085 128.744697 
L 310.119813 133.627669 
L 311.743085 135.967159 
L 312.96054 137.352761 
L 313.975085 138.21314 
L 314.989631 138.776977 
L 315.801267 139.002955 
L 316.612903 139.024521 
L 317.42454 138.8423 
L 318.236176 138.461228 
L 319.250722 137.719507 
L 320.265267 136.70783 
L 321.482722 135.187027 
L 323.105994 132.762218 
L 326.555449 127.007049 
L 328.381631 124.203784 
L 329.801994 122.389487 
L 331.019449 121.184446 
L 332.033994 120.469556 
L 333.04854 120.041902 
L 333.860176 119.915764 
L 334.671813 119.984419 
L 335.483449 120.246208 
L 336.497994 120.836044 
L 337.51254 121.698957 
L 338.729994 123.053993 
L 340.150358 124.992166 
L 342.179449 128.183843 
L 345.628903 133.637704 
L 347.049267 135.489241 
L 348.266722 136.750727 
L 349.281267 137.527538 
L 350.295813 138.029149 
L 351.107449 138.22246 
L 351.919085 138.22769 
L 352.730722 138.046165 
L 353.745267 137.565035 
L 354.759813 136.819162 
L 355.977267 135.612983 
L 357.397631 133.854191 
L 359.426722 130.908668 
L 363.281994 125.187946 
L 364.702358 123.455215 
L 365.919813 122.267628 
L 366.934358 121.52896 
L 367.948903 121.043103 
L 368.963449 120.824928 
L 369.977994 120.880943 
L 370.789631 121.122034 
L 370.789631 121.122034 
" style="fill:none;stroke:#1f77b4;stroke-linecap:square;stroke-width:1.5;"/>
   </g>
   <g id="line2d_18">
    <path clip-path="url(#pb73a8ab0e9)" d="M 66.425994 128.889676 
L 86.716903 128.889676 
L 86.919813 116.76259 
L 87.52854 57.550324 
L 87.934358 37.079835 
L 88.340176 27.818102 
L 88.745994 24.063073 
L 89.354722 21.414357 
L 90.166358 18.949745 
L 90.775085 17.865406 
L 91.383813 17.320702 
L 91.99254 17.10075 
L 92.601267 17.126002 
L 93.412903 17.459356 
L 97.471085 19.737125 
L 98.891449 20.088463 
L 101.123449 20.355603 
L 103.15254 20.417298 
L 104.775813 20.238663 
L 106.399085 19.812695 
L 109.84854 18.776998 
L 111.268903 18.656242 
L 112.689267 18.787895 
L 114.718358 19.25677 
L 117.559085 19.89428 
L 119.385267 20.075889 
L 121.414358 20.051195 
L 123.443449 19.796627 
L 125.47254 19.310786 
L 130.139449 18.045129 
L 131.559813 17.935985 
L 133.183085 18.051213 
L 135.212176 18.464078 
L 140.487813 19.686562 
L 142.922722 19.973296 
L 145.357631 20.039724 
L 147.995449 19.888678 
L 157.329267 19.137201 
L 170.518358 18.738615 
L 173.561994 18.974819 
L 183.098722 19.913835 
L 185.939449 19.858321 
L 189.388903 19.547701 
L 196.89654 18.769745 
L 200.345994 18.692708 
L 204.404176 18.829883 
L 210.897267 19.30296 
L 217.390358 19.721865 
L 221.245631 19.735849 
L 225.100903 19.508325 
L 235.652176 18.70622 
L 239.30454 18.7907 
L 244.377267 19.168624 
L 251.276176 19.651313 
L 255.334358 19.701485 
L 259.39254 19.526441 
L 272.175813 18.769416 
L 276.233994 18.914261 
L 290.437631 19.670926 
L 294.698722 19.500262 
L 307.076176 18.810733 
L 311.337267 18.93655 
L 326.149631 19.624686 
L 330.613631 19.439786 
L 341.773631 18.846907 
L 346.034722 18.935023 
L 353.13654 19.35745 
L 358.817994 19.589132 
L 363.281994 19.541805 
L 368.963449 19.228049 
L 370.789631 19.111161 
L 370.789631 19.111161 
" style="fill:none;stroke:#ff7f0e;stroke-linecap:square;stroke-width:1.5;"/>
   </g>
   <g id="patch_3">
    <path d="M 51.207813 224.64 
L 51.207813 7.2 
" style="fill:none;stroke:#000000;stroke-linecap:square;stroke-linejoin:miter;stroke-width:0.8;"/>
   </g>
   <g id="patch_4">
    <path d="M 386.007812 224.64 
L 386.007812 7.2 
" style="fill:none;stroke:#000000;stroke-linecap:square;stroke-linejoin:miter;stroke-width:0.8;"/>
   </g>
   <g id="patch_5">
    <path d="M 51.207813 224.64 
L 386.007812 224.64 
" style="fill:none;stroke:#000000;stroke-linecap:square;stroke-linejoin:miter;stroke-width:0.8;"/>
   </g>
   <g id="patch_6">
    <path d="M 51.207813 7.2 
L 386.007812 7.2 
" style="fill:none;stroke:#000000;stroke-linecap:square;stroke-linejoin:miter;stroke-width:0.8;"/>
   </g>
   <g id="legend_1">
    <g id="patch_7">
     <path d="M 318.14375 219.64 
L 379.007812 219.64 
Q 381.007812 219.64 381.007812 217.64 
L 381.007812 188.7275 
Q 381.007812 186.7275 379.007812 186.7275 
L 318.14375 186.7275 
Q 316.14375 186.7275 316.14375 188.7275 
L 316.14375 217.64 
Q 316.14375 219.64 318.14375 219.64 
z
" style="fill:#ffffff;opacity:0.8;stroke:#cccccc;stroke-linejoin:miter;"/>
    </g>
    <g id="line2d_19">
     <path d="M 320.14375 194.825938 
L 340.14375 194.825938 
" style="fill:none;stroke:#1f77b4;stroke-linecap:square;stroke-width:1.5;"/>
    </g>
    <g id="line2d_20"/>
    <g id="text_17">
     <!-- p_e_1 -->
     <g transform="translate(348.14375 198.325938)scale(0.1 -0.1)">
      <defs>
       <path d="M 18.109375 8.203125 
L 18.109375 -20.796875 
L 9.078125 -20.796875 
L 9.078125 54.6875 
L 18.109375 54.6875 
L 18.109375 46.390625 
Q 20.953125 51.265625 25.265625 53.625 
Q 29.59375 56 35.59375 56 
Q 45.5625 56 51.78125 48.09375 
Q 58.015625 40.1875 58.015625 27.296875 
Q 58.015625 14.40625 51.78125 6.484375 
Q 45.5625 -1.421875 35.59375 -1.421875 
Q 29.59375 -1.421875 25.265625 0.953125 
Q 20.953125 3.328125 18.109375 8.203125 
z
M 48.6875 27.296875 
Q 48.6875 37.203125 44.609375 42.84375 
Q 40.53125 48.484375 33.40625 48.484375 
Q 26.265625 48.484375 22.1875 42.84375 
Q 18.109375 37.203125 18.109375 27.296875 
Q 18.109375 17.390625 22.1875 11.75 
Q 26.265625 6.109375 33.40625 6.109375 
Q 40.53125 6.109375 44.609375 11.75 
Q 48.6875 17.390625 48.6875 27.296875 
z
" id="DejaVuSans-112"/>
       <path d="M 50.984375 -16.609375 
L 50.984375 -23.578125 
L -0.984375 -23.578125 
L -0.984375 -16.609375 
z
" id="DejaVuSans-95"/>
       <path d="M 56.203125 29.59375 
L 56.203125 25.203125 
L 14.890625 25.203125 
Q 15.484375 15.921875 20.484375 11.0625 
Q 25.484375 6.203125 34.421875 6.203125 
Q 39.59375 6.203125 44.453125 7.46875 
Q 49.3125 8.734375 54.109375 11.28125 
L 54.109375 2.78125 
Q 49.265625 0.734375 44.1875 -0.34375 
Q 39.109375 -1.421875 33.890625 -1.421875 
Q 20.796875 -1.421875 13.15625 6.1875 
Q 5.515625 13.8125 5.515625 26.8125 
Q 5.515625 40.234375 12.765625 48.109375 
Q 20.015625 56 32.328125 56 
Q 43.359375 56 49.78125 48.890625 
Q 56.203125 41.796875 56.203125 29.59375 
z
M 47.21875 32.234375 
Q 47.125 39.59375 43.09375 43.984375 
Q 39.0625 48.390625 32.421875 48.390625 
Q 24.90625 48.390625 20.390625 44.140625 
Q 15.875 39.890625 15.1875 32.171875 
z
" id="DejaVuSans-101"/>
      </defs>
      <use xlink:href="#DejaVuSans-112"/>
      <use x="63.476562" xlink:href="#DejaVuSans-95"/>
      <use x="113.476562" xlink:href="#DejaVuSans-101"/>
      <use x="175" xlink:href="#DejaVuSans-95"/>
      <use x="225" xlink:href="#DejaVuSans-49"/>
     </g>
    </g>
    <g id="line2d_21">
     <path d="M 320.14375 209.782187 
L 340.14375 209.782187 
" style="fill:none;stroke:#ff7f0e;stroke-linecap:square;stroke-width:1.5;"/>
    </g>
    <g id="line2d_22"/>
    <g id="text_18">
     <!-- V_1 -->
     <g transform="translate(348.14375 213.282187)scale(0.1 -0.1)">
      <defs>
       <path d="M 28.609375 0 
L 0.78125 72.90625 
L 11.078125 72.90625 
L 34.1875 11.53125 
L 57.328125 72.90625 
L 67.578125 72.90625 
L 39.796875 0 
z
" id="DejaVuSans-86"/>
      </defs>
      <use xlink:href="#DejaVuSans-86"/>
      <use x="68.408203" xlink:href="#DejaVuSans-95"/>
      <use x="118.408203" xlink:href="#DejaVuSans-49"/>
     </g>
    </g>
   </g>
  </g>
 </g>
 <defs>
  <clipPath id="pb73a8ab0e9">
   <rect height="217.44" width="334.8" x="51.207813" y="7.2"/>
  </clipPath>
 </defs>
</svg>
