<?xml version="1.0" encoding="utf-8" standalone="no"?>
<!DOCTYPE svg PUBLIC "-//W3C//DTD SVG 1.1//EN"
  "http://www.w3.org/Graphics/SVG/1.1/DTD/svg11.dtd">
<svg xmlns:xlink="http://www.w3.org/1999/xlink" width="421.890312pt" height="307.788562pt" viewBox="0 0 421.890312 307.788562" xmlns="http://www.w3.org/2000/svg" version="1.1">
 <metadata>
  <rdf:RDF xmlns:dc="http://purl.org/dc/elements/1.1/" xmlns:cc="http://creativecommons.org/ns#" xmlns:rdf="http://www.w3.org/1999/02/22-rdf-syntax-ns#">
   <cc:Work>
    <dc:type rdf:resource="http://purl.org/dc/dcmitype/StillImage"/>
    <dc:date>2022-10-13T02:12:36.389060</dc:date>
    <dc:format>image/svg+xml</dc:format>
    <dc:creator>
     <cc:Agent>
      <dc:title>Matplotlib v3.5.2, https://matplotlib.org/</dc:title>
     </cc:Agent>
    </dc:creator>
   </cc:Work>
  </rdf:RDF>
 </metadata>
 <defs>
  <style type="text/css">*{stroke-linejoin: round; stroke-linecap: butt}</style>
 </defs>
 <g id="figure_1">
  <g id="patch_1">
   <path d="M 0 307.788562 
L 421.890312 307.788562 
L 421.890312 0 
L 0 0 
z
" style="fill: #ffffff"/>
  </g>
  <g id="axes_1">
   <g id="patch_2">
    <path d="M 57.570313 283.910437 
L 414.690313 283.910437 
L 414.690313 17.798437 
L 57.570313 17.798437 
z
" style="fill: #ffffff"/>
   </g>
   <g id="matplotlib.axis_1">
    <g id="xtick_1">
     <g id="line2d_1">
      <defs>
       <path id="m7f36c24056" d="M 0 0 
L 0 3.5 
" style="stroke: #000000; stroke-width: 0.8"/>
      </defs>
      <g>
       <use xlink:href="#m7f36c24056" x="73.80304" y="283.910437" style="stroke: #000000; stroke-width: 0.8"/>
      </g>
     </g>
     <g id="text_1">
      <!-- 0 -->
      <g transform="translate(70.62179 298.508875)scale(0.1 -0.1)">
       <defs>
        <path id="DejaVuSans-30" d="M 2034 4250 
Q 1547 4250 1301 3770 
Q 1056 3291 1056 2328 
Q 1056 1369 1301 889 
Q 1547 409 2034 409 
Q 2525 409 2770 889 
Q 3016 1369 3016 2328 
Q 3016 3291 2770 3770 
Q 2525 4250 2034 4250 
z
M 2034 4750 
Q 2819 4750 3233 4129 
Q 3647 3509 3647 2328 
Q 3647 1150 3233 529 
Q 2819 -91 2034 -91 
Q 1250 -91 836 529 
Q 422 1150 422 2328 
Q 422 3509 836 4129 
Q 1250 4750 2034 4750 
z
" transform="scale(0.015625)"/>
       </defs>
       <use xlink:href="#DejaVuSans-30"/>
      </g>
     </g>
    </g>
    <g id="xtick_2">
     <g id="line2d_2">
      <g>
       <use xlink:href="#m7f36c24056" x="138.798945" y="283.910437" style="stroke: #000000; stroke-width: 0.8"/>
      </g>
     </g>
     <g id="text_2">
      <!-- 2 -->
      <g transform="translate(135.617695 298.508875)scale(0.1 -0.1)">
       <defs>
        <path id="DejaVuSans-32" d="M 1228 531 
L 3431 531 
L 3431 0 
L 469 0 
L 469 531 
Q 828 903 1448 1529 
Q 2069 2156 2228 2338 
Q 2531 2678 2651 2914 
Q 2772 3150 2772 3378 
Q 2772 3750 2511 3984 
Q 2250 4219 1831 4219 
Q 1534 4219 1204 4116 
Q 875 4013 500 3803 
L 500 4441 
Q 881 4594 1212 4672 
Q 1544 4750 1819 4750 
Q 2544 4750 2975 4387 
Q 3406 4025 3406 3419 
Q 3406 3131 3298 2873 
Q 3191 2616 2906 2266 
Q 2828 2175 2409 1742 
Q 1991 1309 1228 531 
z
" transform="scale(0.015625)"/>
       </defs>
       <use xlink:href="#DejaVuSans-32"/>
      </g>
     </g>
    </g>
    <g id="xtick_3">
     <g id="line2d_3">
      <g>
       <use xlink:href="#m7f36c24056" x="203.79485" y="283.910437" style="stroke: #000000; stroke-width: 0.8"/>
      </g>
     </g>
     <g id="text_3">
      <!-- 4 -->
      <g transform="translate(200.6136 298.508875)scale(0.1 -0.1)">
       <defs>
        <path id="DejaVuSans-34" d="M 2419 4116 
L 825 1625 
L 2419 1625 
L 2419 4116 
z
M 2253 4666 
L 3047 4666 
L 3047 1625 
L 3713 1625 
L 3713 1100 
L 3047 1100 
L 3047 0 
L 2419 0 
L 2419 1100 
L 313 1100 
L 313 1709 
L 2253 4666 
z
" transform="scale(0.015625)"/>
       </defs>
       <use xlink:href="#DejaVuSans-34"/>
      </g>
     </g>
    </g>
    <g id="xtick_4">
     <g id="line2d_4">
      <g>
       <use xlink:href="#m7f36c24056" x="268.790755" y="283.910437" style="stroke: #000000; stroke-width: 0.8"/>
      </g>
     </g>
     <g id="text_4">
      <!-- 6 -->
      <g transform="translate(265.609505 298.508875)scale(0.1 -0.1)">
       <defs>
        <path id="DejaVuSans-36" d="M 2113 2584 
Q 1688 2584 1439 2293 
Q 1191 2003 1191 1497 
Q 1191 994 1439 701 
Q 1688 409 2113 409 
Q 2538 409 2786 701 
Q 3034 994 3034 1497 
Q 3034 2003 2786 2293 
Q 2538 2584 2113 2584 
z
M 3366 4563 
L 3366 3988 
Q 3128 4100 2886 4159 
Q 2644 4219 2406 4219 
Q 1781 4219 1451 3797 
Q 1122 3375 1075 2522 
Q 1259 2794 1537 2939 
Q 1816 3084 2150 3084 
Q 2853 3084 3261 2657 
Q 3669 2231 3669 1497 
Q 3669 778 3244 343 
Q 2819 -91 2113 -91 
Q 1303 -91 875 529 
Q 447 1150 447 2328 
Q 447 3434 972 4092 
Q 1497 4750 2381 4750 
Q 2619 4750 2861 4703 
Q 3103 4656 3366 4563 
z
" transform="scale(0.015625)"/>
       </defs>
       <use xlink:href="#DejaVuSans-36"/>
      </g>
     </g>
    </g>
    <g id="xtick_5">
     <g id="line2d_5">
      <g>
       <use xlink:href="#m7f36c24056" x="333.78666" y="283.910437" style="stroke: #000000; stroke-width: 0.8"/>
      </g>
     </g>
     <g id="text_5">
      <!-- 8 -->
      <g transform="translate(330.60541 298.508875)scale(0.1 -0.1)">
       <defs>
        <path id="DejaVuSans-38" d="M 2034 2216 
Q 1584 2216 1326 1975 
Q 1069 1734 1069 1313 
Q 1069 891 1326 650 
Q 1584 409 2034 409 
Q 2484 409 2743 651 
Q 3003 894 3003 1313 
Q 3003 1734 2745 1975 
Q 2488 2216 2034 2216 
z
M 1403 2484 
Q 997 2584 770 2862 
Q 544 3141 544 3541 
Q 544 4100 942 4425 
Q 1341 4750 2034 4750 
Q 2731 4750 3128 4425 
Q 3525 4100 3525 3541 
Q 3525 3141 3298 2862 
Q 3072 2584 2669 2484 
Q 3125 2378 3379 2068 
Q 3634 1759 3634 1313 
Q 3634 634 3220 271 
Q 2806 -91 2034 -91 
Q 1263 -91 848 271 
Q 434 634 434 1313 
Q 434 1759 690 2068 
Q 947 2378 1403 2484 
z
M 1172 3481 
Q 1172 3119 1398 2916 
Q 1625 2713 2034 2713 
Q 2441 2713 2670 2916 
Q 2900 3119 2900 3481 
Q 2900 3844 2670 4047 
Q 2441 4250 2034 4250 
Q 1625 4250 1398 4047 
Q 1172 3844 1172 3481 
z
" transform="scale(0.015625)"/>
       </defs>
       <use xlink:href="#DejaVuSans-38"/>
      </g>
     </g>
    </g>
    <g id="xtick_6">
     <g id="line2d_6">
      <g>
       <use xlink:href="#m7f36c24056" x="398.782565" y="283.910437" style="stroke: #000000; stroke-width: 0.8"/>
      </g>
     </g>
     <g id="text_6">
      <!-- 10 -->
      <g transform="translate(392.420065 298.508875)scale(0.1 -0.1)">
       <defs>
        <path id="DejaVuSans-31" d="M 794 531 
L 1825 531 
L 1825 4091 
L 703 3866 
L 703 4441 
L 1819 4666 
L 2450 4666 
L 2450 531 
L 3481 531 
L 3481 0 
L 794 0 
L 794 531 
z
" transform="scale(0.015625)"/>
       </defs>
       <use xlink:href="#DejaVuSans-31"/>
       <use xlink:href="#DejaVuSans-30" x="63.623047"/>
      </g>
     </g>
    </g>
   </g>
   <g id="matplotlib.axis_2">
    <g id="ytick_1">
     <g id="line2d_7">
      <defs>
       <path id="me8373b14be" d="M 0 0 
L -3.5 0 
" style="stroke: #000000; stroke-width: 0.8"/>
      </defs>
      <g>
       <use xlink:href="#me8373b14be" x="57.570313" y="253.186825" style="stroke: #000000; stroke-width: 0.8"/>
      </g>
     </g>
     <g id="text_7">
      <!-- −0.0004 -->
      <g transform="translate(7.2 256.986043)scale(0.1 -0.1)">
       <defs>
        <path id="DejaVuSans-2212" d="M 678 2272 
L 4684 2272 
L 4684 1741 
L 678 1741 
L 678 2272 
z
" transform="scale(0.015625)"/>
        <path id="DejaVuSans-2e" d="M 684 794 
L 1344 794 
L 1344 0 
L 684 0 
L 684 794 
z
" transform="scale(0.015625)"/>
       </defs>
       <use xlink:href="#DejaVuSans-2212"/>
       <use xlink:href="#DejaVuSans-30" x="83.789062"/>
       <use xlink:href="#DejaVuSans-2e" x="147.412109"/>
       <use xlink:href="#DejaVuSans-30" x="179.199219"/>
       <use xlink:href="#DejaVuSans-30" x="242.822266"/>
       <use xlink:href="#DejaVuSans-30" x="306.445312"/>
       <use xlink:href="#DejaVuSans-34" x="370.068359"/>
      </g>
     </g>
    </g>
    <g id="ytick_2">
     <g id="line2d_8">
      <g>
       <use xlink:href="#me8373b14be" x="57.570313" y="197.238453" style="stroke: #000000; stroke-width: 0.8"/>
      </g>
     </g>
     <g id="text_8">
      <!-- −0.0002 -->
      <g transform="translate(7.2 201.037672)scale(0.1 -0.1)">
       <use xlink:href="#DejaVuSans-2212"/>
       <use xlink:href="#DejaVuSans-30" x="83.789062"/>
       <use xlink:href="#DejaVuSans-2e" x="147.412109"/>
       <use xlink:href="#DejaVuSans-30" x="179.199219"/>
       <use xlink:href="#DejaVuSans-30" x="242.822266"/>
       <use xlink:href="#DejaVuSans-30" x="306.445312"/>
       <use xlink:href="#DejaVuSans-32" x="370.068359"/>
      </g>
     </g>
    </g>
    <g id="ytick_3">
     <g id="line2d_9">
      <g>
       <use xlink:href="#me8373b14be" x="57.570313" y="141.290082" style="stroke: #000000; stroke-width: 0.8"/>
      </g>
     </g>
     <g id="text_9">
      <!-- 0.0000 -->
      <g transform="translate(15.579688 145.0893)scale(0.1 -0.1)">
       <use xlink:href="#DejaVuSans-30"/>
       <use xlink:href="#DejaVuSans-2e" x="63.623047"/>
       <use xlink:href="#DejaVuSans-30" x="95.410156"/>
       <use xlink:href="#DejaVuSans-30" x="159.033203"/>
       <use xlink:href="#DejaVuSans-30" x="222.65625"/>
       <use xlink:href="#DejaVuSans-30" x="286.279297"/>
      </g>
     </g>
    </g>
    <g id="ytick_4">
     <g id="line2d_10">
      <g>
       <use xlink:href="#me8373b14be" x="57.570313" y="85.34171" style="stroke: #000000; stroke-width: 0.8"/>
      </g>
     </g>
     <g id="text_10">
      <!-- 0.0002 -->
      <g transform="translate(15.579688 89.140929)scale(0.1 -0.1)">
       <use xlink:href="#DejaVuSans-30"/>
       <use xlink:href="#DejaVuSans-2e" x="63.623047"/>
       <use xlink:href="#DejaVuSans-30" x="95.410156"/>
       <use xlink:href="#DejaVuSans-30" x="159.033203"/>
       <use xlink:href="#DejaVuSans-30" x="222.65625"/>
       <use xlink:href="#DejaVuSans-32" x="286.279297"/>
      </g>
     </g>
    </g>
    <g id="ytick_5">
     <g id="line2d_11">
      <g>
       <use xlink:href="#me8373b14be" x="57.570313" y="29.393339" style="stroke: #000000; stroke-width: 0.8"/>
      </g>
     </g>
     <g id="text_11">
      <!-- 0.0004 -->
      <g transform="translate(15.579688 33.192558)scale(0.1 -0.1)">
       <use xlink:href="#DejaVuSans-30"/>
       <use xlink:href="#DejaVuSans-2e" x="63.623047"/>
       <use xlink:href="#DejaVuSans-30" x="95.410156"/>
       <use xlink:href="#DejaVuSans-30" x="159.033203"/>
       <use xlink:href="#DejaVuSans-30" x="222.65625"/>
       <use xlink:href="#DejaVuSans-34" x="286.279297"/>
      </g>
     </g>
    </g>
    <g id="text_12">
     <!-- +1 -->
     <g transform="translate(57.570313 14.798437)scale(0.1 -0.1)">
      <defs>
       <path id="DejaVuSans-2b" d="M 2944 4013 
L 2944 2272 
L 4684 2272 
L 4684 1741 
L 2944 1741 
L 2944 0 
L 2419 0 
L 2419 1741 
L 678 1741 
L 678 2272 
L 2419 2272 
L 2419 4013 
L 2944 4013 
z
" transform="scale(0.015625)"/>
      </defs>
      <use xlink:href="#DejaVuSans-2b"/>
      <use xlink:href="#DejaVuSans-31" x="83.789062"/>
     </g>
    </g>
   </g>
   <g id="line2d_12">
    <path d="M 73.80304 141.290082 
L 106.300992 141.290082 
L 106.625972 141.416033 
L 106.950951 141.81869 
L 107.275931 142.495483 
L 107.92589 144.650199 
L 108.575849 147.826046 
L 109.550788 154.348134 
L 110.525726 162.718018 
L 111.825644 176.152334 
L 113.775521 199.280698 
L 116.700337 234.134493 
L 118.000255 247.346019 
L 119.300173 258.114038 
L 120.275112 264.27786 
L 120.925071 267.395852 
L 121.57503 269.692481 
L 122.224989 271.158771 
L 122.549969 271.5814 
L 122.874948 271.799106 
L 123.199928 271.814438 
L 123.524907 271.630701 
L 123.849887 271.251931 
L 124.499846 269.92888 
L 125.149805 267.890871 
L 125.799764 265.192852 
L 126.774702 260.047839 
L 128.07462 251.515708 
L 129.699518 239.03819 
L 134.249231 202.903868 
L 135.874129 192.291845 
L 137.174047 185.193246 
L 138.473965 179.338149 
L 139.773883 174.597319 
L 141.073801 170.737401 
L 142.698699 166.678544 
L 145.298535 160.350489 
L 146.598453 156.564322 
L 147.898371 152.020739 
L 149.19829 146.570655 
L 150.498208 140.170699 
L 152.123105 130.949355 
L 154.397962 116.482912 
L 157.322778 97.845848 
L 158.947675 89.026189 
L 159.922614 84.692546 
L 160.897552 81.261301 
L 161.547512 79.537463 
L 162.197471 78.300197 
L 162.84743 77.573118 
L 163.172409 77.406468 
L 163.497389 77.373187 
L 163.822368 77.474301 
L 164.472327 78.081577 
L 165.122286 79.227492 
L 165.772245 80.904005 
L 166.422204 83.095956 
L 167.397143 87.300284 
L 168.372082 92.511589 
L 169.672 100.796071 
L 171.296897 112.756569 
L 176.821549 155.384257 
L 178.121467 163.380089 
L 179.421385 169.878994 
L 180.396324 173.642902 
L 181.371263 176.393242 
L 182.021222 177.65081 
L 182.671181 178.446918 
L 183.32114 178.78717 
L 183.971099 178.682337 
L 184.621058 178.14798 
L 185.271017 177.20401 
L 185.920976 175.874195 
L 186.895914 173.216029 
L 187.870853 169.853681 
L 189.170771 164.469142 
L 190.795669 156.679231 
L 193.720484 141.255428 
L 196.97028 124.523283 
L 199.245136 114.101619 
L 201.195014 106.204125 
L 203.144891 99.191883 
L 205.419747 91.926542 
L 207.694604 85.433035 
L 209.969461 79.634351 
L 211.594358 75.993967 
L 213.219256 72.914325 
L 214.519174 70.975598 
L 215.494113 69.897764 
L 216.469051 69.194489 
L 217.11901 68.956355 
L 217.768969 68.917692 
L 218.418928 69.090127 
L 219.068887 69.483949 
L 219.718846 70.107828 
L 220.368806 70.968564 
L 221.343744 72.713435 
L 222.318683 75.007296 
L 223.293621 77.843482 
L 224.593539 82.432101 
L 225.893457 87.862845 
L 227.518355 95.640221 
L 229.793212 107.77225 
L 234.017946 130.561824 
L 235.642843 138.114809 
L 236.942761 143.259585 
L 238.242679 147.438053 
L 239.217618 149.866926 
L 240.192557 151.653495 
L 240.842516 152.477632 
L 241.492475 153.005208 
L 242.142434 153.236678 
L 242.792393 153.175138 
L 243.442352 152.826214 
L 244.092311 152.197926 
L 244.74227 151.300528 
L 245.717208 149.477253 
L 246.692147 147.125596 
L 247.992065 143.26683 
L 249.616963 137.493405 
L 251.56684 129.58619 
L 258.716389 99.406044 
L 260.666267 92.58426 
L 262.291164 87.710479 
L 263.591082 84.39502 
L 264.891 81.624757 
L 266.190919 79.41594 
L 267.165857 78.134663 
L 268.140796 77.179141 
L 269.115734 76.552344 
L 270.090673 76.256843 
L 270.740632 76.24501 
L 271.71557 76.506401 
L 272.690509 77.103934 
L 273.665448 78.038092 
L 274.640386 79.308059 
L 275.615325 80.911233 
L 276.915243 83.558192 
L 278.215161 86.76853 
L 279.840059 91.524989 
L 281.464956 97.021979 
L 283.414833 104.41653 
L 286.339649 116.523 
L 290.239403 132.592112 
L 292.189281 139.662548 
L 293.814178 144.672108 
L 295.114096 147.958794 
L 296.089035 149.948353 
L 297.063973 151.49989 
L 298.038912 152.59358 
L 298.688871 153.061942 
L 299.33883 153.319425 
L 299.988789 153.365825 
L 300.638748 153.202472 
L 301.288707 152.832215 
L 301.938666 152.259386 
L 302.913605 151.033297 
L 303.888543 149.389824 
L 304.863482 147.36038 
L 306.1634 144.118634 
L 307.788298 139.348504 
L 309.738175 132.862944 
L 316.887724 108.229186 
L 318.512622 103.678112 
L 319.81254 100.558267 
L 321.112458 97.961372 
L 322.412376 95.928492 
L 323.387315 94.79143 
L 324.362254 93.995215 
L 325.337192 93.543697 
L 325.987151 93.43456 
L 326.63711 93.478272 
L 327.612049 93.827606 
L 328.586987 94.511519 
L 329.561926 95.520926 
L 330.536865 96.844278 
L 331.836783 99.072824 
L 333.136701 101.79568 
L 334.761598 105.824446 
L 336.386496 110.451324 
L 338.661353 117.707695 
L 342.236127 130.113279 
L 345.810902 142.303229 
L 347.760779 148.246176 
L 349.385677 152.566881 
L 350.685595 155.509703 
L 351.985513 157.929369 
L 352.960452 159.370226 
L 353.93539 160.471817 
L 354.910329 161.221895 
L 355.885267 161.612825 
L 356.535227 161.672323 
L 357.185186 161.571229 
L 357.835145 161.31091 
L 358.810083 160.62729 
L 359.785022 159.602936 
L 360.75996 158.254613 
L 362.059878 155.990272 
L 363.359797 153.250074 
L 364.984694 149.268062 
L 367.259551 142.950174 
L 373.759141 124.30103 
L 375.384039 120.431646 
L 377.008937 117.173241 
L 378.308855 115.078443 
L 379.283793 113.833958 
L 380.258732 112.884175 
L 381.23367 112.23824 
L 382.208609 111.901524 
L 383.183548 111.87571 
L 384.158486 112.158916 
L 385.133425 112.745856 
L 386.108363 113.628017 
L 387.083302 114.793871 
L 388.38322 116.764505 
L 389.683138 119.172754 
L 391.308036 122.724603 
L 393.257913 127.637924 
L 395.857749 134.949681 
L 398.457585 142.637514 
L 398.457585 142.637514 
" clip-path="url(#p8120c30562)" style="fill: none; stroke: #1f77b4; stroke-width: 1.5; stroke-linecap: square"/>
   </g>
   <g id="line2d_13">
    <path d="M 73.80304 141.290082 
L 106.625972 141.215714 
L 106.950951 140.978156 
L 107.60091 140.02246 
L 108.250869 138.454128 
L 108.900828 136.319832 
L 109.875767 132.190521 
L 111.175685 125.348014 
L 115.725398 99.476392 
L 116.700337 95.62233 
L 117.350296 93.701202 
L 118.000255 92.364947 
L 118.650214 91.656925 
L 118.975194 91.548534 
L 119.300173 91.607562 
L 119.625153 91.835692 
L 120.275112 92.801621 
L 120.925071 94.442307 
L 121.57503 96.739827 
L 122.549969 101.345202 
L 123.524907 107.194386 
L 124.824825 116.542745 
L 126.774702 132.520657 
L 129.049559 151.001829 
L 130.349477 159.940341 
L 131.324416 165.317173 
L 132.299354 169.276725 
L 132.949313 171.029573 
L 133.599272 172.019935 
L 133.924252 172.218809 
L 134.249231 172.216201 
L 134.574211 172.010164 
L 134.89919 171.599566 
L 135.54915 170.164239 
L 136.199109 167.917416 
L 136.849068 164.879019 
L 137.824006 158.91077 
L 138.798945 151.392957 
L 140.098863 139.324132 
L 141.72376 121.822209 
L 146.923433 63.442818 
L 148.223351 51.832179 
L 149.19829 44.577311 
L 150.173228 38.716385 
L 151.148167 34.328984 
L 151.798126 32.239105 
L 152.448085 30.814512 
L 153.098044 30.042321 
L 153.423023 29.894438 
L 153.748003 29.900891 
L 154.072982 30.05772 
L 154.722941 30.804407 
L 155.372901 32.094208 
L 156.02286 33.880951 
L 156.997798 37.380131 
L 158.297716 43.280001 
L 159.922614 51.97618 
L 164.472327 77.173081 
L 166.097225 84.523355 
L 167.397143 89.404215 
L 168.697061 93.384476 
L 169.996979 96.543816 
L 171.296897 99.030407 
L 172.596815 101.039902 
L 177.471508 107.981443 
L 178.771426 110.46725 
L 180.071344 113.389431 
L 181.696242 117.611053 
L 184.621058 126.084082 
L 186.570935 131.416247 
L 187.870853 134.343734 
L 188.845792 136.031617 
L 189.495751 136.86088 
L 190.14571 137.423373 
L 190.795669 137.69683 
L 191.445628 137.66256 
L 192.095587 137.305848 
L 192.745546 136.616284 
L 193.395505 135.588018 
L 194.045464 134.219928 
L 195.020403 131.540006 
L 195.995341 128.137552 
L 197.295259 122.577149 
L 198.595177 116.026488 
L 200.545055 104.901377 
L 205.094768 78.274177 
L 206.719665 70.454921 
L 208.019584 65.402422 
L 208.994522 62.433221 
L 209.969461 60.22415 
L 210.61942 59.188815 
L 211.269379 58.50789 
L 211.919338 58.180656 
L 212.569297 58.202471 
L 213.219256 58.564965 
L 213.869215 59.256288 
L 214.519174 60.261398 
L 215.494113 62.317565 
L 216.469051 64.968354 
L 217.768969 69.288096 
L 219.393867 75.656945 
L 221.668724 85.637391 
L 225.893457 104.286955 
L 227.843335 111.899576 
L 229.793212 118.555245 
L 231.418109 123.335852 
L 233.043007 127.449914 
L 234.667905 130.953854 
L 236.292802 133.908516 
L 237.9177 136.360014 
L 239.217618 137.971869 
L 240.517536 139.266166 
L 241.817454 140.220575 
L 242.792393 140.692434 
L 243.767331 140.934725 
L 244.74227 140.926879 
L 245.717208 140.647744 
L 246.692147 140.077033 
L 247.667086 139.196805 
L 248.642024 137.992926 
L 249.616963 136.456427 
L 250.916881 133.886871 
L 252.216799 130.736573 
L 253.516717 127.04568 
L 255.141615 121.776235 
L 257.416471 113.524973 
L 261.966185 96.651109 
L 263.591082 91.477849 
L 264.891 87.974002 
L 266.190919 85.163093 
L 267.165857 83.566797 
L 268.140796 82.442419 
L 268.790755 81.965067 
L 269.440714 81.709704 
L 270.090673 81.677726 
L 270.740632 81.868577 
L 271.390591 82.279789 
L 272.04055 82.907046 
L 273.015489 84.239252 
L 273.990427 86.016063 
L 275.290345 89.015534 
L 276.590263 92.642991 
L 278.215161 97.884931 
L 280.490018 106.106345 
L 286.01467 126.588679 
L 287.964547 132.883523 
L 289.589444 137.462414 
L 291.214342 141.344316 
L 292.51426 143.911774 
L 293.814178 145.98406 
L 294.789117 147.20913 
L 295.764055 148.151613 
L 296.738994 148.812938 
L 297.713932 149.195885 
L 298.688871 149.304334 
L 299.66381 149.143098 
L 300.638748 148.717853 
L 301.613687 148.035151 
L 302.588625 147.102507 
L 303.888543 145.485311 
L 305.188462 143.463589 
L 306.48838 141.066906 
L 308.113277 137.599124 
L 310.063154 132.861947 
L 312.662991 125.882519 
L 317.537684 112.634955 
L 319.487561 108.06091 
L 321.112458 104.874234 
L 322.412376 102.837456 
L 323.387315 101.650053 
L 324.362254 100.77827 
L 325.337192 100.238879 
L 326.312131 100.043745 
L 326.96209 100.108422 
L 327.612049 100.329831 
L 328.586987 100.954604 
L 329.561926 101.924904 
L 330.536865 103.229497 
L 331.836783 105.460053 
L 333.136701 108.203646 
L 334.761598 112.254688 
L 336.711475 117.826625 
L 339.636291 127.020095 
L 343.536046 139.222089 
L 345.485923 144.657207 
L 347.11082 148.615924 
L 348.735718 151.944957 
L 350.035636 154.102632 
L 351.335554 155.78125 
L 352.310493 156.715839 
L 353.285431 157.368854 
L 354.26037 157.740481 
L 355.235308 157.833838 
L 356.210247 157.654792 
L 357.185186 157.211769 
L 358.160124 156.515563 
L 359.135063 155.579149 
L 360.434981 153.983089 
L 361.734899 152.027309 
L 363.359797 149.146612 
L 365.309674 145.18188 
L 367.90951 139.34418 
L 372.784203 128.280261 
L 374.73408 124.399625 
L 376.358978 121.62213 
L 377.658896 119.771688 
L 378.958814 118.300208 
L 379.933752 117.468063 
L 380.908691 116.882999 
L 381.883629 116.554892 
L 382.858568 116.490558 
L 383.833507 116.693599 
L 384.808445 117.164289 
L 385.783384 117.899515 
L 386.758322 118.892765 
L 388.05824 120.600946 
L 389.358159 122.717608 
L 390.983056 125.873207 
L 392.932933 130.272571 
L 395.53277 136.835474 
L 398.457585 144.540034 
L 398.457585 144.540034 
" clip-path="url(#p8120c30562)" style="fill: none; stroke: #ff7f0e; stroke-width: 1.5; stroke-linecap: square"/>
   </g>
   <g id="line2d_14">
    <path d="M 73.80304 141.290082 
L 106.950951 141.213881 
L 107.60091 140.978062 
L 108.575849 140.328628 
L 109.550788 139.328987 
L 110.525726 137.982892 
L 111.500665 136.293435 
L 112.800583 133.513405 
L 114.100501 130.144754 
L 115.400419 126.214277 
L 117.025317 120.579442 
L 118.975194 112.939626 
L 122.224989 99.011159 
L 125.149805 86.830911 
L 126.774702 80.969775 
L 128.07462 77.051382 
L 129.049559 74.673765 
L 130.024498 72.849198 
L 130.674457 71.968282 
L 131.324416 71.37279 
L 131.974375 71.07498 
L 132.624334 71.084801 
L 133.274293 71.409736 
L 133.924252 72.054661 
L 134.574211 73.021734 
L 135.22417 74.310319 
L 136.199109 76.837642 
L 137.174047 80.056093 
L 138.473965 85.354762 
L 139.773883 91.685472 
L 141.398781 100.793486 
L 143.673638 115.048918 
L 148.223351 144.057864 
L 149.848249 153.026398 
L 151.148167 159.213667 
L 152.448085 164.343957 
L 153.423023 167.42111 
L 154.397962 169.794681 
L 155.047921 170.973707 
L 155.69788 171.825259 
L 156.347839 172.348244 
L 156.997798 172.544192 
L 157.647757 172.417176 
L 158.297716 171.9737 
L 158.947675 171.222573 
L 159.597634 170.174753 
L 160.572573 168.075514 
L 161.547512 165.389239 
L 162.84743 160.996357 
L 164.147348 155.818618 
L 166.097225 146.943787 
L 169.022041 132.262551 
L 172.921795 112.832727 
L 175.196652 102.738524 
L 176.821549 96.39572 
L 178.446447 90.887495 
L 179.746365 87.12353 
L 181.046283 83.951869 
L 182.346201 81.383588 
L 183.32114 79.857002 
L 184.296078 78.674424 
L 185.271017 77.836518 
L 186.245955 77.343617 
L 187.220894 77.195847 
L 187.870853 77.289036 
L 188.845792 77.716075 
L 189.82073 78.48698 
L 190.795669 79.599934 
L 191.770607 81.051741 
L 193.070525 83.505418 
L 194.370444 86.532899 
L 195.670362 90.104667 
L 197.295259 95.269411 
L 199.245136 102.338671 
L 201.844973 112.786047 
L 206.719665 132.603437 
L 208.344563 138.321688 
L 209.644481 142.277018 
L 210.944399 145.551909 
L 211.919338 147.498606 
L 212.894276 148.967663 
L 213.544236 149.66706 
L 214.194195 150.134551 
L 214.844154 150.365233 
L 215.494113 150.355957 
L 216.144072 150.105377 
L 216.794031 149.61397 
L 217.44399 148.884049 
L 218.418928 147.351496 
L 219.393867 145.313486 
L 220.368806 142.800138 
L 221.668724 138.776612 
L 223.293621 132.824994 
L 225.243498 124.672065 
L 232.718027 92.04578 
L 234.342925 86.412453 
L 235.642843 82.612858 
L 236.942761 79.515491 
L 237.9177 77.681339 
L 238.892638 76.279368 
L 239.867577 75.314412 
L 240.517536 74.913521 
L 241.167495 74.704652 
L 241.817454 74.684992 
L 242.467413 74.850764 
L 243.117372 75.197306 
L 244.092311 76.043904 
L 245.067249 77.263362 
L 246.042188 78.831253 
L 247.342106 81.417112 
L 248.642024 84.50599 
L 250.266922 88.96424 
L 252.216799 94.998325 
L 255.141615 104.925785 
L 260.666267 123.892646 
L 262.941123 130.788571 
L 264.566021 135.091046 
L 266.190919 138.740181 
L 267.490837 141.116591 
L 268.465775 142.549919 
L 269.440714 143.664244 
L 270.415652 144.444679 
L 271.390591 144.879531 
L 272.04055 144.973281 
L 272.690509 144.90831 
L 273.340468 144.683996 
L 274.315407 144.04951 
L 275.290345 143.061805 
L 276.265284 141.73012 
L 277.240222 140.068462 
L 278.540141 137.372767 
L 279.840059 134.18176 
L 281.464956 129.606239 
L 283.739813 122.409818 
L 289.589444 103.292023 
L 291.214342 98.788221 
L 292.51426 95.686683 
L 293.814178 93.116926 
L 294.789117 91.577919 
L 295.764055 90.39595 
L 296.738994 89.587031 
L 297.388953 89.26041 
L 298.038912 89.106086 
L 298.688871 89.124669 
L 299.33883 89.315672 
L 299.988789 89.677526 
L 300.963728 90.534633 
L 301.938666 91.756906 
L 302.913605 93.326422 
L 304.213523 95.920093 
L 305.513441 99.027346 
L 307.138339 103.520404 
L 309.088216 109.591092 
L 312.338011 120.575528 
L 315.912786 132.469472 
L 317.862663 138.29425 
L 319.487561 142.577509 
L 321.112458 146.230067 
L 322.412376 148.642483 
L 323.712294 150.567501 
L 324.687233 151.677991 
L 325.662172 152.496212 
L 326.63711 153.01939 
L 327.612049 153.24763 
L 328.586987 153.183854 
L 329.561926 152.833735 
L 330.536865 152.205621 
L 331.511803 151.310453 
L 332.811721 149.725054 
L 334.111639 147.7275 
L 335.736537 144.720945 
L 337.686414 140.503602 
L 339.961271 135.003207 
L 346.135882 119.76745 
L 348.085759 115.753822 
L 349.710656 112.986939 
L 351.010575 111.229542 
L 351.985513 110.208087 
L 352.960452 109.458589 
L 353.93539 108.993485 
L 354.910329 108.821725 
L 355.885267 108.948597 
L 356.860206 109.37561 
L 357.835145 110.100426 
L 358.810083 111.116854 
L 359.785022 112.414902 
L 361.08494 114.559553 
L 362.384858 117.138087 
L 364.009756 120.891098 
L 365.959633 126.009858 
L 368.884448 134.438839 
L 373.109182 146.580368 
L 375.059059 151.541003 
L 376.683957 155.13647 
L 377.983875 157.585371 
L 379.283793 159.608404 
L 380.583711 161.173991 
L 381.55865 162.03497 
L 382.533589 162.621766 
L 383.508527 162.932912 
L 384.483466 162.970274 
L 385.458404 162.738941 
L 386.433343 162.247088 
L 387.408281 161.505791 
L 388.38322 160.528828 
L 389.683138 158.888023 
L 390.983056 156.901919 
L 392.607954 154.010978 
L 394.557831 150.087435 
L 398.132606 142.253538 
L 398.457585 141.53508 
L 398.457585 141.53508 
" clip-path="url(#p8120c30562)" style="fill: none; stroke: #2ca02c; stroke-width: 1.5; stroke-linecap: square"/>
   </g>
   <g id="line2d_15">
    <path d="M 73.80304 141.290082 
L 106.625972 141.256677 
L 107.275931 140.970297 
L 107.92589 140.398269 
L 108.575849 139.552472 
L 109.550788 137.799295 
L 110.525726 135.507064 
L 111.825644 131.700412 
L 113.125562 127.15561 
L 114.75046 120.651336 
L 117.025317 110.547945 
L 121.25005 91.556559 
L 122.874948 85.194105 
L 124.174866 80.820975 
L 125.474784 77.238429 
L 126.449723 75.142113 
L 127.424661 73.596974 
L 128.07462 72.888407 
L 128.724579 72.444875 
L 129.374539 72.270741 
L 130.024498 72.368247 
L 130.674457 72.737494 
L 131.324416 73.376447 
L 131.974375 74.280954 
L 132.949313 76.121472 
L 133.924252 78.515678 
L 135.22417 82.501016 
L 136.524088 87.285981 
L 138.148986 94.181748 
L 140.423842 104.997078 
L 145.948494 131.927996 
L 147.898371 140.123169 
L 149.523269 146.009192 
L 150.823187 150.010717 
L 152.123105 153.339337 
L 153.423023 155.971988 
L 154.397962 157.483551 
L 155.372901 158.597868 
L 156.347839 159.317246 
L 156.997798 159.579382 
L 157.647757 159.669303 
L 158.297716 159.588704 
L 158.947675 159.339402 
L 159.922614 158.653306 
L 160.897552 157.598594 
L 161.872491 156.182239 
L 162.84743 154.411639 
L 164.147348 151.513912 
L 165.447266 148.023311 
L 167.072163 142.869744 
L 168.697061 136.907477 
L 170.646938 128.829921 
L 173.246774 116.906571 
L 178.771426 90.972182 
L 180.396324 84.38072 
L 181.696242 79.810077 
L 182.99616 76.01361 
L 183.971099 73.747489 
L 184.946037 72.027336 
L 185.595996 71.200876 
L 186.245955 70.639773 
L 186.895914 70.349516 
L 187.545874 70.33342 
L 188.195833 70.592557 
L 188.845792 71.125712 
L 189.495751 71.929361 
L 190.470689 73.628673 
L 191.445628 75.893921 
L 192.420566 78.685234 
L 193.720484 83.137947 
L 195.345382 89.675072 
L 197.295259 98.513071 
L 202.819911 124.264816 
L 204.444809 130.687841 
L 205.744727 135.125686 
L 207.044645 138.848312 
L 208.344563 141.800434 
L 209.319502 143.491261 
L 210.29444 144.730519 
L 211.269379 145.523538 
L 211.919338 145.809927 
L 212.569297 145.908081 
L 213.219256 145.823892 
L 213.869215 145.564079 
L 214.844154 144.861403 
L 215.819092 143.807482 
L 216.794031 142.431215 
L 218.093949 140.14622 
L 219.393867 137.411497 
L 221.018765 133.464013 
L 222.968642 128.112963 
L 225.568478 120.246073 
L 230.443171 104.524456 
L 233.692966 94.424077 
L 235.642843 88.975326 
L 237.267741 85.000361 
L 238.567659 82.298562 
L 239.867577 80.104766 
L 240.842516 78.836638 
L 241.817454 77.923062 
L 242.792393 77.388563 
L 243.442352 77.253039 
L 244.092311 77.29989 
L 244.74227 77.532787 
L 245.392229 77.9542 
L 246.367168 78.942018 
L 247.342106 80.354619 
L 248.317045 82.183087 
L 249.616963 85.238757 
L 250.916881 88.945182 
L 252.541779 94.368284 
L 254.491656 101.764352 
L 258.39141 117.813362 
L 260.991246 127.952467 
L 262.616144 133.511011 
L 263.916062 137.354101 
L 265.21598 140.569023 
L 266.190919 142.529847 
L 267.165857 144.084079 
L 268.140796 145.22097 
L 269.115734 145.93682 
L 269.765693 146.181394 
L 270.415652 146.24258 
L 271.065611 146.124075 
L 271.71557 145.830688 
L 272.690509 145.075746 
L 273.665448 143.964267 
L 274.640386 142.523858 
L 275.940304 140.145395 
L 277.240222 137.317178 
L 278.86512 133.278757 
L 281.139977 126.989361 
L 287.639567 108.588029 
L 289.589444 103.878196 
L 291.214342 100.489283 
L 292.51426 98.19132 
L 293.814178 96.302142 
L 295.114096 94.85476 
L 296.089035 94.076111 
L 297.063973 93.571483 
L 298.038912 93.34873 
L 299.013851 93.413667 
L 299.988789 93.769883 
L 300.963728 94.418537 
L 301.938666 95.358154 
L 302.913605 96.584422 
L 304.213523 98.652227 
L 305.513441 101.190073 
L 307.138339 104.966707 
L 308.763236 109.325672 
L 311.038093 116.176676 
L 319.162581 141.625478 
L 320.787479 145.666282 
L 322.087397 148.402708 
L 323.387315 150.637123 
L 324.362254 151.957188 
L 325.337192 152.957443 
L 326.312131 153.62942 
L 327.287069 153.969297 
L 328.262008 153.977909 
L 329.236946 153.660668 
L 330.211885 153.027415 
L 331.186824 152.092187 
L 332.161762 150.872935 
L 333.46168 148.843102 
L 334.761598 146.406538 
L 336.386496 142.89277 
L 338.661353 137.363694 
L 344.835964 121.943801 
L 346.785841 117.891218 
L 348.410738 115.087206 
L 349.710656 113.286372 
L 351.010575 111.918998 
L 351.985513 111.194568 
L 352.960452 110.737207 
L 353.93539 110.551645 
L 354.910329 110.639528 
L 355.885267 110.999466 
L 356.860206 111.627096 
L 357.835145 112.515183 
L 359.135063 114.08681 
L 360.434981 116.072578 
L 361.734899 118.434101 
L 363.359797 121.845066 
L 365.309674 126.476841 
L 368.234489 134.114226 
L 373.109182 146.907927 
L 375.059059 151.434598 
L 376.683957 154.739107 
L 378.308855 157.520847 
L 379.608773 159.319151 
L 380.908691 160.705114 
L 381.883629 161.460725 
L 382.858568 161.966217 
L 383.833507 162.218501 
L 384.808445 162.217344 
L 385.783384 161.965375 
L 386.758322 161.46807 
L 387.733261 160.7337 
L 389.033179 159.405134 
L 390.333097 157.708109 
L 391.957995 155.131428 
L 393.907872 151.497944 
L 396.507708 146.048328 
L 398.457585 141.779736 
L 398.457585 141.779736 
" clip-path="url(#p8120c30562)" style="fill: none; stroke: #d62728; stroke-width: 1.5; stroke-linecap: square"/>
   </g>
   <g id="patch_3">
    <path d="M 57.570313 283.910438 
L 57.570313 17.798438 
" style="fill: none; stroke: #000000; stroke-width: 0.8; stroke-linejoin: miter; stroke-linecap: square"/>
   </g>
   <g id="patch_4">
    <path d="M 414.690313 283.910438 
L 414.690313 17.798438 
" style="fill: none; stroke: #000000; stroke-width: 0.8; stroke-linejoin: miter; stroke-linecap: square"/>
   </g>
   <g id="patch_5">
    <path d="M 57.570313 283.910437 
L 414.690313 283.910437 
" style="fill: none; stroke: #000000; stroke-width: 0.8; stroke-linejoin: miter; stroke-linecap: square"/>
   </g>
   <g id="patch_6">
    <path d="M 57.570313 17.798437 
L 414.690313 17.798437 
" style="fill: none; stroke: #000000; stroke-width: 0.8; stroke-linejoin: miter; stroke-linecap: square"/>
   </g>
   <g id="legend_1">
    <g id="patch_7">
     <path d="M 329.83875 85.623437 
L 407.690313 85.623437 
Q 409.690313 85.623437 409.690313 83.623437 
L 409.690313 24.798437 
Q 409.690313 22.798437 407.690313 22.798437 
L 329.83875 22.798437 
Q 327.83875 22.798437 327.83875 24.798437 
L 327.83875 83.623437 
Q 327.83875 85.623437 329.83875 85.623437 
z
" style="fill: #ffffff; opacity: 0.8; stroke: #cccccc; stroke-linejoin: miter"/>
    </g>
    <g id="line2d_16">
     <path d="M 331.83875 30.896875 
L 341.83875 30.896875 
L 351.83875 30.896875 
" style="fill: none; stroke: #1f77b4; stroke-width: 1.5; stroke-linecap: square"/>
    </g>
    <g id="text_13">
     <!-- omega_1 -->
     <g transform="translate(359.83875 34.396875)scale(0.1 -0.1)">
      <defs>
       <path id="DejaVuSans-6f" d="M 1959 3097 
Q 1497 3097 1228 2736 
Q 959 2375 959 1747 
Q 959 1119 1226 758 
Q 1494 397 1959 397 
Q 2419 397 2687 759 
Q 2956 1122 2956 1747 
Q 2956 2369 2687 2733 
Q 2419 3097 1959 3097 
z
M 1959 3584 
Q 2709 3584 3137 3096 
Q 3566 2609 3566 1747 
Q 3566 888 3137 398 
Q 2709 -91 1959 -91 
Q 1206 -91 779 398 
Q 353 888 353 1747 
Q 353 2609 779 3096 
Q 1206 3584 1959 3584 
z
" transform="scale(0.015625)"/>
       <path id="DejaVuSans-6d" d="M 3328 2828 
Q 3544 3216 3844 3400 
Q 4144 3584 4550 3584 
Q 5097 3584 5394 3201 
Q 5691 2819 5691 2113 
L 5691 0 
L 5113 0 
L 5113 2094 
Q 5113 2597 4934 2840 
Q 4756 3084 4391 3084 
Q 3944 3084 3684 2787 
Q 3425 2491 3425 1978 
L 3425 0 
L 2847 0 
L 2847 2094 
Q 2847 2600 2669 2842 
Q 2491 3084 2119 3084 
Q 1678 3084 1418 2786 
Q 1159 2488 1159 1978 
L 1159 0 
L 581 0 
L 581 3500 
L 1159 3500 
L 1159 2956 
Q 1356 3278 1631 3431 
Q 1906 3584 2284 3584 
Q 2666 3584 2933 3390 
Q 3200 3197 3328 2828 
z
" transform="scale(0.015625)"/>
       <path id="DejaVuSans-65" d="M 3597 1894 
L 3597 1613 
L 953 1613 
Q 991 1019 1311 708 
Q 1631 397 2203 397 
Q 2534 397 2845 478 
Q 3156 559 3463 722 
L 3463 178 
Q 3153 47 2828 -22 
Q 2503 -91 2169 -91 
Q 1331 -91 842 396 
Q 353 884 353 1716 
Q 353 2575 817 3079 
Q 1281 3584 2069 3584 
Q 2775 3584 3186 3129 
Q 3597 2675 3597 1894 
z
M 3022 2063 
Q 3016 2534 2758 2815 
Q 2500 3097 2075 3097 
Q 1594 3097 1305 2825 
Q 1016 2553 972 2059 
L 3022 2063 
z
" transform="scale(0.015625)"/>
       <path id="DejaVuSans-67" d="M 2906 1791 
Q 2906 2416 2648 2759 
Q 2391 3103 1925 3103 
Q 1463 3103 1205 2759 
Q 947 2416 947 1791 
Q 947 1169 1205 825 
Q 1463 481 1925 481 
Q 2391 481 2648 825 
Q 2906 1169 2906 1791 
z
M 3481 434 
Q 3481 -459 3084 -895 
Q 2688 -1331 1869 -1331 
Q 1566 -1331 1297 -1286 
Q 1028 -1241 775 -1147 
L 775 -588 
Q 1028 -725 1275 -790 
Q 1522 -856 1778 -856 
Q 2344 -856 2625 -561 
Q 2906 -266 2906 331 
L 2906 616 
Q 2728 306 2450 153 
Q 2172 0 1784 0 
Q 1141 0 747 490 
Q 353 981 353 1791 
Q 353 2603 747 3093 
Q 1141 3584 1784 3584 
Q 2172 3584 2450 3431 
Q 2728 3278 2906 2969 
L 2906 3500 
L 3481 3500 
L 3481 434 
z
" transform="scale(0.015625)"/>
       <path id="DejaVuSans-61" d="M 2194 1759 
Q 1497 1759 1228 1600 
Q 959 1441 959 1056 
Q 959 750 1161 570 
Q 1363 391 1709 391 
Q 2188 391 2477 730 
Q 2766 1069 2766 1631 
L 2766 1759 
L 2194 1759 
z
M 3341 1997 
L 3341 0 
L 2766 0 
L 2766 531 
Q 2569 213 2275 61 
Q 1981 -91 1556 -91 
Q 1019 -91 701 211 
Q 384 513 384 1019 
Q 384 1609 779 1909 
Q 1175 2209 1959 2209 
L 2766 2209 
L 2766 2266 
Q 2766 2663 2505 2880 
Q 2244 3097 1772 3097 
Q 1472 3097 1187 3025 
Q 903 2953 641 2809 
L 641 3341 
Q 956 3463 1253 3523 
Q 1550 3584 1831 3584 
Q 2591 3584 2966 3190 
Q 3341 2797 3341 1997 
z
" transform="scale(0.015625)"/>
       <path id="DejaVuSans-5f" d="M 3263 -1063 
L 3263 -1509 
L -63 -1509 
L -63 -1063 
L 3263 -1063 
z
" transform="scale(0.015625)"/>
      </defs>
      <use xlink:href="#DejaVuSans-6f"/>
      <use xlink:href="#DejaVuSans-6d" x="61.181641"/>
      <use xlink:href="#DejaVuSans-65" x="158.59375"/>
      <use xlink:href="#DejaVuSans-67" x="220.117188"/>
      <use xlink:href="#DejaVuSans-61" x="283.59375"/>
      <use xlink:href="#DejaVuSans-5f" x="344.873047"/>
      <use xlink:href="#DejaVuSans-31" x="394.873047"/>
     </g>
    </g>
    <g id="line2d_17">
     <path d="M 331.83875 45.853125 
L 341.83875 45.853125 
L 351.83875 45.853125 
" style="fill: none; stroke: #ff7f0e; stroke-width: 1.5; stroke-linecap: square"/>
    </g>
    <g id="text_14">
     <!-- omega_2 -->
     <g transform="translate(359.83875 49.353125)scale(0.1 -0.1)">
      <use xlink:href="#DejaVuSans-6f"/>
      <use xlink:href="#DejaVuSans-6d" x="61.181641"/>
      <use xlink:href="#DejaVuSans-65" x="158.59375"/>
      <use xlink:href="#DejaVuSans-67" x="220.117188"/>
      <use xlink:href="#DejaVuSans-61" x="283.59375"/>
      <use xlink:href="#DejaVuSans-5f" x="344.873047"/>
      <use xlink:href="#DejaVuSans-32" x="394.873047"/>
     </g>
    </g>
    <g id="line2d_18">
     <path d="M 331.83875 60.809375 
L 341.83875 60.809375 
L 351.83875 60.809375 
" style="fill: none; stroke: #2ca02c; stroke-width: 1.5; stroke-linecap: square"/>
    </g>
    <g id="text_15">
     <!-- omega_3 -->
     <g transform="translate(359.83875 64.309375)scale(0.1 -0.1)">
      <defs>
       <path id="DejaVuSans-33" d="M 2597 2516 
Q 3050 2419 3304 2112 
Q 3559 1806 3559 1356 
Q 3559 666 3084 287 
Q 2609 -91 1734 -91 
Q 1441 -91 1130 -33 
Q 819 25 488 141 
L 488 750 
Q 750 597 1062 519 
Q 1375 441 1716 441 
Q 2309 441 2620 675 
Q 2931 909 2931 1356 
Q 2931 1769 2642 2001 
Q 2353 2234 1838 2234 
L 1294 2234 
L 1294 2753 
L 1863 2753 
Q 2328 2753 2575 2939 
Q 2822 3125 2822 3475 
Q 2822 3834 2567 4026 
Q 2313 4219 1838 4219 
Q 1578 4219 1281 4162 
Q 984 4106 628 3988 
L 628 4550 
Q 988 4650 1302 4700 
Q 1616 4750 1894 4750 
Q 2613 4750 3031 4423 
Q 3450 4097 3450 3541 
Q 3450 3153 3228 2886 
Q 3006 2619 2597 2516 
z
" transform="scale(0.015625)"/>
      </defs>
      <use xlink:href="#DejaVuSans-6f"/>
      <use xlink:href="#DejaVuSans-6d" x="61.181641"/>
      <use xlink:href="#DejaVuSans-65" x="158.59375"/>
      <use xlink:href="#DejaVuSans-67" x="220.117188"/>
      <use xlink:href="#DejaVuSans-61" x="283.59375"/>
      <use xlink:href="#DejaVuSans-5f" x="344.873047"/>
      <use xlink:href="#DejaVuSans-33" x="394.873047"/>
     </g>
    </g>
    <g id="line2d_19">
     <path d="M 331.83875 75.765625 
L 341.83875 75.765625 
L 351.83875 75.765625 
" style="fill: none; stroke: #d62728; stroke-width: 1.5; stroke-linecap: square"/>
    </g>
    <g id="text_16">
     <!-- omega_4 -->
     <g transform="translate(359.83875 79.265625)scale(0.1 -0.1)">
      <use xlink:href="#DejaVuSans-6f"/>
      <use xlink:href="#DejaVuSans-6d" x="61.181641"/>
      <use xlink:href="#DejaVuSans-65" x="158.59375"/>
      <use xlink:href="#DejaVuSans-67" x="220.117188"/>
      <use xlink:href="#DejaVuSans-61" x="283.59375"/>
      <use xlink:href="#DejaVuSans-5f" x="344.873047"/>
      <use xlink:href="#DejaVuSans-34" x="394.873047"/>
     </g>
    </g>
   </g>
  </g>
 </g>
 <defs>
  <clipPath id="p8120c30562">
   <rect x="57.570313" y="17.798437" width="357.12" height="266.112"/>
  </clipPath>
 </defs>
</svg>
