<?xml version="1.0" encoding="utf-8" standalone="no"?>
<!DOCTYPE svg PUBLIC "-//W3C//DTD SVG 1.1//EN"
  "http://www.w3.org/Graphics/SVG/1.1/DTD/svg11.dtd">
<!-- Created with matplotlib (https://matplotlib.org/) -->
<svg height="248.518125pt" version="1.1" viewBox="0 0 391.190625 248.518125" width="391.190625pt" xmlns="http://www.w3.org/2000/svg" xmlns:xlink="http://www.w3.org/1999/xlink">
 <metadata>
  <rdf:RDF xmlns:cc="http://creativecommons.org/ns#" xmlns:dc="http://purl.org/dc/elements/1.1/" xmlns:rdf="http://www.w3.org/1999/02/22-rdf-syntax-ns#">
   <cc:Work>
    <dc:type rdf:resource="http://purl.org/dc/dcmitype/StillImage"/>
    <dc:date>2021-04-15T22:03:18.927250</dc:date>
    <dc:format>image/svg+xml</dc:format>
    <dc:creator>
     <cc:Agent>
      <dc:title>Matplotlib v3.3.2, https://matplotlib.org/</dc:title>
     </cc:Agent>
    </dc:creator>
   </cc:Work>
  </rdf:RDF>
 </metadata>
 <defs>
  <style type="text/css">*{stroke-linecap:butt;stroke-linejoin:round;}</style>
 </defs>
 <g id="figure_1">
  <g id="patch_1">
   <path d="M 0 248.518125 
L 391.190625 248.518125 
L 391.190625 0 
L 0 0 
z
" style="fill:none;"/>
  </g>
  <g id="axes_1">
   <g id="patch_2">
    <path d="M 49.190625 224.64 
L 383.990625 224.64 
L 383.990625 7.2 
L 49.190625 7.2 
z
" style="fill:#ffffff;"/>
   </g>
   <g id="matplotlib.axis_1">
    <g id="xtick_1">
     <g id="line2d_1">
      <defs>
       <path d="M 0 0 
L 0 3.5 
" id="mdc77f8a353" style="stroke:#000000;stroke-width:0.8;"/>
      </defs>
      <g>
       <use style="stroke:#000000;stroke-width:0.8;" x="64.408807" xlink:href="#mdc77f8a353" y="224.64"/>
      </g>
     </g>
     <g id="text_1">
      <!-- 0 -->
      <g transform="translate(61.227557 239.238438)scale(0.1 -0.1)">
       <defs>
        <path d="M 31.78125 66.40625 
Q 24.171875 66.40625 20.328125 58.90625 
Q 16.5 51.421875 16.5 36.375 
Q 16.5 21.390625 20.328125 13.890625 
Q 24.171875 6.390625 31.78125 6.390625 
Q 39.453125 6.390625 43.28125 13.890625 
Q 47.125 21.390625 47.125 36.375 
Q 47.125 51.421875 43.28125 58.90625 
Q 39.453125 66.40625 31.78125 66.40625 
z
M 31.78125 74.21875 
Q 44.046875 74.21875 50.515625 64.515625 
Q 56.984375 54.828125 56.984375 36.375 
Q 56.984375 17.96875 50.515625 8.265625 
Q 44.046875 -1.421875 31.78125 -1.421875 
Q 19.53125 -1.421875 13.0625 8.265625 
Q 6.59375 17.96875 6.59375 36.375 
Q 6.59375 54.828125 13.0625 64.515625 
Q 19.53125 74.21875 31.78125 74.21875 
z
" id="DejaVuSans-48"/>
       </defs>
       <use xlink:href="#DejaVuSans-48"/>
      </g>
     </g>
    </g>
    <g id="xtick_2">
     <g id="line2d_2">
      <g>
       <use style="stroke:#000000;stroke-width:0.8;" x="105.017698" xlink:href="#mdc77f8a353" y="224.64"/>
      </g>
     </g>
     <g id="text_2">
      <!-- 2 -->
      <g transform="translate(101.836448 239.238438)scale(0.1 -0.1)">
       <defs>
        <path d="M 19.1875 8.296875 
L 53.609375 8.296875 
L 53.609375 0 
L 7.328125 0 
L 7.328125 8.296875 
Q 12.9375 14.109375 22.625 23.890625 
Q 32.328125 33.6875 34.8125 36.53125 
Q 39.546875 41.84375 41.421875 45.53125 
Q 43.3125 49.21875 43.3125 52.78125 
Q 43.3125 58.59375 39.234375 62.25 
Q 35.15625 65.921875 28.609375 65.921875 
Q 23.96875 65.921875 18.8125 64.3125 
Q 13.671875 62.703125 7.8125 59.421875 
L 7.8125 69.390625 
Q 13.765625 71.78125 18.9375 73 
Q 24.125 74.21875 28.421875 74.21875 
Q 39.75 74.21875 46.484375 68.546875 
Q 53.21875 62.890625 53.21875 53.421875 
Q 53.21875 48.921875 51.53125 44.890625 
Q 49.859375 40.875 45.40625 35.40625 
Q 44.1875 33.984375 37.640625 27.21875 
Q 31.109375 20.453125 19.1875 8.296875 
z
" id="DejaVuSans-50"/>
       </defs>
       <use xlink:href="#DejaVuSans-50"/>
      </g>
     </g>
    </g>
    <g id="xtick_3">
     <g id="line2d_3">
      <g>
       <use style="stroke:#000000;stroke-width:0.8;" x="145.626588" xlink:href="#mdc77f8a353" y="224.64"/>
      </g>
     </g>
     <g id="text_3">
      <!-- 4 -->
      <g transform="translate(142.445338 239.238438)scale(0.1 -0.1)">
       <defs>
        <path d="M 37.796875 64.3125 
L 12.890625 25.390625 
L 37.796875 25.390625 
z
M 35.203125 72.90625 
L 47.609375 72.90625 
L 47.609375 25.390625 
L 58.015625 25.390625 
L 58.015625 17.1875 
L 47.609375 17.1875 
L 47.609375 0 
L 37.796875 0 
L 37.796875 17.1875 
L 4.890625 17.1875 
L 4.890625 26.703125 
z
" id="DejaVuSans-52"/>
       </defs>
       <use xlink:href="#DejaVuSans-52"/>
      </g>
     </g>
    </g>
    <g id="xtick_4">
     <g id="line2d_4">
      <g>
       <use style="stroke:#000000;stroke-width:0.8;" x="186.235479" xlink:href="#mdc77f8a353" y="224.64"/>
      </g>
     </g>
     <g id="text_4">
      <!-- 6 -->
      <g transform="translate(183.054229 239.238438)scale(0.1 -0.1)">
       <defs>
        <path d="M 33.015625 40.375 
Q 26.375 40.375 22.484375 35.828125 
Q 18.609375 31.296875 18.609375 23.390625 
Q 18.609375 15.53125 22.484375 10.953125 
Q 26.375 6.390625 33.015625 6.390625 
Q 39.65625 6.390625 43.53125 10.953125 
Q 47.40625 15.53125 47.40625 23.390625 
Q 47.40625 31.296875 43.53125 35.828125 
Q 39.65625 40.375 33.015625 40.375 
z
M 52.59375 71.296875 
L 52.59375 62.3125 
Q 48.875 64.0625 45.09375 64.984375 
Q 41.3125 65.921875 37.59375 65.921875 
Q 27.828125 65.921875 22.671875 59.328125 
Q 17.53125 52.734375 16.796875 39.40625 
Q 19.671875 43.65625 24.015625 45.921875 
Q 28.375 48.1875 33.59375 48.1875 
Q 44.578125 48.1875 50.953125 41.515625 
Q 57.328125 34.859375 57.328125 23.390625 
Q 57.328125 12.15625 50.6875 5.359375 
Q 44.046875 -1.421875 33.015625 -1.421875 
Q 20.359375 -1.421875 13.671875 8.265625 
Q 6.984375 17.96875 6.984375 36.375 
Q 6.984375 53.65625 15.1875 63.9375 
Q 23.390625 74.21875 37.203125 74.21875 
Q 40.921875 74.21875 44.703125 73.484375 
Q 48.484375 72.75 52.59375 71.296875 
z
" id="DejaVuSans-54"/>
       </defs>
       <use xlink:href="#DejaVuSans-54"/>
      </g>
     </g>
    </g>
    <g id="xtick_5">
     <g id="line2d_5">
      <g>
       <use style="stroke:#000000;stroke-width:0.8;" x="226.84437" xlink:href="#mdc77f8a353" y="224.64"/>
      </g>
     </g>
     <g id="text_5">
      <!-- 8 -->
      <g transform="translate(223.66312 239.238438)scale(0.1 -0.1)">
       <defs>
        <path d="M 31.78125 34.625 
Q 24.75 34.625 20.71875 30.859375 
Q 16.703125 27.09375 16.703125 20.515625 
Q 16.703125 13.921875 20.71875 10.15625 
Q 24.75 6.390625 31.78125 6.390625 
Q 38.8125 6.390625 42.859375 10.171875 
Q 46.921875 13.96875 46.921875 20.515625 
Q 46.921875 27.09375 42.890625 30.859375 
Q 38.875 34.625 31.78125 34.625 
z
M 21.921875 38.8125 
Q 15.578125 40.375 12.03125 44.71875 
Q 8.5 49.078125 8.5 55.328125 
Q 8.5 64.0625 14.71875 69.140625 
Q 20.953125 74.21875 31.78125 74.21875 
Q 42.671875 74.21875 48.875 69.140625 
Q 55.078125 64.0625 55.078125 55.328125 
Q 55.078125 49.078125 51.53125 44.71875 
Q 48 40.375 41.703125 38.8125 
Q 48.828125 37.15625 52.796875 32.3125 
Q 56.78125 27.484375 56.78125 20.515625 
Q 56.78125 9.90625 50.3125 4.234375 
Q 43.84375 -1.421875 31.78125 -1.421875 
Q 19.734375 -1.421875 13.25 4.234375 
Q 6.78125 9.90625 6.78125 20.515625 
Q 6.78125 27.484375 10.78125 32.3125 
Q 14.796875 37.15625 21.921875 38.8125 
z
M 18.3125 54.390625 
Q 18.3125 48.734375 21.84375 45.5625 
Q 25.390625 42.390625 31.78125 42.390625 
Q 38.140625 42.390625 41.71875 45.5625 
Q 45.3125 48.734375 45.3125 54.390625 
Q 45.3125 60.0625 41.71875 63.234375 
Q 38.140625 66.40625 31.78125 66.40625 
Q 25.390625 66.40625 21.84375 63.234375 
Q 18.3125 60.0625 18.3125 54.390625 
z
" id="DejaVuSans-56"/>
       </defs>
       <use xlink:href="#DejaVuSans-56"/>
      </g>
     </g>
    </g>
    <g id="xtick_6">
     <g id="line2d_6">
      <g>
       <use style="stroke:#000000;stroke-width:0.8;" x="267.453261" xlink:href="#mdc77f8a353" y="224.64"/>
      </g>
     </g>
     <g id="text_6">
      <!-- 10 -->
      <g transform="translate(261.090761 239.238438)scale(0.1 -0.1)">
       <defs>
        <path d="M 12.40625 8.296875 
L 28.515625 8.296875 
L 28.515625 63.921875 
L 10.984375 60.40625 
L 10.984375 69.390625 
L 28.421875 72.90625 
L 38.28125 72.90625 
L 38.28125 8.296875 
L 54.390625 8.296875 
L 54.390625 0 
L 12.40625 0 
z
" id="DejaVuSans-49"/>
       </defs>
       <use xlink:href="#DejaVuSans-49"/>
       <use x="63.623047" xlink:href="#DejaVuSans-48"/>
      </g>
     </g>
    </g>
    <g id="xtick_7">
     <g id="line2d_7">
      <g>
       <use style="stroke:#000000;stroke-width:0.8;" x="308.062151" xlink:href="#mdc77f8a353" y="224.64"/>
      </g>
     </g>
     <g id="text_7">
      <!-- 12 -->
      <g transform="translate(301.699651 239.238438)scale(0.1 -0.1)">
       <use xlink:href="#DejaVuSans-49"/>
       <use x="63.623047" xlink:href="#DejaVuSans-50"/>
      </g>
     </g>
    </g>
    <g id="xtick_8">
     <g id="line2d_8">
      <g>
       <use style="stroke:#000000;stroke-width:0.8;" x="348.671042" xlink:href="#mdc77f8a353" y="224.64"/>
      </g>
     </g>
     <g id="text_8">
      <!-- 14 -->
      <g transform="translate(342.308542 239.238438)scale(0.1 -0.1)">
       <use xlink:href="#DejaVuSans-49"/>
       <use x="63.623047" xlink:href="#DejaVuSans-52"/>
      </g>
     </g>
    </g>
   </g>
   <g id="matplotlib.axis_2">
    <g id="ytick_1">
     <g id="line2d_9">
      <defs>
       <path d="M 0 0 
L -3.5 0 
" id="mbaa8afd9d6" style="stroke:#000000;stroke-width:0.8;"/>
      </defs>
      <g>
       <use style="stroke:#000000;stroke-width:0.8;" x="49.190625" xlink:href="#mbaa8afd9d6" y="188.491857"/>
      </g>
     </g>
     <g id="text_9">
      <!-- 0.9990 -->
      <g transform="translate(7.2 192.291076)scale(0.1 -0.1)">
       <defs>
        <path d="M 10.6875 12.40625 
L 21 12.40625 
L 21 0 
L 10.6875 0 
z
" id="DejaVuSans-46"/>
        <path d="M 10.984375 1.515625 
L 10.984375 10.5 
Q 14.703125 8.734375 18.5 7.8125 
Q 22.3125 6.890625 25.984375 6.890625 
Q 35.75 6.890625 40.890625 13.453125 
Q 46.046875 20.015625 46.78125 33.40625 
Q 43.953125 29.203125 39.59375 26.953125 
Q 35.25 24.703125 29.984375 24.703125 
Q 19.046875 24.703125 12.671875 31.3125 
Q 6.296875 37.9375 6.296875 49.421875 
Q 6.296875 60.640625 12.9375 67.421875 
Q 19.578125 74.21875 30.609375 74.21875 
Q 43.265625 74.21875 49.921875 64.515625 
Q 56.59375 54.828125 56.59375 36.375 
Q 56.59375 19.140625 48.40625 8.859375 
Q 40.234375 -1.421875 26.421875 -1.421875 
Q 22.703125 -1.421875 18.890625 -0.6875 
Q 15.09375 0.046875 10.984375 1.515625 
z
M 30.609375 32.421875 
Q 37.25 32.421875 41.125 36.953125 
Q 45.015625 41.5 45.015625 49.421875 
Q 45.015625 57.28125 41.125 61.84375 
Q 37.25 66.40625 30.609375 66.40625 
Q 23.96875 66.40625 20.09375 61.84375 
Q 16.21875 57.28125 16.21875 49.421875 
Q 16.21875 41.5 20.09375 36.953125 
Q 23.96875 32.421875 30.609375 32.421875 
z
" id="DejaVuSans-57"/>
       </defs>
       <use xlink:href="#DejaVuSans-48"/>
       <use x="63.623047" xlink:href="#DejaVuSans-46"/>
       <use x="95.410156" xlink:href="#DejaVuSans-57"/>
       <use x="159.033203" xlink:href="#DejaVuSans-57"/>
       <use x="222.65625" xlink:href="#DejaVuSans-57"/>
       <use x="286.279297" xlink:href="#DejaVuSans-48"/>
      </g>
     </g>
    </g>
    <g id="ytick_2">
     <g id="line2d_10">
      <g>
       <use style="stroke:#000000;stroke-width:0.8;" x="49.190625" xlink:href="#mbaa8afd9d6" y="140.662545"/>
      </g>
     </g>
     <g id="text_10">
      <!-- 0.9995 -->
      <g transform="translate(7.2 144.461764)scale(0.1 -0.1)">
       <defs>
        <path d="M 10.796875 72.90625 
L 49.515625 72.90625 
L 49.515625 64.59375 
L 19.828125 64.59375 
L 19.828125 46.734375 
Q 21.96875 47.46875 24.109375 47.828125 
Q 26.265625 48.1875 28.421875 48.1875 
Q 40.625 48.1875 47.75 41.5 
Q 54.890625 34.8125 54.890625 23.390625 
Q 54.890625 11.625 47.5625 5.09375 
Q 40.234375 -1.421875 26.90625 -1.421875 
Q 22.3125 -1.421875 17.546875 -0.640625 
Q 12.796875 0.140625 7.71875 1.703125 
L 7.71875 11.625 
Q 12.109375 9.234375 16.796875 8.0625 
Q 21.484375 6.890625 26.703125 6.890625 
Q 35.15625 6.890625 40.078125 11.328125 
Q 45.015625 15.765625 45.015625 23.390625 
Q 45.015625 31 40.078125 35.4375 
Q 35.15625 39.890625 26.703125 39.890625 
Q 22.75 39.890625 18.8125 39.015625 
Q 14.890625 38.140625 10.796875 36.28125 
z
" id="DejaVuSans-53"/>
       </defs>
       <use xlink:href="#DejaVuSans-48"/>
       <use x="63.623047" xlink:href="#DejaVuSans-46"/>
       <use x="95.410156" xlink:href="#DejaVuSans-57"/>
       <use x="159.033203" xlink:href="#DejaVuSans-57"/>
       <use x="222.65625" xlink:href="#DejaVuSans-57"/>
       <use x="286.279297" xlink:href="#DejaVuSans-53"/>
      </g>
     </g>
    </g>
    <g id="ytick_3">
     <g id="line2d_11">
      <g>
       <use style="stroke:#000000;stroke-width:0.8;" x="49.190625" xlink:href="#mbaa8afd9d6" y="92.833233"/>
      </g>
     </g>
     <g id="text_11">
      <!-- 1.0000 -->
      <g transform="translate(7.2 96.632452)scale(0.1 -0.1)">
       <use xlink:href="#DejaVuSans-49"/>
       <use x="63.623047" xlink:href="#DejaVuSans-46"/>
       <use x="95.410156" xlink:href="#DejaVuSans-48"/>
       <use x="159.033203" xlink:href="#DejaVuSans-48"/>
       <use x="222.65625" xlink:href="#DejaVuSans-48"/>
       <use x="286.279297" xlink:href="#DejaVuSans-48"/>
      </g>
     </g>
    </g>
    <g id="ytick_4">
     <g id="line2d_12">
      <g>
       <use style="stroke:#000000;stroke-width:0.8;" x="49.190625" xlink:href="#mbaa8afd9d6" y="45.003921"/>
      </g>
     </g>
     <g id="text_12">
      <!-- 1.0005 -->
      <g transform="translate(7.2 48.80314)scale(0.1 -0.1)">
       <use xlink:href="#DejaVuSans-49"/>
       <use x="63.623047" xlink:href="#DejaVuSans-46"/>
       <use x="95.410156" xlink:href="#DejaVuSans-48"/>
       <use x="159.033203" xlink:href="#DejaVuSans-48"/>
       <use x="222.65625" xlink:href="#DejaVuSans-48"/>
       <use x="286.279297" xlink:href="#DejaVuSans-53"/>
      </g>
     </g>
    </g>
   </g>
   <g id="line2d_13">
    <path clip-path="url(#pdbc040dd67)" d="M 64.408807 92.737871 
L 84.713252 92.737871 
L 84.916297 93.060134 
L 85.119341 94.077385 
L 85.52543 98.02918 
L 86.134563 107.866241 
L 86.946741 125.750054 
L 89.586319 188.657428 
L 90.398497 202.315129 
L 91.00763 209.454428 
L 91.413719 212.584264 
L 91.819808 214.357334 
L 92.022853 214.728732 
L 92.225897 214.756364 
L 92.428941 214.441822 
L 92.83503 212.799697 
L 93.241119 209.842897 
L 93.850253 203.081529 
L 94.459386 193.787108 
L 95.271564 178.088661 
L 96.489831 149.575819 
L 99.535497 75.45025 
L 100.55072 56.645541 
L 101.362897 45.297097 
L 101.972031 39.153577 
L 102.581164 35.086294 
L 102.987253 33.512966 
L 103.393342 32.819801 
L 103.596386 32.791217 
L 103.799431 32.966747 
L 104.20552 33.90248 
L 104.611609 35.565615 
L 105.220742 39.26873 
L 106.03292 46.039944 
L 107.251187 58.690742 
L 109.484676 82.336174 
L 110.499898 90.425139 
L 111.109031 93.946652 
L 111.718165 96.341177 
L 112.124253 97.2872 
L 112.530342 97.710944 
L 112.733387 97.729564 
L 113.139476 97.390814 
L 113.545565 96.571503 
L 114.154698 94.514789 
L 114.763831 91.594302 
L 115.779054 85.297424 
L 118.82472 64.891177 
L 119.636898 61.471849 
L 120.246032 59.963442 
L 120.652121 59.523536 
L 120.855165 59.482258 
L 121.058209 59.562903 
L 121.464298 60.095273 
L 121.870387 61.126038 
L 122.479521 63.597912 
L 123.088654 67.137956 
L 123.900832 73.368776 
L 124.916054 83.14853 
L 126.54041 101.476561 
L 128.36781 121.730396 
L 129.383032 130.849078 
L 130.19521 136.34423 
L 130.804343 139.21239 
L 131.210432 140.476038 
L 131.616521 141.199905 
L 132.02261 141.374085 
L 132.225654 141.253934 
L 132.631743 140.600886 
L 133.037832 139.404998 
L 133.646966 136.627959 
L 134.256099 132.742737 
L 135.068277 126.028696 
L 136.083499 115.639415 
L 137.707855 96.233995 
L 139.941344 69.511984 
L 141.15961 57.462953 
L 142.174833 49.676392 
L 142.98701 45.15385 
L 143.596144 42.806719 
L 144.205277 41.356081 
L 144.611366 40.876065 
L 145.017455 40.771917 
L 145.423544 41.027542 
L 145.829633 41.623466 
L 146.438766 43.105611 
L 147.0479 45.21638 
L 147.860077 48.843004 
L 149.078344 55.532652 
L 153.545322 81.701192 
L 154.763589 87.122225 
L 155.981856 91.517743 
L 157.200122 95.037458 
L 158.621433 98.374904 
L 161.261011 103.756533 
L 165.524945 112.22573 
L 166.540167 113.610267 
L 167.1493 114.151475 
L 167.758434 114.42072 
L 168.367567 114.376319 
L 168.976701 113.981466 
L 169.585834 113.205957 
L 170.194967 112.027703 
L 171.007145 109.809634 
L 171.819323 106.852511 
L 172.834545 102.170111 
L 174.052812 95.29977 
L 175.677168 84.676159 
L 178.722834 64.462643 
L 179.941101 57.926408 
L 180.956323 53.729652 
L 181.768501 51.349167 
L 182.377635 50.185547 
L 182.783723 49.717655 
L 183.189812 49.499967 
L 183.595901 49.53344 
L 184.00199 49.816915 
L 184.408079 50.34716 
L 185.017212 51.59324 
L 185.626346 53.356664 
L 186.438524 56.451816 
L 187.453746 61.367466 
L 188.672013 68.474537 
L 190.702457 81.99142 
L 193.342035 99.4217 
L 194.763346 107.381354 
L 195.981613 112.938482 
L 196.996835 116.539064 
L 197.809013 118.704429 
L 198.621191 120.22349 
L 199.230324 120.941113 
L 199.839458 121.304077 
L 200.448591 121.321874 
L 201.057724 121.006579 
L 201.666858 120.372364 
L 202.275991 119.435073 
L 203.088169 117.743676 
L 204.103391 114.980977 
L 205.321658 110.833539 
L 206.742969 105.05453 
L 208.570369 96.563304 
L 213.849525 71.259844 
L 215.067792 66.635096 
L 216.083014 63.496831 
L 216.895192 61.542822 
L 217.707369 60.142781 
L 218.316503 59.483785 
L 218.925636 59.17697 
L 219.331725 59.173742 
L 219.737814 59.334317 
L 220.346947 59.885059 
L 220.956081 60.80794 
L 221.565214 62.098817 
L 222.377392 64.375916 
L 223.392614 68.062988 
L 224.610881 73.578943 
L 226.032192 81.201559 
L 228.468726 95.825352 
L 230.702215 108.793357 
L 232.123526 115.753286 
L 233.138748 119.768012 
L 233.950926 122.293332 
L 234.763104 124.147708 
L 235.372237 125.074546 
L 235.98137 125.592528 
L 236.387459 125.708535 
L 236.793548 125.641203 
L 237.199637 125.391872 
L 237.80877 124.68221 
L 238.417904 123.581304 
L 239.230082 121.535902 
L 240.042259 118.881115 
L 241.057482 114.809136 
L 242.478793 107.984095 
L 244.509237 96.850414 
L 247.554904 80.102073 
L 248.976215 73.420165 
L 250.194482 68.693674 
L 251.209704 65.607375 
L 252.021882 63.756853 
L 252.83406 62.489233 
L 253.443193 61.932997 
L 254.052327 61.719806 
L 254.458416 61.768783 
L 255.067549 62.127436 
L 255.676682 62.823874 
L 256.285816 63.850159 
L 257.097994 65.712029 
L 258.113216 68.782044 
L 259.128438 72.594202 
L 260.346705 77.993919 
L 261.97106 86.219761 
L 266.844127 111.755281 
L 268.062394 116.804369 
L 269.077616 120.203771 
L 269.889794 122.305306 
L 270.701972 123.802788 
L 271.311105 124.506591 
L 271.920239 124.838754 
L 272.326328 124.850552 
L 272.732416 124.693773 
L 273.34155 124.143516 
L 273.950683 123.220103 
L 274.762861 121.426369 
L 275.575039 119.024214 
L 276.590261 115.244532 
L 277.808528 109.74095 
L 279.432883 101.211225 
L 284.30595 74.699137 
L 285.524217 69.529408 
L 286.539439 66.060425 
L 287.351617 63.911245 
L 288.163795 62.361883 
L 288.772928 61.609836 
L 289.382062 61.216562 
L 289.788151 61.154925 
L 290.19424 61.253405 
L 290.803373 61.698568 
L 291.412506 62.493952 
L 292.02164 63.628536 
L 292.833817 65.643153 
L 293.84904 68.904189 
L 295.067306 73.762234 
L 296.488618 80.445738 
L 298.722107 92.190664 
L 301.361684 105.876986 
L 302.782996 112.199076 
L 304.001262 116.630049 
L 305.016485 119.462949 
L 305.828662 121.095971 
L 306.437796 121.926432 
L 307.046929 122.406439 
L 307.453018 122.528189 
L 307.859107 122.490045 
L 308.265196 122.291842 
L 308.874329 121.696146 
L 309.483463 120.747914 
L 310.29564 118.953307 
L 311.107818 116.585861 
L 312.123041 112.895044 
L 313.341307 107.552817 
L 314.965663 99.297503 
L 319.83873 73.522026 
L 321.056997 68.429631 
L 322.072219 64.982451 
L 322.884397 62.82402 
L 323.696574 61.243875 
L 324.305708 60.456296 
L 324.914841 60.018368 
L 325.32093 59.92264 
L 325.727019 59.984114 
L 326.336152 60.369333 
L 326.945286 61.100848 
L 327.554419 62.169151 
L 328.366597 64.094061 
L 329.381819 67.244887 
L 330.600086 71.979314 
L 332.021397 78.536469 
L 334.254886 90.125874 
L 336.894464 103.68141 
L 338.315775 109.947073 
L 339.534042 114.334856 
L 340.549264 117.135847 
L 341.361442 118.747001 
L 341.970575 119.563919 
L 342.579709 120.033473 
L 343.188842 120.14945 
L 343.594931 120.029174 
L 344.204064 119.55352 
L 344.813198 118.728438 
L 345.422331 117.563261 
L 346.234509 115.504487 
L 347.249731 112.18133 
L 348.467998 107.240858 
L 349.889309 100.462903 
L 352.528887 86.44318 
L 354.762376 75.03427 
L 356.183687 68.862735 
L 357.401954 64.60162 
L 358.417176 61.922843 
L 359.229354 60.410285 
L 359.838487 59.662965 
L 360.447621 59.255992 
L 361.056754 59.19289 
L 361.665887 59.473332 
L 362.275021 60.093182 
L 362.884154 61.044567 
L 363.696332 62.808426 
L 364.50851 65.104033 
L 365.523732 68.648726 
L 366.741999 73.741821 
L 368.366354 81.572132 
L 368.772443 83.650801 
L 368.772443 83.650801 
" style="fill:none;stroke:#1f77b4;stroke-linecap:square;stroke-width:1.5;"/>
   </g>
   <g id="line2d_14">
    <path clip-path="url(#pdbc040dd67)" d="M 64.408807 92.79334 
L 84.713252 92.79334 
L 84.916297 92.60274 
L 85.119341 91.998516 
L 85.52543 89.617254 
L 86.134563 83.505335 
L 86.946741 71.933388 
L 89.789364 27.731525 
L 90.398497 21.878226 
L 91.00763 18.263538 
L 91.413719 17.199353 
L 91.616764 17.083636 
L 91.819808 17.247693 
L 92.022853 17.691366 
L 92.428941 19.409976 
L 92.83503 22.210909 
L 93.444164 28.329339 
L 94.256342 39.665403 
L 95.271564 57.790281 
L 99.129408 131.804517 
L 99.941586 141.558456 
L 100.55072 146.457723 
L 100.956809 148.484723 
L 101.362897 149.491753 
L 101.565942 149.610335 
L 101.768986 149.473063 
L 101.972031 149.081787 
L 102.37812 147.549576 
L 102.784209 145.047976 
L 103.393342 139.588657 
L 104.20552 129.482507 
L 105.220742 113.285793 
L 107.048142 79.118045 
L 108.672498 50.266165 
L 109.68772 35.956294 
L 110.499898 27.547355 
L 111.109031 23.281245 
L 111.51512 21.466627 
L 111.921209 20.492305 
L 112.124253 20.320991 
L 112.327298 20.359156 
L 112.530342 20.605078 
L 112.936431 21.709763 
L 113.34252 23.607355 
L 113.951654 27.854234 
L 114.763831 35.856308 
L 115.779054 48.875776 
L 117.403409 73.752844 
L 119.433854 104.529969 
L 120.449076 117.027285 
L 121.261254 124.818294 
L 122.073432 130.349568 
L 122.682565 132.935934 
L 123.088654 133.912938 
L 123.494743 134.303957 
L 123.697787 134.285445 
L 124.103876 133.836004 
L 124.509965 132.862663 
L 125.119099 130.502399 
L 125.728232 127.194712 
L 126.54041 121.605674 
L 127.961721 109.833404 
L 130.19521 91.213042 
L 131.210432 84.472852 
L 132.02261 80.31998 
L 132.834788 77.389458 
L 133.443921 76.004212 
L 133.85001 75.454699 
L 134.256099 75.188025 
L 134.662188 75.184983 
L 135.068277 75.422285 
L 135.67741 76.169417 
L 136.489588 77.733729 
L 137.707855 80.747729 
L 139.129166 84.173413 
L 139.941344 85.607513 
L 140.550477 86.284264 
L 140.956566 86.512962 
L 141.362655 86.549825 
L 141.768744 86.387685 
L 142.174833 86.023638 
L 142.783966 85.103071 
L 143.393099 83.754127 
L 144.205277 81.363685 
L 145.220499 77.639041 
L 148.672255 64.243851 
L 149.484433 62.232028 
L 150.093566 61.271726 
L 150.499655 60.92607 
L 150.905744 60.831735 
L 151.311833 60.998327 
L 151.717922 61.431876 
L 152.327055 62.586936 
L 152.936189 64.339611 
L 153.748367 67.558877 
L 154.763589 72.838532 
L 155.981856 80.582181 
L 160.042745 108.000013 
L 161.057967 112.922574 
L 161.870145 115.811937 
L 162.479278 117.300916 
L 163.088411 118.183091 
L 163.4945 118.430578 
L 163.900589 118.407619 
L 164.306678 118.119333 
L 164.712767 117.573671 
L 165.3219 116.296469 
L 165.931034 114.510438 
L 166.743212 111.436155 
L 167.758434 106.702414 
L 169.382789 97.877527 
L 172.022367 83.444524 
L 173.240634 77.882086 
L 174.255856 74.093917 
L 175.271079 71.159914 
L 176.083256 69.436148 
L 176.895434 68.245115 
L 177.504568 67.678277 
L 178.113701 67.367465 
L 178.722834 67.288044 
L 179.331968 67.413733 
L 180.144146 67.854276 
L 180.956323 68.551017 
L 181.971546 69.699349 
L 183.392857 71.6767 
L 185.220257 74.662403 
L 187.047657 78.109489 
L 188.672013 81.666775 
L 190.296368 85.803417 
L 192.123768 91.163862 
L 197.402924 107.352843 
L 198.418146 109.545262 
L 199.230324 110.840425 
L 199.839458 111.502698 
L 200.448591 111.875941 
L 201.057724 111.943772 
L 201.666858 111.69534 
L 202.275991 111.12577 
L 202.885124 110.236438 
L 203.697302 108.567537 
L 204.50948 106.380285 
L 205.524702 103.00169 
L 206.946013 97.332562 
L 209.99168 83.71663 
L 211.616036 77.112227 
L 212.834303 73.046299 
L 213.849525 70.427814 
L 214.661703 68.904168 
L 215.270836 68.113982 
L 215.879969 67.632588 
L 216.489103 67.460436 
L 217.098236 67.593146 
L 217.707369 68.02184 
L 218.316503 68.73354 
L 219.128681 70.093539 
L 220.143903 72.385494 
L 221.36217 75.857728 
L 222.783481 80.637257 
L 225.626103 91.232629 
L 227.859592 99.203921 
L 229.483948 104.192195 
L 230.702215 107.291654 
L 231.717437 109.378868 
L 232.732659 110.969155 
L 233.544837 111.860043 
L 234.357015 112.396734 
L 234.966148 112.560571 
L 235.575281 112.516619 
L 236.184415 112.263521 
L 236.793548 111.801475 
L 237.605726 110.863941 
L 238.417904 109.568246 
L 239.433126 107.470172 
L 240.651393 104.314669 
L 242.072704 99.901743 
L 244.103149 92.706445 
L 247.35186 81.131951 
L 248.773171 76.93662 
L 249.788393 74.527997 
L 250.600571 73.028133 
L 251.412749 71.950088 
L 252.021882 71.435896 
L 252.631016 71.183234 
L 253.240149 71.196537 
L 253.849282 71.476566 
L 254.458416 72.020393 
L 255.270593 73.143992 
L 256.082771 74.699241 
L 257.097994 77.195131 
L 258.31626 80.878391 
L 259.940616 86.639419 
L 264.813683 104.705058 
L 266.03195 108.254487 
L 267.047172 110.649367 
L 268.062394 112.45648 
L 268.874572 113.444594 
L 269.483705 113.907525 
L 270.092839 114.12781 
L 270.701972 114.104586 
L 271.311105 113.83966 
L 271.920239 113.337443 
L 272.732416 112.311016 
L 273.544594 110.898327 
L 274.559817 108.635708 
L 275.778083 105.289813 
L 277.199394 100.709806 
L 279.635928 91.945144 
L 282.072461 83.356398 
L 283.493773 79.034031 
L 284.712039 75.988555 
L 285.727262 74.02256 
L 286.539439 72.870185 
L 287.351617 72.117608 
L 287.960751 71.825234 
L 288.569884 71.770169 
L 289.179017 71.953164 
L 289.788151 72.372215 
L 290.600328 73.289549 
L 291.412506 74.599075 
L 292.427729 76.745785 
L 293.645995 79.97589 
L 295.067306 84.452814 
L 297.300795 92.35782 
L 299.940373 101.557178 
L 301.361684 105.773717 
L 302.579951 108.699165 
L 303.595173 110.542354 
L 304.407351 111.581732 
L 305.016485 112.09184 
L 305.625618 112.363623 
L 306.234751 112.393463 
L 306.843885 112.180596 
L 307.453018 111.727119 
L 308.265196 110.757151 
L 309.077374 109.387937 
L 310.092596 107.158076 
L 311.310863 103.818412 
L 312.732174 99.205102 
L 315.168707 90.324645 
L 317.605241 81.631109 
L 319.026552 77.284876 
L 320.244819 74.247322 
L 321.260041 72.306713 
L 322.072219 71.184549 
L 322.884397 70.468198 
L 323.49353 70.205069 
L 324.102663 70.179428 
L 324.711797 70.390536 
L 325.32093 70.834908 
L 326.133108 71.779228 
L 326.945286 73.105255 
L 327.960508 75.254151 
L 329.178775 78.455798 
L 330.600086 82.854916 
L 333.036619 91.268663 
L 335.473153 99.450802 
L 336.894464 103.51772 
L 338.112731 106.341332 
L 339.127953 108.125404 
L 339.940131 109.136991 
L 340.752309 109.755048 
L 341.361442 109.951666 
L 341.970575 109.916068 
L 342.579709 109.648031 
L 343.188842 109.149991 
L 344.00102 108.137329 
L 344.813198 106.744383 
L 345.82842 104.510591 
L 347.046687 101.20132 
L 348.467998 96.666265 
L 350.904531 88.005742 
L 353.341065 79.609323 
L 354.762376 75.459779 
L 355.980643 72.59932 
L 356.995865 70.809562 
L 357.808043 69.808592 
L 358.417176 69.322811 
L 359.026309 69.070078 
L 359.635443 69.052725 
L 360.244576 69.270275 
L 360.853709 69.719466 
L 361.665887 70.667984 
L 362.478065 71.995929 
L 363.493287 74.14426 
L 364.711554 77.341 
L 366.132865 81.728465 
L 368.772443 90.816334 
L 368.772443 90.816334 
" style="fill:none;stroke:#ff7f0e;stroke-linecap:square;stroke-width:1.5;"/>
   </g>
   <g id="line2d_15">
    <path clip-path="url(#pdbc040dd67)" d="M 64.408807 92.871692 
L 84.916297 92.825544 
L 85.322386 92.44346 
L 85.931519 91.286203 
L 86.743697 89.083616 
L 88.977186 81.982591 
L 91.413719 74.566329 
L 92.83503 70.917563 
L 93.850253 68.85391 
L 94.66243 67.632683 
L 95.271564 67.011226 
L 95.880697 66.671025 
L 96.489831 66.635268 
L 97.098964 66.923793 
L 97.708097 67.552263 
L 98.317231 68.531284 
L 99.129408 70.389 
L 99.941586 72.869153 
L 100.956809 76.792379 
L 102.175075 82.53908 
L 103.799431 91.406177 
L 106.845098 108.197074 
L 108.063364 113.591456 
L 109.078587 117.038825 
L 109.890764 118.982752 
L 110.499898 119.92418 
L 111.109031 120.404576 
L 111.51512 120.464737 
L 111.921209 120.316456 
L 112.327298 119.961264 
L 112.936431 119.047783 
L 113.545565 117.69319 
L 114.357742 115.244119 
L 115.372965 111.260568 
L 116.591231 105.383004 
L 118.418632 95.151848 
L 121.464298 77.885015 
L 122.88561 71.144938 
L 124.103876 66.50266 
L 125.119099 63.553301 
L 125.931276 61.826645 
L 126.743454 60.666527 
L 127.352588 60.162473 
L 127.961721 59.96312 
L 128.570854 60.057186 
L 129.179988 60.431044 
L 129.789121 61.069198 
L 130.601299 62.301778 
L 131.413477 63.931135 
L 132.428699 66.457472 
L 133.646966 70.089751 
L 135.271321 75.7032 
L 137.707855 85.077734 
L 141.15961 98.355116 
L 142.783966 103.759968 
L 144.002233 107.129699 
L 145.017455 109.351036 
L 145.829633 110.674962 
L 146.641811 111.547913 
L 147.250944 111.883684 
L 147.860077 111.931574 
L 148.469211 111.681976 
L 149.078344 111.128933 
L 149.687477 110.270506 
L 150.499655 108.655649 
L 151.311833 106.520817 
L 152.327055 103.172465 
L 153.545322 98.288254 
L 155.169678 90.690822 
L 159.636656 69.05 
L 160.854922 64.485823 
L 161.870145 61.521326 
L 162.682322 59.78279 
L 163.291456 58.876264 
L 163.900589 58.323287 
L 164.509723 58.12977 
L 164.915811 58.200975 
L 165.524945 58.60532 
L 166.134078 59.359234 
L 166.743212 60.449864 
L 167.555389 62.397167 
L 168.570612 65.547938 
L 169.788878 70.209997 
L 171.413234 77.494252 
L 176.286301 100.310491 
L 177.707612 105.54695 
L 178.722834 108.559359 
L 179.738057 110.88029 
L 180.550234 112.204431 
L 181.159368 112.87573 
L 181.768501 113.267096 
L 182.377635 113.377751 
L 182.986768 113.209519 
L 183.595901 112.766742 
L 184.205035 112.056193 
L 185.017212 110.708355 
L 185.82939 108.928779 
L 186.844613 106.150491 
L 188.062879 102.113747 
L 189.687235 95.819255 
L 192.935946 81.915627 
L 194.763346 74.618388 
L 196.184657 69.831605 
L 197.19988 67.088445 
L 198.012057 65.377552 
L 198.824235 64.142551 
L 199.433369 63.548673 
L 200.042502 63.251173 
L 200.651635 63.256663 
L 201.260769 63.56814 
L 201.869902 64.184873 
L 202.479035 65.102344 
L 203.291213 66.778538 
L 204.103391 68.944138 
L 205.118613 72.275343 
L 206.33688 77.048328 
L 207.961236 84.358239 
L 212.428214 105.109754 
L 213.64648 109.659416 
L 214.661703 112.753731 
L 215.676925 115.106992 
L 216.489103 116.406179 
L 217.098236 117.02353 
L 217.707369 117.328307 
L 218.316503 117.318894 
L 218.925636 116.997589 
L 219.53477 116.370528 
L 220.143903 115.447553 
L 220.956081 113.780191 
L 221.971303 111.053047 
L 223.18957 106.971581 
L 224.610881 101.359025 
L 227.250459 89.753688 
L 229.483948 80.312948 
L 230.905259 75.195153 
L 232.123526 71.646594 
L 233.138748 69.40039 
L 233.950926 68.118497 
L 234.560059 67.474237 
L 235.169193 67.109704 
L 235.778326 67.028751 
L 236.387459 67.232209 
L 236.996593 67.717893 
L 237.605726 68.480626 
L 238.417904 69.91412 
L 239.230082 71.798256 
L 240.245304 74.731949 
L 241.463571 78.983364 
L 243.087926 85.585357 
L 248.570126 108.927124 
L 249.788393 112.85048 
L 250.803615 115.429265 
L 251.615793 116.975703 
L 252.427971 118.025121 
L 253.037104 118.4712 
L 253.646238 118.617973 
L 254.255371 118.463029 
L 254.864505 118.007647 
L 255.473638 117.256807 
L 256.285816 115.811542 
L 257.097994 113.887092 
L 258.113216 110.870939 
L 259.331483 106.492077 
L 260.955838 99.719062 
L 265.828905 78.672284 
L 267.047172 74.56185 
L 268.062394 71.80349 
L 268.874572 70.096264 
L 269.68675 68.869102 
L 270.295883 68.277664 
L 270.905016 67.974666 
L 271.51415 67.962301 
L 272.123283 68.239403 
L 272.732416 68.801502 
L 273.34155 69.640914 
L 274.153728 71.172451 
L 275.16895 73.700747 
L 276.387217 77.52164 
L 277.808528 82.835356 
L 280.042017 92.266548 
L 282.884639 104.160247 
L 284.30595 109.221483 
L 285.524217 112.755221 
L 286.539439 115.005175 
L 287.351617 116.295592 
L 287.960751 116.947104 
L 288.569884 117.318074 
L 289.179017 117.403454 
L 289.788151 117.201466 
L 290.397284 116.713646 
L 291.006417 115.944862 
L 291.818595 114.497338 
L 292.630773 112.59343 
L 293.645995 109.630343 
L 294.864262 105.345205 
L 296.488618 98.723076 
L 301.564729 77.251097 
L 302.782996 73.26679 
L 303.798218 70.607206 
L 304.610396 68.97346 
L 305.422574 67.814202 
L 306.031707 67.269805 
L 306.64084 67.010393 
L 307.249974 67.038064 
L 307.859107 67.351553 
L 308.46824 67.946258 
L 309.280418 69.162611 
L 310.092596 70.837316 
L 311.107818 73.518755 
L 312.326085 77.478015 
L 313.950441 83.70063 
L 319.635685 106.520704 
L 320.853952 110.108731 
L 321.869174 112.426292 
L 322.681352 113.784117 
L 323.49353 114.669061 
L 324.102663 115.010558 
L 324.711797 115.070731 
L 325.32093 114.848477 
L 325.930063 114.345975 
L 326.539197 113.568669 
L 327.351375 112.120198 
L 328.163552 110.228008 
L 329.178775 107.298003 
L 330.397041 103.079196 
L 332.021397 96.585883 
L 336.894464 76.365388 
L 338.112731 72.366221 
L 339.127953 69.6565 
L 340.143175 67.60407 
L 340.955353 66.478438 
L 341.564486 65.950331 
L 342.17362 65.699495 
L 342.782753 65.728139 
L 343.391886 66.03525 
L 344.00102 66.616618 
L 344.813198 67.805256 
L 345.625375 69.442278 
L 346.640598 72.065274 
L 347.858864 75.942787 
L 349.280176 81.240781 
L 351.919754 92.167205 
L 354.153243 101.047651 
L 355.574554 105.843346 
L 356.79282 109.140406 
L 357.808043 111.193872 
L 358.62022 112.332249 
L 359.229354 112.875142 
L 359.838487 113.14394 
L 360.447621 113.135253 
L 361.056754 112.848946 
L 361.665887 112.288159 
L 362.275021 111.459271 
L 363.087198 109.953998 
L 364.102421 107.474722 
L 365.320687 103.731641 
L 366.741999 98.53053 
L 368.772443 90.181141 
L 368.772443 90.181141 
" style="fill:none;stroke:#2ca02c;stroke-linecap:square;stroke-width:1.5;"/>
   </g>
   <g id="line2d_16">
    <path clip-path="url(#pdbc040dd67)" d="M 64.408807 92.930029 
L 84.916297 92.844528 
L 85.322386 92.147252 
L 85.931519 90.117783 
L 86.946741 85.545057 
L 88.977186 76.327581 
L 90.195452 71.72496 
L 91.210675 68.678364 
L 92.022853 66.844063 
L 92.83503 65.589948 
L 93.444164 65.043355 
L 94.053297 64.837242 
L 94.459386 64.887552 
L 95.068519 65.239214 
L 95.677653 65.912578 
L 96.286786 66.893691 
L 97.098964 68.651617 
L 98.114186 71.507613 
L 99.332453 75.76616 
L 100.753764 81.619387 
L 106.235964 105.308242 
L 107.251187 108.456541 
L 108.266409 110.887517 
L 109.078587 112.275461 
L 109.68772 112.982764 
L 110.296853 113.404084 
L 110.905987 113.54353 
L 111.51512 113.408262 
L 112.124253 113.007814 
L 112.733387 112.353492 
L 113.545565 111.10804 
L 114.357742 109.466007 
L 115.372965 106.908291 
L 116.591231 103.192771 
L 118.012543 98.136686 
L 120.042987 90.019246 
L 124.103876 73.554454 
L 125.525187 68.697954 
L 126.743454 65.272317 
L 127.758676 63.072301 
L 128.570854 61.809235 
L 129.179988 61.180156 
L 129.789121 60.840906 
L 130.398254 60.803614 
L 131.007388 61.076814 
L 131.616521 61.664916 
L 132.225654 62.567769 
L 133.037832 64.251745 
L 133.85001 66.459723 
L 134.865232 69.891032 
L 136.083499 74.836504 
L 137.910899 83.39044 
L 141.15961 98.896507 
L 142.580922 104.514197 
L 143.596144 107.73252 
L 144.408322 109.740307 
L 145.220499 111.198291 
L 145.829633 111.914726 
L 146.438766 112.301775 
L 147.0479 112.359204 
L 147.657033 112.091551 
L 148.266166 111.507862 
L 148.8753 110.621354 
L 149.687477 108.998092 
L 150.7027 106.33044 
L 151.920966 102.34429 
L 153.545322 96.061948 
L 159.433611 72.104719 
L 160.651878 68.33418 
L 161.6671 65.783903 
L 162.682322 63.846617 
L 163.4945 62.77615 
L 164.103634 62.267614 
L 164.712767 62.018887 
L 165.3219 62.034287 
L 165.931034 62.315726 
L 166.540167 62.862595 
L 167.1493 63.671666 
L 167.961478 65.147645 
L 168.976701 67.598912 
L 169.991923 70.665132 
L 171.21019 75.038062 
L 172.834545 81.740939 
L 177.707612 102.558915 
L 178.925879 106.62125 
L 179.941101 109.329868 
L 180.753279 110.986423 
L 181.565457 112.150427 
L 182.17459 112.68525 
L 182.783723 112.923317 
L 183.392857 112.862476 
L 184.00199 112.504307 
L 184.611124 111.854068 
L 185.423301 110.548503 
L 186.235479 108.770089 
L 187.250701 105.944354 
L 188.468968 101.801548 
L 190.093324 95.342197 
L 195.169435 74.275241 
L 196.387702 70.380147 
L 197.402924 67.798983 
L 198.215102 66.23337 
L 199.02728 65.149316 
L 199.636413 64.6672 
L 200.245546 64.475971 
L 200.85468 64.578362 
L 201.463813 64.97355 
L 202.072947 65.657156 
L 202.885124 67.003123 
L 203.697302 68.819223 
L 204.712524 71.691112 
L 205.930791 75.89163 
L 207.555147 82.437105 
L 212.834303 104.659047 
L 214.052569 108.61381 
L 215.067792 111.273257 
L 216.083014 113.275744 
L 216.895192 114.369479 
L 217.504325 114.881919 
L 218.113458 115.126296 
L 218.722592 115.101885 
L 219.331725 114.810703 
L 219.940858 114.257434 
L 220.753036 113.124954 
L 221.565214 111.563725 
L 222.580436 109.057646 
L 223.798703 105.339453 
L 225.220014 100.22591 
L 227.453503 91.206279 
L 230.296126 79.868229 
L 231.717437 75.07675 
L 232.935704 71.777269 
L 233.950926 69.73225 
L 234.763104 68.616399 
L 235.372237 68.1036 
L 235.98137 67.878718 
L 236.590504 67.946959 
L 237.199637 68.309754 
L 237.80877 68.964651 
L 238.620948 70.280658 
L 239.433126 72.07837 
L 240.448348 74.944534 
L 241.666615 79.160214 
L 243.290971 85.744663 
L 248.164038 106.329606 
L 249.382304 110.342174 
L 250.397527 113.034819 
L 251.209704 114.706205 
L 252.021882 115.917984 
L 252.631016 116.514452 
L 253.240149 116.838971 
L 253.849282 116.891135 
L 254.458416 116.673524 
L 255.067549 116.191545 
L 255.676682 115.453264 
L 256.48886 114.088727 
L 257.504082 111.817076 
L 258.519305 108.986875 
L 259.940616 104.255296 
L 261.768016 97.26411 
L 266.03195 80.551498 
L 267.453261 76.004319 
L 268.468483 73.36313 
L 269.483705 71.332308 
L 270.295883 70.197809 
L 270.905016 69.65258 
L 271.51415 69.379383 
L 272.123283 69.383819 
L 272.732416 69.668115 
L 273.34155 70.230987 
L 273.950683 71.067561 
L 274.762861 72.593556 
L 275.778083 75.116786 
L 276.99635 78.936106 
L 278.417661 84.243496 
L 280.854195 94.449288 
L 283.087684 103.529893 
L 284.508995 108.451133 
L 285.727262 111.839507 
L 286.742484 113.958493 
L 287.554662 115.146218 
L 288.163795 115.727071 
L 288.772928 116.036914 
L 289.382062 116.07446 
L 289.991195 115.841574 
L 290.600328 115.343139 
L 291.209462 114.586894 
L 292.02164 113.195875 
L 293.036862 110.887504 
L 294.052084 108.018183 
L 295.473395 103.233015 
L 297.300795 96.188123 
L 301.361684 80.197509 
L 302.782996 75.569486 
L 304.001262 72.376144 
L 305.016485 70.377507 
L 305.828662 69.26317 
L 306.437796 68.727963 
L 307.046929 68.459187 
L 307.656063 68.461456 
L 308.265196 68.736152 
L 308.874329 69.281323 
L 309.483463 70.091624 
L 310.29564 71.568857 
L 311.310863 74.009254 
L 312.529129 77.699548 
L 313.950441 82.823591 
L 316.386974 92.674837 
L 318.620463 101.451139 
L 320.041774 106.21878 
L 321.260041 109.510508 
L 322.275263 111.57632 
L 323.087441 112.739679 
L 323.696574 113.312552 
L 324.305708 113.62279 
L 324.914841 113.668556 
L 325.523975 113.45105 
L 326.133108 112.974408 
L 326.742241 112.245559 
L 327.554419 110.898337 
L 328.569641 108.653601 
L 329.584864 105.854362 
L 331.006175 101.17205 
L 332.833575 94.257817 
L 336.894464 78.518085 
L 338.315775 73.961607 
L 339.534042 70.822127 
L 340.549264 68.862403 
L 341.361442 67.774697 
L 341.970575 67.25649 
L 342.579709 67.001894 
L 343.188842 67.015263 
L 343.797975 67.297725 
L 344.407109 67.84709 
L 345.219287 68.984675 
L 346.031464 70.564071 
L 347.046687 73.108859 
L 348.264953 76.884445 
L 349.889309 82.832012 
L 355.168465 103.071367 
L 356.386731 106.579212 
L 357.401954 108.874478 
L 358.214132 110.248849 
L 359.026309 111.185563 
L 359.635443 111.591599 
L 360.244576 111.740184 
L 360.853709 111.631553 
L 361.462843 111.268809 
L 362.071976 110.6578 
L 362.884154 109.471882 
L 363.696332 107.886579 
L 364.711554 105.395162 
L 365.929821 101.763945 
L 367.554176 96.10133 
L 368.772443 91.475855 
L 368.772443 91.475855 
" style="fill:none;stroke:#d62728;stroke-linecap:square;stroke-width:1.5;"/>
   </g>
   <g id="patch_3">
    <path d="M 49.190625 224.64 
L 49.190625 7.2 
" style="fill:none;stroke:#000000;stroke-linecap:square;stroke-linejoin:miter;stroke-width:0.8;"/>
   </g>
   <g id="patch_4">
    <path d="M 383.990625 224.64 
L 383.990625 7.2 
" style="fill:none;stroke:#000000;stroke-linecap:square;stroke-linejoin:miter;stroke-width:0.8;"/>
   </g>
   <g id="patch_5">
    <path d="M 49.190625 224.64 
L 383.990625 224.64 
" style="fill:none;stroke:#000000;stroke-linecap:square;stroke-linejoin:miter;stroke-width:0.8;"/>
   </g>
   <g id="patch_6">
    <path d="M 49.190625 7.2 
L 383.990625 7.2 
" style="fill:none;stroke:#000000;stroke-linecap:square;stroke-linejoin:miter;stroke-width:0.8;"/>
   </g>
   <g id="legend_1">
    <g id="patch_7">
     <path d="M 299.139063 219.64 
L 376.990625 219.64 
Q 378.990625 219.64 378.990625 217.64 
L 378.990625 158.815 
Q 378.990625 156.815 376.990625 156.815 
L 299.139063 156.815 
Q 297.139063 156.815 297.139063 158.815 
L 297.139063 217.64 
Q 297.139063 219.64 299.139063 219.64 
z
" style="fill:#ffffff;opacity:0.8;stroke:#cccccc;stroke-linejoin:miter;"/>
    </g>
    <g id="line2d_17">
     <path d="M 301.139063 164.913438 
L 321.139063 164.913438 
" style="fill:none;stroke:#1f77b4;stroke-linecap:square;stroke-width:1.5;"/>
    </g>
    <g id="line2d_18"/>
    <g id="text_13">
     <!-- omega_1 -->
     <g transform="translate(329.139063 168.413438)scale(0.1 -0.1)">
      <defs>
       <path d="M 30.609375 48.390625 
Q 23.390625 48.390625 19.1875 42.75 
Q 14.984375 37.109375 14.984375 27.296875 
Q 14.984375 17.484375 19.15625 11.84375 
Q 23.34375 6.203125 30.609375 6.203125 
Q 37.796875 6.203125 41.984375 11.859375 
Q 46.1875 17.53125 46.1875 27.296875 
Q 46.1875 37.015625 41.984375 42.703125 
Q 37.796875 48.390625 30.609375 48.390625 
z
M 30.609375 56 
Q 42.328125 56 49.015625 48.375 
Q 55.71875 40.765625 55.71875 27.296875 
Q 55.71875 13.875 49.015625 6.21875 
Q 42.328125 -1.421875 30.609375 -1.421875 
Q 18.84375 -1.421875 12.171875 6.21875 
Q 5.515625 13.875 5.515625 27.296875 
Q 5.515625 40.765625 12.171875 48.375 
Q 18.84375 56 30.609375 56 
z
" id="DejaVuSans-111"/>
       <path d="M 52 44.1875 
Q 55.375 50.25 60.0625 53.125 
Q 64.75 56 71.09375 56 
Q 79.640625 56 84.28125 50.015625 
Q 88.921875 44.046875 88.921875 33.015625 
L 88.921875 0 
L 79.890625 0 
L 79.890625 32.71875 
Q 79.890625 40.578125 77.09375 44.375 
Q 74.3125 48.1875 68.609375 48.1875 
Q 61.625 48.1875 57.5625 43.546875 
Q 53.515625 38.921875 53.515625 30.90625 
L 53.515625 0 
L 44.484375 0 
L 44.484375 32.71875 
Q 44.484375 40.625 41.703125 44.40625 
Q 38.921875 48.1875 33.109375 48.1875 
Q 26.21875 48.1875 22.15625 43.53125 
Q 18.109375 38.875 18.109375 30.90625 
L 18.109375 0 
L 9.078125 0 
L 9.078125 54.6875 
L 18.109375 54.6875 
L 18.109375 46.1875 
Q 21.1875 51.21875 25.484375 53.609375 
Q 29.78125 56 35.6875 56 
Q 41.65625 56 45.828125 52.96875 
Q 50 49.953125 52 44.1875 
z
" id="DejaVuSans-109"/>
       <path d="M 56.203125 29.59375 
L 56.203125 25.203125 
L 14.890625 25.203125 
Q 15.484375 15.921875 20.484375 11.0625 
Q 25.484375 6.203125 34.421875 6.203125 
Q 39.59375 6.203125 44.453125 7.46875 
Q 49.3125 8.734375 54.109375 11.28125 
L 54.109375 2.78125 
Q 49.265625 0.734375 44.1875 -0.34375 
Q 39.109375 -1.421875 33.890625 -1.421875 
Q 20.796875 -1.421875 13.15625 6.1875 
Q 5.515625 13.8125 5.515625 26.8125 
Q 5.515625 40.234375 12.765625 48.109375 
Q 20.015625 56 32.328125 56 
Q 43.359375 56 49.78125 48.890625 
Q 56.203125 41.796875 56.203125 29.59375 
z
M 47.21875 32.234375 
Q 47.125 39.59375 43.09375 43.984375 
Q 39.0625 48.390625 32.421875 48.390625 
Q 24.90625 48.390625 20.390625 44.140625 
Q 15.875 39.890625 15.1875 32.171875 
z
" id="DejaVuSans-101"/>
       <path d="M 45.40625 27.984375 
Q 45.40625 37.75 41.375 43.109375 
Q 37.359375 48.484375 30.078125 48.484375 
Q 22.859375 48.484375 18.828125 43.109375 
Q 14.796875 37.75 14.796875 27.984375 
Q 14.796875 18.265625 18.828125 12.890625 
Q 22.859375 7.515625 30.078125 7.515625 
Q 37.359375 7.515625 41.375 12.890625 
Q 45.40625 18.265625 45.40625 27.984375 
z
M 54.390625 6.78125 
Q 54.390625 -7.171875 48.1875 -13.984375 
Q 42 -20.796875 29.203125 -20.796875 
Q 24.46875 -20.796875 20.265625 -20.09375 
Q 16.0625 -19.390625 12.109375 -17.921875 
L 12.109375 -9.1875 
Q 16.0625 -11.328125 19.921875 -12.34375 
Q 23.78125 -13.375 27.78125 -13.375 
Q 36.625 -13.375 41.015625 -8.765625 
Q 45.40625 -4.15625 45.40625 5.171875 
L 45.40625 9.625 
Q 42.625 4.78125 38.28125 2.390625 
Q 33.9375 0 27.875 0 
Q 17.828125 0 11.671875 7.65625 
Q 5.515625 15.328125 5.515625 27.984375 
Q 5.515625 40.671875 11.671875 48.328125 
Q 17.828125 56 27.875 56 
Q 33.9375 56 38.28125 53.609375 
Q 42.625 51.21875 45.40625 46.390625 
L 45.40625 54.6875 
L 54.390625 54.6875 
z
" id="DejaVuSans-103"/>
       <path d="M 34.28125 27.484375 
Q 23.390625 27.484375 19.1875 25 
Q 14.984375 22.515625 14.984375 16.5 
Q 14.984375 11.71875 18.140625 8.90625 
Q 21.296875 6.109375 26.703125 6.109375 
Q 34.1875 6.109375 38.703125 11.40625 
Q 43.21875 16.703125 43.21875 25.484375 
L 43.21875 27.484375 
z
M 52.203125 31.203125 
L 52.203125 0 
L 43.21875 0 
L 43.21875 8.296875 
Q 40.140625 3.328125 35.546875 0.953125 
Q 30.953125 -1.421875 24.3125 -1.421875 
Q 15.921875 -1.421875 10.953125 3.296875 
Q 6 8.015625 6 15.921875 
Q 6 25.140625 12.171875 29.828125 
Q 18.359375 34.515625 30.609375 34.515625 
L 43.21875 34.515625 
L 43.21875 35.40625 
Q 43.21875 41.609375 39.140625 45 
Q 35.0625 48.390625 27.6875 48.390625 
Q 23 48.390625 18.546875 47.265625 
Q 14.109375 46.140625 10.015625 43.890625 
L 10.015625 52.203125 
Q 14.9375 54.109375 19.578125 55.046875 
Q 24.21875 56 28.609375 56 
Q 40.484375 56 46.34375 49.84375 
Q 52.203125 43.703125 52.203125 31.203125 
z
" id="DejaVuSans-97"/>
       <path d="M 50.984375 -16.609375 
L 50.984375 -23.578125 
L -0.984375 -23.578125 
L -0.984375 -16.609375 
z
" id="DejaVuSans-95"/>
      </defs>
      <use xlink:href="#DejaVuSans-111"/>
      <use x="61.181641" xlink:href="#DejaVuSans-109"/>
      <use x="158.59375" xlink:href="#DejaVuSans-101"/>
      <use x="220.117188" xlink:href="#DejaVuSans-103"/>
      <use x="283.59375" xlink:href="#DejaVuSans-97"/>
      <use x="344.873047" xlink:href="#DejaVuSans-95"/>
      <use x="394.873047" xlink:href="#DejaVuSans-49"/>
     </g>
    </g>
    <g id="line2d_19">
     <path d="M 301.139063 179.869688 
L 321.139063 179.869688 
" style="fill:none;stroke:#ff7f0e;stroke-linecap:square;stroke-width:1.5;"/>
    </g>
    <g id="line2d_20"/>
    <g id="text_14">
     <!-- omega_2 -->
     <g transform="translate(329.139063 183.369688)scale(0.1 -0.1)">
      <use xlink:href="#DejaVuSans-111"/>
      <use x="61.181641" xlink:href="#DejaVuSans-109"/>
      <use x="158.59375" xlink:href="#DejaVuSans-101"/>
      <use x="220.117188" xlink:href="#DejaVuSans-103"/>
      <use x="283.59375" xlink:href="#DejaVuSans-97"/>
      <use x="344.873047" xlink:href="#DejaVuSans-95"/>
      <use x="394.873047" xlink:href="#DejaVuSans-50"/>
     </g>
    </g>
    <g id="line2d_21">
     <path d="M 301.139063 194.825938 
L 321.139063 194.825938 
" style="fill:none;stroke:#2ca02c;stroke-linecap:square;stroke-width:1.5;"/>
    </g>
    <g id="line2d_22"/>
    <g id="text_15">
     <!-- omega_3 -->
     <g transform="translate(329.139063 198.325938)scale(0.1 -0.1)">
      <defs>
       <path d="M 40.578125 39.3125 
Q 47.65625 37.796875 51.625 33 
Q 55.609375 28.21875 55.609375 21.1875 
Q 55.609375 10.40625 48.1875 4.484375 
Q 40.765625 -1.421875 27.09375 -1.421875 
Q 22.515625 -1.421875 17.65625 -0.515625 
Q 12.796875 0.390625 7.625 2.203125 
L 7.625 11.71875 
Q 11.71875 9.328125 16.59375 8.109375 
Q 21.484375 6.890625 26.8125 6.890625 
Q 36.078125 6.890625 40.9375 10.546875 
Q 45.796875 14.203125 45.796875 21.1875 
Q 45.796875 27.640625 41.28125 31.265625 
Q 36.765625 34.90625 28.71875 34.90625 
L 20.21875 34.90625 
L 20.21875 43.015625 
L 29.109375 43.015625 
Q 36.375 43.015625 40.234375 45.921875 
Q 44.09375 48.828125 44.09375 54.296875 
Q 44.09375 59.90625 40.109375 62.90625 
Q 36.140625 65.921875 28.71875 65.921875 
Q 24.65625 65.921875 20.015625 65.03125 
Q 15.375 64.15625 9.8125 62.3125 
L 9.8125 71.09375 
Q 15.4375 72.65625 20.34375 73.4375 
Q 25.25 74.21875 29.59375 74.21875 
Q 40.828125 74.21875 47.359375 69.109375 
Q 53.90625 64.015625 53.90625 55.328125 
Q 53.90625 49.265625 50.4375 45.09375 
Q 46.96875 40.921875 40.578125 39.3125 
z
" id="DejaVuSans-51"/>
      </defs>
      <use xlink:href="#DejaVuSans-111"/>
      <use x="61.181641" xlink:href="#DejaVuSans-109"/>
      <use x="158.59375" xlink:href="#DejaVuSans-101"/>
      <use x="220.117188" xlink:href="#DejaVuSans-103"/>
      <use x="283.59375" xlink:href="#DejaVuSans-97"/>
      <use x="344.873047" xlink:href="#DejaVuSans-95"/>
      <use x="394.873047" xlink:href="#DejaVuSans-51"/>
     </g>
    </g>
    <g id="line2d_23">
     <path d="M 301.139063 209.782188 
L 321.139063 209.782188 
" style="fill:none;stroke:#d62728;stroke-linecap:square;stroke-width:1.5;"/>
    </g>
    <g id="line2d_24"/>
    <g id="text_16">
     <!-- omega_4 -->
     <g transform="translate(329.139063 213.282188)scale(0.1 -0.1)">
      <use xlink:href="#DejaVuSans-111"/>
      <use x="61.181641" xlink:href="#DejaVuSans-109"/>
      <use x="158.59375" xlink:href="#DejaVuSans-101"/>
      <use x="220.117188" xlink:href="#DejaVuSans-103"/>
      <use x="283.59375" xlink:href="#DejaVuSans-97"/>
      <use x="344.873047" xlink:href="#DejaVuSans-95"/>
      <use x="394.873047" xlink:href="#DejaVuSans-52"/>
     </g>
    </g>
   </g>
  </g>
 </g>
 <defs>
  <clipPath id="pdbc040dd67">
   <rect height="217.44" width="334.8" x="49.190625" y="7.2"/>
  </clipPath>
 </defs>
</svg>
