<?xml version="1.0" encoding="utf-8" standalone="no"?>
<!DOCTYPE svg PUBLIC "-//W3C//DTD SVG 1.1//EN"
  "http://www.w3.org/Graphics/SVG/1.1/DTD/svg11.dtd">
<svg xmlns:xlink="http://www.w3.org/1999/xlink" width="421.890312pt" height="307.788562pt" viewBox="0 0 421.890312 307.788562" xmlns="http://www.w3.org/2000/svg" version="1.1">
 <metadata>
  <rdf:RDF xmlns:dc="http://purl.org/dc/elements/1.1/" xmlns:cc="http://creativecommons.org/ns#" xmlns:rdf="http://www.w3.org/1999/02/22-rdf-syntax-ns#">
   <cc:Work>
    <dc:type rdf:resource="http://purl.org/dc/dcmitype/StillImage"/>
    <dc:date>2024-12-08T12:58:14.719855</dc:date>
    <dc:format>image/svg+xml</dc:format>
    <dc:creator>
     <cc:Agent>
      <dc:title>Matplotlib v3.8.0, https://matplotlib.org/</dc:title>
     </cc:Agent>
    </dc:creator>
   </cc:Work>
  </rdf:RDF>
 </metadata>
 <defs>
  <style type="text/css">*{stroke-linejoin: round; stroke-linecap: butt}</style>
 </defs>
 <g id="figure_1">
  <g id="patch_1">
   <path d="M 0 307.788562 
L 421.890312 307.788562 
L 421.890312 0 
L 0 0 
z
" style="fill: #ffffff"/>
  </g>
  <g id="axes_1">
   <g id="patch_2">
    <path d="M 57.570313 283.910437 
L 414.690313 283.910437 
L 414.690313 17.798437 
L 57.570313 17.798437 
z
" style="fill: #ffffff"/>
   </g>
   <g id="matplotlib.axis_1">
    <g id="xtick_1">
     <g id="line2d_1">
      <defs>
       <path id="m5c38b73892" d="M 0 0 
L 0 3.5 
" style="stroke: #000000; stroke-width: 0.8"/>
      </defs>
      <g>
       <use xlink:href="#m5c38b73892" x="73.80304" y="283.910437" style="stroke: #000000; stroke-width: 0.8"/>
      </g>
     </g>
     <g id="text_1">
      <!-- 0 -->
      <g transform="translate(70.62179 298.508875) scale(0.1 -0.1)">
       <defs>
        <path id="DejaVuSans-30" d="M 2034 4250 
Q 1547 4250 1301 3770 
Q 1056 3291 1056 2328 
Q 1056 1369 1301 889 
Q 1547 409 2034 409 
Q 2525 409 2770 889 
Q 3016 1369 3016 2328 
Q 3016 3291 2770 3770 
Q 2525 4250 2034 4250 
z
M 2034 4750 
Q 2819 4750 3233 4129 
Q 3647 3509 3647 2328 
Q 3647 1150 3233 529 
Q 2819 -91 2034 -91 
Q 1250 -91 836 529 
Q 422 1150 422 2328 
Q 422 3509 836 4129 
Q 1250 4750 2034 4750 
z
" transform="scale(0.015625)"/>
       </defs>
       <use xlink:href="#DejaVuSans-30"/>
      </g>
     </g>
    </g>
    <g id="xtick_2">
     <g id="line2d_2">
      <g>
       <use xlink:href="#m5c38b73892" x="138.798945" y="283.910437" style="stroke: #000000; stroke-width: 0.8"/>
      </g>
     </g>
     <g id="text_2">
      <!-- 2 -->
      <g transform="translate(135.617695 298.508875) scale(0.1 -0.1)">
       <defs>
        <path id="DejaVuSans-32" d="M 1228 531 
L 3431 531 
L 3431 0 
L 469 0 
L 469 531 
Q 828 903 1448 1529 
Q 2069 2156 2228 2338 
Q 2531 2678 2651 2914 
Q 2772 3150 2772 3378 
Q 2772 3750 2511 3984 
Q 2250 4219 1831 4219 
Q 1534 4219 1204 4116 
Q 875 4013 500 3803 
L 500 4441 
Q 881 4594 1212 4672 
Q 1544 4750 1819 4750 
Q 2544 4750 2975 4387 
Q 3406 4025 3406 3419 
Q 3406 3131 3298 2873 
Q 3191 2616 2906 2266 
Q 2828 2175 2409 1742 
Q 1991 1309 1228 531 
z
" transform="scale(0.015625)"/>
       </defs>
       <use xlink:href="#DejaVuSans-32"/>
      </g>
     </g>
    </g>
    <g id="xtick_3">
     <g id="line2d_3">
      <g>
       <use xlink:href="#m5c38b73892" x="203.79485" y="283.910437" style="stroke: #000000; stroke-width: 0.8"/>
      </g>
     </g>
     <g id="text_3">
      <!-- 4 -->
      <g transform="translate(200.6136 298.508875) scale(0.1 -0.1)">
       <defs>
        <path id="DejaVuSans-34" d="M 2419 4116 
L 825 1625 
L 2419 1625 
L 2419 4116 
z
M 2253 4666 
L 3047 4666 
L 3047 1625 
L 3713 1625 
L 3713 1100 
L 3047 1100 
L 3047 0 
L 2419 0 
L 2419 1100 
L 313 1100 
L 313 1709 
L 2253 4666 
z
" transform="scale(0.015625)"/>
       </defs>
       <use xlink:href="#DejaVuSans-34"/>
      </g>
     </g>
    </g>
    <g id="xtick_4">
     <g id="line2d_4">
      <g>
       <use xlink:href="#m5c38b73892" x="268.790755" y="283.910437" style="stroke: #000000; stroke-width: 0.8"/>
      </g>
     </g>
     <g id="text_4">
      <!-- 6 -->
      <g transform="translate(265.609505 298.508875) scale(0.1 -0.1)">
       <defs>
        <path id="DejaVuSans-36" d="M 2113 2584 
Q 1688 2584 1439 2293 
Q 1191 2003 1191 1497 
Q 1191 994 1439 701 
Q 1688 409 2113 409 
Q 2538 409 2786 701 
Q 3034 994 3034 1497 
Q 3034 2003 2786 2293 
Q 2538 2584 2113 2584 
z
M 3366 4563 
L 3366 3988 
Q 3128 4100 2886 4159 
Q 2644 4219 2406 4219 
Q 1781 4219 1451 3797 
Q 1122 3375 1075 2522 
Q 1259 2794 1537 2939 
Q 1816 3084 2150 3084 
Q 2853 3084 3261 2657 
Q 3669 2231 3669 1497 
Q 3669 778 3244 343 
Q 2819 -91 2113 -91 
Q 1303 -91 875 529 
Q 447 1150 447 2328 
Q 447 3434 972 4092 
Q 1497 4750 2381 4750 
Q 2619 4750 2861 4703 
Q 3103 4656 3366 4563 
z
" transform="scale(0.015625)"/>
       </defs>
       <use xlink:href="#DejaVuSans-36"/>
      </g>
     </g>
    </g>
    <g id="xtick_5">
     <g id="line2d_5">
      <g>
       <use xlink:href="#m5c38b73892" x="333.78666" y="283.910437" style="stroke: #000000; stroke-width: 0.8"/>
      </g>
     </g>
     <g id="text_5">
      <!-- 8 -->
      <g transform="translate(330.60541 298.508875) scale(0.1 -0.1)">
       <defs>
        <path id="DejaVuSans-38" d="M 2034 2216 
Q 1584 2216 1326 1975 
Q 1069 1734 1069 1313 
Q 1069 891 1326 650 
Q 1584 409 2034 409 
Q 2484 409 2743 651 
Q 3003 894 3003 1313 
Q 3003 1734 2745 1975 
Q 2488 2216 2034 2216 
z
M 1403 2484 
Q 997 2584 770 2862 
Q 544 3141 544 3541 
Q 544 4100 942 4425 
Q 1341 4750 2034 4750 
Q 2731 4750 3128 4425 
Q 3525 4100 3525 3541 
Q 3525 3141 3298 2862 
Q 3072 2584 2669 2484 
Q 3125 2378 3379 2068 
Q 3634 1759 3634 1313 
Q 3634 634 3220 271 
Q 2806 -91 2034 -91 
Q 1263 -91 848 271 
Q 434 634 434 1313 
Q 434 1759 690 2068 
Q 947 2378 1403 2484 
z
M 1172 3481 
Q 1172 3119 1398 2916 
Q 1625 2713 2034 2713 
Q 2441 2713 2670 2916 
Q 2900 3119 2900 3481 
Q 2900 3844 2670 4047 
Q 2441 4250 2034 4250 
Q 1625 4250 1398 4047 
Q 1172 3844 1172 3481 
z
" transform="scale(0.015625)"/>
       </defs>
       <use xlink:href="#DejaVuSans-38"/>
      </g>
     </g>
    </g>
    <g id="xtick_6">
     <g id="line2d_6">
      <g>
       <use xlink:href="#m5c38b73892" x="398.782565" y="283.910437" style="stroke: #000000; stroke-width: 0.8"/>
      </g>
     </g>
     <g id="text_6">
      <!-- 10 -->
      <g transform="translate(392.420065 298.508875) scale(0.1 -0.1)">
       <defs>
        <path id="DejaVuSans-31" d="M 794 531 
L 1825 531 
L 1825 4091 
L 703 3866 
L 703 4441 
L 1819 4666 
L 2450 4666 
L 2450 531 
L 3481 531 
L 3481 0 
L 794 0 
L 794 531 
z
" transform="scale(0.015625)"/>
       </defs>
       <use xlink:href="#DejaVuSans-31"/>
       <use xlink:href="#DejaVuSans-30" x="63.623047"/>
      </g>
     </g>
    </g>
   </g>
   <g id="matplotlib.axis_2">
    <g id="ytick_1">
     <g id="line2d_7">
      <defs>
       <path id="madbf736d7a" d="M 0 0 
L -3.5 0 
" style="stroke: #000000; stroke-width: 0.8"/>
      </defs>
      <g>
       <use xlink:href="#madbf736d7a" x="57.570313" y="248.154945" style="stroke: #000000; stroke-width: 0.8"/>
      </g>
     </g>
     <g id="text_7">
      <!-- −0.0006 -->
      <g transform="translate(7.2 251.954164) scale(0.1 -0.1)">
       <defs>
        <path id="DejaVuSans-2212" d="M 678 2272 
L 4684 2272 
L 4684 1741 
L 678 1741 
L 678 2272 
z
" transform="scale(0.015625)"/>
        <path id="DejaVuSans-2e" d="M 684 794 
L 1344 794 
L 1344 0 
L 684 0 
L 684 794 
z
" transform="scale(0.015625)"/>
       </defs>
       <use xlink:href="#DejaVuSans-2212"/>
       <use xlink:href="#DejaVuSans-30" x="83.789062"/>
       <use xlink:href="#DejaVuSans-2e" x="147.412109"/>
       <use xlink:href="#DejaVuSans-30" x="179.199219"/>
       <use xlink:href="#DejaVuSans-30" x="242.822266"/>
       <use xlink:href="#DejaVuSans-30" x="306.445312"/>
       <use xlink:href="#DejaVuSans-36" x="370.068359"/>
      </g>
     </g>
    </g>
    <g id="ytick_2">
     <g id="line2d_8">
      <g>
       <use xlink:href="#madbf736d7a" x="57.570313" y="206.338596" style="stroke: #000000; stroke-width: 0.8"/>
      </g>
     </g>
     <g id="text_8">
      <!-- −0.0004 -->
      <g transform="translate(7.2 210.137815) scale(0.1 -0.1)">
       <use xlink:href="#DejaVuSans-2212"/>
       <use xlink:href="#DejaVuSans-30" x="83.789062"/>
       <use xlink:href="#DejaVuSans-2e" x="147.412109"/>
       <use xlink:href="#DejaVuSans-30" x="179.199219"/>
       <use xlink:href="#DejaVuSans-30" x="242.822266"/>
       <use xlink:href="#DejaVuSans-30" x="306.445312"/>
       <use xlink:href="#DejaVuSans-34" x="370.068359"/>
      </g>
     </g>
    </g>
    <g id="ytick_3">
     <g id="line2d_9">
      <g>
       <use xlink:href="#madbf736d7a" x="57.570313" y="164.522248" style="stroke: #000000; stroke-width: 0.8"/>
      </g>
     </g>
     <g id="text_9">
      <!-- −0.0002 -->
      <g transform="translate(7.2 168.321467) scale(0.1 -0.1)">
       <use xlink:href="#DejaVuSans-2212"/>
       <use xlink:href="#DejaVuSans-30" x="83.789062"/>
       <use xlink:href="#DejaVuSans-2e" x="147.412109"/>
       <use xlink:href="#DejaVuSans-30" x="179.199219"/>
       <use xlink:href="#DejaVuSans-30" x="242.822266"/>
       <use xlink:href="#DejaVuSans-30" x="306.445312"/>
       <use xlink:href="#DejaVuSans-32" x="370.068359"/>
      </g>
     </g>
    </g>
    <g id="ytick_4">
     <g id="line2d_10">
      <g>
       <use xlink:href="#madbf736d7a" x="57.570313" y="122.705899" style="stroke: #000000; stroke-width: 0.8"/>
      </g>
     </g>
     <g id="text_10">
      <!-- 0.0000 -->
      <g transform="translate(15.579688 126.505118) scale(0.1 -0.1)">
       <use xlink:href="#DejaVuSans-30"/>
       <use xlink:href="#DejaVuSans-2e" x="63.623047"/>
       <use xlink:href="#DejaVuSans-30" x="95.410156"/>
       <use xlink:href="#DejaVuSans-30" x="159.033203"/>
       <use xlink:href="#DejaVuSans-30" x="222.65625"/>
       <use xlink:href="#DejaVuSans-30" x="286.279297"/>
      </g>
     </g>
    </g>
    <g id="ytick_5">
     <g id="line2d_11">
      <g>
       <use xlink:href="#madbf736d7a" x="57.570313" y="80.889551" style="stroke: #000000; stroke-width: 0.8"/>
      </g>
     </g>
     <g id="text_11">
      <!-- 0.0002 -->
      <g transform="translate(15.579688 84.68877) scale(0.1 -0.1)">
       <use xlink:href="#DejaVuSans-30"/>
       <use xlink:href="#DejaVuSans-2e" x="63.623047"/>
       <use xlink:href="#DejaVuSans-30" x="95.410156"/>
       <use xlink:href="#DejaVuSans-30" x="159.033203"/>
       <use xlink:href="#DejaVuSans-30" x="222.65625"/>
       <use xlink:href="#DejaVuSans-32" x="286.279297"/>
      </g>
     </g>
    </g>
    <g id="ytick_6">
     <g id="line2d_12">
      <g>
       <use xlink:href="#madbf736d7a" x="57.570313" y="39.073202" style="stroke: #000000; stroke-width: 0.8"/>
      </g>
     </g>
     <g id="text_12">
      <!-- 0.0004 -->
      <g transform="translate(15.579688 42.872421) scale(0.1 -0.1)">
       <use xlink:href="#DejaVuSans-30"/>
       <use xlink:href="#DejaVuSans-2e" x="63.623047"/>
       <use xlink:href="#DejaVuSans-30" x="95.410156"/>
       <use xlink:href="#DejaVuSans-30" x="159.033203"/>
       <use xlink:href="#DejaVuSans-30" x="222.65625"/>
       <use xlink:href="#DejaVuSans-34" x="286.279297"/>
      </g>
     </g>
    </g>
    <g id="text_13">
     <!-- +1 -->
     <g transform="translate(57.570313 14.798437) scale(0.1 -0.1)">
      <defs>
       <path id="DejaVuSans-2b" d="M 2944 4013 
L 2944 2272 
L 4684 2272 
L 4684 1741 
L 2944 1741 
L 2944 0 
L 2419 0 
L 2419 1741 
L 678 1741 
L 678 2272 
L 2419 2272 
L 2419 4013 
L 2944 4013 
z
" transform="scale(0.015625)"/>
      </defs>
      <use xlink:href="#DejaVuSans-2b"/>
      <use xlink:href="#DejaVuSans-31" x="83.789062"/>
     </g>
    </g>
   </g>
   <g id="line2d_13">
    <path d="M 73.80304 122.705899 
L 106.300992 122.705899 
L 106.625972 122.94553 
L 106.950951 123.705652 
L 107.275931 124.969594 
L 107.92589 128.916094 
L 108.575849 134.579768 
L 109.550788 145.799363 
L 110.850706 164.578888 
L 113.125562 202.379498 
L 115.075439 233.234443 
L 116.375358 250.116596 
L 117.350296 259.952936 
L 118.000255 264.955837 
L 118.650214 268.626512 
L 119.300173 270.919127 
L 119.625153 271.541624 
L 119.950132 271.814438 
L 120.275112 271.739215 
L 120.600091 271.319161 
L 120.925071 270.558992 
L 121.57503 268.044435 
L 122.224989 264.261448 
L 122.874948 259.29625 
L 123.849887 249.863736 
L 125.149805 234.240069 
L 126.774702 211.405013 
L 130.674457 154.620957 
L 131.974375 138.616386 
L 133.274293 125.258513 
L 134.249231 117.190668 
L 135.22417 110.854123 
L 136.199109 106.217172 
L 136.849068 104.021999 
L 137.499027 102.491806 
L 138.148986 101.57002 
L 138.798945 101.191175 
L 139.448904 101.282704 
L 140.098863 101.766783 
L 140.748822 102.562213 
L 141.72376 104.15829 
L 144.648576 109.361732 
L 145.623515 110.463698 
L 146.273474 110.86865 
L 146.923433 110.969946 
L 147.573392 110.745122 
L 148.223351 110.182425 
L 148.87331 109.280815 
L 149.523269 108.049744 
L 150.498208 105.630651 
L 151.473146 102.620982 
L 153.098044 96.702484 
L 156.02286 85.773015 
L 156.997798 82.847712 
L 157.972737 80.615824 
L 158.622696 79.597754 
L 159.272655 79.005723 
L 159.922614 78.874498 
L 160.247593 78.990355 
L 160.897552 79.597674 
L 161.547512 80.716197 
L 162.197471 82.350428 
L 162.84743 84.495699 
L 163.822368 88.639297 
L 164.797307 93.816526 
L 166.097225 102.107375 
L 167.722122 114.134557 
L 172.596815 151.793024 
L 173.896733 159.758411 
L 174.871672 164.621636 
L 175.846611 168.387517 
L 176.49657 170.241872 
L 177.146529 171.549784 
L 177.796488 172.301688 
L 178.121467 172.468296 
L 178.446447 172.495864 
L 178.771426 172.385379 
L 179.421385 171.756517 
L 180.071344 170.598702 
L 180.721303 168.93573 
L 181.696242 165.5614 
L 182.671181 161.243772 
L 183.971099 154.276495 
L 185.595996 144.179836 
L 190.795669 110.412361 
L 192.420566 101.861913 
L 193.720484 96.248417 
L 194.695423 92.818677 
L 195.670362 90.070949 
L 196.6453 87.993508 
L 197.620239 86.555694 
L 198.270198 85.930128 
L 198.920157 85.551565 
L 199.570116 85.401187 
L 200.220075 85.458767 
L 200.870034 85.703173 
L 201.844973 86.372929 
L 202.819911 87.342467 
L 204.119829 88.983725 
L 206.069706 91.909132 
L 210.29444 98.852702 
L 213.869215 105.003031 
L 216.144072 109.406141 
L 218.093949 113.708123 
L 220.043826 118.563478 
L 222.643662 125.746336 
L 226.868396 137.532312 
L 228.493294 141.337875 
L 229.793212 143.803475 
L 230.76815 145.231049 
L 231.743089 146.246094 
L 232.393048 146.675072 
L 233.043007 146.895769 
L 233.692966 146.901959 
L 234.342925 146.689722 
L 234.992884 146.257532 
L 235.642843 145.606303 
L 236.617782 144.226788 
L 237.59272 142.384096 
L 238.567659 140.111421 
L 239.867577 136.489605 
L 241.492475 131.198089 
L 243.767331 122.912385 
L 247.342106 109.842024 
L 248.967004 104.650881 
L 250.266922 101.082792 
L 251.56684 98.136266 
L 252.541779 96.37305 
L 253.516717 95.010534 
L 254.491656 94.054632 
L 255.466594 93.502421 
L 256.116553 93.353414 
L 256.766512 93.373983 
L 257.416471 93.55776 
L 258.39141 94.122743 
L 259.366349 95.008511 
L 260.341287 96.181991 
L 261.641205 98.132373 
L 263.266103 101.066412 
L 265.21598 105.090242 
L 273.665448 123.225526 
L 275.615325 126.658705 
L 277.240222 129.143989 
L 278.86512 131.24276 
L 280.165038 132.616062 
L 281.464956 133.695122 
L 282.764874 134.459608 
L 283.739813 134.814985 
L 284.714751 134.975462 
L 285.68969 134.935018 
L 286.664629 134.689189 
L 287.639567 134.235469 
L 288.614506 133.57371 
L 289.914424 132.372609 
L 291.214342 130.821085 
L 292.51426 128.944043 
L 294.139158 126.195297 
L 296.089035 122.431865 
L 299.66381 114.884863 
L 302.263646 109.584487 
L 304.213523 106.11369 
L 305.838421 103.72811 
L 307.138339 102.224706 
L 308.113277 101.359241 
L 309.088216 100.731182 
L 310.063154 100.34733 
L 311.038093 100.210092 
L 312.013032 100.317518 
L 312.98797 100.663447 
L 313.962909 101.23774 
L 315.262827 102.334383 
L 316.562745 103.770604 
L 318.187643 105.966792 
L 320.13752 109.042758 
L 323.387315 114.700798 
L 326.63711 120.215678 
L 328.586987 123.118485 
L 330.211885 125.182975 
L 331.836783 126.864079 
L 333.136701 127.905969 
L 334.436619 128.664568 
L 335.736537 129.133796 
L 337.036455 129.313519 
L 338.336373 129.209075 
L 339.636291 128.830792 
L 340.936209 128.193546 
L 342.236127 127.316338 
L 343.861025 125.917364 
L 345.485923 124.231027 
L 347.760779 121.500905 
L 351.335554 116.749479 
L 354.910329 112.114928 
L 356.860206 109.913107 
L 358.485104 108.361166 
L 360.110001 107.125937 
L 361.409919 106.395903 
L 362.709837 105.913642 
L 364.009756 105.68966 
L 365.309674 105.728017 
L 366.609592 106.026117 
L 367.90951 106.574705 
L 369.209428 107.358075 
L 370.834326 108.633818 
L 372.459223 110.187934 
L 374.73408 112.706423 
L 382.208609 121.379073 
L 384.158486 123.13928 
L 385.783384 124.303232 
L 387.083302 125.009733 
L 388.38322 125.503241 
L 389.683138 125.777445 
L 390.983056 125.831585 
L 392.282974 125.670228 
L 393.582892 125.302939 
L 395.20779 124.576114 
L 396.832688 123.586073 
L 398.457585 122.377003 
L 398.457585 122.377003 
" clip-path="url(#p2c79a89bc5)" style="fill: none; stroke: #1f77b4; stroke-width: 1.5; stroke-linecap: square"/>
   </g>
   <g id="line2d_14">
    <path d="M 73.80304 122.705899 
L 106.300992 122.705899 
L 106.625972 122.560405 
L 106.950951 122.098526 
L 107.275931 121.329315 
L 107.92589 118.921835 
L 108.575849 115.461781 
L 109.550788 108.622895 
L 110.850706 97.313801 
L 114.42548 64.586653 
L 115.400419 57.953189 
L 116.050378 54.547186 
L 116.700337 52.069951 
L 117.350296 50.595041 
L 117.675276 50.24988 
L 118.000255 50.171931 
L 118.325235 50.363514 
L 118.650214 50.825398 
L 119.300173 52.555438 
L 119.950132 55.337689 
L 120.600091 59.124362 
L 121.57503 66.529367 
L 122.549969 75.714054 
L 123.849887 90.022887 
L 128.3996 142.512384 
L 129.374539 150.973176 
L 130.349477 157.526712 
L 130.999436 160.696073 
L 131.649395 162.834425 
L 131.974375 163.503943 
L 132.299354 163.902559 
L 132.624334 164.028493 
L 132.949313 163.881214 
L 133.274293 163.461435 
L 133.599272 162.771093 
L 134.249231 160.592486 
L 134.89919 157.384542 
L 135.54915 153.204187 
L 136.524088 145.274857 
L 137.824006 132.10172 
L 139.448904 112.729584 
L 143.348658 64.476319 
L 144.648576 51.290463 
L 145.623515 43.196968 
L 146.598453 36.90474 
L 147.248412 33.791731 
L 147.898371 31.579315 
L 148.548331 30.280739 
L 148.87331 29.97422 
L 149.19829 29.894438 
L 149.523269 30.038954 
L 149.848249 30.404477 
L 150.498208 31.781256 
L 151.148167 33.982414 
L 151.798126 36.953958 
L 152.773064 42.712533 
L 153.748003 49.80457 
L 155.047921 60.837238 
L 157.647757 85.557032 
L 159.922614 106.418494 
L 161.222532 116.724192 
L 162.52245 125.336262 
L 163.497389 130.53584 
L 164.472327 134.604399 
L 165.447266 137.54702 
L 166.097225 138.905598 
L 166.747184 139.808611 
L 167.397143 140.286788 
L 168.047102 140.376579 
L 168.697061 140.119126 
L 169.34702 139.559195 
L 170.321959 138.25601 
L 171.621877 135.91002 
L 175.846611 127.621152 
L 176.821549 126.262158 
L 177.796488 125.25711 
L 178.771426 124.622002 
L 179.746365 124.344091 
L 180.721303 124.384257 
L 181.696242 124.680536 
L 182.99616 125.333171 
L 185.271017 126.539274 
L 186.245955 126.818291 
L 187.220894 126.817111 
L 187.870853 126.620464 
L 188.520812 126.243645 
L 189.170771 125.670754 
L 190.14571 124.419363 
L 191.120648 122.680932 
L 192.095587 120.458539 
L 193.395505 116.79213 
L 194.695423 112.44101 
L 196.6453 105.055032 
L 199.895095 92.571917 
L 201.195014 88.322799 
L 202.494932 84.885011 
L 203.46987 82.965346 
L 204.119829 82.038315 
L 204.769788 81.411679 
L 205.419747 81.096397 
L 206.069706 81.099134 
L 206.719665 81.422195 
L 207.369625 82.063532 
L 208.019584 83.016819 
L 208.994522 85.007706 
L 209.969461 87.624508 
L 211.269379 91.965528 
L 212.894276 98.467887 
L 215.169133 108.730885 
L 218.093949 121.912155 
L 219.718846 128.343298 
L 221.018765 132.724018 
L 222.318683 136.294508 
L 223.293621 138.397121 
L 224.26856 139.992576 
L 225.243498 141.083921 
L 225.893457 141.53895 
L 226.543417 141.784648 
L 227.193376 141.830786 
L 227.843335 141.688889 
L 228.493294 141.371948 
L 229.468232 140.599549 
L 230.443171 139.516491 
L 231.743089 137.681284 
L 233.367987 134.934238 
L 235.967823 130.009176 
L 239.867577 122.658758 
L 242.467413 118.242361 
L 245.067249 114.243543 
L 247.992065 110.125423 
L 250.916881 106.369975 
L 253.191738 103.820619 
L 254.816635 102.319392 
L 256.116553 101.383702 
L 257.416471 100.740741 
L 258.39141 100.481012 
L 259.366349 100.433107 
L 260.341287 100.612648 
L 261.316226 101.031149 
L 262.291164 101.695252 
L 263.266103 102.606111 
L 264.566021 104.195359 
L 265.865939 106.186066 
L 267.490837 109.165705 
L 269.440714 113.285887 
L 275.615325 126.886481 
L 277.240222 129.711661 
L 278.540141 131.532421 
L 279.515079 132.605828 
L 280.490018 133.411162 
L 281.464956 133.93909 
L 282.439895 134.186367 
L 283.414833 134.155696 
L 284.389772 133.855407 
L 285.364711 133.299009 
L 286.339649 132.504597 
L 287.639567 131.113642 
L 288.939485 129.399568 
L 290.564383 126.90529 
L 293.164219 122.42632 
L 297.388953 115.085942 
L 299.33883 112.103939 
L 300.963728 109.945098 
L 302.588625 108.131006 
L 304.213523 106.688792 
L 305.513441 105.811986 
L 306.813359 105.183453 
L 308.113277 104.801483 
L 309.413195 104.661815 
L 310.713113 104.758231 
L 312.013032 105.082882 
L 313.31295 105.626366 
L 314.612868 106.377571 
L 316.237765 107.588422 
L 317.862663 109.071858 
L 319.81254 111.156747 
L 322.412376 114.313492 
L 328.911967 122.430968 
L 330.861844 124.399392 
L 332.486742 125.710065 
L 333.78666 126.500865 
L 335.086578 127.037882 
L 336.386496 127.305903 
L 337.686414 127.297612 
L 338.986332 127.013976 
L 340.28625 126.464302 
L 341.586168 125.665919 
L 343.211066 124.356482 
L 344.835964 122.759668 
L 347.11082 120.184105 
L 353.610411 112.550803 
L 355.560288 110.710944 
L 357.185186 109.472537 
L 358.810083 108.541073 
L 360.110001 108.031752 
L 361.409919 107.737295 
L 362.709837 107.65674 
L 364.009756 107.784156 
L 365.309674 108.109179 
L 366.934571 108.771389 
L 368.559469 109.685264 
L 370.509346 111.056437 
L 372.784203 112.934872 
L 377.333916 117.075488 
L 380.583711 119.863499 
L 382.858568 121.510212 
L 384.808445 122.631454 
L 386.433343 123.32174 
L 388.05824 123.766905 
L 389.683138 123.953678 
L 391.308036 123.877659 
L 392.932933 123.543774 
L 394.557831 122.966391 
L 396.182729 122.169018 
L 398.132606 120.967262 
L 398.457585 120.745314 
L 398.457585 120.745314 
" clip-path="url(#p2c79a89bc5)" style="fill: none; stroke: #ff7f0e; stroke-width: 1.5; stroke-linecap: square"/>
   </g>
   <g id="line2d_15">
    <path d="M 73.80304 122.705899 
L 106.625972 122.673374 
L 107.275931 122.397664 
L 107.92589 121.85654 
L 108.575849 121.070583 
L 109.550788 119.473753 
L 110.525726 117.425371 
L 111.825644 114.078425 
L 113.125562 110.129979 
L 114.75046 104.522552 
L 117.350296 94.598764 
L 120.600091 82.267943 
L 122.224989 76.963354 
L 123.524907 73.477202 
L 124.499846 71.424606 
L 125.474784 69.931078 
L 126.124743 69.27609 
L 126.774702 68.911673 
L 127.424661 68.850553 
L 128.07462 69.102792 
L 128.724579 69.675586 
L 129.374539 70.573088 
L 130.024498 71.796273 
L 130.999436 74.235765 
L 131.974375 77.380242 
L 132.949313 81.191005 
L 134.249231 87.211059 
L 135.874129 95.995081 
L 138.148986 109.857366 
L 142.37372 135.95166 
L 143.998617 144.528369 
L 145.298535 150.31712 
L 146.273474 153.913288 
L 147.248412 156.805274 
L 148.223351 158.951632 
L 148.87331 159.955352 
L 149.523269 160.613098 
L 150.173228 160.924941 
L 150.823187 160.894164 
L 151.473146 160.527144 
L 152.123105 159.833206 
L 152.773064 158.82445 
L 153.748003 156.753746 
L 154.722941 154.067287 
L 156.02286 149.647701 
L 157.647757 143.038447 
L 159.597634 134.032117 
L 165.447266 106.288992 
L 167.072163 99.770856 
L 168.697061 94.161546 
L 169.996979 90.400969 
L 171.296897 87.318084 
L 172.271836 85.456394 
L 173.246774 83.978788 
L 174.221713 82.879186 
L 175.196652 82.148592 
L 176.17159 81.775946 
L 176.821549 81.7203 
L 177.796488 81.916368 
L 178.771426 82.436044 
L 179.746365 83.265988 
L 180.721303 84.392979 
L 182.021222 86.335087 
L 183.32114 88.750827 
L 184.621058 91.607708 
L 186.245955 95.744554 
L 188.195833 101.429279 
L 190.470689 108.827135 
L 197.620239 132.899901 
L 199.245136 137.368957 
L 200.545055 140.374453 
L 201.844973 142.774474 
L 202.819911 144.130688 
L 203.79485 145.077708 
L 204.444809 145.472187 
L 205.094768 145.672586 
L 205.744727 145.676676 
L 206.394686 145.483802 
L 207.044645 145.09491 
L 208.019584 144.150081 
L 208.994522 142.785751 
L 209.969461 141.02521 
L 211.269379 138.115625 
L 212.569297 134.648446 
L 214.194195 129.698213 
L 216.794031 120.93433 
L 220.368806 108.929824 
L 222.318683 103.233806 
L 223.618601 99.996379 
L 224.918519 97.295587 
L 226.218437 95.184721 
L 227.193376 94.009 
L 228.168314 93.189871 
L 229.143253 92.727217 
L 229.793212 92.614122 
L 230.443171 92.653853 
L 231.418109 92.99088 
L 232.393048 93.64509 
L 233.367987 94.595318 
L 234.342925 95.817261 
L 235.642843 97.82268 
L 237.267741 100.837581 
L 239.217618 105.016776 
L 242.142434 111.934989 
L 246.367168 121.942681 
L 248.642024 126.741082 
L 250.266922 129.73 
L 251.891819 132.265384 
L 253.191738 133.921984 
L 254.491656 135.216286 
L 255.466594 135.934502 
L 256.441533 136.427056 
L 257.416471 136.687768 
L 258.39141 136.712635 
L 259.366349 136.500036 
L 260.341287 136.050929 
L 261.316226 135.369029 
L 262.291164 134.460955 
L 263.591082 132.915437 
L 264.891 131.016549 
L 266.515898 128.208998 
L 268.465775 124.337176 
L 271.390591 117.942608 
L 274.965366 110.231054 
L 276.915243 106.569889 
L 278.540141 104.015787 
L 279.840059 102.370628 
L 281.139977 101.122105 
L 282.114915 100.462625 
L 283.089854 100.048279 
L 284.064792 99.881647 
L 285.039731 99.96124 
L 286.01467 100.281598 
L 286.989608 100.833482 
L 287.964547 101.604126 
L 289.264465 102.943937 
L 290.564383 104.598489 
L 292.189281 107.028688 
L 294.464137 110.901157 
L 300.638748 121.757746 
L 302.588625 124.606262 
L 304.213523 126.583212 
L 305.513441 127.8647 
L 306.813359 128.857624 
L 308.113277 129.549347 
L 309.413195 129.93404 
L 310.388134 130.02121 
L 311.363073 129.938398 
L 312.662991 129.571233 
L 313.962909 128.924489 
L 315.262827 128.017787 
L 316.887724 126.555767 
L 318.512622 124.780627 
L 320.462499 122.326857 
L 323.387315 118.241556 
L 327.937028 111.884139 
L 329.886905 109.51807 
L 331.511803 107.840902 
L 333.136701 106.494682 
L 334.436619 105.688142 
L 335.736537 105.141764 
L 337.036455 104.867194 
L 338.336373 104.869392 
L 339.636291 105.14639 
L 340.936209 105.689247 
L 342.236127 106.482224 
L 343.861025 107.790877 
L 345.485923 109.39954 
L 347.760779 112.025633 
L 355.560288 121.515476 
L 357.185186 123.054773 
L 358.810083 124.303615 
L 360.110001 125.067307 
L 361.409919 125.607253 
L 362.709837 125.916434 
L 364.009756 125.99377 
L 365.309674 125.843881 
L 366.609592 125.47671 
L 367.90951 124.907029 
L 369.534408 123.939458 
L 371.484285 122.463857 
L 373.759141 120.423141 
L 378.308855 115.918485 
L 381.23367 113.198624 
L 383.183548 111.64208 
L 385.133425 110.375955 
L 386.758322 109.583424 
L 388.38322 109.054579 
L 390.008118 108.803308 
L 391.308036 108.805425 
L 392.932933 109.058414 
L 394.557831 109.577155 
L 396.182729 110.339683 
L 398.132606 111.533149 
L 398.457585 111.757423 
L 398.457585 111.757423 
" clip-path="url(#p2c79a89bc5)" style="fill: none; stroke: #2ca02c; stroke-width: 1.5; stroke-linecap: square"/>
   </g>
   <g id="line2d_16">
    <path d="M 73.80304 122.705899 
L 106.625972 122.645106 
L 107.275931 122.135668 
L 107.92589 121.155895 
L 108.575849 119.767484 
L 109.550788 117.044265 
L 110.850706 112.484434 
L 112.475603 105.787413 
L 118.000255 81.888097 
L 119.300173 77.348549 
L 120.600091 73.62198 
L 121.57503 71.446894 
L 122.549969 69.856242 
L 123.199928 69.138285 
L 123.849887 68.703211 
L 124.499846 68.555847 
L 125.149805 68.698518 
L 125.799764 69.131058 
L 126.449723 69.850851 
L 127.099682 70.852883 
L 128.07462 72.868477 
L 129.049559 75.468051 
L 130.349477 79.764335 
L 131.649395 84.887728 
L 133.274293 92.215886 
L 135.874129 105.249987 
L 139.773883 124.859492 
L 141.72376 133.405764 
L 143.348658 139.428057 
L 144.648576 143.393178 
L 145.948494 146.535018 
L 146.923433 148.331516 
L 147.898371 149.643191 
L 148.548331 150.249604 
L 149.19829 150.644289 
L 149.848249 150.830762 
L 150.498208 150.813461 
L 151.148167 150.597622 
L 151.798126 150.189164 
L 152.773064 149.229649 
L 153.748003 147.875306 
L 154.722941 146.151828 
L 156.02286 143.326641 
L 157.322778 139.960719 
L 158.947675 135.100038 
L 160.897552 128.499426 
L 163.497389 118.832942 
L 168.697061 99.18875 
L 170.646938 92.729371 
L 172.271836 88.124204 
L 173.571754 85.088529 
L 174.546693 83.249164 
L 175.521631 81.821455 
L 176.49657 80.832878 
L 177.146529 80.42858 
L 177.796488 80.233647 
L 178.446447 80.25118 
L 179.096406 80.482702 
L 179.746365 80.928097 
L 180.396324 81.585565 
L 181.371263 82.96126 
L 182.346201 84.786801 
L 183.32114 87.034733 
L 184.621058 90.626728 
L 186.245955 95.923014 
L 188.195833 103.135004 
L 194.370444 126.803458 
L 195.995341 131.951456 
L 197.295259 135.454255 
L 198.595177 138.33185 
L 199.570116 140.050243 
L 200.545055 141.37815 
L 201.519993 142.311119 
L 202.494932 142.851416 
L 203.144891 142.997406 
L 203.79485 142.976432 
L 204.444809 142.793409 
L 205.419747 142.227991 
L 206.394686 141.334182 
L 207.369625 140.138187 
L 208.669543 138.12333 
L 209.969461 135.695034 
L 211.594358 132.193067 
L 213.869215 126.682961 
L 221.343744 107.927018 
L 223.293621 103.852271 
L 224.918519 100.967642 
L 226.218437 99.056447 
L 227.518355 97.54026 
L 228.493294 96.682923 
L 229.468232 96.078915 
L 230.443171 95.737877 
L 231.418109 95.666784 
L 232.393048 95.86961 
L 233.367987 96.347025 
L 234.342925 97.096121 
L 235.317864 98.110198 
L 236.617782 99.855541 
L 237.9177 102.016368 
L 239.542598 105.226559 
L 241.492475 109.663931 
L 244.74227 117.808675 
L 247.667086 124.98811 
L 249.616963 129.197971 
L 251.24186 132.140767 
L 252.541779 134.041234 
L 253.841697 135.490196 
L 254.816635 136.26235 
L 255.791574 136.756676 
L 256.766512 136.970876 
L 257.741451 136.90725 
L 258.716389 136.572512 
L 259.691328 135.977515 
L 260.666267 135.136912 
L 261.966185 133.665657 
L 263.266103 131.840799 
L 264.891 129.15103 
L 267.165857 124.845482 
L 273.990427 111.417328 
L 275.940304 108.262555 
L 277.565202 106.068232 
L 278.86512 104.638856 
L 280.165038 103.522509 
L 281.464956 102.733379 
L 282.439895 102.361067 
L 283.414833 102.178028 
L 284.389772 102.183106 
L 285.364711 102.373227 
L 286.339649 102.74345 
L 287.639567 103.505318 
L 288.939485 104.554362 
L 290.239403 105.864538 
L 291.864301 107.821895 
L 293.814178 110.545543 
L 296.738994 115.103248 
L 300.963728 121.718744 
L 302.913605 124.393053 
L 304.538503 126.28979 
L 305.838421 127.538793 
L 307.138339 128.517149 
L 308.438257 129.202401 
L 309.738175 129.579572 
L 310.713113 129.655738 
L 311.688052 129.554541 
L 312.662991 129.278638 
L 313.962909 128.648367 
L 315.262827 127.736175 
L 316.562745 126.568382 
L 318.187643 124.799567 
L 320.13752 122.32472 
L 323.387315 117.735497 
L 326.96209 112.773518 
L 328.911967 110.418239 
L 330.536865 108.759962 
L 332.161762 107.436214 
L 333.46168 106.644461 
L 334.761598 106.104193 
L 336.061516 105.821361 
L 337.361435 105.795559 
L 338.661353 106.02032 
L 339.961271 106.483553 
L 341.261189 107.168089 
L 342.886086 108.301672 
L 344.835964 110.002172 
L 347.11082 112.328018 
L 355.560288 121.368577 
L 357.510165 122.951321 
L 359.135063 123.99534 
L 360.75996 124.755628 
L 362.059878 125.144858 
L 363.359797 125.332483 
L 364.659715 125.316801 
L 365.959633 125.100595 
L 367.259551 124.691102 
L 368.884448 123.925426 
L 370.509346 122.907596 
L 372.459223 121.410878 
L 375.059059 119.08856 
L 381.55865 113.095241 
L 383.508527 111.644608 
L 385.133425 110.667474 
L 386.758322 109.937124 
L 388.38322 109.476572 
L 389.683138 109.31074 
L 390.983056 109.326197 
L 392.607954 109.594239 
L 394.232851 110.122269 
L 395.857749 110.8836 
L 397.807626 112.055511 
L 398.457585 112.49735 
L 398.457585 112.49735 
" clip-path="url(#p2c79a89bc5)" style="fill: none; stroke: #d62728; stroke-width: 1.5; stroke-linecap: square"/>
   </g>
   <g id="patch_3">
    <path d="M 57.570313 283.910438 
L 57.570313 17.798438 
" style="fill: none; stroke: #000000; stroke-width: 0.8; stroke-linejoin: miter; stroke-linecap: square"/>
   </g>
   <g id="patch_4">
    <path d="M 414.690313 283.910438 
L 414.690313 17.798438 
" style="fill: none; stroke: #000000; stroke-width: 0.8; stroke-linejoin: miter; stroke-linecap: square"/>
   </g>
   <g id="patch_5">
    <path d="M 57.570313 283.910437 
L 414.690313 283.910437 
" style="fill: none; stroke: #000000; stroke-width: 0.8; stroke-linejoin: miter; stroke-linecap: square"/>
   </g>
   <g id="patch_6">
    <path d="M 57.570313 17.798437 
L 414.690313 17.798437 
" style="fill: none; stroke: #000000; stroke-width: 0.8; stroke-linejoin: miter; stroke-linecap: square"/>
   </g>
   <g id="legend_1">
    <g id="patch_7">
     <path d="M 329.83875 85.623437 
L 407.690313 85.623437 
Q 409.690313 85.623437 409.690313 83.623437 
L 409.690313 24.798437 
Q 409.690313 22.798437 407.690313 22.798437 
L 329.83875 22.798437 
Q 327.83875 22.798437 327.83875 24.798437 
L 327.83875 83.623437 
Q 327.83875 85.623437 329.83875 85.623437 
z
" style="fill: #ffffff; opacity: 0.8; stroke: #cccccc; stroke-linejoin: miter"/>
    </g>
    <g id="line2d_17">
     <path d="M 331.83875 30.896875 
L 341.83875 30.896875 
L 351.83875 30.896875 
" style="fill: none; stroke: #1f77b4; stroke-width: 1.5; stroke-linecap: square"/>
    </g>
    <g id="text_14">
     <!-- omega_1 -->
     <g transform="translate(359.83875 34.396875) scale(0.1 -0.1)">
      <defs>
       <path id="DejaVuSans-6f" d="M 1959 3097 
Q 1497 3097 1228 2736 
Q 959 2375 959 1747 
Q 959 1119 1226 758 
Q 1494 397 1959 397 
Q 2419 397 2687 759 
Q 2956 1122 2956 1747 
Q 2956 2369 2687 2733 
Q 2419 3097 1959 3097 
z
M 1959 3584 
Q 2709 3584 3137 3096 
Q 3566 2609 3566 1747 
Q 3566 888 3137 398 
Q 2709 -91 1959 -91 
Q 1206 -91 779 398 
Q 353 888 353 1747 
Q 353 2609 779 3096 
Q 1206 3584 1959 3584 
z
" transform="scale(0.015625)"/>
       <path id="DejaVuSans-6d" d="M 3328 2828 
Q 3544 3216 3844 3400 
Q 4144 3584 4550 3584 
Q 5097 3584 5394 3201 
Q 5691 2819 5691 2113 
L 5691 0 
L 5113 0 
L 5113 2094 
Q 5113 2597 4934 2840 
Q 4756 3084 4391 3084 
Q 3944 3084 3684 2787 
Q 3425 2491 3425 1978 
L 3425 0 
L 2847 0 
L 2847 2094 
Q 2847 2600 2669 2842 
Q 2491 3084 2119 3084 
Q 1678 3084 1418 2786 
Q 1159 2488 1159 1978 
L 1159 0 
L 581 0 
L 581 3500 
L 1159 3500 
L 1159 2956 
Q 1356 3278 1631 3431 
Q 1906 3584 2284 3584 
Q 2666 3584 2933 3390 
Q 3200 3197 3328 2828 
z
" transform="scale(0.015625)"/>
       <path id="DejaVuSans-65" d="M 3597 1894 
L 3597 1613 
L 953 1613 
Q 991 1019 1311 708 
Q 1631 397 2203 397 
Q 2534 397 2845 478 
Q 3156 559 3463 722 
L 3463 178 
Q 3153 47 2828 -22 
Q 2503 -91 2169 -91 
Q 1331 -91 842 396 
Q 353 884 353 1716 
Q 353 2575 817 3079 
Q 1281 3584 2069 3584 
Q 2775 3584 3186 3129 
Q 3597 2675 3597 1894 
z
M 3022 2063 
Q 3016 2534 2758 2815 
Q 2500 3097 2075 3097 
Q 1594 3097 1305 2825 
Q 1016 2553 972 2059 
L 3022 2063 
z
" transform="scale(0.015625)"/>
       <path id="DejaVuSans-67" d="M 2906 1791 
Q 2906 2416 2648 2759 
Q 2391 3103 1925 3103 
Q 1463 3103 1205 2759 
Q 947 2416 947 1791 
Q 947 1169 1205 825 
Q 1463 481 1925 481 
Q 2391 481 2648 825 
Q 2906 1169 2906 1791 
z
M 3481 434 
Q 3481 -459 3084 -895 
Q 2688 -1331 1869 -1331 
Q 1566 -1331 1297 -1286 
Q 1028 -1241 775 -1147 
L 775 -588 
Q 1028 -725 1275 -790 
Q 1522 -856 1778 -856 
Q 2344 -856 2625 -561 
Q 2906 -266 2906 331 
L 2906 616 
Q 2728 306 2450 153 
Q 2172 0 1784 0 
Q 1141 0 747 490 
Q 353 981 353 1791 
Q 353 2603 747 3093 
Q 1141 3584 1784 3584 
Q 2172 3584 2450 3431 
Q 2728 3278 2906 2969 
L 2906 3500 
L 3481 3500 
L 3481 434 
z
" transform="scale(0.015625)"/>
       <path id="DejaVuSans-61" d="M 2194 1759 
Q 1497 1759 1228 1600 
Q 959 1441 959 1056 
Q 959 750 1161 570 
Q 1363 391 1709 391 
Q 2188 391 2477 730 
Q 2766 1069 2766 1631 
L 2766 1759 
L 2194 1759 
z
M 3341 1997 
L 3341 0 
L 2766 0 
L 2766 531 
Q 2569 213 2275 61 
Q 1981 -91 1556 -91 
Q 1019 -91 701 211 
Q 384 513 384 1019 
Q 384 1609 779 1909 
Q 1175 2209 1959 2209 
L 2766 2209 
L 2766 2266 
Q 2766 2663 2505 2880 
Q 2244 3097 1772 3097 
Q 1472 3097 1187 3025 
Q 903 2953 641 2809 
L 641 3341 
Q 956 3463 1253 3523 
Q 1550 3584 1831 3584 
Q 2591 3584 2966 3190 
Q 3341 2797 3341 1997 
z
" transform="scale(0.015625)"/>
       <path id="DejaVuSans-5f" d="M 3263 -1063 
L 3263 -1509 
L -63 -1509 
L -63 -1063 
L 3263 -1063 
z
" transform="scale(0.015625)"/>
      </defs>
      <use xlink:href="#DejaVuSans-6f"/>
      <use xlink:href="#DejaVuSans-6d" x="61.181641"/>
      <use xlink:href="#DejaVuSans-65" x="158.59375"/>
      <use xlink:href="#DejaVuSans-67" x="220.117188"/>
      <use xlink:href="#DejaVuSans-61" x="283.59375"/>
      <use xlink:href="#DejaVuSans-5f" x="344.873047"/>
      <use xlink:href="#DejaVuSans-31" x="394.873047"/>
     </g>
    </g>
    <g id="line2d_18">
     <path d="M 331.83875 45.853125 
L 341.83875 45.853125 
L 351.83875 45.853125 
" style="fill: none; stroke: #ff7f0e; stroke-width: 1.5; stroke-linecap: square"/>
    </g>
    <g id="text_15">
     <!-- omega_2 -->
     <g transform="translate(359.83875 49.353125) scale(0.1 -0.1)">
      <use xlink:href="#DejaVuSans-6f"/>
      <use xlink:href="#DejaVuSans-6d" x="61.181641"/>
      <use xlink:href="#DejaVuSans-65" x="158.59375"/>
      <use xlink:href="#DejaVuSans-67" x="220.117188"/>
      <use xlink:href="#DejaVuSans-61" x="283.59375"/>
      <use xlink:href="#DejaVuSans-5f" x="344.873047"/>
      <use xlink:href="#DejaVuSans-32" x="394.873047"/>
     </g>
    </g>
    <g id="line2d_19">
     <path d="M 331.83875 60.809375 
L 341.83875 60.809375 
L 351.83875 60.809375 
" style="fill: none; stroke: #2ca02c; stroke-width: 1.5; stroke-linecap: square"/>
    </g>
    <g id="text_16">
     <!-- omega_3 -->
     <g transform="translate(359.83875 64.309375) scale(0.1 -0.1)">
      <defs>
       <path id="DejaVuSans-33" d="M 2597 2516 
Q 3050 2419 3304 2112 
Q 3559 1806 3559 1356 
Q 3559 666 3084 287 
Q 2609 -91 1734 -91 
Q 1441 -91 1130 -33 
Q 819 25 488 141 
L 488 750 
Q 750 597 1062 519 
Q 1375 441 1716 441 
Q 2309 441 2620 675 
Q 2931 909 2931 1356 
Q 2931 1769 2642 2001 
Q 2353 2234 1838 2234 
L 1294 2234 
L 1294 2753 
L 1863 2753 
Q 2328 2753 2575 2939 
Q 2822 3125 2822 3475 
Q 2822 3834 2567 4026 
Q 2313 4219 1838 4219 
Q 1578 4219 1281 4162 
Q 984 4106 628 3988 
L 628 4550 
Q 988 4650 1302 4700 
Q 1616 4750 1894 4750 
Q 2613 4750 3031 4423 
Q 3450 4097 3450 3541 
Q 3450 3153 3228 2886 
Q 3006 2619 2597 2516 
z
" transform="scale(0.015625)"/>
      </defs>
      <use xlink:href="#DejaVuSans-6f"/>
      <use xlink:href="#DejaVuSans-6d" x="61.181641"/>
      <use xlink:href="#DejaVuSans-65" x="158.59375"/>
      <use xlink:href="#DejaVuSans-67" x="220.117188"/>
      <use xlink:href="#DejaVuSans-61" x="283.59375"/>
      <use xlink:href="#DejaVuSans-5f" x="344.873047"/>
      <use xlink:href="#DejaVuSans-33" x="394.873047"/>
     </g>
    </g>
    <g id="line2d_20">
     <path d="M 331.83875 75.765625 
L 341.83875 75.765625 
L 351.83875 75.765625 
" style="fill: none; stroke: #d62728; stroke-width: 1.5; stroke-linecap: square"/>
    </g>
    <g id="text_17">
     <!-- omega_4 -->
     <g transform="translate(359.83875 79.265625) scale(0.1 -0.1)">
      <use xlink:href="#DejaVuSans-6f"/>
      <use xlink:href="#DejaVuSans-6d" x="61.181641"/>
      <use xlink:href="#DejaVuSans-65" x="158.59375"/>
      <use xlink:href="#DejaVuSans-67" x="220.117188"/>
      <use xlink:href="#DejaVuSans-61" x="283.59375"/>
      <use xlink:href="#DejaVuSans-5f" x="344.873047"/>
      <use xlink:href="#DejaVuSans-34" x="394.873047"/>
     </g>
    </g>
   </g>
  </g>
 </g>
 <defs>
  <clipPath id="p2c79a89bc5">
   <rect x="57.570313" y="17.798437" width="357.12" height="266.112"/>
  </clipPath>
 </defs>
</svg>