<?xml version="1.0" encoding="utf-8" standalone="no"?>
<!DOCTYPE svg PUBLIC "-//W3C//DTD SVG 1.1//EN"
  "http://www.w3.org/Graphics/SVG/1.1/DTD/svg11.dtd">
<svg height="248.518125pt" version="1.1" viewBox="0 0 384.828125 248.518125" width="384.828125pt" xmlns="http://www.w3.org/2000/svg" xmlns:xlink="http://www.w3.org/1999/xlink">
 <metadata>
  <rdf:RDF xmlns:cc="http://creativecommons.org/ns#" xmlns:dc="http://purl.org/dc/elements/1.1/" xmlns:rdf="http://www.w3.org/1999/02/22-rdf-syntax-ns#">
   <cc:Work>
    <dc:type rdf:resource="http://purl.org/dc/dcmitype/StillImage"/>
    <dc:date>2021-11-17T16:47:44.732492</dc:date>
    <dc:format>image/svg+xml</dc:format>
    <dc:creator>
     <cc:Agent>
      <dc:title>Matplotlib v3.4.2, https://matplotlib.org/</dc:title>
     </cc:Agent>
    </dc:creator>
   </cc:Work>
  </rdf:RDF>
 </metadata>
 <defs>
  <style type="text/css">*{stroke-linecap:butt;stroke-linejoin:round;}</style>
 </defs>
 <g id="figure_1">
  <g id="patch_1">
   <path d="M 0 248.518125 
L 384.828125 248.518125 
L 384.828125 0 
L 0 0 
z
" style="fill:none;"/>
  </g>
  <g id="axes_1">
   <g id="patch_2">
    <path d="M 42.828125 224.64 
L 377.628125 224.64 
L 377.628125 7.2 
L 42.828125 7.2 
z
" style="fill:#ffffff;"/>
   </g>
   <g id="matplotlib.axis_1">
    <g id="xtick_1">
     <g id="line2d_1">
      <defs>
       <path d="M 0 0 
L 0 3.5 
" id="me99175d056" style="stroke:#000000;stroke-width:0.8;"/>
      </defs>
      <g>
       <use style="stroke:#000000;stroke-width:0.8;" x="58.046307" xlink:href="#me99175d056" y="224.64"/>
      </g>
     </g>
     <g id="text_1">
      <!-- 0 -->
      <g transform="translate(54.865057 239.238438)scale(0.1 -0.1)">
       <defs>
        <path d="M 2034 4250 
Q 1547 4250 1301 3770 
Q 1056 3291 1056 2328 
Q 1056 1369 1301 889 
Q 1547 409 2034 409 
Q 2525 409 2770 889 
Q 3016 1369 3016 2328 
Q 3016 3291 2770 3770 
Q 2525 4250 2034 4250 
z
M 2034 4750 
Q 2819 4750 3233 4129 
Q 3647 3509 3647 2328 
Q 3647 1150 3233 529 
Q 2819 -91 2034 -91 
Q 1250 -91 836 529 
Q 422 1150 422 2328 
Q 422 3509 836 4129 
Q 1250 4750 2034 4750 
z
" id="DejaVuSans-30" transform="scale(0.015625)"/>
       </defs>
       <use xlink:href="#DejaVuSans-30"/>
      </g>
     </g>
    </g>
    <g id="xtick_2">
     <g id="line2d_2">
      <g>
       <use style="stroke:#000000;stroke-width:0.8;" x="108.858266" xlink:href="#me99175d056" y="224.64"/>
      </g>
     </g>
     <g id="text_2">
      <!-- 10 -->
      <g transform="translate(102.495766 239.238438)scale(0.1 -0.1)">
       <defs>
        <path d="M 794 531 
L 1825 531 
L 1825 4091 
L 703 3866 
L 703 4441 
L 1819 4666 
L 2450 4666 
L 2450 531 
L 3481 531 
L 3481 0 
L 794 0 
L 794 531 
z
" id="DejaVuSans-31" transform="scale(0.015625)"/>
       </defs>
       <use xlink:href="#DejaVuSans-31"/>
       <use x="63.623047" xlink:href="#DejaVuSans-30"/>
      </g>
     </g>
    </g>
    <g id="xtick_3">
     <g id="line2d_3">
      <g>
       <use style="stroke:#000000;stroke-width:0.8;" x="159.670225" xlink:href="#me99175d056" y="224.64"/>
      </g>
     </g>
     <g id="text_3">
      <!-- 20 -->
      <g transform="translate(153.307725 239.238438)scale(0.1 -0.1)">
       <defs>
        <path d="M 1228 531 
L 3431 531 
L 3431 0 
L 469 0 
L 469 531 
Q 828 903 1448 1529 
Q 2069 2156 2228 2338 
Q 2531 2678 2651 2914 
Q 2772 3150 2772 3378 
Q 2772 3750 2511 3984 
Q 2250 4219 1831 4219 
Q 1534 4219 1204 4116 
Q 875 4013 500 3803 
L 500 4441 
Q 881 4594 1212 4672 
Q 1544 4750 1819 4750 
Q 2544 4750 2975 4387 
Q 3406 4025 3406 3419 
Q 3406 3131 3298 2873 
Q 3191 2616 2906 2266 
Q 2828 2175 2409 1742 
Q 1991 1309 1228 531 
z
" id="DejaVuSans-32" transform="scale(0.015625)"/>
       </defs>
       <use xlink:href="#DejaVuSans-32"/>
       <use x="63.623047" xlink:href="#DejaVuSans-30"/>
      </g>
     </g>
    </g>
    <g id="xtick_4">
     <g id="line2d_4">
      <g>
       <use style="stroke:#000000;stroke-width:0.8;" x="210.482185" xlink:href="#me99175d056" y="224.64"/>
      </g>
     </g>
     <g id="text_4">
      <!-- 30 -->
      <g transform="translate(204.119685 239.238438)scale(0.1 -0.1)">
       <defs>
        <path d="M 2597 2516 
Q 3050 2419 3304 2112 
Q 3559 1806 3559 1356 
Q 3559 666 3084 287 
Q 2609 -91 1734 -91 
Q 1441 -91 1130 -33 
Q 819 25 488 141 
L 488 750 
Q 750 597 1062 519 
Q 1375 441 1716 441 
Q 2309 441 2620 675 
Q 2931 909 2931 1356 
Q 2931 1769 2642 2001 
Q 2353 2234 1838 2234 
L 1294 2234 
L 1294 2753 
L 1863 2753 
Q 2328 2753 2575 2939 
Q 2822 3125 2822 3475 
Q 2822 3834 2567 4026 
Q 2313 4219 1838 4219 
Q 1578 4219 1281 4162 
Q 984 4106 628 3988 
L 628 4550 
Q 988 4650 1302 4700 
Q 1616 4750 1894 4750 
Q 2613 4750 3031 4423 
Q 3450 4097 3450 3541 
Q 3450 3153 3228 2886 
Q 3006 2619 2597 2516 
z
" id="DejaVuSans-33" transform="scale(0.015625)"/>
       </defs>
       <use xlink:href="#DejaVuSans-33"/>
       <use x="63.623047" xlink:href="#DejaVuSans-30"/>
      </g>
     </g>
    </g>
    <g id="xtick_5">
     <g id="line2d_5">
      <g>
       <use style="stroke:#000000;stroke-width:0.8;" x="261.294144" xlink:href="#me99175d056" y="224.64"/>
      </g>
     </g>
     <g id="text_5">
      <!-- 40 -->
      <g transform="translate(254.931644 239.238438)scale(0.1 -0.1)">
       <defs>
        <path d="M 2419 4116 
L 825 1625 
L 2419 1625 
L 2419 4116 
z
M 2253 4666 
L 3047 4666 
L 3047 1625 
L 3713 1625 
L 3713 1100 
L 3047 1100 
L 3047 0 
L 2419 0 
L 2419 1100 
L 313 1100 
L 313 1709 
L 2253 4666 
z
" id="DejaVuSans-34" transform="scale(0.015625)"/>
       </defs>
       <use xlink:href="#DejaVuSans-34"/>
       <use x="63.623047" xlink:href="#DejaVuSans-30"/>
      </g>
     </g>
    </g>
    <g id="xtick_6">
     <g id="line2d_6">
      <g>
       <use style="stroke:#000000;stroke-width:0.8;" x="312.106103" xlink:href="#me99175d056" y="224.64"/>
      </g>
     </g>
     <g id="text_6">
      <!-- 50 -->
      <g transform="translate(305.743603 239.238438)scale(0.1 -0.1)">
       <defs>
        <path d="M 691 4666 
L 3169 4666 
L 3169 4134 
L 1269 4134 
L 1269 2991 
Q 1406 3038 1543 3061 
Q 1681 3084 1819 3084 
Q 2600 3084 3056 2656 
Q 3513 2228 3513 1497 
Q 3513 744 3044 326 
Q 2575 -91 1722 -91 
Q 1428 -91 1123 -41 
Q 819 9 494 109 
L 494 744 
Q 775 591 1075 516 
Q 1375 441 1709 441 
Q 2250 441 2565 725 
Q 2881 1009 2881 1497 
Q 2881 1984 2565 2268 
Q 2250 2553 1709 2553 
Q 1456 2553 1204 2497 
Q 953 2441 691 2322 
L 691 4666 
z
" id="DejaVuSans-35" transform="scale(0.015625)"/>
       </defs>
       <use xlink:href="#DejaVuSans-35"/>
       <use x="63.623047" xlink:href="#DejaVuSans-30"/>
      </g>
     </g>
    </g>
    <g id="xtick_7">
     <g id="line2d_7">
      <g>
       <use style="stroke:#000000;stroke-width:0.8;" x="362.918063" xlink:href="#me99175d056" y="224.64"/>
      </g>
     </g>
     <g id="text_7">
      <!-- 60 -->
      <g transform="translate(356.555563 239.238438)scale(0.1 -0.1)">
       <defs>
        <path d="M 2113 2584 
Q 1688 2584 1439 2293 
Q 1191 2003 1191 1497 
Q 1191 994 1439 701 
Q 1688 409 2113 409 
Q 2538 409 2786 701 
Q 3034 994 3034 1497 
Q 3034 2003 2786 2293 
Q 2538 2584 2113 2584 
z
M 3366 4563 
L 3366 3988 
Q 3128 4100 2886 4159 
Q 2644 4219 2406 4219 
Q 1781 4219 1451 3797 
Q 1122 3375 1075 2522 
Q 1259 2794 1537 2939 
Q 1816 3084 2150 3084 
Q 2853 3084 3261 2657 
Q 3669 2231 3669 1497 
Q 3669 778 3244 343 
Q 2819 -91 2113 -91 
Q 1303 -91 875 529 
Q 447 1150 447 2328 
Q 447 3434 972 4092 
Q 1497 4750 2381 4750 
Q 2619 4750 2861 4703 
Q 3103 4656 3366 4563 
z
" id="DejaVuSans-36" transform="scale(0.015625)"/>
       </defs>
       <use xlink:href="#DejaVuSans-36"/>
       <use x="63.623047" xlink:href="#DejaVuSans-30"/>
      </g>
     </g>
    </g>
   </g>
   <g id="matplotlib.axis_2">
    <g id="ytick_1">
     <g id="line2d_8">
      <defs>
       <path d="M 0 0 
L -3.5 0 
" id="m5b456cbc81" style="stroke:#000000;stroke-width:0.8;"/>
      </defs>
      <g>
       <use style="stroke:#000000;stroke-width:0.8;" x="42.828125" xlink:href="#m5b456cbc81" y="223.505449"/>
      </g>
     </g>
     <g id="text_8">
      <!-- 0.970 -->
      <g transform="translate(7.2 227.304668)scale(0.1 -0.1)">
       <defs>
        <path d="M 684 794 
L 1344 794 
L 1344 0 
L 684 0 
L 684 794 
z
" id="DejaVuSans-2e" transform="scale(0.015625)"/>
        <path d="M 703 97 
L 703 672 
Q 941 559 1184 500 
Q 1428 441 1663 441 
Q 2288 441 2617 861 
Q 2947 1281 2994 2138 
Q 2813 1869 2534 1725 
Q 2256 1581 1919 1581 
Q 1219 1581 811 2004 
Q 403 2428 403 3163 
Q 403 3881 828 4315 
Q 1253 4750 1959 4750 
Q 2769 4750 3195 4129 
Q 3622 3509 3622 2328 
Q 3622 1225 3098 567 
Q 2575 -91 1691 -91 
Q 1453 -91 1209 -44 
Q 966 3 703 97 
z
M 1959 2075 
Q 2384 2075 2632 2365 
Q 2881 2656 2881 3163 
Q 2881 3666 2632 3958 
Q 2384 4250 1959 4250 
Q 1534 4250 1286 3958 
Q 1038 3666 1038 3163 
Q 1038 2656 1286 2365 
Q 1534 2075 1959 2075 
z
" id="DejaVuSans-39" transform="scale(0.015625)"/>
        <path d="M 525 4666 
L 3525 4666 
L 3525 4397 
L 1831 0 
L 1172 0 
L 2766 4134 
L 525 4134 
L 525 4666 
z
" id="DejaVuSans-37" transform="scale(0.015625)"/>
       </defs>
       <use xlink:href="#DejaVuSans-30"/>
       <use x="63.623047" xlink:href="#DejaVuSans-2e"/>
       <use x="95.410156" xlink:href="#DejaVuSans-39"/>
       <use x="159.033203" xlink:href="#DejaVuSans-37"/>
       <use x="222.65625" xlink:href="#DejaVuSans-30"/>
      </g>
     </g>
    </g>
    <g id="ytick_2">
     <g id="line2d_9">
      <g>
       <use style="stroke:#000000;stroke-width:0.8;" x="42.828125" xlink:href="#m5b456cbc81" y="189.101814"/>
      </g>
     </g>
     <g id="text_9">
      <!-- 0.975 -->
      <g transform="translate(7.2 192.901033)scale(0.1 -0.1)">
       <use xlink:href="#DejaVuSans-30"/>
       <use x="63.623047" xlink:href="#DejaVuSans-2e"/>
       <use x="95.410156" xlink:href="#DejaVuSans-39"/>
       <use x="159.033203" xlink:href="#DejaVuSans-37"/>
       <use x="222.65625" xlink:href="#DejaVuSans-35"/>
      </g>
     </g>
    </g>
    <g id="ytick_3">
     <g id="line2d_10">
      <g>
       <use style="stroke:#000000;stroke-width:0.8;" x="42.828125" xlink:href="#m5b456cbc81" y="154.698178"/>
      </g>
     </g>
     <g id="text_10">
      <!-- 0.980 -->
      <g transform="translate(7.2 158.497397)scale(0.1 -0.1)">
       <defs>
        <path d="M 2034 2216 
Q 1584 2216 1326 1975 
Q 1069 1734 1069 1313 
Q 1069 891 1326 650 
Q 1584 409 2034 409 
Q 2484 409 2743 651 
Q 3003 894 3003 1313 
Q 3003 1734 2745 1975 
Q 2488 2216 2034 2216 
z
M 1403 2484 
Q 997 2584 770 2862 
Q 544 3141 544 3541 
Q 544 4100 942 4425 
Q 1341 4750 2034 4750 
Q 2731 4750 3128 4425 
Q 3525 4100 3525 3541 
Q 3525 3141 3298 2862 
Q 3072 2584 2669 2484 
Q 3125 2378 3379 2068 
Q 3634 1759 3634 1313 
Q 3634 634 3220 271 
Q 2806 -91 2034 -91 
Q 1263 -91 848 271 
Q 434 634 434 1313 
Q 434 1759 690 2068 
Q 947 2378 1403 2484 
z
M 1172 3481 
Q 1172 3119 1398 2916 
Q 1625 2713 2034 2713 
Q 2441 2713 2670 2916 
Q 2900 3119 2900 3481 
Q 2900 3844 2670 4047 
Q 2441 4250 2034 4250 
Q 1625 4250 1398 4047 
Q 1172 3844 1172 3481 
z
" id="DejaVuSans-38" transform="scale(0.015625)"/>
       </defs>
       <use xlink:href="#DejaVuSans-30"/>
       <use x="63.623047" xlink:href="#DejaVuSans-2e"/>
       <use x="95.410156" xlink:href="#DejaVuSans-39"/>
       <use x="159.033203" xlink:href="#DejaVuSans-38"/>
       <use x="222.65625" xlink:href="#DejaVuSans-30"/>
      </g>
     </g>
    </g>
    <g id="ytick_4">
     <g id="line2d_11">
      <g>
       <use style="stroke:#000000;stroke-width:0.8;" x="42.828125" xlink:href="#m5b456cbc81" y="120.294543"/>
      </g>
     </g>
     <g id="text_11">
      <!-- 0.985 -->
      <g transform="translate(7.2 124.093762)scale(0.1 -0.1)">
       <use xlink:href="#DejaVuSans-30"/>
       <use x="63.623047" xlink:href="#DejaVuSans-2e"/>
       <use x="95.410156" xlink:href="#DejaVuSans-39"/>
       <use x="159.033203" xlink:href="#DejaVuSans-38"/>
       <use x="222.65625" xlink:href="#DejaVuSans-35"/>
      </g>
     </g>
    </g>
    <g id="ytick_5">
     <g id="line2d_12">
      <g>
       <use style="stroke:#000000;stroke-width:0.8;" x="42.828125" xlink:href="#m5b456cbc81" y="85.890907"/>
      </g>
     </g>
     <g id="text_12">
      <!-- 0.990 -->
      <g transform="translate(7.2 89.690126)scale(0.1 -0.1)">
       <use xlink:href="#DejaVuSans-30"/>
       <use x="63.623047" xlink:href="#DejaVuSans-2e"/>
       <use x="95.410156" xlink:href="#DejaVuSans-39"/>
       <use x="159.033203" xlink:href="#DejaVuSans-39"/>
       <use x="222.65625" xlink:href="#DejaVuSans-30"/>
      </g>
     </g>
    </g>
    <g id="ytick_6">
     <g id="line2d_13">
      <g>
       <use style="stroke:#000000;stroke-width:0.8;" x="42.828125" xlink:href="#m5b456cbc81" y="51.487272"/>
      </g>
     </g>
     <g id="text_13">
      <!-- 0.995 -->
      <g transform="translate(7.2 55.286491)scale(0.1 -0.1)">
       <use xlink:href="#DejaVuSans-30"/>
       <use x="63.623047" xlink:href="#DejaVuSans-2e"/>
       <use x="95.410156" xlink:href="#DejaVuSans-39"/>
       <use x="159.033203" xlink:href="#DejaVuSans-39"/>
       <use x="222.65625" xlink:href="#DejaVuSans-35"/>
      </g>
     </g>
    </g>
    <g id="ytick_7">
     <g id="line2d_14">
      <g>
       <use style="stroke:#000000;stroke-width:0.8;" x="42.828125" xlink:href="#m5b456cbc81" y="17.083636"/>
      </g>
     </g>
     <g id="text_14">
      <!-- 1.000 -->
      <g transform="translate(7.2 20.882855)scale(0.1 -0.1)">
       <use xlink:href="#DejaVuSans-31"/>
       <use x="63.623047" xlink:href="#DejaVuSans-2e"/>
       <use x="95.410156" xlink:href="#DejaVuSans-30"/>
       <use x="159.033203" xlink:href="#DejaVuSans-30"/>
       <use x="222.65625" xlink:href="#DejaVuSans-30"/>
      </g>
     </g>
    </g>
   </g>
   <g id="line2d_15">
    <path clip-path="url(#p285a3b0847)" d="M 58.046307 17.083636 
L 63.127503 17.083636 
L 64.143742 56.776461 
L 64.651862 67.692157 
L 65.159981 72.907394 
L 65.668101 74.825699 
L 66.17622 75.968505 
L 66.68434 78.075669 
L 67.192459 81.814968 
L 68.208699 93.157122 
L 69.733057 113.565518 
L 70.749297 129.639841 
L 73.289895 176.489773 
L 73.798014 181.752316 
L 74.306134 184.639426 
L 74.814253 185.659838 
L 75.830493 185.551944 
L 76.338612 186.062784 
L 76.846732 187.595627 
L 77.354851 190.19808 
L 78.371091 197.514912 
L 79.38733 205.074476 
L 80.403569 210.839421 
L 80.911689 212.828576 
L 81.419808 214.157814 
L 81.927928 214.756364 
L 82.436047 214.557909 
L 82.944167 213.550425 
L 83.452286 211.819274 
L 85.992884 200.514028 
L 87.009124 198.019329 
L 88.025363 195.957698 
L 88.533482 194.572895 
L 89.041602 192.742407 
L 90.057841 187.52657 
L 91.07408 180.470204 
L 95.647157 145.113522 
L 97.679635 131.253771 
L 99.203994 119.163583 
L 102.252711 94.119426 
L 103.77707 83.664294 
L 106.825788 65.010064 
L 109.366386 50.337998 
L 110.890745 43.17444 
L 111.906984 39.280034 
L 113.431342 34.422019 
L 114.955701 30.304593 
L 116.48006 26.86284 
L 117.496299 25.097943 
L 118.512538 23.868738 
L 119.528778 23.195712 
L 120.545017 23.018213 
L 121.561256 23.230357 
L 122.577495 23.736061 
L 123.593734 24.489304 
L 124.609974 25.49912 
L 125.626213 26.80249 
L 126.642452 28.426025 
L 128.166811 31.428321 
L 130.199289 36.182697 
L 132.739887 42.731021 
L 135.788605 51.246077 
L 140.361681 64.19682 
L 142.902279 70.734341 
L 145.442877 76.635899 
L 147.475355 80.719864 
L 148.999714 83.347042 
L 150.524073 85.602495 
L 152.048432 87.496189 
L 153.57279 89.023421 
L 155.097149 90.1723 
L 156.621508 90.944027 
L 158.145867 91.36055 
L 159.670225 91.453462 
L 161.194584 91.249683 
L 162.718943 90.769464 
L 164.243302 90.035364 
L 165.767661 89.079246 
L 167.800139 87.525201 
L 170.340737 85.249947 
L 173.897574 81.688183 
L 179.48689 76.045695 
L 182.535607 73.306366 
L 185.076205 71.340767 
L 187.108684 70.015486 
L 189.141162 68.925998 
L 191.17364 68.080361 
L 193.206119 67.480131 
L 195.238597 67.118171 
L 197.271075 66.98023 
L 199.303554 67.04808 
L 201.844152 67.388993 
L 204.38475 67.967107 
L 207.433467 68.896456 
L 212.006544 70.575074 
L 219.628337 73.412185 
L 223.185175 74.505239 
L 226.742012 75.358049 
L 229.790729 75.875417 
L 232.839447 76.193095 
L 236.396284 76.326899 
L 239.953121 76.239343 
L 244.526198 75.878985 
L 251.131752 75.085666 
L 260.277905 73.99397 
L 265.86722 73.555494 
L 270.948416 73.365829 
L 276.537732 73.376387 
L 283.651406 73.638609 
L 308.549266 74.798232 
L 318.203539 74.874552 
L 339.544561 74.709639 
L 354.28003 74.762666 
L 362.409943 74.865213 
L 362.409943 74.865213 
" style="fill:none;stroke:#1f77b4;stroke-linecap:square;stroke-width:1.5;"/>
   </g>
   <g id="line2d_16">
    <path clip-path="url(#p285a3b0847)" d="M 58.046307 17.083636 
L 63.127503 17.083636 
L 63.635622 25.357511 
L 64.651862 48.436077 
L 65.668101 73.371115 
L 66.17622 81.90221 
L 66.68434 86.746285 
L 67.192459 88.754832 
L 67.700579 89.655774 
L 68.208699 91.351686 
L 68.716818 95.31465 
L 69.224938 102.222372 
L 70.241177 123.292411 
L 71.257416 146.14111 
L 71.765536 155.312543 
L 72.273655 162.36784 
L 72.781775 167.578133 
L 73.798014 174.918518 
L 75.322373 184.18523 
L 76.338612 189.11151 
L 77.862971 195.326731 
L 78.87921 201.257911 
L 80.403569 211.195341 
L 80.911689 213.277961 
L 81.419808 214.279255 
L 81.927928 214.209686 
L 82.436047 213.266689 
L 83.452286 209.968219 
L 84.976645 204.871619 
L 88.025363 196.070442 
L 89.041602 192.144439 
L 90.057841 186.849678 
L 91.07408 179.959828 
L 95.647157 145.570259 
L 97.679635 130.943262 
L 100.220233 110.287109 
L 102.252711 94.303933 
L 104.28519 80.554988 
L 107.842027 58.712581 
L 109.366386 50.333756 
L 110.890745 43.293504 
L 112.415103 37.604615 
L 113.939462 32.915214 
L 115.463821 28.971071 
L 116.48006 26.801394 
L 117.496299 25.097802 
L 118.512538 23.918414 
L 119.528778 23.257924 
L 120.545017 23.0541 
L 121.561256 23.222599 
L 122.577495 23.695697 
L 123.593734 24.444373 
L 124.609974 25.475639 
L 125.626213 26.810634 
L 126.642452 28.457815 
L 128.166811 31.460408 
L 130.199289 36.175818 
L 132.739887 42.723471 
L 135.788605 51.268005 
L 140.361681 64.190306 
L 142.902279 70.742885 
L 144.934757 75.523858 
L 146.967236 79.753864 
L 148.491594 82.505504 
L 150.015953 84.887417 
L 151.540312 86.904119 
L 153.064671 88.55238 
L 154.58903 89.823168 
L 156.113388 90.716381 
L 157.637747 91.248896 
L 159.162106 91.448068 
L 160.686465 91.340338 
L 162.210823 90.94766 
L 163.735182 90.293122 
L 165.259541 89.406868 
L 167.292019 87.927445 
L 169.832617 85.71616 
L 172.881335 82.71838 
L 179.995009 75.553462 
L 182.535607 73.295472 
L 185.076205 71.330934 
L 187.108684 70.005965 
L 189.141162 68.916941 
L 191.17364 68.07209 
L 193.206119 67.472498 
L 195.238597 67.110877 
L 197.271075 66.973291 
L 199.303554 67.041608 
L 201.844152 67.382922 
L 204.38475 67.96119 
L 207.433467 68.890744 
L 212.006544 70.56933 
L 219.628337 73.40593 
L 223.185175 74.498622 
L 226.742012 75.351065 
L 229.790729 75.868113 
L 232.839447 76.185524 
L 236.396284 76.319058 
L 239.953121 76.231312 
L 244.526198 75.87082 
L 251.131752 75.077515 
L 260.277905 73.986099 
L 265.86722 73.547847 
L 270.948416 73.358366 
L 276.537732 73.369076 
L 283.651406 73.631391 
L 308.549266 74.790791 
L 318.203539 74.867031 
L 339.544561 74.702163 
L 354.28003 74.755256 
L 362.409943 74.857815 
L 362.409943 74.857815 
" style="fill:none;stroke:#ff7f0e;stroke-linecap:square;stroke-width:1.5;"/>
   </g>
   <g id="line2d_17">
    <path clip-path="url(#p285a3b0847)" d="M 58.046307 17.083636 
L 63.127503 17.083636 
L 63.635622 18.424288 
L 64.143742 21.570917 
L 64.651862 26.845108 
L 65.159981 34.430612 
L 66.17622 56.063206 
L 68.716818 121.988067 
L 69.224938 130.830676 
L 69.733057 136.906629 
L 70.241177 140.485378 
L 70.749297 142.307221 
L 71.765536 144.66125 
L 72.273655 146.936789 
L 72.781775 150.596303 
L 73.289895 155.671376 
L 74.306134 168.840765 
L 75.830493 189.511104 
L 76.846732 200.096939 
L 77.354851 203.859512 
L 77.862971 206.452464 
L 78.371091 207.8633 
L 78.87921 208.20506 
L 79.38733 207.726227 
L 80.911689 205.007178 
L 81.419808 204.766983 
L 81.927928 205.119801 
L 82.436047 205.994235 
L 83.960406 209.503974 
L 84.468526 210.083764 
L 84.976645 210.019581 
L 85.484765 209.215964 
L 85.992884 207.661714 
L 86.501004 205.419355 
L 87.517243 199.382761 
L 90.057841 182.492547 
L 91.5822 174.41079 
L 93.106559 166.224794 
L 94.122798 159.386483 
L 95.647157 146.735611 
L 98.187755 124.805636 
L 99.712113 113.645784 
L 103.268951 88.390085 
L 105.809549 70.042263 
L 107.333907 60.954015 
L 108.858266 53.296383 
L 111.398864 41.885791 
L 112.923223 35.826626 
L 113.939462 32.44332 
L 114.955701 29.7153 
L 115.97194 27.620801 
L 116.98818 26.041987 
L 118.004419 24.839377 
L 119.020658 23.926745 
L 120.036897 23.303676 
L 121.053136 23.033213 
L 121.561256 23.053679 
L 122.577495 23.433122 
L 123.593734 24.254647 
L 124.609974 25.457487 
L 126.134332 27.784328 
L 127.658691 30.544877 
L 129.18305 33.697112 
L 130.707409 37.291823 
L 132.739887 42.696888 
L 142.394159 69.498036 
L 144.426638 74.373859 
L 146.459116 78.698382 
L 148.491594 82.462746 
L 150.015953 84.878032 
L 151.540312 86.904951 
L 153.064671 88.535486 
L 154.58903 89.787464 
L 156.113388 90.682959 
L 157.637747 91.233298 
L 159.162106 91.444816 
L 160.686465 91.333691 
L 162.210823 90.931029 
L 163.735182 90.274171 
L 165.259541 89.395969 
L 167.292019 87.927345 
L 169.324498 86.182038 
L 172.373215 83.229222 
L 181.011248 74.620612 
L 183.551846 72.475273 
L 186.092444 70.64254 
L 188.124923 69.432683 
L 190.157401 68.46574 
L 192.189879 67.744171 
L 194.222358 67.263508 
L 196.254836 67.014549 
L 198.287315 66.982099 
L 200.319793 67.14502 
L 202.860391 67.585992 
L 205.400989 68.242671 
L 208.957826 69.419334 
L 216.0715 72.125182 
L 220.644577 73.732723 
L 224.201414 74.761497 
L 227.758251 75.538959 
L 230.806969 75.989301 
L 233.855686 76.242552 
L 237.412523 76.30915 
L 241.47748 76.132614 
L 246.050556 75.702508 
L 256.212948 74.429703 
L 262.818503 73.755142 
L 268.407818 73.424468 
L 273.997134 73.33455 
L 280.094569 73.469246 
L 288.732602 73.906802 
L 302.959951 74.630836 
L 311.597984 74.834347 
L 322.268495 74.842694 
L 351.739432 74.727425 
L 362.409943 74.853673 
L 362.409943 74.853673 
" style="fill:none;stroke:#2ca02c;stroke-linecap:square;stroke-width:1.5;"/>
   </g>
   <g id="line2d_18">
    <path clip-path="url(#p285a3b0847)" d="M 58.046307 17.083636 
L 63.127503 17.083636 
L 63.635622 18.611838 
L 64.143742 22.096686 
L 64.651862 27.931854 
L 65.159981 36.340665 
L 66.17622 59.826117 
L 67.700579 99.643007 
L 68.716818 119.078388 
L 69.733057 131.318503 
L 70.749297 139.663851 
L 72.781775 154.01752 
L 73.798014 163.657776 
L 74.814253 176.267421 
L 76.338612 195.265268 
L 76.846732 199.829427 
L 77.354851 203.096409 
L 77.862971 205.126763 
L 78.371091 206.148026 
L 78.87921 206.470508 
L 79.38733 206.403811 
L 80.403569 206.049003 
L 80.911689 206.057308 
L 81.419808 206.286105 
L 81.927928 206.744036 
L 83.960406 209.375144 
L 84.468526 209.546005 
L 84.976645 209.222183 
L 85.484765 208.307566 
L 85.992884 206.766887 
L 86.501004 204.629932 
L 87.517243 198.959387 
L 90.565961 180.119719 
L 92.598439 169.050406 
L 93.614678 162.471833 
L 95.139037 150.650091 
L 98.695874 121.106585 
L 101.744592 99.339815 
L 105.809549 70.099008 
L 107.333907 61.030808 
L 108.858266 53.22949 
L 110.890745 43.924115 
L 112.415103 37.66272 
L 113.431342 34.057181 
L 114.447582 31.045716 
L 115.463821 28.647678 
L 116.48006 26.792285 
L 117.496299 25.369638 
L 118.512538 24.29182 
L 119.528778 23.529474 
L 120.545017 23.10979 
L 121.561256 23.084257 
L 122.577495 23.487455 
L 123.593734 24.309433 
L 124.609974 25.49525 
L 126.134332 27.792775 
L 127.658691 30.553059 
L 129.18305 33.73322 
L 130.707409 37.349755 
L 132.739887 42.744408 
L 142.902279 70.795238 
L 144.934757 75.534098 
L 146.967236 79.724232 
L 148.999714 83.332775 
L 150.524073 85.613501 
L 152.048432 87.503287 
L 153.57279 89.004482 
L 155.097149 90.134975 
L 156.621508 90.911137 
L 158.145867 91.342348 
L 159.670225 91.439762 
L 161.194584 91.225949 
L 162.718943 90.733992 
L 164.243302 89.998659 
L 165.767661 89.050282 
L 167.800139 87.502745 
L 170.340737 85.220365 
L 173.897574 81.663004 
L 179.995009 75.544256 
L 182.535607 73.290947 
L 185.076205 71.328662 
L 187.108684 70.003532 
L 189.141162 68.915939 
L 191.17364 68.073388 
L 193.206119 67.474683 
L 195.238597 67.112996 
L 197.271075 66.976006 
L 199.303554 67.045276 
L 201.844152 67.386673 
L 204.38475 67.964509 
L 207.433467 68.894077 
L 212.006544 70.571448 
L 219.628337 73.405929 
L 223.185175 74.497662 
L 226.742012 75.349214 
L 229.790729 75.865615 
L 232.839447 76.182608 
L 236.396284 76.315768 
L 239.953121 76.227913 
L 244.526198 75.867513 
L 251.131752 75.074748 
L 260.277905 73.98434 
L 265.86722 73.546626 
L 271.456536 73.349498 
L 277.045852 73.379228 
L 284.159526 73.6565 
L 307.533027 74.767685 
L 316.67918 74.866744 
L 331.414648 74.758634 
L 348.182595 74.706322 
L 362.409943 74.856598 
L 362.409943 74.856598 
" style="fill:none;stroke:#d62728;stroke-linecap:square;stroke-width:1.5;"/>
   </g>
   <g id="patch_3">
    <path d="M 42.828125 224.64 
L 42.828125 7.2 
" style="fill:none;stroke:#000000;stroke-linecap:square;stroke-linejoin:miter;stroke-width:0.8;"/>
   </g>
   <g id="patch_4">
    <path d="M 377.628125 224.64 
L 377.628125 7.2 
" style="fill:none;stroke:#000000;stroke-linecap:square;stroke-linejoin:miter;stroke-width:0.8;"/>
   </g>
   <g id="patch_5">
    <path d="M 42.828125 224.64 
L 377.628125 224.64 
" style="fill:none;stroke:#000000;stroke-linecap:square;stroke-linejoin:miter;stroke-width:0.8;"/>
   </g>
   <g id="patch_6">
    <path d="M 42.828125 7.2 
L 377.628125 7.2 
" style="fill:none;stroke:#000000;stroke-linecap:square;stroke-linejoin:miter;stroke-width:0.8;"/>
   </g>
  </g>
 </g>
 <defs>
  <clipPath id="p285a3b0847">
   <rect height="217.44" width="334.8" x="42.828125" y="7.2"/>
  </clipPath>
 </defs>
</svg>
