<?xml version="1.0" encoding="utf-8" standalone="no"?>
<!DOCTYPE svg PUBLIC "-//W3C//DTD SVG 1.1//EN"
  "http://www.w3.org/Graphics/SVG/1.1/DTD/svg11.dtd">
<!-- Created with matplotlib (https://matplotlib.org/) -->
<svg height="248.518125pt" version="1.1" viewBox="0 0 393.207813 248.518125" width="393.207813pt" xmlns="http://www.w3.org/2000/svg" xmlns:xlink="http://www.w3.org/1999/xlink">
 <metadata>
  <rdf:RDF xmlns:cc="http://creativecommons.org/ns#" xmlns:dc="http://purl.org/dc/elements/1.1/" xmlns:rdf="http://www.w3.org/1999/02/22-rdf-syntax-ns#">
   <cc:Work>
    <dc:type rdf:resource="http://purl.org/dc/dcmitype/StillImage"/>
    <dc:date>2021-04-15T15:28:12.414357</dc:date>
    <dc:format>image/svg+xml</dc:format>
    <dc:creator>
     <cc:Agent>
      <dc:title>Matplotlib v3.3.2, https://matplotlib.org/</dc:title>
     </cc:Agent>
    </dc:creator>
   </cc:Work>
  </rdf:RDF>
 </metadata>
 <defs>
  <style type="text/css">*{stroke-linecap:butt;stroke-linejoin:round;}</style>
 </defs>
 <g id="figure_1">
  <g id="patch_1">
   <path d="M 0 248.518125 
L 393.207813 248.518125 
L 393.207813 0 
L 0 0 
z
" style="fill:none;"/>
  </g>
  <g id="axes_1">
   <g id="patch_2">
    <path d="M 51.207813 224.64 
L 386.007812 224.64 
L 386.007812 7.2 
L 51.207813 7.2 
z
" style="fill:#ffffff;"/>
   </g>
   <g id="matplotlib.axis_1">
    <g id="xtick_1">
     <g id="line2d_1">
      <defs>
       <path d="M 0 0 
L 0 3.5 
" id="m383098f438" style="stroke:#000000;stroke-width:0.8;"/>
      </defs>
      <g>
       <use style="stroke:#000000;stroke-width:0.8;" x="66.425994" xlink:href="#m383098f438" y="224.64"/>
      </g>
     </g>
     <g id="text_1">
      <!-- 0 -->
      <g transform="translate(63.244744 239.238438)scale(0.1 -0.1)">
       <defs>
        <path d="M 31.78125 66.40625 
Q 24.171875 66.40625 20.328125 58.90625 
Q 16.5 51.421875 16.5 36.375 
Q 16.5 21.390625 20.328125 13.890625 
Q 24.171875 6.390625 31.78125 6.390625 
Q 39.453125 6.390625 43.28125 13.890625 
Q 47.125 21.390625 47.125 36.375 
Q 47.125 51.421875 43.28125 58.90625 
Q 39.453125 66.40625 31.78125 66.40625 
z
M 31.78125 74.21875 
Q 44.046875 74.21875 50.515625 64.515625 
Q 56.984375 54.828125 56.984375 36.375 
Q 56.984375 17.96875 50.515625 8.265625 
Q 44.046875 -1.421875 31.78125 -1.421875 
Q 19.53125 -1.421875 13.0625 8.265625 
Q 6.59375 17.96875 6.59375 36.375 
Q 6.59375 54.828125 13.0625 64.515625 
Q 19.53125 74.21875 31.78125 74.21875 
z
" id="DejaVuSans-48"/>
       </defs>
       <use xlink:href="#DejaVuSans-48"/>
      </g>
     </g>
    </g>
    <g id="xtick_2">
     <g id="line2d_2">
      <g>
       <use style="stroke:#000000;stroke-width:0.8;" x="107.034885" xlink:href="#m383098f438" y="224.64"/>
      </g>
     </g>
     <g id="text_2">
      <!-- 2 -->
      <g transform="translate(103.853635 239.238438)scale(0.1 -0.1)">
       <defs>
        <path d="M 19.1875 8.296875 
L 53.609375 8.296875 
L 53.609375 0 
L 7.328125 0 
L 7.328125 8.296875 
Q 12.9375 14.109375 22.625 23.890625 
Q 32.328125 33.6875 34.8125 36.53125 
Q 39.546875 41.84375 41.421875 45.53125 
Q 43.3125 49.21875 43.3125 52.78125 
Q 43.3125 58.59375 39.234375 62.25 
Q 35.15625 65.921875 28.609375 65.921875 
Q 23.96875 65.921875 18.8125 64.3125 
Q 13.671875 62.703125 7.8125 59.421875 
L 7.8125 69.390625 
Q 13.765625 71.78125 18.9375 73 
Q 24.125 74.21875 28.421875 74.21875 
Q 39.75 74.21875 46.484375 68.546875 
Q 53.21875 62.890625 53.21875 53.421875 
Q 53.21875 48.921875 51.53125 44.890625 
Q 49.859375 40.875 45.40625 35.40625 
Q 44.1875 33.984375 37.640625 27.21875 
Q 31.109375 20.453125 19.1875 8.296875 
z
" id="DejaVuSans-50"/>
       </defs>
       <use xlink:href="#DejaVuSans-50"/>
      </g>
     </g>
    </g>
    <g id="xtick_3">
     <g id="line2d_3">
      <g>
       <use style="stroke:#000000;stroke-width:0.8;" x="147.643776" xlink:href="#m383098f438" y="224.64"/>
      </g>
     </g>
     <g id="text_3">
      <!-- 4 -->
      <g transform="translate(144.462526 239.238438)scale(0.1 -0.1)">
       <defs>
        <path d="M 37.796875 64.3125 
L 12.890625 25.390625 
L 37.796875 25.390625 
z
M 35.203125 72.90625 
L 47.609375 72.90625 
L 47.609375 25.390625 
L 58.015625 25.390625 
L 58.015625 17.1875 
L 47.609375 17.1875 
L 47.609375 0 
L 37.796875 0 
L 37.796875 17.1875 
L 4.890625 17.1875 
L 4.890625 26.703125 
z
" id="DejaVuSans-52"/>
       </defs>
       <use xlink:href="#DejaVuSans-52"/>
      </g>
     </g>
    </g>
    <g id="xtick_4">
     <g id="line2d_4">
      <g>
       <use style="stroke:#000000;stroke-width:0.8;" x="188.252667" xlink:href="#m383098f438" y="224.64"/>
      </g>
     </g>
     <g id="text_4">
      <!-- 6 -->
      <g transform="translate(185.071417 239.238438)scale(0.1 -0.1)">
       <defs>
        <path d="M 33.015625 40.375 
Q 26.375 40.375 22.484375 35.828125 
Q 18.609375 31.296875 18.609375 23.390625 
Q 18.609375 15.53125 22.484375 10.953125 
Q 26.375 6.390625 33.015625 6.390625 
Q 39.65625 6.390625 43.53125 10.953125 
Q 47.40625 15.53125 47.40625 23.390625 
Q 47.40625 31.296875 43.53125 35.828125 
Q 39.65625 40.375 33.015625 40.375 
z
M 52.59375 71.296875 
L 52.59375 62.3125 
Q 48.875 64.0625 45.09375 64.984375 
Q 41.3125 65.921875 37.59375 65.921875 
Q 27.828125 65.921875 22.671875 59.328125 
Q 17.53125 52.734375 16.796875 39.40625 
Q 19.671875 43.65625 24.015625 45.921875 
Q 28.375 48.1875 33.59375 48.1875 
Q 44.578125 48.1875 50.953125 41.515625 
Q 57.328125 34.859375 57.328125 23.390625 
Q 57.328125 12.15625 50.6875 5.359375 
Q 44.046875 -1.421875 33.015625 -1.421875 
Q 20.359375 -1.421875 13.671875 8.265625 
Q 6.984375 17.96875 6.984375 36.375 
Q 6.984375 53.65625 15.1875 63.9375 
Q 23.390625 74.21875 37.203125 74.21875 
Q 40.921875 74.21875 44.703125 73.484375 
Q 48.484375 72.75 52.59375 71.296875 
z
" id="DejaVuSans-54"/>
       </defs>
       <use xlink:href="#DejaVuSans-54"/>
      </g>
     </g>
    </g>
    <g id="xtick_5">
     <g id="line2d_5">
      <g>
       <use style="stroke:#000000;stroke-width:0.8;" x="228.861557" xlink:href="#m383098f438" y="224.64"/>
      </g>
     </g>
     <g id="text_5">
      <!-- 8 -->
      <g transform="translate(225.680307 239.238438)scale(0.1 -0.1)">
       <defs>
        <path d="M 31.78125 34.625 
Q 24.75 34.625 20.71875 30.859375 
Q 16.703125 27.09375 16.703125 20.515625 
Q 16.703125 13.921875 20.71875 10.15625 
Q 24.75 6.390625 31.78125 6.390625 
Q 38.8125 6.390625 42.859375 10.171875 
Q 46.921875 13.96875 46.921875 20.515625 
Q 46.921875 27.09375 42.890625 30.859375 
Q 38.875 34.625 31.78125 34.625 
z
M 21.921875 38.8125 
Q 15.578125 40.375 12.03125 44.71875 
Q 8.5 49.078125 8.5 55.328125 
Q 8.5 64.0625 14.71875 69.140625 
Q 20.953125 74.21875 31.78125 74.21875 
Q 42.671875 74.21875 48.875 69.140625 
Q 55.078125 64.0625 55.078125 55.328125 
Q 55.078125 49.078125 51.53125 44.71875 
Q 48 40.375 41.703125 38.8125 
Q 48.828125 37.15625 52.796875 32.3125 
Q 56.78125 27.484375 56.78125 20.515625 
Q 56.78125 9.90625 50.3125 4.234375 
Q 43.84375 -1.421875 31.78125 -1.421875 
Q 19.734375 -1.421875 13.25 4.234375 
Q 6.78125 9.90625 6.78125 20.515625 
Q 6.78125 27.484375 10.78125 32.3125 
Q 14.796875 37.15625 21.921875 38.8125 
z
M 18.3125 54.390625 
Q 18.3125 48.734375 21.84375 45.5625 
Q 25.390625 42.390625 31.78125 42.390625 
Q 38.140625 42.390625 41.71875 45.5625 
Q 45.3125 48.734375 45.3125 54.390625 
Q 45.3125 60.0625 41.71875 63.234375 
Q 38.140625 66.40625 31.78125 66.40625 
Q 25.390625 66.40625 21.84375 63.234375 
Q 18.3125 60.0625 18.3125 54.390625 
z
" id="DejaVuSans-56"/>
       </defs>
       <use xlink:href="#DejaVuSans-56"/>
      </g>
     </g>
    </g>
    <g id="xtick_6">
     <g id="line2d_6">
      <g>
       <use style="stroke:#000000;stroke-width:0.8;" x="269.470448" xlink:href="#m383098f438" y="224.64"/>
      </g>
     </g>
     <g id="text_6">
      <!-- 10 -->
      <g transform="translate(263.107948 239.238438)scale(0.1 -0.1)">
       <defs>
        <path d="M 12.40625 8.296875 
L 28.515625 8.296875 
L 28.515625 63.921875 
L 10.984375 60.40625 
L 10.984375 69.390625 
L 28.421875 72.90625 
L 38.28125 72.90625 
L 38.28125 8.296875 
L 54.390625 8.296875 
L 54.390625 0 
L 12.40625 0 
z
" id="DejaVuSans-49"/>
       </defs>
       <use xlink:href="#DejaVuSans-49"/>
       <use x="63.623047" xlink:href="#DejaVuSans-48"/>
      </g>
     </g>
    </g>
    <g id="xtick_7">
     <g id="line2d_7">
      <g>
       <use style="stroke:#000000;stroke-width:0.8;" x="310.079339" xlink:href="#m383098f438" y="224.64"/>
      </g>
     </g>
     <g id="text_7">
      <!-- 12 -->
      <g transform="translate(303.716839 239.238438)scale(0.1 -0.1)">
       <use xlink:href="#DejaVuSans-49"/>
       <use x="63.623047" xlink:href="#DejaVuSans-50"/>
      </g>
     </g>
    </g>
    <g id="xtick_8">
     <g id="line2d_8">
      <g>
       <use style="stroke:#000000;stroke-width:0.8;" x="350.68823" xlink:href="#m383098f438" y="224.64"/>
      </g>
     </g>
     <g id="text_8">
      <!-- 14 -->
      <g transform="translate(344.32573 239.238438)scale(0.1 -0.1)">
       <use xlink:href="#DejaVuSans-49"/>
       <use x="63.623047" xlink:href="#DejaVuSans-52"/>
      </g>
     </g>
    </g>
   </g>
   <g id="matplotlib.axis_2">
    <g id="ytick_1">
     <g id="line2d_9">
      <defs>
       <path d="M 0 0 
L -3.5 0 
" id="md5f9c756a9" style="stroke:#000000;stroke-width:0.8;"/>
      </defs>
      <g>
       <use style="stroke:#000000;stroke-width:0.8;" x="51.207813" xlink:href="#md5f9c756a9" y="189.108852"/>
      </g>
     </g>
     <g id="text_9">
      <!-- −0.002 -->
      <g transform="translate(7.2 192.90807)scale(0.1 -0.1)">
       <defs>
        <path d="M 10.59375 35.5 
L 73.1875 35.5 
L 73.1875 27.203125 
L 10.59375 27.203125 
z
" id="DejaVuSans-8722"/>
        <path d="M 10.6875 12.40625 
L 21 12.40625 
L 21 0 
L 10.6875 0 
z
" id="DejaVuSans-46"/>
       </defs>
       <use xlink:href="#DejaVuSans-8722"/>
       <use x="83.789062" xlink:href="#DejaVuSans-48"/>
       <use x="147.412109" xlink:href="#DejaVuSans-46"/>
       <use x="179.199219" xlink:href="#DejaVuSans-48"/>
       <use x="242.822266" xlink:href="#DejaVuSans-48"/>
       <use x="306.445312" xlink:href="#DejaVuSans-50"/>
      </g>
     </g>
    </g>
    <g id="ytick_2">
     <g id="line2d_10">
      <g>
       <use style="stroke:#000000;stroke-width:0.8;" x="51.207813" xlink:href="#md5f9c756a9" y="144.815842"/>
      </g>
     </g>
     <g id="text_10">
      <!-- −0.001 -->
      <g transform="translate(7.2 148.615061)scale(0.1 -0.1)">
       <use xlink:href="#DejaVuSans-8722"/>
       <use x="83.789062" xlink:href="#DejaVuSans-48"/>
       <use x="147.412109" xlink:href="#DejaVuSans-46"/>
       <use x="179.199219" xlink:href="#DejaVuSans-48"/>
       <use x="242.822266" xlink:href="#DejaVuSans-48"/>
       <use x="306.445312" xlink:href="#DejaVuSans-49"/>
      </g>
     </g>
    </g>
    <g id="ytick_3">
     <g id="line2d_11">
      <g>
       <use style="stroke:#000000;stroke-width:0.8;" x="51.207813" xlink:href="#md5f9c756a9" y="100.522833"/>
      </g>
     </g>
     <g id="text_11">
      <!-- 0.000 -->
      <g transform="translate(15.579688 104.322052)scale(0.1 -0.1)">
       <use xlink:href="#DejaVuSans-48"/>
       <use x="63.623047" xlink:href="#DejaVuSans-46"/>
       <use x="95.410156" xlink:href="#DejaVuSans-48"/>
       <use x="159.033203" xlink:href="#DejaVuSans-48"/>
       <use x="222.65625" xlink:href="#DejaVuSans-48"/>
      </g>
     </g>
    </g>
    <g id="ytick_4">
     <g id="line2d_12">
      <g>
       <use style="stroke:#000000;stroke-width:0.8;" x="51.207813" xlink:href="#md5f9c756a9" y="56.229823"/>
      </g>
     </g>
     <g id="text_12">
      <!-- 0.001 -->
      <g transform="translate(15.579688 60.029042)scale(0.1 -0.1)">
       <use xlink:href="#DejaVuSans-48"/>
       <use x="63.623047" xlink:href="#DejaVuSans-46"/>
       <use x="95.410156" xlink:href="#DejaVuSans-48"/>
       <use x="159.033203" xlink:href="#DejaVuSans-48"/>
       <use x="222.65625" xlink:href="#DejaVuSans-49"/>
      </g>
     </g>
    </g>
    <g id="ytick_5">
     <g id="line2d_13">
      <g>
       <use style="stroke:#000000;stroke-width:0.8;" x="51.207813" xlink:href="#md5f9c756a9" y="11.936814"/>
      </g>
     </g>
     <g id="text_13">
      <!-- 0.002 -->
      <g transform="translate(15.579688 15.736033)scale(0.1 -0.1)">
       <use xlink:href="#DejaVuSans-48"/>
       <use x="63.623047" xlink:href="#DejaVuSans-46"/>
       <use x="95.410156" xlink:href="#DejaVuSans-48"/>
       <use x="159.033203" xlink:href="#DejaVuSans-48"/>
       <use x="222.65625" xlink:href="#DejaVuSans-50"/>
      </g>
     </g>
    </g>
   </g>
   <g id="line2d_14">
    <path clip-path="url(#p5fe9507570)" d="M 66.425994 100.478677 
L 86.73044 100.478663 
L 86.933484 101.128346 
L 87.136529 103.682188 
L 87.542618 115.539432 
L 88.354795 153.969017 
L 89.166973 190.012247 
L 89.776107 207.033091 
L 90.182195 212.905294 
L 90.38524 214.299926 
L 90.588284 214.756364 
L 90.791329 214.356542 
L 90.994373 213.189851 
L 91.400462 208.932463 
L 92.009596 199.148656 
L 94.243084 158.853093 
L 94.852218 151.702524 
L 95.461351 146.732708 
L 96.070485 143.628272 
L 96.679618 141.918405 
L 97.085707 141.300189 
L 97.69484 140.801506 
L 98.913107 140.007663 
L 99.52224 139.254748 
L 100.131374 138.141759 
L 100.943551 136.126965 
L 102.161818 132.315485 
L 105.816618 120.358577 
L 109.268374 110.395551 
L 111.501863 104.360517 
L 113.126219 100.600144 
L 114.344485 98.257981 
L 115.562752 96.383316 
L 116.577974 95.196533 
L 117.593197 94.354584 
L 118.405375 93.925146 
L 119.217552 93.704513 
L 120.02973 93.680847 
L 121.044952 93.903705 
L 122.060175 94.369978 
L 123.278441 95.18419 
L 125.105841 96.73456 
L 128.354553 99.573461 
L 129.775864 100.524998 
L 130.994131 101.094667 
L 132.212397 101.399452 
L 133.22762 101.438052 
L 134.242842 101.279521 
L 135.461109 100.839428 
L 136.679375 100.151264 
L 138.100687 99.085639 
L 139.928087 97.418862 
L 145.207242 92.403601 
L 146.628554 91.410271 
L 148.049865 90.695531 
L 149.268132 90.331676 
L 150.486398 90.206531 
L 151.704665 90.314895 
L 152.922932 90.638849 
L 154.344243 91.24969 
L 156.171643 92.306022 
L 162.262977 96.08118 
L 163.887332 96.697346 
L 165.308643 97.006843 
L 166.729955 97.091925 
L 168.151266 96.960886 
L 169.775621 96.57757 
L 171.806066 95.831833 
L 178.912622 92.928077 
L 180.536977 92.616349 
L 182.161333 92.53034 
L 183.785689 92.676515 
L 185.410044 93.038848 
L 187.440489 93.739334 
L 190.283111 94.991819 
L 194.140956 96.658429 
L 196.1714 97.304296 
L 198.201845 97.708526 
L 200.029245 97.85305 
L 202.05969 97.791105 
L 204.496223 97.484106 
L 211.805823 96.390693 
L 214.039312 96.375445 
L 216.272801 96.594434 
L 218.709335 97.078138 
L 221.958046 97.988226 
L 227.237202 99.486548 
L 229.87678 99.983632 
L 232.313313 100.222087 
L 234.952891 100.255863 
L 238.404647 100.06118 
L 244.49598 99.696449 
L 247.541647 99.761983 
L 250.790358 100.069198 
L 255.460381 100.776528 
L 260.333448 101.447173 
L 263.582159 101.667328 
L 266.83087 101.667265 
L 271.094804 101.42472 
L 278.607449 100.968875 
L 282.871382 100.963006 
L 297.084494 101.181283 
L 301.754516 100.855822 
L 314.343273 99.851923 
L 322.668095 99.586469 
L 329.368562 99.262664 
L 336.881207 98.645129 
L 345.409074 97.996695 
L 353.124763 97.670084 
L 366.931786 97.10124 
L 370.789631 96.915261 
L 370.789631 96.915261 
" style="fill:none;stroke:#1f77b4;stroke-linecap:square;stroke-width:1.5;"/>
   </g>
   <g id="line2d_15">
    <path clip-path="url(#p5fe9507570)" d="M 66.425994 100.504361 
L 86.73044 100.504385 
L 86.933484 100.117394 
L 87.136529 98.585094 
L 87.542618 91.29993 
L 88.151751 72.92608 
L 89.370018 33.518083 
L 89.979151 21.601085 
L 90.38524 17.776052 
L 90.588284 17.083636 
L 90.791329 17.157398 
L 90.994373 17.946228 
L 91.400462 21.421012 
L 92.009596 30.314329 
L 93.227862 54.203157 
L 94.243084 72.763105 
L 95.055262 83.637019 
L 95.664396 89.081113 
L 96.273529 92.386474 
L 96.679618 93.583292 
L 97.085707 94.128124 
L 97.491796 94.155477 
L 97.897885 93.791782 
L 98.507018 92.752267 
L 99.52224 90.371552 
L 102.567907 82.393061 
L 104.192263 77.395127 
L 107.440974 66.894913 
L 108.456196 64.454704 
L 109.268374 63.054368 
L 109.877507 62.364974 
L 110.486641 61.990193 
L 111.095774 61.930504 
L 111.704908 62.182576 
L 112.314041 62.740105 
L 112.923174 63.593408 
L 113.735352 65.167747 
L 114.750574 67.777682 
L 115.968841 71.713413 
L 117.390152 77.137057 
L 123.075397 99.909481 
L 124.293664 103.482734 
L 125.308886 105.81394 
L 126.121064 107.214719 
L 126.933242 108.184059 
L 127.542375 108.623531 
L 128.151508 108.817227 
L 128.760642 108.769135 
L 129.369775 108.48626 
L 129.978908 107.978505 
L 130.791086 106.973892 
L 131.806308 105.244768 
L 133.024575 102.592582 
L 134.648931 98.369581 
L 139.115909 86.305781 
L 140.334176 83.762619 
L 141.349398 82.093096 
L 142.161576 81.090858 
L 142.973753 80.40444 
L 143.785931 80.042785 
L 144.395065 79.985249 
L 145.004198 80.107931 
L 145.816376 80.54218 
L 146.628554 81.267698 
L 147.643776 82.544057 
L 148.862043 84.532489 
L 150.283354 87.316667 
L 155.765554 98.645986 
L 156.983821 100.483771 
L 157.999043 101.666913 
L 159.014265 102.500377 
L 159.826443 102.904052 
L 160.638621 103.071607 
L 161.450799 103.007021 
L 162.262977 102.719732 
L 163.278199 102.07005 
L 164.293421 101.133902 
L 165.511688 99.700538 
L 167.136043 97.424703 
L 171.399977 91.241592 
L 172.821288 89.665356 
L 174.039555 88.670311 
L 175.054777 88.129394 
L 176.069999 87.867194 
L 176.882177 87.861004 
L 177.897399 88.1025 
L 178.912622 88.605857 
L 179.927844 89.345961 
L 181.146111 90.499318 
L 182.770466 92.371078 
L 188.455711 99.317806 
L 189.877022 100.556613 
L 191.095289 101.330571 
L 192.313556 101.813847 
L 193.328778 101.989466 
L 194.344 101.963537 
L 195.562267 101.684319 
L 196.780534 101.167053 
L 198.201845 100.323852 
L 200.232289 98.838677 
L 203.684045 96.280445 
L 205.308401 95.362962 
L 206.729712 94.821698 
L 207.947979 94.58455 
L 209.166245 94.568947 
L 210.384512 94.773143 
L 211.805823 95.270062 
L 213.227134 96.006496 
L 215.054535 97.213472 
L 221.348913 101.646598 
L 222.973268 102.398776 
L 224.394579 102.826204 
L 225.815891 103.025342 
L 227.237202 103.001483 
L 228.861557 102.728866 
L 230.688958 102.173841 
L 233.53158 101.021026 
L 236.780291 99.750001 
L 238.607691 99.254321 
L 240.232047 99.014888 
L 241.856402 98.986199 
L 243.480758 99.166026 
L 245.308158 99.588467 
L 247.744692 100.413447 
L 253.632981 102.554854 
L 255.663425 103.003746 
L 257.490825 103.193094 
L 259.318226 103.170407 
L 261.34867 102.918417 
L 263.785203 102.377677 
L 271.500893 100.467287 
L 273.734382 100.234657 
L 275.967871 100.217001 
L 278.607449 100.434711 
L 282.871382 101.066453 
L 286.526182 101.51406 
L 289.16576 101.611688 
L 291.602294 101.488252 
L 294.444916 101.106028 
L 298.505805 100.290291 
L 303.378872 99.352114 
L 306.424539 98.99468 
L 309.470206 98.859019 
L 313.32805 98.92313 
L 320.231562 99.064554 
L 323.683317 98.88789 
L 327.541162 98.458583 
L 338.302518 97.098161 
L 342.160363 96.927445 
L 347.439518 96.939472 
L 354.546074 96.927593 
L 359.82523 96.673484 
L 370.586586 96.07824 
L 370.789631 96.074278 
L 370.789631 96.074278 
" style="fill:none;stroke:#ff7f0e;stroke-linecap:square;stroke-width:1.5;"/>
   </g>
   <g id="line2d_16">
    <path clip-path="url(#p5fe9507570)" d="M 66.425994 100.54064 
L 86.933484 100.448427 
L 87.136529 100.089624 
L 87.542618 98.492474 
L 88.55784 93.529507 
L 88.963929 92.658469 
L 89.166973 92.568463 
L 89.370018 92.69227 
L 89.776107 93.465423 
L 90.588284 96.043854 
L 91.197418 97.735707 
L 91.603507 98.374903 
L 92.009596 98.529295 
L 92.415684 98.206564 
L 92.821773 97.474276 
L 93.430907 95.848796 
L 94.852218 91.756761 
L 95.461351 90.634286 
L 95.86744 90.198809 
L 96.273529 90.002882 
L 96.679618 90.013432 
L 97.288751 90.312808 
L 99.52224 91.889701 
L 100.334418 92.050121 
L 101.34964 91.977244 
L 102.567907 91.882771 
L 103.380085 92.022588 
L 104.192263 92.395553 
L 105.207485 93.166875 
L 106.628796 94.605441 
L 109.877507 97.986513 
L 111.704908 99.522087 
L 113.329263 100.622003 
L 114.750574 101.317534 
L 115.968841 101.656079 
L 117.187108 101.729048 
L 118.405375 101.537575 
L 119.623641 101.103367 
L 121.044952 100.335276 
L 122.669308 99.191495 
L 125.308886 96.998705 
L 128.354553 94.529972 
L 129.978908 93.47269 
L 131.40022 92.777802 
L 132.821531 92.330039 
L 134.242842 92.140295 
L 135.664153 92.200386 
L 137.085464 92.484366 
L 138.70982 93.029712 
L 141.146353 94.117973 
L 144.801154 95.760684 
L 146.628554 96.340848 
L 148.252909 96.636555 
L 149.877265 96.700274 
L 151.50162 96.533263 
L 153.329021 96.100097 
L 155.56251 95.308444 
L 162.059932 92.797293 
L 163.887332 92.397125 
L 165.714732 92.228448 
L 167.542132 92.299731 
L 169.369532 92.591145 
L 171.603021 93.180279 
L 180.130888 95.717225 
L 182.364377 95.985048 
L 184.597866 96.013987 
L 187.0344 95.819085 
L 191.501378 95.176272 
L 194.750089 94.821306 
L 197.186623 94.770185 
L 199.623156 94.949501 
L 202.262734 95.388158 
L 205.71449 96.219864 
L 211.399734 97.607374 
L 214.242357 98.059062 
L 217.084979 98.285886 
L 220.536735 98.313485 
L 229.267646 98.239876 
L 232.516358 98.501963 
L 236.374202 99.049169 
L 245.308158 100.41714 
L 248.962958 100.678821 
L 253.023847 100.731814 
L 264.800426 100.722604 
L 270.891759 101.088571 
L 277.389182 101.426495 
L 282.059204 101.431475 
L 287.744449 101.188636 
L 298.099716 100.723939 
L 314.749361 100.224138 
L 325.104629 99.435631 
L 333.632496 98.92045 
L 351.297363 97.947919 
L 362.667853 97.309375 
L 370.789631 97.048423 
L 370.789631 97.048423 
" style="fill:none;stroke:#2ca02c;stroke-linecap:square;stroke-width:1.5;"/>
   </g>
   <g id="line2d_17">
    <path clip-path="url(#p5fe9507570)" d="M 66.425994 100.567653 
L 86.73044 100.567621 
L 86.933484 100.398704 
L 87.136529 99.750059 
L 87.542618 96.917724 
L 88.963929 84.177793 
L 89.573062 80.722095 
L 90.182195 78.452947 
L 90.791329 77.142721 
L 91.197418 76.712585 
L 91.603507 76.561533 
L 92.21264 76.685222 
L 93.633951 77.221661 
L 94.04004 77.160559 
L 94.649173 76.779925 
L 95.258307 76.080717 
L 97.288751 73.354821 
L 97.69484 73.164188 
L 98.100929 73.204613 
L 98.507018 73.50267 
L 98.913107 74.071203 
L 99.52224 75.426863 
L 100.131374 77.337857 
L 100.943551 80.586286 
L 102.364863 87.419261 
L 105.207485 101.363542 
L 106.831841 108.193787 
L 108.050107 112.512994 
L 109.06533 115.440435 
L 109.877507 117.252135 
L 110.689685 118.537002 
L 111.298819 119.134993 
L 111.907952 119.410201 
L 112.517085 119.360809 
L 113.126219 118.991979 
L 113.735352 118.315383 
L 114.54753 116.964574 
L 115.359708 115.148633 
L 116.37493 112.316282 
L 117.593197 108.263253 
L 119.420597 101.34327 
L 122.669308 88.92045 
L 124.090619 84.368442 
L 125.308886 81.231401 
L 126.324108 79.259502 
L 127.136286 78.139826 
L 127.948464 77.442794 
L 128.557597 77.199856 
L 129.166731 77.194502 
L 129.775864 77.421261 
L 130.384997 77.871621 
L 131.197175 78.799833 
L 132.009353 80.070623 
L 133.024575 82.076474 
L 134.445886 85.489663 
L 136.679375 91.613929 
L 139.115909 98.107829 
L 140.53722 101.259797 
L 141.552442 103.067831 
L 142.567665 104.441508 
L 143.379842 105.202636 
L 144.19202 105.652618 
L 144.801154 105.784724 
L 145.410287 105.743077 
L 146.222465 105.4256 
L 147.034643 104.824837 
L 147.84682 103.964306 
L 148.862043 102.568181 
L 150.080309 100.512527 
L 151.907709 96.928756 
L 155.359465 90.060952 
L 156.780776 87.757599 
L 157.999043 86.217601 
L 159.014265 85.295185 
L 159.826443 84.812701 
L 160.638621 84.564664 
L 161.450799 84.55171 
L 162.262977 84.768779 
L 163.075154 85.205372 
L 164.090377 86.03567 
L 165.308643 87.394933 
L 166.729955 89.369886 
L 168.963444 92.944496 
L 171.603021 97.109329 
L 173.024333 98.995031 
L 174.242599 100.290392 
L 175.257822 101.102532 
L 176.273044 101.651336 
L 177.288266 101.929148 
L 178.303488 101.939021 
L 179.318711 101.69416 
L 180.333933 101.217004 
L 181.5522 100.381138 
L 182.973511 99.125951 
L 185.410044 96.605826 
L 187.846578 94.162187 
L 189.470933 92.857742 
L 190.6892 92.143844 
L 191.907467 91.698055 
L 192.922689 91.546358 
L 193.937911 91.597989 
L 194.953134 91.848039 
L 196.1714 92.392242 
L 197.592712 93.319824 
L 199.217067 94.675206 
L 202.05969 97.415057 
L 204.496223 99.651762 
L 206.120579 100.865181 
L 207.54189 101.660692 
L 208.760156 102.11573 
L 209.978423 102.351759 
L 211.19669 102.372466 
L 212.618001 102.145339 
L 214.039312 101.687567 
L 215.866712 100.851439 
L 221.958046 97.818154 
L 223.582402 97.370541 
L 225.003713 97.197036 
L 226.425024 97.239731 
L 227.846335 97.493255 
L 229.470691 98.013635 
L 231.501135 98.931013 
L 238.810736 102.558848 
L 240.638136 103.058135 
L 242.262491 103.272246 
L 243.886847 103.269093 
L 245.714247 103.031359 
L 247.947736 102.482582 
L 255.86647 100.263359 
L 257.896914 100.071271 
L 259.927359 100.115316 
L 262.160848 100.410003 
L 265.00347 101.042576 
L 270.48567 102.318467 
L 272.922204 102.609623 
L 275.155693 102.640677 
L 277.389182 102.447171 
L 280.02876 101.985618 
L 289.571849 100.064208 
L 292.211427 99.89724 
L 295.054049 99.940685 
L 299.724072 100.284552 
L 303.988005 100.509364 
L 307.033672 100.440757 
L 310.079339 100.147221 
L 314.140228 99.502221 
L 320.840695 98.421677 
L 324.292451 98.113122 
L 328.150295 98.007279 
L 340.536007 97.890633 
L 345.409074 97.456023 
L 354.139985 96.637794 
L 358.606963 96.485895 
L 364.495253 96.541086 
L 370.789631 96.616966 
L 370.789631 96.616966 
" style="fill:none;stroke:#d62728;stroke-linecap:square;stroke-width:1.5;"/>
   </g>
   <g id="patch_3">
    <path d="M 51.207813 224.64 
L 51.207813 7.2 
" style="fill:none;stroke:#000000;stroke-linecap:square;stroke-linejoin:miter;stroke-width:0.8;"/>
   </g>
   <g id="patch_4">
    <path d="M 386.007812 224.64 
L 386.007812 7.2 
" style="fill:none;stroke:#000000;stroke-linecap:square;stroke-linejoin:miter;stroke-width:0.8;"/>
   </g>
   <g id="patch_5">
    <path d="M 51.207813 224.64 
L 386.007813 224.64 
" style="fill:none;stroke:#000000;stroke-linecap:square;stroke-linejoin:miter;stroke-width:0.8;"/>
   </g>
   <g id="patch_6">
    <path d="M 51.207813 7.2 
L 386.007813 7.2 
" style="fill:none;stroke:#000000;stroke-linecap:square;stroke-linejoin:miter;stroke-width:0.8;"/>
   </g>
   <g id="legend_1">
    <g id="patch_7">
     <path d="M 301.15625 75.025 
L 379.007812 75.025 
Q 381.007812 75.025 381.007812 73.025 
L 381.007812 14.2 
Q 381.007812 12.2 379.007812 12.2 
L 301.15625 12.2 
Q 299.15625 12.2 299.15625 14.2 
L 299.15625 73.025 
Q 299.15625 75.025 301.15625 75.025 
z
" style="fill:#ffffff;opacity:0.8;stroke:#cccccc;stroke-linejoin:miter;"/>
    </g>
    <g id="line2d_18">
     <path d="M 303.15625 20.298437 
L 323.15625 20.298437 
" style="fill:none;stroke:#1f77b4;stroke-linecap:square;stroke-width:1.5;"/>
    </g>
    <g id="line2d_19"/>
    <g id="text_14">
     <!-- omega_1 -->
     <g transform="translate(331.15625 23.798437)scale(0.1 -0.1)">
      <defs>
       <path d="M 30.609375 48.390625 
Q 23.390625 48.390625 19.1875 42.75 
Q 14.984375 37.109375 14.984375 27.296875 
Q 14.984375 17.484375 19.15625 11.84375 
Q 23.34375 6.203125 30.609375 6.203125 
Q 37.796875 6.203125 41.984375 11.859375 
Q 46.1875 17.53125 46.1875 27.296875 
Q 46.1875 37.015625 41.984375 42.703125 
Q 37.796875 48.390625 30.609375 48.390625 
z
M 30.609375 56 
Q 42.328125 56 49.015625 48.375 
Q 55.71875 40.765625 55.71875 27.296875 
Q 55.71875 13.875 49.015625 6.21875 
Q 42.328125 -1.421875 30.609375 -1.421875 
Q 18.84375 -1.421875 12.171875 6.21875 
Q 5.515625 13.875 5.515625 27.296875 
Q 5.515625 40.765625 12.171875 48.375 
Q 18.84375 56 30.609375 56 
z
" id="DejaVuSans-111"/>
       <path d="M 52 44.1875 
Q 55.375 50.25 60.0625 53.125 
Q 64.75 56 71.09375 56 
Q 79.640625 56 84.28125 50.015625 
Q 88.921875 44.046875 88.921875 33.015625 
L 88.921875 0 
L 79.890625 0 
L 79.890625 32.71875 
Q 79.890625 40.578125 77.09375 44.375 
Q 74.3125 48.1875 68.609375 48.1875 
Q 61.625 48.1875 57.5625 43.546875 
Q 53.515625 38.921875 53.515625 30.90625 
L 53.515625 0 
L 44.484375 0 
L 44.484375 32.71875 
Q 44.484375 40.625 41.703125 44.40625 
Q 38.921875 48.1875 33.109375 48.1875 
Q 26.21875 48.1875 22.15625 43.53125 
Q 18.109375 38.875 18.109375 30.90625 
L 18.109375 0 
L 9.078125 0 
L 9.078125 54.6875 
L 18.109375 54.6875 
L 18.109375 46.1875 
Q 21.1875 51.21875 25.484375 53.609375 
Q 29.78125 56 35.6875 56 
Q 41.65625 56 45.828125 52.96875 
Q 50 49.953125 52 44.1875 
z
" id="DejaVuSans-109"/>
       <path d="M 56.203125 29.59375 
L 56.203125 25.203125 
L 14.890625 25.203125 
Q 15.484375 15.921875 20.484375 11.0625 
Q 25.484375 6.203125 34.421875 6.203125 
Q 39.59375 6.203125 44.453125 7.46875 
Q 49.3125 8.734375 54.109375 11.28125 
L 54.109375 2.78125 
Q 49.265625 0.734375 44.1875 -0.34375 
Q 39.109375 -1.421875 33.890625 -1.421875 
Q 20.796875 -1.421875 13.15625 6.1875 
Q 5.515625 13.8125 5.515625 26.8125 
Q 5.515625 40.234375 12.765625 48.109375 
Q 20.015625 56 32.328125 56 
Q 43.359375 56 49.78125 48.890625 
Q 56.203125 41.796875 56.203125 29.59375 
z
M 47.21875 32.234375 
Q 47.125 39.59375 43.09375 43.984375 
Q 39.0625 48.390625 32.421875 48.390625 
Q 24.90625 48.390625 20.390625 44.140625 
Q 15.875 39.890625 15.1875 32.171875 
z
" id="DejaVuSans-101"/>
       <path d="M 45.40625 27.984375 
Q 45.40625 37.75 41.375 43.109375 
Q 37.359375 48.484375 30.078125 48.484375 
Q 22.859375 48.484375 18.828125 43.109375 
Q 14.796875 37.75 14.796875 27.984375 
Q 14.796875 18.265625 18.828125 12.890625 
Q 22.859375 7.515625 30.078125 7.515625 
Q 37.359375 7.515625 41.375 12.890625 
Q 45.40625 18.265625 45.40625 27.984375 
z
M 54.390625 6.78125 
Q 54.390625 -7.171875 48.1875 -13.984375 
Q 42 -20.796875 29.203125 -20.796875 
Q 24.46875 -20.796875 20.265625 -20.09375 
Q 16.0625 -19.390625 12.109375 -17.921875 
L 12.109375 -9.1875 
Q 16.0625 -11.328125 19.921875 -12.34375 
Q 23.78125 -13.375 27.78125 -13.375 
Q 36.625 -13.375 41.015625 -8.765625 
Q 45.40625 -4.15625 45.40625 5.171875 
L 45.40625 9.625 
Q 42.625 4.78125 38.28125 2.390625 
Q 33.9375 0 27.875 0 
Q 17.828125 0 11.671875 7.65625 
Q 5.515625 15.328125 5.515625 27.984375 
Q 5.515625 40.671875 11.671875 48.328125 
Q 17.828125 56 27.875 56 
Q 33.9375 56 38.28125 53.609375 
Q 42.625 51.21875 45.40625 46.390625 
L 45.40625 54.6875 
L 54.390625 54.6875 
z
" id="DejaVuSans-103"/>
       <path d="M 34.28125 27.484375 
Q 23.390625 27.484375 19.1875 25 
Q 14.984375 22.515625 14.984375 16.5 
Q 14.984375 11.71875 18.140625 8.90625 
Q 21.296875 6.109375 26.703125 6.109375 
Q 34.1875 6.109375 38.703125 11.40625 
Q 43.21875 16.703125 43.21875 25.484375 
L 43.21875 27.484375 
z
M 52.203125 31.203125 
L 52.203125 0 
L 43.21875 0 
L 43.21875 8.296875 
Q 40.140625 3.328125 35.546875 0.953125 
Q 30.953125 -1.421875 24.3125 -1.421875 
Q 15.921875 -1.421875 10.953125 3.296875 
Q 6 8.015625 6 15.921875 
Q 6 25.140625 12.171875 29.828125 
Q 18.359375 34.515625 30.609375 34.515625 
L 43.21875 34.515625 
L 43.21875 35.40625 
Q 43.21875 41.609375 39.140625 45 
Q 35.0625 48.390625 27.6875 48.390625 
Q 23 48.390625 18.546875 47.265625 
Q 14.109375 46.140625 10.015625 43.890625 
L 10.015625 52.203125 
Q 14.9375 54.109375 19.578125 55.046875 
Q 24.21875 56 28.609375 56 
Q 40.484375 56 46.34375 49.84375 
Q 52.203125 43.703125 52.203125 31.203125 
z
" id="DejaVuSans-97"/>
       <path d="M 50.984375 -16.609375 
L 50.984375 -23.578125 
L -0.984375 -23.578125 
L -0.984375 -16.609375 
z
" id="DejaVuSans-95"/>
      </defs>
      <use xlink:href="#DejaVuSans-111"/>
      <use x="61.181641" xlink:href="#DejaVuSans-109"/>
      <use x="158.59375" xlink:href="#DejaVuSans-101"/>
      <use x="220.117188" xlink:href="#DejaVuSans-103"/>
      <use x="283.59375" xlink:href="#DejaVuSans-97"/>
      <use x="344.873047" xlink:href="#DejaVuSans-95"/>
      <use x="394.873047" xlink:href="#DejaVuSans-49"/>
     </g>
    </g>
    <g id="line2d_20">
     <path d="M 303.15625 35.254687 
L 323.15625 35.254687 
" style="fill:none;stroke:#ff7f0e;stroke-linecap:square;stroke-width:1.5;"/>
    </g>
    <g id="line2d_21"/>
    <g id="text_15">
     <!-- omega_2 -->
     <g transform="translate(331.15625 38.754687)scale(0.1 -0.1)">
      <use xlink:href="#DejaVuSans-111"/>
      <use x="61.181641" xlink:href="#DejaVuSans-109"/>
      <use x="158.59375" xlink:href="#DejaVuSans-101"/>
      <use x="220.117188" xlink:href="#DejaVuSans-103"/>
      <use x="283.59375" xlink:href="#DejaVuSans-97"/>
      <use x="344.873047" xlink:href="#DejaVuSans-95"/>
      <use x="394.873047" xlink:href="#DejaVuSans-50"/>
     </g>
    </g>
    <g id="line2d_22">
     <path d="M 303.15625 50.210937 
L 323.15625 50.210937 
" style="fill:none;stroke:#2ca02c;stroke-linecap:square;stroke-width:1.5;"/>
    </g>
    <g id="line2d_23"/>
    <g id="text_16">
     <!-- omega_3 -->
     <g transform="translate(331.15625 53.710937)scale(0.1 -0.1)">
      <defs>
       <path d="M 40.578125 39.3125 
Q 47.65625 37.796875 51.625 33 
Q 55.609375 28.21875 55.609375 21.1875 
Q 55.609375 10.40625 48.1875 4.484375 
Q 40.765625 -1.421875 27.09375 -1.421875 
Q 22.515625 -1.421875 17.65625 -0.515625 
Q 12.796875 0.390625 7.625 2.203125 
L 7.625 11.71875 
Q 11.71875 9.328125 16.59375 8.109375 
Q 21.484375 6.890625 26.8125 6.890625 
Q 36.078125 6.890625 40.9375 10.546875 
Q 45.796875 14.203125 45.796875 21.1875 
Q 45.796875 27.640625 41.28125 31.265625 
Q 36.765625 34.90625 28.71875 34.90625 
L 20.21875 34.90625 
L 20.21875 43.015625 
L 29.109375 43.015625 
Q 36.375 43.015625 40.234375 45.921875 
Q 44.09375 48.828125 44.09375 54.296875 
Q 44.09375 59.90625 40.109375 62.90625 
Q 36.140625 65.921875 28.71875 65.921875 
Q 24.65625 65.921875 20.015625 65.03125 
Q 15.375 64.15625 9.8125 62.3125 
L 9.8125 71.09375 
Q 15.4375 72.65625 20.34375 73.4375 
Q 25.25 74.21875 29.59375 74.21875 
Q 40.828125 74.21875 47.359375 69.109375 
Q 53.90625 64.015625 53.90625 55.328125 
Q 53.90625 49.265625 50.4375 45.09375 
Q 46.96875 40.921875 40.578125 39.3125 
z
" id="DejaVuSans-51"/>
      </defs>
      <use xlink:href="#DejaVuSans-111"/>
      <use x="61.181641" xlink:href="#DejaVuSans-109"/>
      <use x="158.59375" xlink:href="#DejaVuSans-101"/>
      <use x="220.117188" xlink:href="#DejaVuSans-103"/>
      <use x="283.59375" xlink:href="#DejaVuSans-97"/>
      <use x="344.873047" xlink:href="#DejaVuSans-95"/>
      <use x="394.873047" xlink:href="#DejaVuSans-51"/>
     </g>
    </g>
    <g id="line2d_24">
     <path d="M 303.15625 65.167187 
L 323.15625 65.167187 
" style="fill:none;stroke:#d62728;stroke-linecap:square;stroke-width:1.5;"/>
    </g>
    <g id="line2d_25"/>
    <g id="text_17">
     <!-- omega_4 -->
     <g transform="translate(331.15625 68.667187)scale(0.1 -0.1)">
      <use xlink:href="#DejaVuSans-111"/>
      <use x="61.181641" xlink:href="#DejaVuSans-109"/>
      <use x="158.59375" xlink:href="#DejaVuSans-101"/>
      <use x="220.117188" xlink:href="#DejaVuSans-103"/>
      <use x="283.59375" xlink:href="#DejaVuSans-97"/>
      <use x="344.873047" xlink:href="#DejaVuSans-95"/>
      <use x="394.873047" xlink:href="#DejaVuSans-52"/>
     </g>
    </g>
   </g>
  </g>
 </g>
 <defs>
  <clipPath id="p5fe9507570">
   <rect height="217.44" width="334.8" x="51.207813" y="7.2"/>
  </clipPath>
 </defs>
</svg>
