<?xml version="1.0" encoding="utf-8" standalone="no"?>
<!DOCTYPE svg PUBLIC "-//W3C//DTD SVG 1.1//EN"
  "http://www.w3.org/Graphics/SVG/1.1/DTD/svg11.dtd">
<svg xmlns:xlink="http://www.w3.org/1999/xlink" width="415.527812pt" height="297.190125pt" viewBox="0 0 415.527812 297.190125" xmlns="http://www.w3.org/2000/svg" version="1.1">
 <metadata>
  <rdf:RDF xmlns:dc="http://purl.org/dc/elements/1.1/" xmlns:cc="http://creativecommons.org/ns#" xmlns:rdf="http://www.w3.org/1999/02/22-rdf-syntax-ns#">
   <cc:Work>
    <dc:type rdf:resource="http://purl.org/dc/dcmitype/StillImage"/>
    <dc:date>2023-02-28T08:00:22.387766</dc:date>
    <dc:format>image/svg+xml</dc:format>
    <dc:creator>
     <cc:Agent>
      <dc:title>Matplotlib v3.5.2, https://matplotlib.org/</dc:title>
     </cc:Agent>
    </dc:creator>
   </cc:Work>
  </rdf:RDF>
 </metadata>
 <defs>
  <style type="text/css">*{stroke-linejoin: round; stroke-linecap: butt}</style>
 </defs>
 <g id="figure_1">
  <g id="patch_1">
   <path d="M 0 297.190125 
L 415.527812 297.190125 
L 415.527812 0 
L 0 0 
z
" style="fill: #ffffff"/>
  </g>
  <g id="axes_1">
   <g id="patch_2">
    <path d="M 51.207813 273.312 
L 408.327813 273.312 
L 408.327813 7.2 
L 51.207813 7.2 
z
" style="fill: #ffffff"/>
   </g>
   <g id="matplotlib.axis_1">
    <g id="xtick_1">
     <g id="line2d_1">
      <defs>
       <path id="m8f28533485" d="M 0 0 
L 0 3.5 
" style="stroke: #000000; stroke-width: 0.8"/>
      </defs>
      <g>
       <use xlink:href="#m8f28533485" x="67.44054" y="273.312" style="stroke: #000000; stroke-width: 0.8"/>
      </g>
     </g>
     <g id="text_1">
      <!-- 0 -->
      <g transform="translate(64.25929 287.910437)scale(0.1 -0.1)">
       <defs>
        <path id="DejaVuSans-30" d="M 2034 4250 
Q 1547 4250 1301 3770 
Q 1056 3291 1056 2328 
Q 1056 1369 1301 889 
Q 1547 409 2034 409 
Q 2525 409 2770 889 
Q 3016 1369 3016 2328 
Q 3016 3291 2770 3770 
Q 2525 4250 2034 4250 
z
M 2034 4750 
Q 2819 4750 3233 4129 
Q 3647 3509 3647 2328 
Q 3647 1150 3233 529 
Q 2819 -91 2034 -91 
Q 1250 -91 836 529 
Q 422 1150 422 2328 
Q 422 3509 836 4129 
Q 1250 4750 2034 4750 
z
" transform="scale(0.015625)"/>
       </defs>
       <use xlink:href="#DejaVuSans-30"/>
      </g>
     </g>
    </g>
    <g id="xtick_2">
     <g id="line2d_2">
      <g>
       <use xlink:href="#m8f28533485" x="132.436445" y="273.312" style="stroke: #000000; stroke-width: 0.8"/>
      </g>
     </g>
     <g id="text_2">
      <!-- 2 -->
      <g transform="translate(129.255195 287.910437)scale(0.1 -0.1)">
       <defs>
        <path id="DejaVuSans-32" d="M 1228 531 
L 3431 531 
L 3431 0 
L 469 0 
L 469 531 
Q 828 903 1448 1529 
Q 2069 2156 2228 2338 
Q 2531 2678 2651 2914 
Q 2772 3150 2772 3378 
Q 2772 3750 2511 3984 
Q 2250 4219 1831 4219 
Q 1534 4219 1204 4116 
Q 875 4013 500 3803 
L 500 4441 
Q 881 4594 1212 4672 
Q 1544 4750 1819 4750 
Q 2544 4750 2975 4387 
Q 3406 4025 3406 3419 
Q 3406 3131 3298 2873 
Q 3191 2616 2906 2266 
Q 2828 2175 2409 1742 
Q 1991 1309 1228 531 
z
" transform="scale(0.015625)"/>
       </defs>
       <use xlink:href="#DejaVuSans-32"/>
      </g>
     </g>
    </g>
    <g id="xtick_3">
     <g id="line2d_3">
      <g>
       <use xlink:href="#m8f28533485" x="197.43235" y="273.312" style="stroke: #000000; stroke-width: 0.8"/>
      </g>
     </g>
     <g id="text_3">
      <!-- 4 -->
      <g transform="translate(194.2511 287.910437)scale(0.1 -0.1)">
       <defs>
        <path id="DejaVuSans-34" d="M 2419 4116 
L 825 1625 
L 2419 1625 
L 2419 4116 
z
M 2253 4666 
L 3047 4666 
L 3047 1625 
L 3713 1625 
L 3713 1100 
L 3047 1100 
L 3047 0 
L 2419 0 
L 2419 1100 
L 313 1100 
L 313 1709 
L 2253 4666 
z
" transform="scale(0.015625)"/>
       </defs>
       <use xlink:href="#DejaVuSans-34"/>
      </g>
     </g>
    </g>
    <g id="xtick_4">
     <g id="line2d_4">
      <g>
       <use xlink:href="#m8f28533485" x="262.428255" y="273.312" style="stroke: #000000; stroke-width: 0.8"/>
      </g>
     </g>
     <g id="text_4">
      <!-- 6 -->
      <g transform="translate(259.247005 287.910437)scale(0.1 -0.1)">
       <defs>
        <path id="DejaVuSans-36" d="M 2113 2584 
Q 1688 2584 1439 2293 
Q 1191 2003 1191 1497 
Q 1191 994 1439 701 
Q 1688 409 2113 409 
Q 2538 409 2786 701 
Q 3034 994 3034 1497 
Q 3034 2003 2786 2293 
Q 2538 2584 2113 2584 
z
M 3366 4563 
L 3366 3988 
Q 3128 4100 2886 4159 
Q 2644 4219 2406 4219 
Q 1781 4219 1451 3797 
Q 1122 3375 1075 2522 
Q 1259 2794 1537 2939 
Q 1816 3084 2150 3084 
Q 2853 3084 3261 2657 
Q 3669 2231 3669 1497 
Q 3669 778 3244 343 
Q 2819 -91 2113 -91 
Q 1303 -91 875 529 
Q 447 1150 447 2328 
Q 447 3434 972 4092 
Q 1497 4750 2381 4750 
Q 2619 4750 2861 4703 
Q 3103 4656 3366 4563 
z
" transform="scale(0.015625)"/>
       </defs>
       <use xlink:href="#DejaVuSans-36"/>
      </g>
     </g>
    </g>
    <g id="xtick_5">
     <g id="line2d_5">
      <g>
       <use xlink:href="#m8f28533485" x="327.42416" y="273.312" style="stroke: #000000; stroke-width: 0.8"/>
      </g>
     </g>
     <g id="text_5">
      <!-- 8 -->
      <g transform="translate(324.24291 287.910437)scale(0.1 -0.1)">
       <defs>
        <path id="DejaVuSans-38" d="M 2034 2216 
Q 1584 2216 1326 1975 
Q 1069 1734 1069 1313 
Q 1069 891 1326 650 
Q 1584 409 2034 409 
Q 2484 409 2743 651 
Q 3003 894 3003 1313 
Q 3003 1734 2745 1975 
Q 2488 2216 2034 2216 
z
M 1403 2484 
Q 997 2584 770 2862 
Q 544 3141 544 3541 
Q 544 4100 942 4425 
Q 1341 4750 2034 4750 
Q 2731 4750 3128 4425 
Q 3525 4100 3525 3541 
Q 3525 3141 3298 2862 
Q 3072 2584 2669 2484 
Q 3125 2378 3379 2068 
Q 3634 1759 3634 1313 
Q 3634 634 3220 271 
Q 2806 -91 2034 -91 
Q 1263 -91 848 271 
Q 434 634 434 1313 
Q 434 1759 690 2068 
Q 947 2378 1403 2484 
z
M 1172 3481 
Q 1172 3119 1398 2916 
Q 1625 2713 2034 2713 
Q 2441 2713 2670 2916 
Q 2900 3119 2900 3481 
Q 2900 3844 2670 4047 
Q 2441 4250 2034 4250 
Q 1625 4250 1398 4047 
Q 1172 3844 1172 3481 
z
" transform="scale(0.015625)"/>
       </defs>
       <use xlink:href="#DejaVuSans-38"/>
      </g>
     </g>
    </g>
    <g id="xtick_6">
     <g id="line2d_6">
      <g>
       <use xlink:href="#m8f28533485" x="392.420065" y="273.312" style="stroke: #000000; stroke-width: 0.8"/>
      </g>
     </g>
     <g id="text_6">
      <!-- 10 -->
      <g transform="translate(386.057565 287.910437)scale(0.1 -0.1)">
       <defs>
        <path id="DejaVuSans-31" d="M 794 531 
L 1825 531 
L 1825 4091 
L 703 3866 
L 703 4441 
L 1819 4666 
L 2450 4666 
L 2450 531 
L 3481 531 
L 3481 0 
L 794 0 
L 794 531 
z
" transform="scale(0.015625)"/>
       </defs>
       <use xlink:href="#DejaVuSans-31"/>
       <use xlink:href="#DejaVuSans-30" x="63.623047"/>
      </g>
     </g>
    </g>
   </g>
   <g id="matplotlib.axis_2">
    <g id="ytick_1">
     <g id="line2d_7">
      <defs>
       <path id="m43af2304e7" d="M 0 0 
L -3.5 0 
" style="stroke: #000000; stroke-width: 0.8"/>
      </defs>
      <g>
       <use xlink:href="#m43af2304e7" x="51.207813" y="257.730108" style="stroke: #000000; stroke-width: 0.8"/>
      </g>
     </g>
     <g id="text_7">
      <!-- −0.008 -->
      <g transform="translate(7.2 261.529327)scale(0.1 -0.1)">
       <defs>
        <path id="DejaVuSans-2212" d="M 678 2272 
L 4684 2272 
L 4684 1741 
L 678 1741 
L 678 2272 
z
" transform="scale(0.015625)"/>
        <path id="DejaVuSans-2e" d="M 684 794 
L 1344 794 
L 1344 0 
L 684 0 
L 684 794 
z
" transform="scale(0.015625)"/>
       </defs>
       <use xlink:href="#DejaVuSans-2212"/>
       <use xlink:href="#DejaVuSans-30" x="83.789062"/>
       <use xlink:href="#DejaVuSans-2e" x="147.412109"/>
       <use xlink:href="#DejaVuSans-30" x="179.199219"/>
       <use xlink:href="#DejaVuSans-30" x="242.822266"/>
       <use xlink:href="#DejaVuSans-38" x="306.445312"/>
      </g>
     </g>
    </g>
    <g id="ytick_2">
     <g id="line2d_8">
      <g>
       <use xlink:href="#m43af2304e7" x="51.207813" y="221.365282" style="stroke: #000000; stroke-width: 0.8"/>
      </g>
     </g>
     <g id="text_8">
      <!-- −0.006 -->
      <g transform="translate(7.2 225.164501)scale(0.1 -0.1)">
       <use xlink:href="#DejaVuSans-2212"/>
       <use xlink:href="#DejaVuSans-30" x="83.789062"/>
       <use xlink:href="#DejaVuSans-2e" x="147.412109"/>
       <use xlink:href="#DejaVuSans-30" x="179.199219"/>
       <use xlink:href="#DejaVuSans-30" x="242.822266"/>
       <use xlink:href="#DejaVuSans-36" x="306.445312"/>
      </g>
     </g>
    </g>
    <g id="ytick_3">
     <g id="line2d_9">
      <g>
       <use xlink:href="#m43af2304e7" x="51.207813" y="185.000457" style="stroke: #000000; stroke-width: 0.8"/>
      </g>
     </g>
     <g id="text_9">
      <!-- −0.004 -->
      <g transform="translate(7.2 188.799675)scale(0.1 -0.1)">
       <use xlink:href="#DejaVuSans-2212"/>
       <use xlink:href="#DejaVuSans-30" x="83.789062"/>
       <use xlink:href="#DejaVuSans-2e" x="147.412109"/>
       <use xlink:href="#DejaVuSans-30" x="179.199219"/>
       <use xlink:href="#DejaVuSans-30" x="242.822266"/>
       <use xlink:href="#DejaVuSans-34" x="306.445312"/>
      </g>
     </g>
    </g>
    <g id="ytick_4">
     <g id="line2d_10">
      <g>
       <use xlink:href="#m43af2304e7" x="51.207813" y="148.635631" style="stroke: #000000; stroke-width: 0.8"/>
      </g>
     </g>
     <g id="text_10">
      <!-- −0.002 -->
      <g transform="translate(7.2 152.43485)scale(0.1 -0.1)">
       <use xlink:href="#DejaVuSans-2212"/>
       <use xlink:href="#DejaVuSans-30" x="83.789062"/>
       <use xlink:href="#DejaVuSans-2e" x="147.412109"/>
       <use xlink:href="#DejaVuSans-30" x="179.199219"/>
       <use xlink:href="#DejaVuSans-30" x="242.822266"/>
       <use xlink:href="#DejaVuSans-32" x="306.445312"/>
      </g>
     </g>
    </g>
    <g id="ytick_5">
     <g id="line2d_11">
      <g>
       <use xlink:href="#m43af2304e7" x="51.207813" y="112.270805" style="stroke: #000000; stroke-width: 0.8"/>
      </g>
     </g>
     <g id="text_11">
      <!-- 0.000 -->
      <g transform="translate(15.579688 116.070024)scale(0.1 -0.1)">
       <use xlink:href="#DejaVuSans-30"/>
       <use xlink:href="#DejaVuSans-2e" x="63.623047"/>
       <use xlink:href="#DejaVuSans-30" x="95.410156"/>
       <use xlink:href="#DejaVuSans-30" x="159.033203"/>
       <use xlink:href="#DejaVuSans-30" x="222.65625"/>
      </g>
     </g>
    </g>
    <g id="ytick_6">
     <g id="line2d_12">
      <g>
       <use xlink:href="#m43af2304e7" x="51.207813" y="75.905979" style="stroke: #000000; stroke-width: 0.8"/>
      </g>
     </g>
     <g id="text_12">
      <!-- 0.002 -->
      <g transform="translate(15.579688 79.705198)scale(0.1 -0.1)">
       <use xlink:href="#DejaVuSans-30"/>
       <use xlink:href="#DejaVuSans-2e" x="63.623047"/>
       <use xlink:href="#DejaVuSans-30" x="95.410156"/>
       <use xlink:href="#DejaVuSans-30" x="159.033203"/>
       <use xlink:href="#DejaVuSans-32" x="222.65625"/>
      </g>
     </g>
    </g>
    <g id="ytick_7">
     <g id="line2d_13">
      <g>
       <use xlink:href="#m43af2304e7" x="51.207813" y="39.541154" style="stroke: #000000; stroke-width: 0.8"/>
      </g>
     </g>
     <g id="text_13">
      <!-- 0.004 -->
      <g transform="translate(15.579688 43.340372)scale(0.1 -0.1)">
       <use xlink:href="#DejaVuSans-30"/>
       <use xlink:href="#DejaVuSans-2e" x="63.623047"/>
       <use xlink:href="#DejaVuSans-30" x="95.410156"/>
       <use xlink:href="#DejaVuSans-30" x="159.033203"/>
       <use xlink:href="#DejaVuSans-34" x="222.65625"/>
      </g>
     </g>
    </g>
   </g>
   <g id="line2d_14">
    <path d="M 67.44054 112.270805 
L 99.938492 112.270805 
L 100.263472 112.80024 
L 100.588451 114.3093 
L 101.23841 119.444724 
L 101.888369 126.596898 
L 102.863308 139.928277 
L 104.488206 166.364968 
L 107.738001 220.709987 
L 109.037919 238.178673 
L 110.012858 248.425387 
L 110.662817 253.68361 
L 111.312776 257.592615 
L 111.962735 260.104801 
L 112.287714 260.829581 
L 112.612694 261.199472 
L 112.937673 261.216 
L 113.262653 260.882272 
L 113.587632 260.202936 
L 114.237591 257.833426 
L 114.88755 254.173379 
L 115.537509 249.309459 
L 116.512448 239.990281 
L 117.812366 224.453343 
L 119.437264 201.645548 
L 123.661998 140.548646 
L 124.961916 125.155655 
L 126.261834 112.554014 
L 127.236772 105.113057 
L 128.211711 99.426138 
L 128.86167 96.584284 
L 129.511629 94.463886 
L 130.161588 93.018236 
L 130.811547 92.189828 
L 131.461506 91.912062 
L 132.111465 92.111051 
L 132.761424 92.707506 
L 133.411383 93.618634 
L 134.386322 95.390765 
L 137.311138 101.083922 
L 138.286076 102.316318 
L 138.936035 102.794317 
L 139.585994 102.955895 
L 140.235953 102.777371 
L 140.885912 102.245967 
L 141.535871 101.359836 
L 142.185831 100.127855 
L 143.160769 97.676016 
L 144.135708 94.595991 
L 145.760605 88.480537 
L 148.685421 76.989405 
L 149.66036 73.835865 
L 150.635298 71.364846 
L 151.285257 70.18432 
L 151.935216 69.429495 
L 152.585175 69.136884 
L 152.910155 69.173099 
L 153.235134 69.334826 
L 153.885093 70.04294 
L 154.535052 71.271748 
L 155.185012 73.022478 
L 156.15995 76.607014 
L 157.134889 81.280132 
L 158.434807 89.010777 
L 160.059704 100.556742 
L 162.98452 123.752813 
L 164.934397 138.414891 
L 166.234315 146.806691 
L 167.209254 152.063048 
L 168.184193 156.268478 
L 169.159131 159.315954 
L 169.80909 160.668885 
L 170.459049 161.465551 
L 170.784029 161.654204 
L 171.109008 161.703477 
L 171.433988 161.614276 
L 172.083947 161.026431 
L 172.733906 159.907145 
L 173.383865 158.279803 
L 174.358803 154.952841 
L 175.333742 150.674795 
L 176.63366 143.74806 
L 178.258558 133.683898 
L 183.78321 98.101706 
L 185.083128 91.383194 
L 186.383046 85.768988 
L 187.357984 82.339572 
L 188.332923 79.592657 
L 189.307862 77.516001 
L 190.2828 76.078189 
L 190.932759 75.451726 
L 191.582718 75.071175 
L 192.232677 74.917374 
L 192.882636 74.969736 
L 193.532595 75.20676 
L 194.507534 75.860591 
L 195.482473 76.807327 
L 196.782391 78.405635 
L 198.732268 81.235736 
L 204.906879 90.910355 
L 207.506715 95.280715 
L 209.456592 99.003586 
L 211.406469 103.269778 
L 213.356346 108.111678 
L 215.956183 115.245741 
L 219.530957 125.063592 
L 221.155855 128.879735 
L 222.455773 131.375936 
L 223.430712 132.837529 
L 224.40565 133.894543 
L 225.055609 134.355183 
L 225.705568 134.609955 
L 226.355527 134.652174 
L 227.005487 134.477459 
L 227.655446 134.083832 
L 228.305405 133.471769 
L 229.280343 132.151216 
L 230.255282 130.366572 
L 231.23022 128.149837 
L 232.530138 124.597564 
L 234.155036 119.382168 
L 236.429893 111.178358 
L 240.004668 98.172812 
L 241.629565 92.986013 
L 242.929483 89.411062 
L 244.229401 86.449187 
L 245.20434 84.669281 
L 246.179279 83.285921 
L 247.154217 82.305261 
L 248.129156 81.724594 
L 248.779115 81.554656 
L 249.429074 81.552792 
L 250.079033 81.712681 
L 251.053971 82.239218 
L 252.02891 83.083548 
L 253.003849 84.212777 
L 254.303767 86.100121 
L 255.928664 88.949661 
L 257.878541 92.865573 
L 266.328009 110.541645 
L 268.277886 113.898212 
L 269.902784 116.335682 
L 271.527681 118.403332 
L 272.8276 119.76459 
L 274.127518 120.843287 
L 275.427436 121.618926 
L 276.402374 121.989909 
L 277.377313 122.171804 
L 278.352251 122.158117 
L 279.32719 121.943816 
L 280.302129 121.525745 
L 281.277067 120.903035 
L 282.576985 119.757953 
L 283.876903 118.265215 
L 285.176822 116.447787 
L 286.801719 113.771853 
L 288.751596 110.088806 
L 292.001392 103.337578 
L 294.926207 97.398047 
L 296.876084 93.937436 
L 298.500982 91.545568 
L 299.8009 90.028034 
L 301.100818 88.904861 
L 302.075757 88.337086 
L 303.050695 88.011422 
L 304.025634 87.929199 
L 305.000573 88.087444 
L 305.975511 88.479054 
L 306.95045 89.093055 
L 308.250368 90.232138 
L 309.550286 91.697637 
L 311.175184 93.910748 
L 313.125061 96.977777 
L 317.349794 104.227186 
L 319.949631 108.421849 
L 321.899508 111.149644 
L 323.524405 113.051322 
L 324.824324 114.292985 
L 326.124242 115.266729 
L 327.42416 115.961692 
L 328.724078 116.373152 
L 330.023996 116.502073 
L 331.323914 116.354622 
L 332.623832 115.941706 
L 333.92375 115.27854 
L 335.223668 114.384257 
L 336.848566 112.976286 
L 338.798443 110.929977 
L 341.0733 108.180631 
L 349.197788 97.963815 
L 350.822686 96.368493 
L 352.447583 95.070383 
L 353.747501 94.27781 
L 355.047419 93.724015 
L 356.347337 93.421521 
L 357.647256 93.376605 
L 358.947174 93.589019 
L 360.247092 94.051911 
L 361.54701 94.751961 
L 363.171908 95.930364 
L 364.796805 97.398505 
L 366.746682 99.45578 
L 369.996478 103.280439 
L 373.571252 107.429561 
L 375.521129 109.404194 
L 377.146027 110.796834 
L 378.770925 111.910429 
L 380.070843 112.577831 
L 381.370761 113.034596 
L 382.670679 113.275526 
L 383.970597 113.300846 
L 385.270515 113.115968 
L 386.570433 112.73113 
L 388.195331 111.991516 
L 389.820229 110.999359 
L 391.770106 109.53823 
L 392.095085 109.27156 
L 392.095085 109.27156 
" clip-path="url(#p463833f4dc)" style="fill: none; stroke: #1f77b4; stroke-width: 1.5; stroke-linecap: square"/>
   </g>
   <g id="line2d_15">
    <path d="M 67.44054 112.270805 
L 99.938492 112.270805 
L 100.263472 111.949351 
L 100.588451 111.032306 
L 101.23841 107.902507 
L 101.888369 103.531475 
L 102.863308 95.395561 
L 104.488206 79.537114 
L 106.438083 60.509306 
L 107.738001 50.040096 
L 108.712939 44.186162 
L 109.362898 41.443403 
L 110.012858 39.722045 
L 110.337837 39.261862 
L 110.662817 39.074868 
L 110.987796 39.163731 
L 111.312776 39.529535 
L 111.637755 40.17179 
L 112.287714 42.275922 
L 112.937673 45.441519 
L 113.587632 49.610627 
L 114.562571 57.566092 
L 115.862489 70.783391 
L 117.812366 94.016061 
L 120.412202 124.921516 
L 121.71212 137.634806 
L 122.687059 145.129411 
L 123.337018 148.970433 
L 123.986977 151.801309 
L 124.636936 153.570205 
L 124.961916 154.045696 
L 125.286895 154.245375 
L 125.611875 154.168453 
L 125.936854 153.815403 
L 126.261834 153.187951 
L 126.911793 151.122855 
L 127.561752 148.011053 
L 128.211711 143.908581 
L 129.18665 136.060787 
L 130.486568 122.930424 
L 132.111465 103.511676 
L 136.336199 51.228585 
L 137.636117 38.46239 
L 138.611056 30.782465 
L 139.585994 24.969014 
L 140.235953 22.201703 
L 140.885912 20.34901 
L 141.210892 19.768399 
L 141.535871 19.417877 
L 141.860851 19.296 
L 142.185831 19.400429 
L 142.51081 19.727956 
L 143.160769 21.035291 
L 143.810728 23.176052 
L 144.460687 26.096432 
L 145.435626 31.795452 
L 146.410564 38.847642 
L 147.710482 49.854485 
L 149.985339 71.448299 
L 152.260196 92.689714 
L 153.885093 105.818262 
L 155.185012 114.435487 
L 156.15995 119.627456 
L 157.134889 123.677293 
L 158.109827 126.589771 
L 158.759786 127.922102 
L 159.409745 128.794296 
L 160.059704 129.237534 
L 160.709663 129.288837 
L 161.359622 128.990032 
L 162.009582 128.386661 
L 162.98452 127.01628 
L 164.284438 124.581781 
L 168.184193 116.631755 
L 169.159131 115.150896 
L 170.13407 114.029897 
L 171.109008 113.295787 
L 171.758967 113.021082 
L 172.408926 112.909749 
L 173.383865 113.019253 
L 174.358803 113.402824 
L 175.658722 114.196661 
L 178.258558 115.865939 
L 179.233496 116.20233 
L 179.883455 116.260978 
L 180.533414 116.158621 
L 181.183374 115.874546 
L 181.833333 115.391887 
L 182.483292 114.698012 
L 183.45823 113.244703 
L 184.433169 111.291607 
L 185.408107 108.85559 
L 186.708025 104.929629 
L 188.332923 99.162821 
L 193.532595 79.613879 
L 194.832514 75.88957 
L 195.807452 73.714754 
L 196.782391 72.155622 
L 197.43235 71.486973 
L 198.082309 71.129068 
L 198.732268 71.089168 
L 199.382227 71.370141 
L 200.032186 71.970455 
L 200.682145 72.884253 
L 201.657084 74.819677 
L 202.632022 77.386552 
L 203.93194 81.671059 
L 205.231858 86.752703 
L 207.181736 95.347047 
L 211.08149 112.882686 
L 212.706387 119.140706 
L 214.006306 123.350101 
L 215.306224 126.731675 
L 216.281162 128.687847 
L 217.256101 130.138026 
L 218.231039 131.089737 
L 218.880998 131.456848 
L 219.530957 131.620056 
L 220.180917 131.590106 
L 220.830876 131.379373 
L 221.805814 130.754581 
L 222.780753 129.80438 
L 224.080671 128.123296 
L 225.705568 125.534464 
L 227.980425 121.409292 
L 232.530138 113.102807 
L 235.129975 108.881075 
L 237.729811 105.072755 
L 240.979606 100.721288 
L 243.904422 97.138321 
L 246.179279 94.702347 
L 247.804176 93.277983 
L 249.104094 92.40407 
L 250.404012 91.824438 
L 251.378951 91.61353 
L 252.353889 91.615509 
L 253.328828 91.84567 
L 254.303767 92.31498 
L 255.278705 93.029325 
L 256.253644 93.988943 
L 257.553562 95.639095 
L 258.85348 97.683592 
L 260.478378 100.716488 
L 262.428255 104.874194 
L 268.277886 117.753568 
L 269.902784 120.611723 
L 271.202702 122.467418 
L 272.50262 123.881271 
L 273.477559 124.629942 
L 274.452497 125.102317 
L 275.427436 125.296774 
L 276.402374 125.217561 
L 277.377313 124.874435 
L 278.352251 124.282168 
L 279.32719 123.459923 
L 280.627108 122.045782 
L 282.252006 119.8556 
L 284.201883 116.784061 
L 291.676412 104.418823 
L 293.626289 101.859087 
L 295.251187 100.093301 
L 296.876084 98.6902 
L 298.176003 97.83755 
L 299.475921 97.226569 
L 300.775839 96.855471 
L 302.075757 96.720105 
L 303.375675 96.814549 
L 304.675593 97.131448 
L 305.975511 97.662077 
L 307.600409 98.610108 
L 309.225306 99.851575 
L 310.850204 101.35606 
L 312.800081 103.454562 
L 315.399917 106.611135 
L 321.574528 114.291021 
L 323.524405 116.280047 
L 325.149303 117.618504 
L 326.449221 118.438047 
L 327.749139 119.009064 
L 329.049057 119.31572 
L 330.348975 119.349979 
L 331.648894 119.112026 
L 332.948812 118.610344 
L 334.24873 117.861433 
L 335.873627 116.614671 
L 337.498525 115.080037 
L 339.773382 112.588062 
L 346.597952 104.823467 
L 348.547829 103.08065 
L 350.172727 101.925085 
L 351.797624 101.075204 
L 353.097542 100.628445 
L 354.39746 100.392828 
L 355.697378 100.366359 
L 356.997297 100.542273 
L 358.297215 100.909587 
L 359.922112 101.615332 
L 361.54701 102.562087 
L 363.496887 103.958861 
L 366.096723 106.135302 
L 374.221211 113.206911 
L 376.171089 114.528093 
L 378.120966 115.568664 
L 379.745863 116.187833 
L 381.370761 116.561283 
L 382.995659 116.678592 
L 384.620556 116.538234 
L 386.245454 116.147943 
L 387.870351 115.524717 
L 389.820229 114.506336 
L 392.095085 113.022183 
L 392.095085 113.022183 
" clip-path="url(#p463833f4dc)" style="fill: none; stroke: #ff7f0e; stroke-width: 1.5; stroke-linecap: square"/>
   </g>
   <g id="line2d_16">
    <path d="M 67.44054 112.270805 
L 100.263472 112.198941 
L 100.913431 111.684539 
L 101.56339 110.827978 
L 102.538328 109.088937 
L 103.513267 106.912706 
L 104.813185 103.437004 
L 106.438083 98.318893 
L 108.38796 91.322052 
L 114.562571 68.366867 
L 115.862489 64.616234 
L 116.837428 62.319411 
L 117.812366 60.546007 
L 118.462325 59.686793 
L 119.112284 59.105842 
L 119.762243 58.817635 
L 120.412202 58.834152 
L 121.062161 59.164647 
L 121.71212 59.815456 
L 122.362079 60.789827 
L 123.012039 62.087801 
L 123.986977 64.633473 
L 124.961916 67.874025 
L 126.261834 73.200886 
L 127.561752 79.543025 
L 129.18665 88.605702 
L 131.786486 104.63085 
L 134.711301 122.540267 
L 136.336199 131.354035 
L 137.636117 137.416858 
L 138.936035 142.393318 
L 139.910974 145.324091 
L 140.885912 147.519115 
L 141.535871 148.560229 
L 142.185831 149.258938 
L 142.83579 149.614976 
L 143.485749 149.631287 
L 144.135708 149.313913 
L 144.785667 148.671849 
L 145.435626 147.716871 
L 146.410564 145.729726 
L 147.385503 143.129406 
L 148.685421 138.827073 
L 149.985339 133.737848 
L 151.935216 125.060645 
L 158.434807 94.899939 
L 160.059704 88.648255 
L 161.684602 83.31401 
L 162.98452 79.769993 
L 164.284438 76.893591 
L 165.259377 75.176942 
L 166.234315 73.833966 
L 167.209254 72.857234 
L 168.184193 72.236801 
L 169.159131 71.96105 
L 170.13407 72.017406 
L 171.109008 72.392898 
L 172.083947 73.074567 
L 173.058885 74.049692 
L 174.033824 75.305852 
L 175.333742 77.39678 
L 176.63366 79.936357 
L 178.258558 83.694209 
L 179.883455 88.035017 
L 181.833333 93.892182 
L 184.433169 102.480835 
L 189.632841 119.908069 
L 191.582718 125.506428 
L 192.882636 128.670686 
L 194.182555 131.268914 
L 195.157493 132.796443 
L 196.132432 133.931098 
L 197.10737 134.650965 
L 197.757329 134.892795 
L 198.407288 134.940975 
L 199.057247 134.794528 
L 199.707206 134.454068 
L 200.357165 133.92182 
L 201.332104 132.772661 
L 202.307043 131.220541 
L 203.281981 129.292675 
L 204.581899 126.197931 
L 206.206797 121.628595 
L 208.156674 115.420592 
L 213.681326 97.257307 
L 215.306224 92.752817 
L 216.606142 89.672624 
L 217.90606 87.133562 
L 218.880998 85.614293 
L 219.855937 84.439841 
L 220.830876 83.616526 
L 221.805814 83.144492 
L 222.780753 83.01811 
L 223.755691 83.226485 
L 224.73063 83.754054 
L 225.705568 84.581233 
L 226.680507 85.6851 
L 227.980425 87.542844 
L 229.280343 89.781053 
L 230.905241 93.008086 
L 233.180098 98.081018 
L 240.329647 114.578205 
L 242.279524 118.376102 
L 243.904422 121.098046 
L 245.20434 122.934783 
L 246.504258 124.43446 
L 247.804176 125.570224 
L 248.779115 126.169857 
L 249.754053 126.545208 
L 250.728992 126.691131 
L 251.70393 126.60471 
L 252.678869 126.285465 
L 253.653808 125.735549 
L 254.628746 124.959916 
L 255.928664 123.588698 
L 257.228582 121.857635 
L 258.85348 119.244429 
L 260.803357 115.573136 
L 263.403193 110.097401 
L 267.627927 101.111258 
L 269.577804 97.498982 
L 271.202702 94.969617 
L 272.50262 93.334077 
L 273.802538 92.086641 
L 274.777477 91.422769 
L 275.752415 90.999937 
L 276.727354 90.821101 
L 277.702292 90.885175 
L 278.677231 91.187135 
L 279.65217 91.71819 
L 280.627108 92.466036 
L 281.927026 93.773191 
L 283.226944 95.393522 
L 284.851842 97.780396 
L 287.126699 101.594817 
L 293.626289 112.848892 
L 295.576166 115.610906 
L 297.201064 117.513137 
L 298.500982 118.735908 
L 299.8009 119.673014 
L 301.100818 120.313422 
L 302.400736 120.652676 
L 303.700654 120.692519 
L 305.000573 120.440458 
L 306.300491 119.909303 
L 307.600409 119.116707 
L 308.900327 118.084706 
L 310.525224 116.497951 
L 312.475102 114.236563 
L 315.074938 110.804825 
L 321.249549 102.430067 
L 323.199426 100.219532 
L 324.824324 98.688332 
L 326.124242 97.706896 
L 327.42416 96.966576 
L 328.724078 96.484143 
L 330.023996 96.270139 
L 331.323914 96.328462 
L 332.623832 96.656149 
L 333.92375 97.24336 
L 335.223668 98.073586 
L 336.848566 99.417892 
L 338.473464 101.049362 
L 340.74832 103.685345 
L 348.222849 112.714829 
L 350.172727 114.536621 
L 351.797624 115.737344 
L 353.097542 116.463425 
L 354.39746 116.967948 
L 355.697378 117.245097 
L 356.997297 117.294866 
L 358.297215 117.122795 
L 359.597133 116.739572 
L 361.22203 115.987345 
L 362.846928 114.968052 
L 364.796805 113.458248 
L 367.396641 111.109621 
L 374.221211 104.726215 
L 376.171089 103.245792 
L 378.120966 102.056831 
L 379.745863 101.327318 
L 381.370761 100.858669 
L 382.995659 100.663372 
L 384.620556 100.744605 
L 386.245454 101.096125 
L 387.870351 101.702433 
L 389.495249 102.53923 
L 391.445126 103.801604 
L 392.095085 104.27418 
L 392.095085 104.27418 
" clip-path="url(#p463833f4dc)" style="fill: none; stroke: #2ca02c; stroke-width: 1.5; stroke-linecap: square"/>
   </g>
   <g id="line2d_17">
    <path d="M 67.44054 112.270805 
L 99.938492 112.270805 
L 100.263472 112.136494 
L 100.588451 111.755308 
L 101.23841 110.474052 
L 102.213349 107.711127 
L 103.513267 103.051579 
L 105.138165 96.277755 
L 110.662817 72.279651 
L 111.962735 67.696172 
L 113.262653 63.909287 
L 114.237591 61.678143 
L 115.21253 60.022594 
L 115.862489 59.256779 
L 116.512448 58.77044 
L 117.162407 58.568663 
L 117.812366 58.65405 
L 118.462325 59.026731 
L 119.112284 59.684401 
L 119.762243 60.622378 
L 120.737182 62.53903 
L 121.71212 65.037346 
L 123.012039 69.197314 
L 124.311957 74.185894 
L 125.936854 81.352584 
L 128.211711 92.508034 
L 132.436445 113.520994 
L 134.386322 121.993451 
L 136.01122 127.979624 
L 137.311138 131.932445 
L 138.611056 135.076867 
L 139.585994 136.885217 
L 140.560933 138.217382 
L 141.535871 139.076646 
L 142.185831 139.391109 
L 142.83579 139.503382 
L 143.485749 139.41829 
L 144.135708 139.14137 
L 144.785667 138.678757 
L 145.760605 137.651271 
L 146.735544 136.244966 
L 147.710482 134.485335 
L 149.010401 131.63568 
L 150.310319 128.270817 
L 151.935216 123.444076 
L 153.885093 116.925935 
L 156.809909 106.20394 
L 161.359622 89.377348 
L 163.3095 82.986237 
L 164.934397 78.401955 
L 166.234315 75.359236 
L 167.209254 73.501227 
L 168.184193 72.04411 
L 169.159131 71.016211 
L 169.80909 70.580693 
L 170.459049 70.350936 
L 171.109008 70.330408 
L 171.758967 70.521019 
L 172.408926 70.923052 
L 173.058885 71.535116 
L 174.033824 72.839776 
L 175.008763 74.591982 
L 175.983701 76.765613 
L 177.283619 80.259208 
L 178.908517 85.437381 
L 180.858394 92.520786 
L 187.357984 117.018349 
L 188.982882 121.988783 
L 190.2828 125.340789 
L 191.582718 128.065611 
L 192.557657 129.671338 
L 193.532595 130.890633 
L 194.507534 131.72107 
L 195.482473 132.166761 
L 196.132432 132.254893 
L 196.782391 132.180726 
L 197.757329 131.776949 
L 198.732268 131.04137 
L 199.707206 129.998787 
L 201.007125 128.17896 
L 202.307043 125.932759 
L 203.93194 122.637563 
L 205.881817 118.159442 
L 209.456592 109.224498 
L 213.031367 100.481251 
L 214.981244 96.214886 
L 216.606142 93.089723 
L 218.231039 90.450831 
L 219.530957 88.744456 
L 220.830876 87.437885 
L 221.805814 86.739407 
L 222.780753 86.294395 
L 223.755691 86.111228 
L 224.73063 86.195501 
L 225.705568 86.549698 
L 226.680507 87.172889 
L 227.655446 88.060476 
L 228.630384 89.204014 
L 229.930302 91.104861 
L 231.23022 93.397862 
L 232.855118 96.734635 
L 234.804995 101.259033 
L 241.954545 118.425645 
L 243.579442 121.49391 
L 244.87936 123.520677 
L 246.179279 125.114875 
L 247.154217 126.005839 
L 248.129156 126.625359 
L 249.104094 126.969219 
L 250.079033 127.03781 
L 251.053971 126.83598 
L 252.02891 126.372797 
L 253.003849 125.661228 
L 254.303767 124.355039 
L 255.603685 122.684309 
L 257.228582 120.167699 
L 259.17846 116.678337 
L 262.428255 110.291663 
L 265.67805 104.039328 
L 267.627927 100.710642 
L 269.252825 98.312426 
L 270.877722 96.32635 
L 272.177641 95.067696 
L 273.477559 94.122049 
L 274.777477 93.500468 
L 275.752415 93.250028 
L 276.727354 93.184392 
L 277.702292 93.301403 
L 278.677231 93.597075 
L 279.977149 94.259002 
L 281.277067 95.209671 
L 282.576985 96.425455 
L 284.201883 98.274068 
L 286.15176 100.886704 
L 288.751596 104.81964 
L 294.276248 113.336704 
L 296.226125 115.880857 
L 297.851023 117.648569 
L 299.150941 118.784613 
L 300.450859 119.644594 
L 301.750777 120.209275 
L 302.725716 120.431695 
L 303.700654 120.479323 
L 304.675593 120.352752 
L 305.975511 119.918831 
L 307.275429 119.1955 
L 308.575347 118.204612 
L 310.200245 116.633985 
L 312.150122 114.354611 
L 314.749958 110.877699 
L 319.949631 103.790702 
L 321.899508 101.535945 
L 323.524405 99.965329 
L 325.149303 98.729641 
L 326.449221 98.006682 
L 327.749139 97.532225 
L 329.049057 97.310956 
L 330.348975 97.341356 
L 331.648894 97.616021 
L 332.948812 98.122128 
L 334.24873 98.841984 
L 335.873627 100.008641 
L 337.823505 101.732461 
L 340.098361 104.063887 
L 347.89787 112.394052 
L 349.847747 114.037225 
L 351.472645 115.147925 
L 353.097542 115.987743 
L 354.39746 116.448291 
L 355.697378 116.712596 
L 356.997297 116.777455 
L 358.297215 116.644053 
L 359.597133 116.31796 
L 361.22203 115.65481 
L 362.846928 114.734568 
L 364.796805 113.344147 
L 367.071662 111.429193 
L 375.19615 104.25822 
L 377.146027 102.976708 
L 378.770925 102.157503 
L 380.395822 101.594333 
L 382.02072 101.304048 
L 383.645618 101.292306 
L 385.270515 101.5536 
L 386.895413 102.071815 
L 388.52031 102.821233 
L 390.470188 103.977492 
L 392.095085 105.10717 
L 392.095085 105.10717 
" clip-path="url(#p463833f4dc)" style="fill: none; stroke: #d62728; stroke-width: 1.5; stroke-linecap: square"/>
   </g>
   <g id="patch_3">
    <path d="M 51.207813 273.312 
L 51.207813 7.2 
" style="fill: none; stroke: #000000; stroke-width: 0.8; stroke-linejoin: miter; stroke-linecap: square"/>
   </g>
   <g id="patch_4">
    <path d="M 408.327813 273.312 
L 408.327813 7.2 
" style="fill: none; stroke: #000000; stroke-width: 0.8; stroke-linejoin: miter; stroke-linecap: square"/>
   </g>
   <g id="patch_5">
    <path d="M 51.207813 273.312 
L 408.327813 273.312 
" style="fill: none; stroke: #000000; stroke-width: 0.8; stroke-linejoin: miter; stroke-linecap: square"/>
   </g>
   <g id="patch_6">
    <path d="M 51.207813 7.2 
L 408.327813 7.2 
" style="fill: none; stroke: #000000; stroke-width: 0.8; stroke-linejoin: miter; stroke-linecap: square"/>
   </g>
   <g id="legend_1">
    <g id="patch_7">
     <path d="M 330.279375 75.025 
L 401.327813 75.025 
Q 403.327813 75.025 403.327813 73.025 
L 403.327813 14.2 
Q 403.327813 12.2 401.327813 12.2 
L 330.279375 12.2 
Q 328.279375 12.2 328.279375 14.2 
L 328.279375 73.025 
Q 328.279375 75.025 330.279375 75.025 
z
" style="fill: #ffffff; opacity: 0.8; stroke: #cccccc; stroke-linejoin: miter"/>
    </g>
    <g id="line2d_18">
     <path d="M 332.279375 20.298437 
L 342.279375 20.298437 
L 352.279375 20.298437 
" style="fill: none; stroke: #1f77b4; stroke-width: 1.5; stroke-linecap: square"/>
    </g>
    <g id="text_14">
     <!-- v_pss_1 -->
     <g transform="translate(360.279375 23.798437)scale(0.1 -0.1)">
      <defs>
       <path id="DejaVuSans-76" d="M 191 3500 
L 800 3500 
L 1894 563 
L 2988 3500 
L 3597 3500 
L 2284 0 
L 1503 0 
L 191 3500 
z
" transform="scale(0.015625)"/>
       <path id="DejaVuSans-5f" d="M 3263 -1063 
L 3263 -1509 
L -63 -1509 
L -63 -1063 
L 3263 -1063 
z
" transform="scale(0.015625)"/>
       <path id="DejaVuSans-70" d="M 1159 525 
L 1159 -1331 
L 581 -1331 
L 581 3500 
L 1159 3500 
L 1159 2969 
Q 1341 3281 1617 3432 
Q 1894 3584 2278 3584 
Q 2916 3584 3314 3078 
Q 3713 2572 3713 1747 
Q 3713 922 3314 415 
Q 2916 -91 2278 -91 
Q 1894 -91 1617 61 
Q 1341 213 1159 525 
z
M 3116 1747 
Q 3116 2381 2855 2742 
Q 2594 3103 2138 3103 
Q 1681 3103 1420 2742 
Q 1159 2381 1159 1747 
Q 1159 1113 1420 752 
Q 1681 391 2138 391 
Q 2594 391 2855 752 
Q 3116 1113 3116 1747 
z
" transform="scale(0.015625)"/>
       <path id="DejaVuSans-73" d="M 2834 3397 
L 2834 2853 
Q 2591 2978 2328 3040 
Q 2066 3103 1784 3103 
Q 1356 3103 1142 2972 
Q 928 2841 928 2578 
Q 928 2378 1081 2264 
Q 1234 2150 1697 2047 
L 1894 2003 
Q 2506 1872 2764 1633 
Q 3022 1394 3022 966 
Q 3022 478 2636 193 
Q 2250 -91 1575 -91 
Q 1294 -91 989 -36 
Q 684 19 347 128 
L 347 722 
Q 666 556 975 473 
Q 1284 391 1588 391 
Q 1994 391 2212 530 
Q 2431 669 2431 922 
Q 2431 1156 2273 1281 
Q 2116 1406 1581 1522 
L 1381 1569 
Q 847 1681 609 1914 
Q 372 2147 372 2553 
Q 372 3047 722 3315 
Q 1072 3584 1716 3584 
Q 2034 3584 2315 3537 
Q 2597 3491 2834 3397 
z
" transform="scale(0.015625)"/>
      </defs>
      <use xlink:href="#DejaVuSans-76"/>
      <use xlink:href="#DejaVuSans-5f" x="59.179688"/>
      <use xlink:href="#DejaVuSans-70" x="109.179688"/>
      <use xlink:href="#DejaVuSans-73" x="172.65625"/>
      <use xlink:href="#DejaVuSans-73" x="224.755859"/>
      <use xlink:href="#DejaVuSans-5f" x="276.855469"/>
      <use xlink:href="#DejaVuSans-31" x="326.855469"/>
     </g>
    </g>
    <g id="line2d_19">
     <path d="M 332.279375 35.254687 
L 342.279375 35.254687 
L 352.279375 35.254687 
" style="fill: none; stroke: #ff7f0e; stroke-width: 1.5; stroke-linecap: square"/>
    </g>
    <g id="text_15">
     <!-- v_pss_2 -->
     <g transform="translate(360.279375 38.754687)scale(0.1 -0.1)">
      <use xlink:href="#DejaVuSans-76"/>
      <use xlink:href="#DejaVuSans-5f" x="59.179688"/>
      <use xlink:href="#DejaVuSans-70" x="109.179688"/>
      <use xlink:href="#DejaVuSans-73" x="172.65625"/>
      <use xlink:href="#DejaVuSans-73" x="224.755859"/>
      <use xlink:href="#DejaVuSans-5f" x="276.855469"/>
      <use xlink:href="#DejaVuSans-32" x="326.855469"/>
     </g>
    </g>
    <g id="line2d_20">
     <path d="M 332.279375 50.210937 
L 342.279375 50.210937 
L 352.279375 50.210937 
" style="fill: none; stroke: #2ca02c; stroke-width: 1.5; stroke-linecap: square"/>
    </g>
    <g id="text_16">
     <!-- v_pss_3 -->
     <g transform="translate(360.279375 53.710937)scale(0.1 -0.1)">
      <defs>
       <path id="DejaVuSans-33" d="M 2597 2516 
Q 3050 2419 3304 2112 
Q 3559 1806 3559 1356 
Q 3559 666 3084 287 
Q 2609 -91 1734 -91 
Q 1441 -91 1130 -33 
Q 819 25 488 141 
L 488 750 
Q 750 597 1062 519 
Q 1375 441 1716 441 
Q 2309 441 2620 675 
Q 2931 909 2931 1356 
Q 2931 1769 2642 2001 
Q 2353 2234 1838 2234 
L 1294 2234 
L 1294 2753 
L 1863 2753 
Q 2328 2753 2575 2939 
Q 2822 3125 2822 3475 
Q 2822 3834 2567 4026 
Q 2313 4219 1838 4219 
Q 1578 4219 1281 4162 
Q 984 4106 628 3988 
L 628 4550 
Q 988 4650 1302 4700 
Q 1616 4750 1894 4750 
Q 2613 4750 3031 4423 
Q 3450 4097 3450 3541 
Q 3450 3153 3228 2886 
Q 3006 2619 2597 2516 
z
" transform="scale(0.015625)"/>
      </defs>
      <use xlink:href="#DejaVuSans-76"/>
      <use xlink:href="#DejaVuSans-5f" x="59.179688"/>
      <use xlink:href="#DejaVuSans-70" x="109.179688"/>
      <use xlink:href="#DejaVuSans-73" x="172.65625"/>
      <use xlink:href="#DejaVuSans-73" x="224.755859"/>
      <use xlink:href="#DejaVuSans-5f" x="276.855469"/>
      <use xlink:href="#DejaVuSans-33" x="326.855469"/>
     </g>
    </g>
    <g id="line2d_21">
     <path d="M 332.279375 65.167187 
L 342.279375 65.167187 
L 352.279375 65.167187 
" style="fill: none; stroke: #d62728; stroke-width: 1.5; stroke-linecap: square"/>
    </g>
    <g id="text_17">
     <!-- v_pss_4 -->
     <g transform="translate(360.279375 68.667187)scale(0.1 -0.1)">
      <use xlink:href="#DejaVuSans-76"/>
      <use xlink:href="#DejaVuSans-5f" x="59.179688"/>
      <use xlink:href="#DejaVuSans-70" x="109.179688"/>
      <use xlink:href="#DejaVuSans-73" x="172.65625"/>
      <use xlink:href="#DejaVuSans-73" x="224.755859"/>
      <use xlink:href="#DejaVuSans-5f" x="276.855469"/>
      <use xlink:href="#DejaVuSans-34" x="326.855469"/>
     </g>
    </g>
   </g>
  </g>
 </g>
 <defs>
  <clipPath id="p463833f4dc">
   <rect x="51.207813" y="7.2" width="357.12" height="266.112"/>
  </clipPath>
 </defs>
</svg>
