<?xml version="1.0" encoding="utf-8" standalone="no"?>
<!DOCTYPE svg PUBLIC "-//W3C//DTD SVG 1.1//EN"
  "http://www.w3.org/Graphics/SVG/1.1/DTD/svg11.dtd">
<!-- Created with matplotlib (https://matplotlib.org/) -->
<svg height="297.190125pt" version="1.1" viewBox="0 0 413.510625 297.190125" width="413.510625pt" xmlns="http://www.w3.org/2000/svg" xmlns:xlink="http://www.w3.org/1999/xlink">
 <metadata>
  <rdf:RDF xmlns:cc="http://creativecommons.org/ns#" xmlns:dc="http://purl.org/dc/elements/1.1/" xmlns:rdf="http://www.w3.org/1999/02/22-rdf-syntax-ns#">
   <cc:Work>
    <dc:type rdf:resource="http://purl.org/dc/dcmitype/StillImage"/>
    <dc:date>2021-08-25T20:48:07.413714</dc:date>
    <dc:format>image/svg+xml</dc:format>
    <dc:creator>
     <cc:Agent>
      <dc:title>Matplotlib v3.3.4, https://matplotlib.org/</dc:title>
     </cc:Agent>
    </dc:creator>
   </cc:Work>
  </rdf:RDF>
 </metadata>
 <defs>
  <style type="text/css">*{stroke-linecap:butt;stroke-linejoin:round;}</style>
 </defs>
 <g id="figure_1">
  <g id="patch_1">
   <path d="M 0 297.190125 
L 413.510625 297.190125 
L 413.510625 0 
L 0 0 
z
" style="fill:#ffffff;"/>
  </g>
  <g id="axes_1">
   <g id="patch_2">
    <path d="M 49.190625 273.312 
L 406.310625 273.312 
L 406.310625 7.2 
L 49.190625 7.2 
z
" style="fill:#ffffff;"/>
   </g>
   <g id="matplotlib.axis_1">
    <g id="xtick_1">
     <g id="line2d_1">
      <defs>
       <path d="M 0 0 
L 0 3.5 
" id="mb4a475c9fe" style="stroke:#000000;stroke-width:0.8;"/>
      </defs>
      <g>
       <use style="stroke:#000000;stroke-width:0.8;" x="65.423352" xlink:href="#mb4a475c9fe" y="273.312"/>
      </g>
     </g>
     <g id="text_1">
      <!-- 0 -->
      <g transform="translate(62.242102 287.910438)scale(0.1 -0.1)">
       <defs>
        <path d="M 31.78125 66.40625 
Q 24.171875 66.40625 20.328125 58.90625 
Q 16.5 51.421875 16.5 36.375 
Q 16.5 21.390625 20.328125 13.890625 
Q 24.171875 6.390625 31.78125 6.390625 
Q 39.453125 6.390625 43.28125 13.890625 
Q 47.125 21.390625 47.125 36.375 
Q 47.125 51.421875 43.28125 58.90625 
Q 39.453125 66.40625 31.78125 66.40625 
z
M 31.78125 74.21875 
Q 44.046875 74.21875 50.515625 64.515625 
Q 56.984375 54.828125 56.984375 36.375 
Q 56.984375 17.96875 50.515625 8.265625 
Q 44.046875 -1.421875 31.78125 -1.421875 
Q 19.53125 -1.421875 13.0625 8.265625 
Q 6.59375 17.96875 6.59375 36.375 
Q 6.59375 54.828125 13.0625 64.515625 
Q 19.53125 74.21875 31.78125 74.21875 
z
" id="DejaVuSans-48"/>
       </defs>
       <use xlink:href="#DejaVuSans-48"/>
      </g>
     </g>
    </g>
    <g id="xtick_2">
     <g id="line2d_2">
      <g>
       <use style="stroke:#000000;stroke-width:0.8;" x="108.710625" xlink:href="#mb4a475c9fe" y="273.312"/>
      </g>
     </g>
     <g id="text_2">
      <!-- 2 -->
      <g transform="translate(105.529375 287.910438)scale(0.1 -0.1)">
       <defs>
        <path d="M 19.1875 8.296875 
L 53.609375 8.296875 
L 53.609375 0 
L 7.328125 0 
L 7.328125 8.296875 
Q 12.9375 14.109375 22.625 23.890625 
Q 32.328125 33.6875 34.8125 36.53125 
Q 39.546875 41.84375 41.421875 45.53125 
Q 43.3125 49.21875 43.3125 52.78125 
Q 43.3125 58.59375 39.234375 62.25 
Q 35.15625 65.921875 28.609375 65.921875 
Q 23.96875 65.921875 18.8125 64.3125 
Q 13.671875 62.703125 7.8125 59.421875 
L 7.8125 69.390625 
Q 13.765625 71.78125 18.9375 73 
Q 24.125 74.21875 28.421875 74.21875 
Q 39.75 74.21875 46.484375 68.546875 
Q 53.21875 62.890625 53.21875 53.421875 
Q 53.21875 48.921875 51.53125 44.890625 
Q 49.859375 40.875 45.40625 35.40625 
Q 44.1875 33.984375 37.640625 27.21875 
Q 31.109375 20.453125 19.1875 8.296875 
z
" id="DejaVuSans-50"/>
       </defs>
       <use xlink:href="#DejaVuSans-50"/>
      </g>
     </g>
    </g>
    <g id="xtick_3">
     <g id="line2d_3">
      <g>
       <use style="stroke:#000000;stroke-width:0.8;" x="151.997898" xlink:href="#mb4a475c9fe" y="273.312"/>
      </g>
     </g>
     <g id="text_3">
      <!-- 4 -->
      <g transform="translate(148.816648 287.910438)scale(0.1 -0.1)">
       <defs>
        <path d="M 37.796875 64.3125 
L 12.890625 25.390625 
L 37.796875 25.390625 
z
M 35.203125 72.90625 
L 47.609375 72.90625 
L 47.609375 25.390625 
L 58.015625 25.390625 
L 58.015625 17.1875 
L 47.609375 17.1875 
L 47.609375 0 
L 37.796875 0 
L 37.796875 17.1875 
L 4.890625 17.1875 
L 4.890625 26.703125 
z
" id="DejaVuSans-52"/>
       </defs>
       <use xlink:href="#DejaVuSans-52"/>
      </g>
     </g>
    </g>
    <g id="xtick_4">
     <g id="line2d_4">
      <g>
       <use style="stroke:#000000;stroke-width:0.8;" x="195.28517" xlink:href="#mb4a475c9fe" y="273.312"/>
      </g>
     </g>
     <g id="text_4">
      <!-- 6 -->
      <g transform="translate(192.10392 287.910438)scale(0.1 -0.1)">
       <defs>
        <path d="M 33.015625 40.375 
Q 26.375 40.375 22.484375 35.828125 
Q 18.609375 31.296875 18.609375 23.390625 
Q 18.609375 15.53125 22.484375 10.953125 
Q 26.375 6.390625 33.015625 6.390625 
Q 39.65625 6.390625 43.53125 10.953125 
Q 47.40625 15.53125 47.40625 23.390625 
Q 47.40625 31.296875 43.53125 35.828125 
Q 39.65625 40.375 33.015625 40.375 
z
M 52.59375 71.296875 
L 52.59375 62.3125 
Q 48.875 64.0625 45.09375 64.984375 
Q 41.3125 65.921875 37.59375 65.921875 
Q 27.828125 65.921875 22.671875 59.328125 
Q 17.53125 52.734375 16.796875 39.40625 
Q 19.671875 43.65625 24.015625 45.921875 
Q 28.375 48.1875 33.59375 48.1875 
Q 44.578125 48.1875 50.953125 41.515625 
Q 57.328125 34.859375 57.328125 23.390625 
Q 57.328125 12.15625 50.6875 5.359375 
Q 44.046875 -1.421875 33.015625 -1.421875 
Q 20.359375 -1.421875 13.671875 8.265625 
Q 6.984375 17.96875 6.984375 36.375 
Q 6.984375 53.65625 15.1875 63.9375 
Q 23.390625 74.21875 37.203125 74.21875 
Q 40.921875 74.21875 44.703125 73.484375 
Q 48.484375 72.75 52.59375 71.296875 
z
" id="DejaVuSans-54"/>
       </defs>
       <use xlink:href="#DejaVuSans-54"/>
      </g>
     </g>
    </g>
    <g id="xtick_5">
     <g id="line2d_5">
      <g>
       <use style="stroke:#000000;stroke-width:0.8;" x="238.572443" xlink:href="#mb4a475c9fe" y="273.312"/>
      </g>
     </g>
     <g id="text_5">
      <!-- 8 -->
      <g transform="translate(235.391193 287.910438)scale(0.1 -0.1)">
       <defs>
        <path d="M 31.78125 34.625 
Q 24.75 34.625 20.71875 30.859375 
Q 16.703125 27.09375 16.703125 20.515625 
Q 16.703125 13.921875 20.71875 10.15625 
Q 24.75 6.390625 31.78125 6.390625 
Q 38.8125 6.390625 42.859375 10.171875 
Q 46.921875 13.96875 46.921875 20.515625 
Q 46.921875 27.09375 42.890625 30.859375 
Q 38.875 34.625 31.78125 34.625 
z
M 21.921875 38.8125 
Q 15.578125 40.375 12.03125 44.71875 
Q 8.5 49.078125 8.5 55.328125 
Q 8.5 64.0625 14.71875 69.140625 
Q 20.953125 74.21875 31.78125 74.21875 
Q 42.671875 74.21875 48.875 69.140625 
Q 55.078125 64.0625 55.078125 55.328125 
Q 55.078125 49.078125 51.53125 44.71875 
Q 48 40.375 41.703125 38.8125 
Q 48.828125 37.15625 52.796875 32.3125 
Q 56.78125 27.484375 56.78125 20.515625 
Q 56.78125 9.90625 50.3125 4.234375 
Q 43.84375 -1.421875 31.78125 -1.421875 
Q 19.734375 -1.421875 13.25 4.234375 
Q 6.78125 9.90625 6.78125 20.515625 
Q 6.78125 27.484375 10.78125 32.3125 
Q 14.796875 37.15625 21.921875 38.8125 
z
M 18.3125 54.390625 
Q 18.3125 48.734375 21.84375 45.5625 
Q 25.390625 42.390625 31.78125 42.390625 
Q 38.140625 42.390625 41.71875 45.5625 
Q 45.3125 48.734375 45.3125 54.390625 
Q 45.3125 60.0625 41.71875 63.234375 
Q 38.140625 66.40625 31.78125 66.40625 
Q 25.390625 66.40625 21.84375 63.234375 
Q 18.3125 60.0625 18.3125 54.390625 
z
" id="DejaVuSans-56"/>
       </defs>
       <use xlink:href="#DejaVuSans-56"/>
      </g>
     </g>
    </g>
    <g id="xtick_6">
     <g id="line2d_6">
      <g>
       <use style="stroke:#000000;stroke-width:0.8;" x="281.859716" xlink:href="#mb4a475c9fe" y="273.312"/>
      </g>
     </g>
     <g id="text_6">
      <!-- 10 -->
      <g transform="translate(275.497216 287.910438)scale(0.1 -0.1)">
       <defs>
        <path d="M 12.40625 8.296875 
L 28.515625 8.296875 
L 28.515625 63.921875 
L 10.984375 60.40625 
L 10.984375 69.390625 
L 28.421875 72.90625 
L 38.28125 72.90625 
L 38.28125 8.296875 
L 54.390625 8.296875 
L 54.390625 0 
L 12.40625 0 
z
" id="DejaVuSans-49"/>
       </defs>
       <use xlink:href="#DejaVuSans-49"/>
       <use x="63.623047" xlink:href="#DejaVuSans-48"/>
      </g>
     </g>
    </g>
    <g id="xtick_7">
     <g id="line2d_7">
      <g>
       <use style="stroke:#000000;stroke-width:0.8;" x="325.146989" xlink:href="#mb4a475c9fe" y="273.312"/>
      </g>
     </g>
     <g id="text_7">
      <!-- 12 -->
      <g transform="translate(318.784489 287.910438)scale(0.1 -0.1)">
       <use xlink:href="#DejaVuSans-49"/>
       <use x="63.623047" xlink:href="#DejaVuSans-50"/>
      </g>
     </g>
    </g>
    <g id="xtick_8">
     <g id="line2d_8">
      <g>
       <use style="stroke:#000000;stroke-width:0.8;" x="368.434261" xlink:href="#mb4a475c9fe" y="273.312"/>
      </g>
     </g>
     <g id="text_8">
      <!-- 14 -->
      <g transform="translate(362.071761 287.910438)scale(0.1 -0.1)">
       <use xlink:href="#DejaVuSans-49"/>
       <use x="63.623047" xlink:href="#DejaVuSans-52"/>
      </g>
     </g>
    </g>
   </g>
   <g id="matplotlib.axis_2">
    <g id="ytick_1">
     <g id="line2d_9">
      <defs>
       <path d="M 0 0 
L -3.5 0 
" id="md6c657333e" style="stroke:#000000;stroke-width:0.8;"/>
      </defs>
      <g>
       <use style="stroke:#000000;stroke-width:0.8;" x="49.190625" xlink:href="#md6c657333e" y="224.584565"/>
      </g>
     </g>
     <g id="text_9">
      <!-- 0.9990 -->
      <g transform="translate(7.2 228.383783)scale(0.1 -0.1)">
       <defs>
        <path d="M 10.6875 12.40625 
L 21 12.40625 
L 21 0 
L 10.6875 0 
z
" id="DejaVuSans-46"/>
        <path d="M 10.984375 1.515625 
L 10.984375 10.5 
Q 14.703125 8.734375 18.5 7.8125 
Q 22.3125 6.890625 25.984375 6.890625 
Q 35.75 6.890625 40.890625 13.453125 
Q 46.046875 20.015625 46.78125 33.40625 
Q 43.953125 29.203125 39.59375 26.953125 
Q 35.25 24.703125 29.984375 24.703125 
Q 19.046875 24.703125 12.671875 31.3125 
Q 6.296875 37.9375 6.296875 49.421875 
Q 6.296875 60.640625 12.9375 67.421875 
Q 19.578125 74.21875 30.609375 74.21875 
Q 43.265625 74.21875 49.921875 64.515625 
Q 56.59375 54.828125 56.59375 36.375 
Q 56.59375 19.140625 48.40625 8.859375 
Q 40.234375 -1.421875 26.421875 -1.421875 
Q 22.703125 -1.421875 18.890625 -0.6875 
Q 15.09375 0.046875 10.984375 1.515625 
z
M 30.609375 32.421875 
Q 37.25 32.421875 41.125 36.953125 
Q 45.015625 41.5 45.015625 49.421875 
Q 45.015625 57.28125 41.125 61.84375 
Q 37.25 66.40625 30.609375 66.40625 
Q 23.96875 66.40625 20.09375 61.84375 
Q 16.21875 57.28125 16.21875 49.421875 
Q 16.21875 41.5 20.09375 36.953125 
Q 23.96875 32.421875 30.609375 32.421875 
z
" id="DejaVuSans-57"/>
       </defs>
       <use xlink:href="#DejaVuSans-48"/>
       <use x="63.623047" xlink:href="#DejaVuSans-46"/>
       <use x="95.410156" xlink:href="#DejaVuSans-57"/>
       <use x="159.033203" xlink:href="#DejaVuSans-57"/>
       <use x="222.65625" xlink:href="#DejaVuSans-57"/>
       <use x="286.279297" xlink:href="#DejaVuSans-48"/>
      </g>
     </g>
    </g>
    <g id="ytick_2">
     <g id="line2d_10">
      <g>
       <use style="stroke:#000000;stroke-width:0.8;" x="49.190625" xlink:href="#md6c657333e" y="169.275081"/>
      </g>
     </g>
     <g id="text_10">
      <!-- 0.9995 -->
      <g transform="translate(7.2 173.0743)scale(0.1 -0.1)">
       <defs>
        <path d="M 10.796875 72.90625 
L 49.515625 72.90625 
L 49.515625 64.59375 
L 19.828125 64.59375 
L 19.828125 46.734375 
Q 21.96875 47.46875 24.109375 47.828125 
Q 26.265625 48.1875 28.421875 48.1875 
Q 40.625 48.1875 47.75 41.5 
Q 54.890625 34.8125 54.890625 23.390625 
Q 54.890625 11.625 47.5625 5.09375 
Q 40.234375 -1.421875 26.90625 -1.421875 
Q 22.3125 -1.421875 17.546875 -0.640625 
Q 12.796875 0.140625 7.71875 1.703125 
L 7.71875 11.625 
Q 12.109375 9.234375 16.796875 8.0625 
Q 21.484375 6.890625 26.703125 6.890625 
Q 35.15625 6.890625 40.078125 11.328125 
Q 45.015625 15.765625 45.015625 23.390625 
Q 45.015625 31 40.078125 35.4375 
Q 35.15625 39.890625 26.703125 39.890625 
Q 22.75 39.890625 18.8125 39.015625 
Q 14.890625 38.140625 10.796875 36.28125 
z
" id="DejaVuSans-53"/>
       </defs>
       <use xlink:href="#DejaVuSans-48"/>
       <use x="63.623047" xlink:href="#DejaVuSans-46"/>
       <use x="95.410156" xlink:href="#DejaVuSans-57"/>
       <use x="159.033203" xlink:href="#DejaVuSans-57"/>
       <use x="222.65625" xlink:href="#DejaVuSans-57"/>
       <use x="286.279297" xlink:href="#DejaVuSans-53"/>
      </g>
     </g>
    </g>
    <g id="ytick_3">
     <g id="line2d_11">
      <g>
       <use style="stroke:#000000;stroke-width:0.8;" x="49.190625" xlink:href="#md6c657333e" y="113.965598"/>
      </g>
     </g>
     <g id="text_11">
      <!-- 1.0000 -->
      <g transform="translate(7.2 117.764817)scale(0.1 -0.1)">
       <use xlink:href="#DejaVuSans-49"/>
       <use x="63.623047" xlink:href="#DejaVuSans-46"/>
       <use x="95.410156" xlink:href="#DejaVuSans-48"/>
       <use x="159.033203" xlink:href="#DejaVuSans-48"/>
       <use x="222.65625" xlink:href="#DejaVuSans-48"/>
       <use x="286.279297" xlink:href="#DejaVuSans-48"/>
      </g>
     </g>
    </g>
    <g id="ytick_4">
     <g id="line2d_12">
      <g>
       <use style="stroke:#000000;stroke-width:0.8;" x="49.190625" xlink:href="#md6c657333e" y="58.656115"/>
      </g>
     </g>
     <g id="text_12">
      <!-- 1.0005 -->
      <g transform="translate(7.2 62.455334)scale(0.1 -0.1)">
       <use xlink:href="#DejaVuSans-49"/>
       <use x="63.623047" xlink:href="#DejaVuSans-46"/>
       <use x="95.410156" xlink:href="#DejaVuSans-48"/>
       <use x="159.033203" xlink:href="#DejaVuSans-48"/>
       <use x="222.65625" xlink:href="#DejaVuSans-48"/>
       <use x="286.279297" xlink:href="#DejaVuSans-53"/>
      </g>
     </g>
    </g>
   </g>
   <g id="line2d_13">
    <path clip-path="url(#pa90b9328d2)" d="M 65.423352 113.850975 
L 87.066989 113.850975 
L 87.283425 114.121974 
L 87.499861 115.192044 
L 87.932734 120.29862 
L 88.365607 128.679904 
L 89.231352 151.713134 
L 91.828589 227.353973 
L 92.694334 245.183348 
L 93.343643 254.440859 
L 93.776516 258.471026 
L 94.209389 260.73252 
L 94.425825 261.195826 
L 94.642261 261.216 
L 94.858698 260.796844 
L 95.29157 258.664973 
L 95.724443 254.866471 
L 96.373752 246.251955 
L 97.023061 234.506193 
L 97.888807 214.847853 
L 99.187425 179.615781 
L 102.001098 101.142246 
L 103.08328 77.344927 
L 103.949025 62.703626 
L 104.598334 54.581476 
L 105.247643 48.986182 
L 105.680516 46.647817 
L 106.113389 45.389403 
L 106.329825 45.151202 
L 106.546261 45.16437 
L 106.762698 45.420856 
L 107.19557 46.62763 
L 107.628443 48.692076 
L 108.277752 53.198443 
L 109.143498 61.307281 
L 110.442116 76.194942 
L 112.390043 98.836044 
L 113.472225 108.811428 
L 114.33797 114.52122 
L 114.98728 117.270058 
L 115.420152 118.337793 
L 115.853025 118.791837 
L 116.069461 118.791978 
L 116.285898 118.644042 
L 116.71877 117.917618 
L 117.151643 116.646444 
L 117.800952 113.816243 
L 118.666698 108.614207 
L 119.965316 98.855409 
L 121.913243 83.898569 
L 122.778989 78.669934 
L 123.428298 75.771767 
L 124.077607 73.933758 
L 124.51048 73.358157 
L 124.726916 73.275175 
L 124.943352 73.331779 
L 125.376225 73.869304 
L 125.809098 74.975876 
L 126.24197 76.647133 
L 126.89128 80.180392 
L 127.757025 86.665896 
L 128.839207 97.165972 
L 130.354261 114.773662 
L 132.735061 142.91994 
L 133.817243 153.319853 
L 134.682989 159.707019 
L 135.332298 163.154341 
L 135.981607 165.345916 
L 136.41448 166.081745 
L 136.630916 166.229143 
L 136.847352 166.229343 
L 137.063789 166.082798 
L 137.496661 165.353622 
L 137.929534 164.054437 
L 138.578843 161.082041 
L 139.228152 156.967182 
L 140.093898 149.919472 
L 141.17608 139.111185 
L 142.90757 119.122668 
L 145.28837 91.82121 
L 146.586989 79.483092 
L 147.66917 71.398634 
L 148.534916 66.565137 
L 149.184225 63.927654 
L 149.833534 62.129305 
L 150.266407 61.382942 
L 150.69928 60.98367 
L 151.132152 60.915028 
L 151.565025 61.157758 
L 151.997898 61.690233 
L 152.647207 62.980285 
L 153.296516 64.783708 
L 154.162261 67.832389 
L 155.46088 73.357054 
L 160.438916 95.725151 
L 162.170407 102.032172 
L 164.551207 109.715541 
L 168.447061 122.236524 
L 171.260734 131.23942 
L 172.559352 134.639168 
L 173.425098 136.377625 
L 174.074407 137.322844 
L 174.723716 137.910886 
L 175.156589 138.084723 
L 175.589461 138.072007 
L 176.022334 137.864127 
L 176.455207 137.454158 
L 177.104516 136.449665 
L 177.753825 134.970583 
L 178.61957 132.264582 
L 179.485316 128.75275 
L 180.567498 123.335597 
L 181.866116 115.601672 
L 184.03048 100.981193 
L 186.41128 85.158376 
L 187.709898 77.855309 
L 188.79208 72.936671 
L 189.657825 69.915762 
L 190.307134 68.232835 
L 190.956443 67.071853 
L 191.389316 66.593124 
L 191.822189 66.351603 
L 192.255061 66.346119 
L 192.687934 66.573758 
L 193.120807 67.029948 
L 193.770116 68.128919 
L 194.419425 69.70115 
L 195.28517 72.475178 
L 196.367352 76.897078 
L 197.66597 83.320683 
L 199.397461 93.122895 
L 203.726189 118.108087 
L 205.241243 125.363236 
L 206.539861 130.504441 
L 207.622043 133.916715 
L 208.487789 136.032752 
L 209.353534 137.580865 
L 210.002843 138.361397 
L 210.652152 138.812506 
L 211.301461 138.933589 
L 211.95077 138.726129 
L 212.60008 138.193705 
L 213.249389 137.342027 
L 214.115134 135.723842 
L 214.98088 133.577565 
L 216.063061 130.202818 
L 217.36168 125.248957 
L 218.876734 118.454645 
L 221.041098 107.548692 
L 224.287643 91.140261 
L 225.802698 84.617471 
L 226.88488 80.764057 
L 227.967061 77.744724 
L 228.832807 76.008544 
L 229.482116 75.133322 
L 230.131425 74.639773 
L 230.564298 74.527438 
L 230.99717 74.590299 
L 231.430043 74.828811 
L 232.079352 75.514445 
L 232.728661 76.587712 
L 233.594407 78.601731 
L 234.460152 81.244548 
L 235.542334 85.347964 
L 236.840952 91.262847 
L 238.572443 100.354722 
L 243.334043 126.272363 
L 244.632661 132.004675 
L 245.714843 135.940512 
L 246.580589 138.450783 
L 247.446334 140.342364 
L 248.095643 141.334839 
L 248.744952 141.952068 
L 249.394261 142.19003 
L 249.827134 142.138026 
L 250.260007 141.918828 
L 250.909316 141.281376 
L 251.558625 140.283284 
L 252.42437 138.41741 
L 253.290116 135.982122 
L 254.372298 132.223641 
L 255.670916 126.840146 
L 257.402407 118.612107 
L 262.380443 94.224535 
L 263.679061 89.105106 
L 264.761243 85.587862 
L 265.626989 83.342088 
L 266.492734 81.64866 
L 267.142043 80.761066 
L 267.791352 80.212347 
L 268.440661 80.00852 
L 268.873534 80.065548 
L 269.522843 80.439904 
L 270.172152 81.15715 
L 270.821461 82.209776 
L 271.687207 84.115249 
L 272.552952 86.56076 
L 273.635134 90.305247 
L 274.933752 95.656255 
L 276.665243 103.856836 
L 281.859716 129.413284 
L 283.158334 134.491518 
L 284.240516 137.937624 
L 285.106261 140.098166 
L 285.972007 141.679419 
L 286.621316 142.465179 
L 287.270625 142.897639 
L 287.703498 142.987193 
L 288.13637 142.917261 
L 288.78568 142.51477 
L 289.434989 141.760359 
L 290.084298 140.663778 
L 290.950043 138.693997 
L 291.815789 136.184859 
L 292.89797 132.375115 
L 294.196589 126.990122 
L 296.144516 117.803978 
L 300.04037 99.096058 
L 301.555425 93.028151 
L 302.637607 89.455343 
L 303.719789 86.642139 
L 304.585534 84.995102 
L 305.234843 84.132489 
L 305.884152 83.598972 
L 306.533461 83.399251 
L 306.966334 83.452187 
L 307.615643 83.809175 
L 308.264952 84.494458 
L 308.914261 85.499384 
L 309.780007 87.315148 
L 310.645752 89.639676 
L 311.727934 93.188001 
L 313.026552 98.239437 
L 314.758043 105.944786 
L 319.73608 128.885986 
L 321.034698 133.726419 
L 322.11688 137.051281 
L 322.982625 139.169245 
L 323.84837 140.757623 
L 324.49768 141.581186 
L 325.146989 142.078524 
L 325.796298 142.243812 
L 326.445607 142.075114 
L 327.094916 141.574433 
L 327.744225 140.747702 
L 328.60997 139.155703 
L 329.475716 137.035516 
L 330.557898 133.711697 
L 331.856516 128.88275 
L 333.588007 121.400487 
L 338.998916 97.089377 
L 340.297534 92.557694 
L 341.379716 89.51613 
L 342.245461 87.631439 
L 343.111207 86.273328 
L 343.760516 85.615429 
L 344.409825 85.273875 
L 345.059134 85.251248 
L 345.708443 85.546549 
L 346.357752 86.15524 
L 347.007061 87.069323 
L 347.872807 88.743085 
L 348.738552 90.903569 
L 349.820734 94.219229 
L 351.119352 98.957418 
L 352.850843 106.203059 
L 357.82888 127.789661 
L 359.127498 132.33268 
L 360.20968 135.446042 
L 361.075425 137.423321 
L 361.94117 138.89947 
L 362.59048 139.658937 
L 363.239789 140.11023 
L 363.889098 140.248044 
L 364.538407 140.07073 
L 365.187716 139.580332 
L 365.837025 138.782571 
L 366.70277 137.257429 
L 367.568516 135.234673 
L 368.650698 132.071681 
L 369.949316 127.484202 
L 371.680807 120.382871 
L 377.091716 97.284734 
L 378.390334 92.960049 
L 379.472516 90.046877 
L 380.338261 88.232775 
L 381.204007 86.915049 
L 381.853316 86.267112 
L 382.502625 85.917974 
L 383.151934 85.870335 
L 383.801243 86.123508 
L 384.450552 86.673456 
L 385.099861 87.512861 
L 385.965607 89.063743 
L 386.831352 91.076946 
L 387.913534 94.178535 
L 389.212152 98.624302 
L 390.077898 101.932979 
L 390.077898 101.932979 
" style="fill:none;stroke:#1f77b4;stroke-linecap:square;stroke-width:1.5;"/>
   </g>
   <g id="line2d_14">
    <path clip-path="url(#pa90b9328d2)" d="M 65.423352 113.917559 
L 87.066989 113.917559 
L 87.283425 113.756906 
L 87.499861 113.119711 
L 87.932734 110.030849 
L 88.365607 104.809711 
L 89.014916 93.932092 
L 90.313534 66.797758 
L 91.612152 41.105558 
L 92.477898 28.486145 
L 93.127207 22.379855 
L 93.56008 20.09476 
L 93.776516 19.508107 
L 93.992952 19.296 
L 94.209389 19.458844 
L 94.425825 19.99508 
L 94.858698 22.172067 
L 95.29157 25.777841 
L 95.94088 33.692761 
L 96.806625 48.343218 
L 97.888807 71.632452 
L 101.568225 156.848646 
L 102.43397 170.631104 
L 103.08328 178.066225 
L 103.732589 182.764059 
L 104.165461 184.317097 
L 104.381898 184.615911 
L 104.598334 184.597531 
L 104.81477 184.264522 
L 105.247643 182.671102 
L 105.680516 179.880546 
L 106.329825 173.592478 
L 106.979134 165.036953 
L 107.84488 150.715306 
L 109.143498 125.005294 
L 111.95717 67.830146 
L 113.039352 50.881261 
L 113.905098 40.897276 
L 114.554407 35.791448 
L 114.98728 33.582097 
L 115.420152 32.342987 
L 115.636589 32.086784 
L 115.853025 32.07083 
L 116.069461 32.292586 
L 116.502334 33.435007 
L 116.935207 35.477807 
L 117.584516 40.121985 
L 118.233825 46.474208 
L 119.09957 57.157846 
L 120.398189 76.485022 
L 123.644734 126.503832 
L 124.726916 139.122853 
L 125.592661 146.686907 
L 126.24197 150.734449 
L 126.89128 153.352939 
L 127.324152 154.31315 
L 127.757025 154.664284 
L 127.973461 154.619269 
L 128.406334 154.10797 
L 128.839207 153.066645 
L 129.488516 150.607387 
L 130.137825 147.222771 
L 131.220007 140.040442 
L 133.38437 123.225857 
L 134.899425 112.480353 
L 135.981607 106.459575 
L 136.847352 102.918059 
L 137.496661 101.052462 
L 138.14597 99.855384 
L 138.578843 99.410679 
L 139.011716 99.228641 
L 139.444589 99.2871 
L 139.877461 99.560041 
L 140.52677 100.306937 
L 141.392516 101.761 
L 143.989752 106.6351 
L 144.639061 107.399112 
L 145.28837 107.806306 
L 145.721243 107.850481 
L 146.154116 107.698445 
L 146.586989 107.342683 
L 147.236298 106.421332 
L 147.885607 105.043067 
L 148.751352 102.547012 
L 149.833534 98.548749 
L 151.565025 90.982247 
L 153.296516 83.585932 
L 154.378698 79.892777 
L 155.244443 77.786386 
L 155.893752 76.808969 
L 156.326625 76.472973 
L 156.759498 76.402071 
L 157.19237 76.603134 
L 157.625243 77.07945 
L 158.274552 78.308341 
L 158.923861 80.138891 
L 159.789607 83.45531 
L 160.871789 88.826584 
L 162.170407 96.617832 
L 166.499134 123.957929 
L 167.581316 128.971003 
L 168.447061 132.019324 
L 169.09637 133.688737 
L 169.74568 134.809212 
L 170.178552 135.249118 
L 170.611425 135.445748 
L 171.044298 135.403975 
L 171.47717 135.131012 
L 171.910043 134.636235 
L 172.559352 133.503438 
L 173.425098 131.336329 
L 174.290843 128.535049 
L 175.589461 123.451061 
L 177.970261 112.843881 
L 180.134625 103.593741 
L 181.64968 98.096514 
L 182.948298 94.226928 
L 184.03048 91.622931 
L 185.112661 89.56297 
L 186.194843 88.005737 
L 187.060589 87.088052 
L 187.926334 86.434215 
L 188.79208 86.022086 
L 189.657825 85.835058 
L 190.52357 85.863279 
L 191.389316 86.104013 
L 192.255061 86.561154 
L 193.120807 87.243982 
L 194.202989 88.434544 
L 195.28517 90.024781 
L 196.367352 92.03665 
L 197.66597 95.018867 
L 198.964589 98.596914 
L 200.479643 103.418207 
L 203.07688 112.620779 
L 205.241243 120.075653 
L 206.539861 123.902823 
L 207.622043 126.489144 
L 208.487789 128.069452 
L 209.353534 129.157204 
L 210.002843 129.62586 
L 210.652152 129.784736 
L 211.301461 129.628564 
L 211.95077 129.157527 
L 212.60008 128.377264 
L 213.465825 126.875614 
L 214.33157 124.884288 
L 215.413752 121.790648 
L 216.71237 117.370362 
L 218.876734 109.002402 
L 221.690407 98.218301 
L 223.205461 93.331017 
L 224.287643 90.482224 
L 225.369825 88.265915 
L 226.23557 86.986264 
L 226.88488 86.325376 
L 227.534189 85.923693 
L 228.183498 85.780404 
L 228.832807 85.891647 
L 229.482116 86.250757 
L 230.131425 86.848538 
L 230.99717 87.996769 
L 231.862916 89.516281 
L 232.945098 91.880285 
L 234.243716 95.289797 
L 235.975207 100.554397 
L 239.438189 112.106011 
L 241.602552 118.913822 
L 243.117607 123.023582 
L 244.416225 125.92354 
L 245.498407 127.80799 
L 246.364152 128.924298 
L 247.229898 129.666329 
L 247.879207 129.966126 
L 248.528516 130.039991 
L 249.177825 129.885155 
L 249.827134 129.501341 
L 250.476443 128.890881 
L 251.342189 127.733457 
L 252.207934 126.201851 
L 253.290116 123.804764 
L 254.588734 120.319406 
L 256.320225 114.909652 
L 261.298261 98.680025 
L 262.59688 95.343197 
L 263.679061 93.11696 
L 264.544807 91.75595 
L 265.410552 90.800996 
L 266.059861 90.363734 
L 266.70917 90.171251 
L 267.35848 90.225234 
L 268.007789 90.524224 
L 268.657098 91.063693 
L 269.522843 92.14371 
L 270.388589 93.612168 
L 271.47077 95.942281 
L 272.769389 99.355249 
L 274.50088 104.677028 
L 280.344661 123.461775 
L 281.64328 126.660187 
L 282.725461 128.80911 
L 283.591207 130.145852 
L 284.456952 131.116795 
L 285.322698 131.705346 
L 285.972007 131.889868 
L 286.621316 131.852562 
L 287.270625 131.594494 
L 287.919934 131.119068 
L 288.78568 130.157282 
L 289.651425 128.83937 
L 290.733607 126.732562 
L 292.032225 123.620155 
L 293.54728 119.364546 
L 296.144516 111.252817 
L 298.741752 103.397017 
L 300.256807 99.517945 
L 301.338989 97.244658 
L 302.42117 95.471717 
L 303.286916 94.453063 
L 304.152661 93.813129 
L 304.80197 93.589909 
L 305.45128 93.58973 
L 306.100589 93.812398 
L 306.749898 94.255077 
L 307.615643 95.177792 
L 308.481389 96.461872 
L 309.56357 98.532937 
L 310.862189 101.609826 
L 312.377243 105.830674 
L 314.97448 113.897085 
L 317.571716 121.749532 
L 319.08677 125.667648 
L 320.385389 128.406368 
L 321.46757 130.157952 
L 322.333316 131.172534 
L 323.199061 131.821862 
L 323.84837 132.061567 
L 324.49768 132.086467 
L 325.146989 131.896618 
L 325.796298 131.494487 
L 326.662043 130.636842 
L 327.527789 129.428691 
L 328.60997 127.464369 
L 329.908589 124.526493 
L 331.423643 120.472357 
L 333.804443 113.336983 
L 336.618116 105.037965 
L 338.13317 101.219621 
L 339.431789 98.550724 
L 340.51397 96.84607 
L 341.379716 95.861211 
L 342.245461 95.234008 
L 342.89477 95.005424 
L 343.54408 94.986502 
L 344.193389 95.176745 
L 344.842698 95.573232 
L 345.708443 96.413218 
L 346.574189 97.591331 
L 347.65637 99.499818 
L 348.954989 102.34363 
L 350.470043 106.253349 
L 353.06728 113.742707 
L 355.664516 121.051865 
L 357.17957 124.705309 
L 358.478189 127.260923 
L 359.56037 128.895163 
L 360.426116 129.840362 
L 361.291861 130.442536 
L 361.94117 130.66143 
L 362.59048 130.677784 
L 363.239789 130.491322 
L 363.889098 130.104061 
L 364.754843 129.283109 
L 365.620589 128.129437 
L 366.70277 126.255332 
L 368.001389 123.452601 
L 369.516443 119.583067 
L 371.897243 112.764892 
L 374.710916 104.818585 
L 376.22597 101.152885 
L 377.524589 98.583054 
L 378.60677 96.934274 
L 379.472516 95.97485 
L 380.338261 95.354977 
L 380.98757 95.119667 
L 381.63688 95.083421 
L 382.286189 95.245761 
L 382.935498 95.6039 
L 383.801243 96.376965 
L 384.666989 97.470975 
L 385.74917 99.252144 
L 387.047789 101.914982 
L 388.562843 105.583579 
L 390.077898 109.634285 
L 390.077898 109.634285 
" style="fill:none;stroke:#ff7f0e;stroke-linecap:square;stroke-width:1.5;"/>
   </g>
   <g id="line2d_15">
    <path clip-path="url(#pa90b9328d2)" d="M 65.423352 114.013806 
L 87.283425 113.974888 
L 87.499861 113.82197 
L 87.932734 113.105584 
L 88.582043 111.304156 
L 90.313534 105.227975 
L 92.91077 96.490215 
L 94.858698 90.587028 
L 96.157316 87.337749 
L 97.023061 85.643127 
L 97.888807 84.42403 
L 98.538116 83.869599 
L 99.187425 83.657723 
L 99.620298 83.720192 
L 100.05317 83.953705 
L 100.70248 84.636734 
L 101.351789 85.730547 
L 102.001098 87.240782 
L 102.866843 89.895052 
L 103.732589 93.247383 
L 104.81477 98.313421 
L 106.329825 106.663284 
L 110.874989 132.834516 
L 111.95717 137.521739 
L 112.822916 140.465281 
L 113.688661 142.596065 
L 114.33797 143.623668 
L 114.770843 144.027968 
L 115.203716 144.204838 
L 115.636589 144.153866 
L 116.069461 143.876393 
L 116.502334 143.375493 
L 117.151643 142.21607 
L 117.800952 140.587888 
L 118.666698 137.741669 
L 119.74888 133.230823 
L 121.047498 126.713061 
L 122.995425 115.593458 
L 126.025534 98.328799 
L 127.540589 91.021588 
L 128.839207 85.899891 
L 129.921389 82.552456 
L 130.787134 80.508577 
L 131.65288 79.034424 
L 132.302189 78.298977 
L 132.951498 77.873902 
L 133.600807 77.750208 
L 134.250116 77.916821 
L 134.899425 78.360993 
L 135.548734 79.068661 
L 136.41448 80.395976 
L 137.280225 82.127331 
L 138.362407 84.800386 
L 139.661025 88.652223 
L 141.17608 93.863716 
L 143.340443 102.232644 
L 148.31848 121.900719 
L 149.833534 126.769506 
L 150.915716 129.582232 
L 151.781461 131.341457 
L 152.647207 132.605115 
L 153.296516 133.199696 
L 153.945825 133.474045 
L 154.378698 133.473137 
L 155.028007 133.190103 
L 155.677316 132.565657 
L 156.326625 131.600417 
L 157.19237 129.793808 
L 158.058116 127.419502 
L 159.140298 123.720991 
L 160.438916 118.371383 
L 162.170407 110.13768 
L 166.499134 88.934474 
L 167.797752 83.789046 
L 168.879934 80.312206 
L 169.74568 78.148037 
L 170.611425 76.580387 
L 171.260734 75.81333 
L 171.910043 75.403519 
L 172.342916 75.329427 
L 172.775789 75.413689 
L 173.425098 75.832723 
L 174.074407 76.593781 
L 174.723716 77.682757 
L 175.589461 79.61331 
L 176.671643 82.720998 
L 177.970261 87.306932 
L 179.485316 93.533773 
L 182.731861 108.193554 
L 184.896225 117.378114 
L 186.41128 122.853417 
L 187.709898 126.663757 
L 188.79208 129.104812 
L 189.657825 130.5305 
L 190.307134 131.276358 
L 190.956443 131.737273 
L 191.605752 131.909194 
L 192.255061 131.79082 
L 192.90437 131.383646 
L 193.55368 130.691994 
L 194.419425 129.340057 
L 195.28517 127.520236 
L 196.367352 124.639477 
L 197.66597 120.407371 
L 199.181025 114.633668 
L 201.778261 103.619915 
L 204.375498 92.919736 
L 205.890552 87.624224 
L 206.972734 84.520764 
L 208.054916 82.10572 
L 208.920661 80.726742 
L 209.56997 80.036706 
L 210.21928 79.652244 
L 210.868589 79.578869 
L 211.517898 79.818318 
L 212.167207 80.368532 
L 212.816516 81.223665 
L 213.682261 82.821129 
L 214.548007 84.91078 
L 215.630189 88.148439 
L 216.928807 92.809948 
L 218.660298 99.978542 
L 223.85477 122.224665 
L 225.153389 126.610049 
L 226.23557 129.58106 
L 227.101316 131.445032 
L 227.967061 132.815201 
L 228.61637 133.503983 
L 229.26568 133.895264 
L 229.914989 133.986473 
L 230.564298 133.778543 
L 231.213607 133.275869 
L 231.862916 132.48623 
L 232.728661 131.006517 
L 233.594407 129.071298 
L 234.676589 126.078977 
L 235.975207 121.78489 
L 237.706698 115.2104 
L 242.684734 95.715578 
L 243.983352 91.643482 
L 245.065534 88.861664 
L 245.93128 87.099957 
L 246.797025 85.788906 
L 247.446334 85.117398 
L 248.095643 84.721822 
L 248.744952 84.606726 
L 249.394261 84.773582 
L 250.04357 85.220781 
L 250.69288 85.943646 
L 251.558625 87.322553 
L 252.42437 89.151192 
L 253.506552 92.015131 
L 254.80517 96.183376 
L 256.320225 101.821756 
L 259.133898 113.373208 
L 261.514698 122.749276 
L 263.029752 127.826786 
L 264.111934 130.812875 
L 265.194116 133.156104 
L 266.059861 134.517533 
L 266.70917 135.22069 
L 267.35848 135.64254 
L 268.007789 135.778785 
L 268.657098 135.628551 
L 269.306407 135.194405 
L 269.955716 134.48233 
L 270.821461 133.117143 
L 271.687207 131.305734 
L 272.769389 128.476307 
L 274.068007 124.382905 
L 275.799498 118.074495 
L 280.777534 99.263469 
L 282.076152 95.33425 
L 283.158334 92.653313 
L 284.02408 90.957471 
L 284.889825 89.696562 
L 285.539134 89.050872 
L 286.188443 88.669867 
L 286.837752 88.557111 
L 287.487061 88.713169 
L 288.13637 89.135636 
L 288.78568 89.819185 
L 289.651425 91.122196 
L 290.51717 92.847658 
L 291.599352 95.544655 
L 292.89797 99.460063 
L 294.629461 105.541455 
L 300.473243 127.03663 
L 301.771861 130.676795 
L 302.854043 133.094051 
L 303.719789 134.568188 
L 304.585534 135.600756 
L 305.234843 136.072458 
L 305.884152 136.278475 
L 306.533461 136.216573 
L 307.18277 135.887665 
L 307.83208 135.295815 
L 308.697825 134.110511 
L 309.56357 132.496235 
L 310.645752 129.928403 
L 311.94437 126.155365 
L 313.459425 121.030118 
L 316.70597 108.945798 
L 318.653898 102.138122 
L 320.168952 97.641382 
L 321.251134 95.030248 
L 322.333316 93.012495 
L 323.199061 91.86681 
L 323.84837 91.295475 
L 324.49768 90.977434 
L 325.146989 90.915401 
L 325.796298 91.109184 
L 326.445607 91.55572 
L 327.094916 92.249129 
L 327.960661 93.54244 
L 328.826407 95.231456 
L 329.908589 97.844853 
L 331.207207 101.604772 
L 332.938698 107.390354 
L 338.349607 126.133802 
L 339.648225 129.640742 
L 340.730407 131.997893 
L 341.596152 133.458434 
L 342.461898 134.508172 
L 343.111207 135.012607 
L 343.760516 135.267837 
L 344.409825 135.270905 
L 345.059134 135.02179 
L 345.708443 134.523412 
L 346.357752 133.781613 
L 347.223498 132.429331 
L 348.30568 130.196354 
L 349.387861 127.429191 
L 350.902916 122.831883 
L 353.06728 115.343908 
L 356.530261 103.327388 
L 358.045316 98.900834 
L 359.343934 95.820956 
L 360.426116 93.863133 
L 361.291861 92.738438 
L 361.94117 92.166666 
L 362.59048 91.834227 
L 363.239789 91.743927 
L 363.889098 91.895828 
L 364.538407 92.287261 
L 365.187716 92.912886 
L 366.053461 94.097257 
L 366.919207 95.657882 
L 368.001389 98.086849 
L 369.300007 101.596922 
L 371.031498 107.016703 
L 376.442407 124.634589 
L 377.741025 127.932234 
L 378.823207 130.146489 
L 379.688952 131.516127 
L 380.554698 132.497454 
L 381.204007 132.966028 
L 381.853316 133.198989 
L 382.502625 133.193537 
L 383.151934 132.94965 
L 383.801243 132.470092 
L 384.666989 131.474025 
L 385.532734 130.089646 
L 386.614916 127.857429 
L 387.913534 124.540321 
L 389.428589 119.98785 
L 390.077898 117.877887 
L 390.077898 117.877887 
" style="fill:none;stroke:#2ca02c;stroke-linecap:square;stroke-width:1.5;"/>
   </g>
   <g id="line2d_16">
    <path clip-path="url(#pa90b9328d2)" d="M 65.423352 114.080053 
L 87.283425 114.009129 
L 87.499861 113.732236 
L 87.932734 112.459995 
L 88.582043 109.405666 
L 91.17928 95.927782 
L 92.477898 90.464665 
L 93.56008 86.805521 
L 94.425825 84.547475 
L 95.29157 82.929497 
L 95.94088 82.151184 
L 96.590189 81.750544 
L 97.023061 81.692766 
L 97.455934 81.800775 
L 98.105243 82.26846 
L 98.754552 83.093545 
L 99.403861 84.263054 
L 100.269607 86.331346 
L 101.351789 89.672628 
L 102.43397 93.754917 
L 103.949025 100.453941 
L 106.762698 114.333013 
L 108.710625 123.36289 
L 110.009243 128.423273 
L 111.091425 131.830132 
L 111.95717 133.956537 
L 112.822916 135.522467 
L 113.472225 136.323974 
L 114.121534 136.807754 
L 114.770843 136.979547 
L 115.420152 136.847978 
L 116.069461 136.423888 
L 116.71877 135.719783 
L 117.584516 134.369316 
L 118.450261 132.580803 
L 119.532443 129.786707 
L 120.831061 125.718987 
L 122.346116 120.173673 
L 124.51048 111.241515 
L 129.27208 91.165992 
L 130.787134 85.838574 
L 132.085752 82.118727 
L 132.951498 80.182432 
L 133.817243 78.74744 
L 134.466552 78.029956 
L 135.115861 77.639122 
L 135.548734 77.566641 
L 135.981607 77.647964 
L 136.630916 78.061966 
L 137.280225 78.827487 
L 137.929534 79.94072 
L 138.79528 81.948761 
L 139.661025 84.519517 
L 140.743207 88.438828 
L 142.041825 93.986083 
L 143.989752 103.38701 
L 147.019861 118.037927 
L 148.534916 124.192024 
L 149.617098 127.755939 
L 150.482843 130.012455 
L 151.348589 131.692473 
L 151.997898 132.557432 
L 152.647207 133.077518 
L 153.296516 133.252605 
L 153.729389 133.179794 
L 154.378698 132.792539 
L 155.028007 132.082536 
L 155.677316 131.065446 
L 156.543061 129.264716 
L 157.625243 126.37385 
L 158.923861 122.120286 
L 160.438916 116.352042 
L 163.252589 104.510635 
L 165.849825 93.886962 
L 167.36488 88.484388 
L 168.663498 84.58842 
L 169.74568 81.979298 
L 170.611425 80.365666 
L 171.47717 79.209415 
L 172.12648 78.658664 
L 172.775789 78.388808 
L 173.425098 78.405741 
L 174.074407 78.712539 
L 174.723716 79.309261 
L 175.373025 80.192781 
L 176.23877 81.805308 
L 177.104516 83.891122 
L 178.186698 87.108732 
L 179.485316 91.739461 
L 181.216807 98.87485 
L 186.194843 120.162727 
L 187.493461 124.551206 
L 188.575643 127.498918 
L 189.441389 129.322519 
L 190.307134 130.631386 
L 190.956443 131.26056 
L 191.605752 131.581261 
L 192.255061 131.59203 
L 192.90437 131.295257 
L 193.55368 130.697064 
L 194.202989 129.807123 
L 195.068734 128.189656 
L 195.93448 126.116306 
L 197.016661 122.957204 
L 198.31528 118.480417 
L 200.263207 110.816594 
L 204.375498 94.221747 
L 205.890552 89.119104 
L 206.972734 86.107681 
L 208.054916 83.733796 
L 208.920661 82.345896 
L 209.56997 81.623296 
L 210.21928 81.183817 
L 210.868589 81.033305 
L 211.517898 81.174342 
L 212.167207 81.606171 
L 212.816516 82.324655 
L 213.682261 83.715064 
L 214.548007 85.574345 
L 215.630189 88.500435 
L 216.928807 92.769501 
L 218.660298 99.416903 
L 224.287643 122.007525 
L 225.586261 126.021497 
L 226.668443 128.711701 
L 227.534189 130.379341 
L 228.399934 131.585091 
L 229.049243 132.174749 
L 229.698552 132.489702 
L 230.347861 132.528761 
L 230.99717 132.293733 
L 231.64648 131.789339 
L 232.295789 131.023104 
L 233.161534 129.61215 
L 234.02728 127.785239 
L 235.109461 124.975846 
L 236.40808 120.953338 
L 238.13957 114.785229 
L 243.334043 95.546844 
L 244.632661 91.723464 
L 245.714843 89.136593 
L 246.580589 87.525708 
L 247.446334 86.36369 
L 248.095643 85.804264 
L 248.744952 85.521966 
L 249.394261 85.521871 
L 250.04357 85.8056 
L 250.69288 86.371235 
L 251.342189 87.213293 
L 252.207934 88.749928 
L 253.07368 90.730642 
L 254.155861 93.767393 
L 255.45448 98.098569 
L 257.18597 104.690125 
L 261.731134 122.442703 
L 263.029752 126.596832 
L 264.111934 129.476109 
L 265.194116 131.738344 
L 266.059861 133.063532 
L 266.925607 133.936108 
L 267.574916 134.287031 
L 268.224225 134.376536 
L 268.873534 134.206545 
L 269.522843 133.781682 
L 270.172152 133.109147 
L 271.037898 131.844134 
L 271.903643 130.185212 
L 272.985825 127.612272 
L 274.284443 123.902178 
L 276.015934 118.171954 
L 281.859716 98.006468 
L 283.158334 94.602519 
L 284.240516 92.356791 
L 285.106261 91.004966 
L 285.972007 90.083733 
L 286.621316 89.689872 
L 287.270625 89.558121 
L 287.919934 89.691827 
L 288.569243 90.091085 
L 289.218552 90.752661 
L 290.084298 92.030961 
L 290.950043 93.738805 
L 292.032225 96.423801 
L 293.330843 100.333698 
L 295.062334 106.397966 
L 300.256807 125.288896 
L 301.555425 128.987225 
L 302.637607 131.479742 
L 303.503352 133.035312 
L 304.369098 134.172048 
L 305.018407 134.739102 
L 305.667716 135.056922 
L 306.317025 135.124534 
L 306.966334 134.943736 
L 307.615643 134.518982 
L 308.264952 133.857257 
L 309.130698 132.622842 
L 309.996443 131.012292 
L 311.078625 128.52332 
L 312.377243 124.945211 
L 314.108734 119.43473 
L 319.73608 100.725219 
L 321.034698 97.353872 
L 322.11688 95.084505 
L 322.982625 93.678376 
L 323.84837 92.670644 
L 324.49768 92.190861 
L 325.146989 91.955559 
L 325.796298 91.968766 
L 326.445607 92.231532 
L 327.094916 92.741858 
L 327.960661 93.798145 
L 328.826407 95.264598 
L 329.908589 97.62799 
L 331.207207 101.136703 
L 332.722261 105.940055 
L 335.535934 115.815129 
L 337.700298 123.080876 
L 339.215352 127.420957 
L 340.297534 129.967069 
L 341.379716 131.962885 
L 342.245461 133.124647 
L 343.111207 133.878346 
L 343.760516 134.169118 
L 344.409825 134.222903 
L 345.059134 134.041044 
L 345.708443 133.627438 
L 346.357752 132.988425 
L 347.223498 131.801029 
L 348.089243 130.254914 
L 349.171425 127.867916 
L 350.470043 124.438135 
L 352.201534 119.157106 
L 358.045316 100.638878 
L 359.343934 97.503129 
L 360.426116 95.420267 
L 361.291861 94.151561 
L 362.157607 93.266722 
L 362.806916 92.867422 
L 363.456225 92.701022 
L 364.105534 92.770269 
L 364.754843 93.075083 
L 365.404152 93.6125 
L 366.269898 94.68035 
L 367.135643 96.129215 
L 368.217825 98.428957 
L 369.516443 101.801418 
L 371.247934 107.061886 
L 376.442407 123.577548 
L 377.741025 126.827703 
L 378.823207 129.019529 
L 379.688952 130.386414 
L 380.554698 131.382329 
L 381.420443 131.990613 
L 382.069752 132.187019 
L 382.719061 132.159813 
L 383.36837 131.910854 
L 384.01768 131.444394 
L 384.883425 130.495718 
L 385.74917 129.193627 
L 386.831352 127.111634 
L 388.12997 124.03563 
L 389.645025 119.824278 
L 390.077898 118.529777 
L 390.077898 118.529777 
" style="fill:none;stroke:#d62728;stroke-linecap:square;stroke-width:1.5;"/>
   </g>
   <g id="patch_3">
    <path d="M 49.190625 273.312 
L 49.190625 7.2 
" style="fill:none;stroke:#000000;stroke-linecap:square;stroke-linejoin:miter;stroke-width:0.8;"/>
   </g>
   <g id="patch_4">
    <path d="M 406.310625 273.312 
L 406.310625 7.2 
" style="fill:none;stroke:#000000;stroke-linecap:square;stroke-linejoin:miter;stroke-width:0.8;"/>
   </g>
   <g id="patch_5">
    <path d="M 49.190625 273.312 
L 406.310625 273.312 
" style="fill:none;stroke:#000000;stroke-linecap:square;stroke-linejoin:miter;stroke-width:0.8;"/>
   </g>
   <g id="patch_6">
    <path d="M 49.190625 7.2 
L 406.310625 7.2 
" style="fill:none;stroke:#000000;stroke-linecap:square;stroke-linejoin:miter;stroke-width:0.8;"/>
   </g>
   <g id="legend_1">
    <g id="patch_7">
     <path d="M 321.459063 75.025 
L 399.310625 75.025 
Q 401.310625 75.025 401.310625 73.025 
L 401.310625 14.2 
Q 401.310625 12.2 399.310625 12.2 
L 321.459063 12.2 
Q 319.459063 12.2 319.459063 14.2 
L 319.459063 73.025 
Q 319.459063 75.025 321.459063 75.025 
z
" style="fill:#ffffff;opacity:0.8;stroke:#cccccc;stroke-linejoin:miter;"/>
    </g>
    <g id="line2d_17">
     <path d="M 323.459063 20.298438 
L 343.459063 20.298438 
" style="fill:none;stroke:#1f77b4;stroke-linecap:square;stroke-width:1.5;"/>
    </g>
    <g id="line2d_18"/>
    <g id="text_13">
     <!-- omega_1 -->
     <g transform="translate(351.459063 23.798438)scale(0.1 -0.1)">
      <defs>
       <path d="M 30.609375 48.390625 
Q 23.390625 48.390625 19.1875 42.75 
Q 14.984375 37.109375 14.984375 27.296875 
Q 14.984375 17.484375 19.15625 11.84375 
Q 23.34375 6.203125 30.609375 6.203125 
Q 37.796875 6.203125 41.984375 11.859375 
Q 46.1875 17.53125 46.1875 27.296875 
Q 46.1875 37.015625 41.984375 42.703125 
Q 37.796875 48.390625 30.609375 48.390625 
z
M 30.609375 56 
Q 42.328125 56 49.015625 48.375 
Q 55.71875 40.765625 55.71875 27.296875 
Q 55.71875 13.875 49.015625 6.21875 
Q 42.328125 -1.421875 30.609375 -1.421875 
Q 18.84375 -1.421875 12.171875 6.21875 
Q 5.515625 13.875 5.515625 27.296875 
Q 5.515625 40.765625 12.171875 48.375 
Q 18.84375 56 30.609375 56 
z
" id="DejaVuSans-111"/>
       <path d="M 52 44.1875 
Q 55.375 50.25 60.0625 53.125 
Q 64.75 56 71.09375 56 
Q 79.640625 56 84.28125 50.015625 
Q 88.921875 44.046875 88.921875 33.015625 
L 88.921875 0 
L 79.890625 0 
L 79.890625 32.71875 
Q 79.890625 40.578125 77.09375 44.375 
Q 74.3125 48.1875 68.609375 48.1875 
Q 61.625 48.1875 57.5625 43.546875 
Q 53.515625 38.921875 53.515625 30.90625 
L 53.515625 0 
L 44.484375 0 
L 44.484375 32.71875 
Q 44.484375 40.625 41.703125 44.40625 
Q 38.921875 48.1875 33.109375 48.1875 
Q 26.21875 48.1875 22.15625 43.53125 
Q 18.109375 38.875 18.109375 30.90625 
L 18.109375 0 
L 9.078125 0 
L 9.078125 54.6875 
L 18.109375 54.6875 
L 18.109375 46.1875 
Q 21.1875 51.21875 25.484375 53.609375 
Q 29.78125 56 35.6875 56 
Q 41.65625 56 45.828125 52.96875 
Q 50 49.953125 52 44.1875 
z
" id="DejaVuSans-109"/>
       <path d="M 56.203125 29.59375 
L 56.203125 25.203125 
L 14.890625 25.203125 
Q 15.484375 15.921875 20.484375 11.0625 
Q 25.484375 6.203125 34.421875 6.203125 
Q 39.59375 6.203125 44.453125 7.46875 
Q 49.3125 8.734375 54.109375 11.28125 
L 54.109375 2.78125 
Q 49.265625 0.734375 44.1875 -0.34375 
Q 39.109375 -1.421875 33.890625 -1.421875 
Q 20.796875 -1.421875 13.15625 6.1875 
Q 5.515625 13.8125 5.515625 26.8125 
Q 5.515625 40.234375 12.765625 48.109375 
Q 20.015625 56 32.328125 56 
Q 43.359375 56 49.78125 48.890625 
Q 56.203125 41.796875 56.203125 29.59375 
z
M 47.21875 32.234375 
Q 47.125 39.59375 43.09375 43.984375 
Q 39.0625 48.390625 32.421875 48.390625 
Q 24.90625 48.390625 20.390625 44.140625 
Q 15.875 39.890625 15.1875 32.171875 
z
" id="DejaVuSans-101"/>
       <path d="M 45.40625 27.984375 
Q 45.40625 37.75 41.375 43.109375 
Q 37.359375 48.484375 30.078125 48.484375 
Q 22.859375 48.484375 18.828125 43.109375 
Q 14.796875 37.75 14.796875 27.984375 
Q 14.796875 18.265625 18.828125 12.890625 
Q 22.859375 7.515625 30.078125 7.515625 
Q 37.359375 7.515625 41.375 12.890625 
Q 45.40625 18.265625 45.40625 27.984375 
z
M 54.390625 6.78125 
Q 54.390625 -7.171875 48.1875 -13.984375 
Q 42 -20.796875 29.203125 -20.796875 
Q 24.46875 -20.796875 20.265625 -20.09375 
Q 16.0625 -19.390625 12.109375 -17.921875 
L 12.109375 -9.1875 
Q 16.0625 -11.328125 19.921875 -12.34375 
Q 23.78125 -13.375 27.78125 -13.375 
Q 36.625 -13.375 41.015625 -8.765625 
Q 45.40625 -4.15625 45.40625 5.171875 
L 45.40625 9.625 
Q 42.625 4.78125 38.28125 2.390625 
Q 33.9375 0 27.875 0 
Q 17.828125 0 11.671875 7.65625 
Q 5.515625 15.328125 5.515625 27.984375 
Q 5.515625 40.671875 11.671875 48.328125 
Q 17.828125 56 27.875 56 
Q 33.9375 56 38.28125 53.609375 
Q 42.625 51.21875 45.40625 46.390625 
L 45.40625 54.6875 
L 54.390625 54.6875 
z
" id="DejaVuSans-103"/>
       <path d="M 34.28125 27.484375 
Q 23.390625 27.484375 19.1875 25 
Q 14.984375 22.515625 14.984375 16.5 
Q 14.984375 11.71875 18.140625 8.90625 
Q 21.296875 6.109375 26.703125 6.109375 
Q 34.1875 6.109375 38.703125 11.40625 
Q 43.21875 16.703125 43.21875 25.484375 
L 43.21875 27.484375 
z
M 52.203125 31.203125 
L 52.203125 0 
L 43.21875 0 
L 43.21875 8.296875 
Q 40.140625 3.328125 35.546875 0.953125 
Q 30.953125 -1.421875 24.3125 -1.421875 
Q 15.921875 -1.421875 10.953125 3.296875 
Q 6 8.015625 6 15.921875 
Q 6 25.140625 12.171875 29.828125 
Q 18.359375 34.515625 30.609375 34.515625 
L 43.21875 34.515625 
L 43.21875 35.40625 
Q 43.21875 41.609375 39.140625 45 
Q 35.0625 48.390625 27.6875 48.390625 
Q 23 48.390625 18.546875 47.265625 
Q 14.109375 46.140625 10.015625 43.890625 
L 10.015625 52.203125 
Q 14.9375 54.109375 19.578125 55.046875 
Q 24.21875 56 28.609375 56 
Q 40.484375 56 46.34375 49.84375 
Q 52.203125 43.703125 52.203125 31.203125 
z
" id="DejaVuSans-97"/>
       <path d="M 50.984375 -16.609375 
L 50.984375 -23.578125 
L -0.984375 -23.578125 
L -0.984375 -16.609375 
z
" id="DejaVuSans-95"/>
      </defs>
      <use xlink:href="#DejaVuSans-111"/>
      <use x="61.181641" xlink:href="#DejaVuSans-109"/>
      <use x="158.59375" xlink:href="#DejaVuSans-101"/>
      <use x="220.117188" xlink:href="#DejaVuSans-103"/>
      <use x="283.59375" xlink:href="#DejaVuSans-97"/>
      <use x="344.873047" xlink:href="#DejaVuSans-95"/>
      <use x="394.873047" xlink:href="#DejaVuSans-49"/>
     </g>
    </g>
    <g id="line2d_19">
     <path d="M 323.459063 35.254688 
L 343.459063 35.254688 
" style="fill:none;stroke:#ff7f0e;stroke-linecap:square;stroke-width:1.5;"/>
    </g>
    <g id="line2d_20"/>
    <g id="text_14">
     <!-- omega_2 -->
     <g transform="translate(351.459063 38.754688)scale(0.1 -0.1)">
      <use xlink:href="#DejaVuSans-111"/>
      <use x="61.181641" xlink:href="#DejaVuSans-109"/>
      <use x="158.59375" xlink:href="#DejaVuSans-101"/>
      <use x="220.117188" xlink:href="#DejaVuSans-103"/>
      <use x="283.59375" xlink:href="#DejaVuSans-97"/>
      <use x="344.873047" xlink:href="#DejaVuSans-95"/>
      <use x="394.873047" xlink:href="#DejaVuSans-50"/>
     </g>
    </g>
    <g id="line2d_21">
     <path d="M 323.459063 50.210938 
L 343.459063 50.210938 
" style="fill:none;stroke:#2ca02c;stroke-linecap:square;stroke-width:1.5;"/>
    </g>
    <g id="line2d_22"/>
    <g id="text_15">
     <!-- omega_3 -->
     <g transform="translate(351.459063 53.710938)scale(0.1 -0.1)">
      <defs>
       <path d="M 40.578125 39.3125 
Q 47.65625 37.796875 51.625 33 
Q 55.609375 28.21875 55.609375 21.1875 
Q 55.609375 10.40625 48.1875 4.484375 
Q 40.765625 -1.421875 27.09375 -1.421875 
Q 22.515625 -1.421875 17.65625 -0.515625 
Q 12.796875 0.390625 7.625 2.203125 
L 7.625 11.71875 
Q 11.71875 9.328125 16.59375 8.109375 
Q 21.484375 6.890625 26.8125 6.890625 
Q 36.078125 6.890625 40.9375 10.546875 
Q 45.796875 14.203125 45.796875 21.1875 
Q 45.796875 27.640625 41.28125 31.265625 
Q 36.765625 34.90625 28.71875 34.90625 
L 20.21875 34.90625 
L 20.21875 43.015625 
L 29.109375 43.015625 
Q 36.375 43.015625 40.234375 45.921875 
Q 44.09375 48.828125 44.09375 54.296875 
Q 44.09375 59.90625 40.109375 62.90625 
Q 36.140625 65.921875 28.71875 65.921875 
Q 24.65625 65.921875 20.015625 65.03125 
Q 15.375 64.15625 9.8125 62.3125 
L 9.8125 71.09375 
Q 15.4375 72.65625 20.34375 73.4375 
Q 25.25 74.21875 29.59375 74.21875 
Q 40.828125 74.21875 47.359375 69.109375 
Q 53.90625 64.015625 53.90625 55.328125 
Q 53.90625 49.265625 50.4375 45.09375 
Q 46.96875 40.921875 40.578125 39.3125 
z
" id="DejaVuSans-51"/>
      </defs>
      <use xlink:href="#DejaVuSans-111"/>
      <use x="61.181641" xlink:href="#DejaVuSans-109"/>
      <use x="158.59375" xlink:href="#DejaVuSans-101"/>
      <use x="220.117188" xlink:href="#DejaVuSans-103"/>
      <use x="283.59375" xlink:href="#DejaVuSans-97"/>
      <use x="344.873047" xlink:href="#DejaVuSans-95"/>
      <use x="394.873047" xlink:href="#DejaVuSans-51"/>
     </g>
    </g>
    <g id="line2d_23">
     <path d="M 323.459063 65.167188 
L 343.459063 65.167188 
" style="fill:none;stroke:#d62728;stroke-linecap:square;stroke-width:1.5;"/>
    </g>
    <g id="line2d_24"/>
    <g id="text_16">
     <!-- omega_4 -->
     <g transform="translate(351.459063 68.667188)scale(0.1 -0.1)">
      <use xlink:href="#DejaVuSans-111"/>
      <use x="61.181641" xlink:href="#DejaVuSans-109"/>
      <use x="158.59375" xlink:href="#DejaVuSans-101"/>
      <use x="220.117188" xlink:href="#DejaVuSans-103"/>
      <use x="283.59375" xlink:href="#DejaVuSans-97"/>
      <use x="344.873047" xlink:href="#DejaVuSans-95"/>
      <use x="394.873047" xlink:href="#DejaVuSans-52"/>
     </g>
    </g>
   </g>
  </g>
 </g>
 <defs>
  <clipPath id="pa90b9328d2">
   <rect height="266.112" width="357.12" x="49.190625" y="7.2"/>
  </clipPath>
 </defs>
</svg>
