<?xml version="1.0" encoding="utf-8" standalone="no"?>
<!DOCTYPE svg PUBLIC "-//W3C//DTD SVG 1.1//EN"
  "http://www.w3.org/Graphics/SVG/1.1/DTD/svg11.dtd">
<svg xmlns:xlink="http://www.w3.org/1999/xlink" width="415.527812pt" height="297.190125pt" viewBox="0 0 415.527812 297.190125" xmlns="http://www.w3.org/2000/svg" version="1.1">
 <metadata>
  <rdf:RDF xmlns:dc="http://purl.org/dc/elements/1.1/" xmlns:cc="http://creativecommons.org/ns#" xmlns:rdf="http://www.w3.org/1999/02/22-rdf-syntax-ns#">
   <cc:Work>
    <dc:type rdf:resource="http://purl.org/dc/dcmitype/StillImage"/>
    <dc:date>2022-10-13T02:12:36.877060</dc:date>
    <dc:format>image/svg+xml</dc:format>
    <dc:creator>
     <cc:Agent>
      <dc:title>Matplotlib v3.5.2, https://matplotlib.org/</dc:title>
     </cc:Agent>
    </dc:creator>
   </cc:Work>
  </rdf:RDF>
 </metadata>
 <defs>
  <style type="text/css">*{stroke-linejoin: round; stroke-linecap: butt}</style>
 </defs>
 <g id="figure_1">
  <g id="patch_1">
   <path d="M 0 297.190125 
L 415.527812 297.190125 
L 415.527812 0 
L 0 0 
z
" style="fill: #ffffff"/>
  </g>
  <g id="axes_1">
   <g id="patch_2">
    <path d="M 51.207813 273.312 
L 408.327813 273.312 
L 408.327813 7.2 
L 51.207813 7.2 
z
" style="fill: #ffffff"/>
   </g>
   <g id="matplotlib.axis_1">
    <g id="xtick_1">
     <g id="line2d_1">
      <defs>
       <path id="mcacac9a30a" d="M 0 0 
L 0 3.5 
" style="stroke: #000000; stroke-width: 0.8"/>
      </defs>
      <g>
       <use xlink:href="#mcacac9a30a" x="67.44054" y="273.312" style="stroke: #000000; stroke-width: 0.8"/>
      </g>
     </g>
     <g id="text_1">
      <!-- 0 -->
      <g transform="translate(64.25929 287.910437)scale(0.1 -0.1)">
       <defs>
        <path id="DejaVuSans-30" d="M 2034 4250 
Q 1547 4250 1301 3770 
Q 1056 3291 1056 2328 
Q 1056 1369 1301 889 
Q 1547 409 2034 409 
Q 2525 409 2770 889 
Q 3016 1369 3016 2328 
Q 3016 3291 2770 3770 
Q 2525 4250 2034 4250 
z
M 2034 4750 
Q 2819 4750 3233 4129 
Q 3647 3509 3647 2328 
Q 3647 1150 3233 529 
Q 2819 -91 2034 -91 
Q 1250 -91 836 529 
Q 422 1150 422 2328 
Q 422 3509 836 4129 
Q 1250 4750 2034 4750 
z
" transform="scale(0.015625)"/>
       </defs>
       <use xlink:href="#DejaVuSans-30"/>
      </g>
     </g>
    </g>
    <g id="xtick_2">
     <g id="line2d_2">
      <g>
       <use xlink:href="#mcacac9a30a" x="132.436445" y="273.312" style="stroke: #000000; stroke-width: 0.8"/>
      </g>
     </g>
     <g id="text_2">
      <!-- 2 -->
      <g transform="translate(129.255195 287.910437)scale(0.1 -0.1)">
       <defs>
        <path id="DejaVuSans-32" d="M 1228 531 
L 3431 531 
L 3431 0 
L 469 0 
L 469 531 
Q 828 903 1448 1529 
Q 2069 2156 2228 2338 
Q 2531 2678 2651 2914 
Q 2772 3150 2772 3378 
Q 2772 3750 2511 3984 
Q 2250 4219 1831 4219 
Q 1534 4219 1204 4116 
Q 875 4013 500 3803 
L 500 4441 
Q 881 4594 1212 4672 
Q 1544 4750 1819 4750 
Q 2544 4750 2975 4387 
Q 3406 4025 3406 3419 
Q 3406 3131 3298 2873 
Q 3191 2616 2906 2266 
Q 2828 2175 2409 1742 
Q 1991 1309 1228 531 
z
" transform="scale(0.015625)"/>
       </defs>
       <use xlink:href="#DejaVuSans-32"/>
      </g>
     </g>
    </g>
    <g id="xtick_3">
     <g id="line2d_3">
      <g>
       <use xlink:href="#mcacac9a30a" x="197.43235" y="273.312" style="stroke: #000000; stroke-width: 0.8"/>
      </g>
     </g>
     <g id="text_3">
      <!-- 4 -->
      <g transform="translate(194.2511 287.910437)scale(0.1 -0.1)">
       <defs>
        <path id="DejaVuSans-34" d="M 2419 4116 
L 825 1625 
L 2419 1625 
L 2419 4116 
z
M 2253 4666 
L 3047 4666 
L 3047 1625 
L 3713 1625 
L 3713 1100 
L 3047 1100 
L 3047 0 
L 2419 0 
L 2419 1100 
L 313 1100 
L 313 1709 
L 2253 4666 
z
" transform="scale(0.015625)"/>
       </defs>
       <use xlink:href="#DejaVuSans-34"/>
      </g>
     </g>
    </g>
    <g id="xtick_4">
     <g id="line2d_4">
      <g>
       <use xlink:href="#mcacac9a30a" x="262.428255" y="273.312" style="stroke: #000000; stroke-width: 0.8"/>
      </g>
     </g>
     <g id="text_4">
      <!-- 6 -->
      <g transform="translate(259.247005 287.910437)scale(0.1 -0.1)">
       <defs>
        <path id="DejaVuSans-36" d="M 2113 2584 
Q 1688 2584 1439 2293 
Q 1191 2003 1191 1497 
Q 1191 994 1439 701 
Q 1688 409 2113 409 
Q 2538 409 2786 701 
Q 3034 994 3034 1497 
Q 3034 2003 2786 2293 
Q 2538 2584 2113 2584 
z
M 3366 4563 
L 3366 3988 
Q 3128 4100 2886 4159 
Q 2644 4219 2406 4219 
Q 1781 4219 1451 3797 
Q 1122 3375 1075 2522 
Q 1259 2794 1537 2939 
Q 1816 3084 2150 3084 
Q 2853 3084 3261 2657 
Q 3669 2231 3669 1497 
Q 3669 778 3244 343 
Q 2819 -91 2113 -91 
Q 1303 -91 875 529 
Q 447 1150 447 2328 
Q 447 3434 972 4092 
Q 1497 4750 2381 4750 
Q 2619 4750 2861 4703 
Q 3103 4656 3366 4563 
z
" transform="scale(0.015625)"/>
       </defs>
       <use xlink:href="#DejaVuSans-36"/>
      </g>
     </g>
    </g>
    <g id="xtick_5">
     <g id="line2d_5">
      <g>
       <use xlink:href="#mcacac9a30a" x="327.42416" y="273.312" style="stroke: #000000; stroke-width: 0.8"/>
      </g>
     </g>
     <g id="text_5">
      <!-- 8 -->
      <g transform="translate(324.24291 287.910437)scale(0.1 -0.1)">
       <defs>
        <path id="DejaVuSans-38" d="M 2034 2216 
Q 1584 2216 1326 1975 
Q 1069 1734 1069 1313 
Q 1069 891 1326 650 
Q 1584 409 2034 409 
Q 2484 409 2743 651 
Q 3003 894 3003 1313 
Q 3003 1734 2745 1975 
Q 2488 2216 2034 2216 
z
M 1403 2484 
Q 997 2584 770 2862 
Q 544 3141 544 3541 
Q 544 4100 942 4425 
Q 1341 4750 2034 4750 
Q 2731 4750 3128 4425 
Q 3525 4100 3525 3541 
Q 3525 3141 3298 2862 
Q 3072 2584 2669 2484 
Q 3125 2378 3379 2068 
Q 3634 1759 3634 1313 
Q 3634 634 3220 271 
Q 2806 -91 2034 -91 
Q 1263 -91 848 271 
Q 434 634 434 1313 
Q 434 1759 690 2068 
Q 947 2378 1403 2484 
z
M 1172 3481 
Q 1172 3119 1398 2916 
Q 1625 2713 2034 2713 
Q 2441 2713 2670 2916 
Q 2900 3119 2900 3481 
Q 2900 3844 2670 4047 
Q 2441 4250 2034 4250 
Q 1625 4250 1398 4047 
Q 1172 3844 1172 3481 
z
" transform="scale(0.015625)"/>
       </defs>
       <use xlink:href="#DejaVuSans-38"/>
      </g>
     </g>
    </g>
    <g id="xtick_6">
     <g id="line2d_6">
      <g>
       <use xlink:href="#mcacac9a30a" x="392.420065" y="273.312" style="stroke: #000000; stroke-width: 0.8"/>
      </g>
     </g>
     <g id="text_6">
      <!-- 10 -->
      <g transform="translate(386.057565 287.910437)scale(0.1 -0.1)">
       <defs>
        <path id="DejaVuSans-31" d="M 794 531 
L 1825 531 
L 1825 4091 
L 703 3866 
L 703 4441 
L 1819 4666 
L 2450 4666 
L 2450 531 
L 3481 531 
L 3481 0 
L 794 0 
L 794 531 
z
" transform="scale(0.015625)"/>
       </defs>
       <use xlink:href="#DejaVuSans-31"/>
       <use xlink:href="#DejaVuSans-30" x="63.623047"/>
      </g>
     </g>
    </g>
   </g>
   <g id="matplotlib.axis_2">
    <g id="ytick_1">
     <g id="line2d_7">
      <defs>
       <path id="mdfd1c2db31" d="M 0 0 
L -3.5 0 
" style="stroke: #000000; stroke-width: 0.8"/>
      </defs>
      <g>
       <use xlink:href="#mdfd1c2db31" x="51.207813" y="228.626001" style="stroke: #000000; stroke-width: 0.8"/>
      </g>
     </g>
     <g id="text_7">
      <!-- −0.010 -->
      <g transform="translate(7.2 232.42522)scale(0.1 -0.1)">
       <defs>
        <path id="DejaVuSans-2212" d="M 678 2272 
L 4684 2272 
L 4684 1741 
L 678 1741 
L 678 2272 
z
" transform="scale(0.015625)"/>
        <path id="DejaVuSans-2e" d="M 684 794 
L 1344 794 
L 1344 0 
L 684 0 
L 684 794 
z
" transform="scale(0.015625)"/>
       </defs>
       <use xlink:href="#DejaVuSans-2212"/>
       <use xlink:href="#DejaVuSans-30" x="83.789062"/>
       <use xlink:href="#DejaVuSans-2e" x="147.412109"/>
       <use xlink:href="#DejaVuSans-30" x="179.199219"/>
       <use xlink:href="#DejaVuSans-31" x="242.822266"/>
       <use xlink:href="#DejaVuSans-30" x="306.445312"/>
      </g>
     </g>
    </g>
    <g id="ytick_2">
     <g id="line2d_8">
      <g>
       <use xlink:href="#mdfd1c2db31" x="51.207813" y="179.639476" style="stroke: #000000; stroke-width: 0.8"/>
      </g>
     </g>
     <g id="text_8">
      <!-- −0.005 -->
      <g transform="translate(7.2 183.438695)scale(0.1 -0.1)">
       <defs>
        <path id="DejaVuSans-35" d="M 691 4666 
L 3169 4666 
L 3169 4134 
L 1269 4134 
L 1269 2991 
Q 1406 3038 1543 3061 
Q 1681 3084 1819 3084 
Q 2600 3084 3056 2656 
Q 3513 2228 3513 1497 
Q 3513 744 3044 326 
Q 2575 -91 1722 -91 
Q 1428 -91 1123 -41 
Q 819 9 494 109 
L 494 744 
Q 775 591 1075 516 
Q 1375 441 1709 441 
Q 2250 441 2565 725 
Q 2881 1009 2881 1497 
Q 2881 1984 2565 2268 
Q 2250 2553 1709 2553 
Q 1456 2553 1204 2497 
Q 953 2441 691 2322 
L 691 4666 
z
" transform="scale(0.015625)"/>
       </defs>
       <use xlink:href="#DejaVuSans-2212"/>
       <use xlink:href="#DejaVuSans-30" x="83.789062"/>
       <use xlink:href="#DejaVuSans-2e" x="147.412109"/>
       <use xlink:href="#DejaVuSans-30" x="179.199219"/>
       <use xlink:href="#DejaVuSans-30" x="242.822266"/>
       <use xlink:href="#DejaVuSans-35" x="306.445312"/>
      </g>
     </g>
    </g>
    <g id="ytick_3">
     <g id="line2d_9">
      <g>
       <use xlink:href="#mdfd1c2db31" x="51.207813" y="130.652952" style="stroke: #000000; stroke-width: 0.8"/>
      </g>
     </g>
     <g id="text_9">
      <!-- 0.000 -->
      <g transform="translate(15.579688 134.452171)scale(0.1 -0.1)">
       <use xlink:href="#DejaVuSans-30"/>
       <use xlink:href="#DejaVuSans-2e" x="63.623047"/>
       <use xlink:href="#DejaVuSans-30" x="95.410156"/>
       <use xlink:href="#DejaVuSans-30" x="159.033203"/>
       <use xlink:href="#DejaVuSans-30" x="222.65625"/>
      </g>
     </g>
    </g>
    <g id="ytick_4">
     <g id="line2d_10">
      <g>
       <use xlink:href="#mdfd1c2db31" x="51.207813" y="81.666428" style="stroke: #000000; stroke-width: 0.8"/>
      </g>
     </g>
     <g id="text_10">
      <!-- 0.005 -->
      <g transform="translate(15.579688 85.465647)scale(0.1 -0.1)">
       <use xlink:href="#DejaVuSans-30"/>
       <use xlink:href="#DejaVuSans-2e" x="63.623047"/>
       <use xlink:href="#DejaVuSans-30" x="95.410156"/>
       <use xlink:href="#DejaVuSans-30" x="159.033203"/>
       <use xlink:href="#DejaVuSans-35" x="222.65625"/>
      </g>
     </g>
    </g>
    <g id="ytick_5">
     <g id="line2d_11">
      <g>
       <use xlink:href="#mdfd1c2db31" x="51.207813" y="32.679903" style="stroke: #000000; stroke-width: 0.8"/>
      </g>
     </g>
     <g id="text_11">
      <!-- 0.010 -->
      <g transform="translate(15.579688 36.479122)scale(0.1 -0.1)">
       <use xlink:href="#DejaVuSans-30"/>
       <use xlink:href="#DejaVuSans-2e" x="63.623047"/>
       <use xlink:href="#DejaVuSans-30" x="95.410156"/>
       <use xlink:href="#DejaVuSans-31" x="159.033203"/>
       <use xlink:href="#DejaVuSans-30" x="222.65625"/>
      </g>
     </g>
    </g>
   </g>
   <g id="line2d_12">
    <path d="M 67.44054 130.652952 
L 99.938492 130.652952 
L 100.263472 130.933154 
L 100.588451 131.738657 
L 101.23841 134.536748 
L 101.888369 138.555368 
L 102.863308 146.368746 
L 104.163226 159.378974 
L 105.788124 178.42571 
L 109.687878 225.681226 
L 110.987796 238.67913 
L 111.962735 246.747061 
L 112.937673 253.138789 
L 113.587632 256.39715 
L 114.237591 258.823359 
L 114.88755 260.407413 
L 115.21253 260.884245 
L 115.537509 261.152941 
L 115.862489 261.216 
L 116.187469 261.0767 
L 116.512448 260.739067 
L 117.162407 259.488442 
L 117.812366 257.510009 
L 118.462325 254.859306 
L 119.437264 249.764227 
L 120.737182 241.265783 
L 122.362079 228.79473 
L 126.911793 192.689596 
L 128.53669 182.164324 
L 129.836609 175.180247 
L 131.136527 169.481216 
L 132.436445 164.93522 
L 133.736363 161.302602 
L 135.36126 157.559164 
L 137.961097 151.752587 
L 139.261015 148.20665 
L 140.560933 143.872153 
L 141.860851 138.58843 
L 143.160769 132.302661 
L 144.785667 123.140759 
L 147.060523 108.593371 
L 150.310319 87.641569 
L 151.610237 80.472417 
L 152.910155 74.615901 
L 153.885093 71.299425 
L 154.535052 69.670039 
L 155.185012 68.539813 
L 155.834971 67.930517 
L 156.15995 67.826139 
L 156.48493 67.857009 
L 156.809909 68.02386 
L 157.459868 68.766129 
L 158.109827 70.049597 
L 158.759786 71.863587 
L 159.734725 75.538393 
L 160.709663 80.276303 
L 162.009582 88.035097 
L 163.634479 99.533068 
L 166.234315 120.077282 
L 168.834152 140.005588 
L 170.459049 150.613711 
L 171.758967 157.527059 
L 172.733906 161.633104 
L 173.708844 164.739265 
L 174.358803 166.235991 
L 175.008763 167.26907 
L 175.658722 167.841127 
L 176.308681 167.960209 
L 176.95864 167.63944 
L 177.608599 166.896607 
L 178.258558 165.753693 
L 179.233496 163.346147 
L 180.208435 160.195915 
L 181.508353 155.031876 
L 183.133251 147.419632 
L 185.733087 133.823373 
L 189.307862 115.230645 
L 191.582718 104.68272 
L 193.532595 96.687388 
L 195.482473 89.596305 
L 197.757329 82.251192 
L 200.032186 75.656138 
L 202.307043 69.685003 
L 204.25692 65.13802 
L 205.881817 61.908506 
L 207.181736 59.821223 
L 208.156674 58.617037 
L 209.131613 57.776371 
L 209.781572 57.441441 
L 210.431531 57.302542 
L 211.08149 57.371965 
L 211.731449 57.660689 
L 212.381408 58.178092 
L 213.031367 58.931694 
L 214.006306 60.516201 
L 214.981244 62.652216 
L 215.956183 65.335341 
L 217.256101 69.730921 
L 218.556019 74.985184 
L 220.180917 82.570441 
L 222.455773 94.494297 
L 226.680507 117.091877 
L 228.305405 124.631233 
L 229.605323 129.784399 
L 230.905241 133.985336 
L 231.880179 136.438566 
L 232.855118 138.254621 
L 233.505077 139.100719 
L 234.155036 139.651743 
L 234.804995 139.907873 
L 235.454954 139.871949 
L 236.104913 139.549369 
L 236.754872 138.947951 
L 237.404831 138.07777 
L 238.37977 136.295652 
L 239.354708 133.98519 
L 240.654627 130.180896 
L 241.954545 125.686877 
L 243.904422 118.002385 
L 247.479197 102.5986 
L 250.404012 90.430469 
L 252.353889 83.185518 
L 253.978787 77.881306 
L 255.603685 73.338211 
L 256.903603 70.290324 
L 258.203521 67.784439 
L 259.503439 65.833084 
L 260.478378 64.738956 
L 261.453316 63.9649 
L 262.428255 63.513694 
L 263.403193 63.387932 
L 264.378132 63.589984 
L 265.35307 64.121807 
L 266.328009 64.984633 
L 267.302948 66.178544 
L 268.277886 67.701963 
L 269.577804 70.238813 
L 270.877722 73.337429 
L 272.177641 76.969723 
L 273.802538 82.196469 
L 275.752415 89.321958 
L 278.352251 99.822098 
L 283.226944 119.793618 
L 285.176822 126.728547 
L 286.801719 131.606838 
L 288.101637 134.77974 
L 289.076576 136.68081 
L 290.051514 138.142782 
L 291.026453 139.147427 
L 291.676412 139.557537 
L 292.326371 139.758253 
L 292.97633 139.749875 
L 293.626289 139.53424 
L 294.276248 139.11469 
L 295.251187 138.11393 
L 296.226125 136.687603 
L 297.201064 134.864358 
L 298.500982 131.876332 
L 299.8009 128.340009 
L 301.425798 123.31331 
L 304.025634 114.409264 
L 308.250368 99.857872 
L 310.200245 93.961627 
L 311.825143 89.740258 
L 313.125061 86.906486 
L 314.424979 84.608077 
L 315.399917 83.256879 
L 316.374856 82.236549 
L 317.349794 81.553426 
L 318.324733 81.210398 
L 318.974692 81.170617 
L 319.624651 81.281064 
L 320.59959 81.725204 
L 321.574528 82.497142 
L 322.549467 83.58744 
L 323.524405 84.984315 
L 324.824324 87.29922 
L 326.124242 90.095065 
L 327.749139 94.196545 
L 329.699016 99.871536 
L 331.973873 107.270623 
L 340.423341 135.649284 
L 342.048238 140.038185 
L 343.348156 143.050024 
L 344.648075 145.550756 
L 345.623013 147.059697 
L 346.597952 148.235028 
L 347.57289 149.063899 
L 348.547829 149.538017 
L 349.197788 149.655072 
L 349.847747 149.612964 
L 350.497706 149.412841 
L 351.472645 148.821297 
L 352.447583 147.890493 
L 353.422522 146.63645 
L 354.72244 144.497704 
L 356.022358 141.881467 
L 357.647256 138.049796 
L 359.597133 132.84213 
L 367.071662 112.132354 
L 368.696559 108.559952 
L 369.996478 106.159098 
L 371.296396 104.219626 
L 372.271334 103.091451 
L 373.246273 102.256633 
L 374.221211 101.723303 
L 375.19615 101.495883 
L 376.171089 101.575187 
L 377.146027 101.958551 
L 378.120966 102.640004 
L 379.095904 103.610454 
L 380.070843 104.857893 
L 381.370761 106.926257 
L 382.670679 109.41908 
L 384.295577 113.057747 
L 386.245454 118.047716 
L 388.84529 125.417263 
L 392.095085 135.029933 
L 392.095085 135.029933 
" clip-path="url(#p537dc33602)" style="fill: none; stroke: #1f77b4; stroke-width: 1.5; stroke-linecap: square"/>
   </g>
   <g id="line2d_13">
    <path d="M 67.44054 130.652952 
L 99.938492 130.652952 
L 100.263472 130.487509 
L 100.588451 130.012321 
L 101.23841 128.364981 
L 101.888369 126.010363 
L 102.863308 121.484009 
L 104.163226 114.143587 
L 108.06298 90.677628 
L 109.037919 86.200477 
L 110.012858 82.848305 
L 110.662817 81.342595 
L 111.312776 80.475706 
L 111.637755 80.292653 
L 111.962735 80.280602 
L 112.287714 80.441515 
L 112.612694 80.776467 
L 113.262653 81.968314 
L 113.912612 83.846871 
L 114.562571 86.388753 
L 115.537509 91.36067 
L 116.512448 97.55986 
L 117.812366 107.318714 
L 120.412202 129.260456 
L 122.0371 142.301558 
L 123.337018 151.088816 
L 124.311957 156.256222 
L 124.961916 158.885248 
L 125.611875 160.79217 
L 126.261834 161.930711 
L 126.586813 162.200789 
L 126.911793 162.267127 
L 127.236772 162.127544 
L 127.561752 161.780692 
L 128.211711 160.463934 
L 128.86167 158.322631 
L 129.511629 155.375561 
L 130.486568 149.5159 
L 131.461506 142.071211 
L 132.761424 130.044483 
L 134.386322 112.511109 
L 139.585994 53.595688 
L 140.885912 41.808267 
L 141.860851 34.424547 
L 142.83579 28.442609 
L 143.810728 23.945432 
L 144.460687 21.789909 
L 145.110646 20.306347 
L 145.760605 19.482207 
L 146.085585 19.311037 
L 146.410564 19.296 
L 146.735544 19.433125 
L 147.385503 20.14567 
L 148.035462 21.408077 
L 148.685421 23.173706 
L 149.66036 26.651608 
L 150.635298 30.95497 
L 152.260196 39.414381 
L 157.459868 67.933006 
L 158.759786 73.643562 
L 160.059704 78.432549 
L 161.359622 82.295036 
L 162.659541 85.313594 
L 163.959459 87.641472 
L 165.259377 89.48122 
L 169.80909 95.308137 
L 171.109008 97.57659 
L 172.408926 100.31088 
L 174.033824 104.37349 
L 175.983701 109.957064 
L 179.233496 119.362528 
L 180.533414 122.449262 
L 181.508353 124.270691 
L 182.483292 125.557664 
L 183.133251 126.075296 
L 183.78321 126.294904 
L 184.433169 126.19865 
L 185.083128 125.772886 
L 185.733087 125.008459 
L 186.383046 123.900936 
L 187.357984 121.598625 
L 188.332923 118.548579 
L 189.307862 114.797259 
L 190.60778 108.827659 
L 192.232677 100.130503 
L 194.832514 84.676987 
L 197.43235 69.574796 
L 199.057247 61.422637 
L 200.357165 56.032886 
L 201.332104 52.782028 
L 202.307043 50.276189 
L 202.957002 49.03883 
L 203.606961 48.155405 
L 204.25692 47.627544 
L 204.906879 47.452815 
L 205.556838 47.624894 
L 206.206797 48.13379 
L 206.856756 48.966112 
L 207.506715 50.105382 
L 208.481654 52.347138 
L 209.456592 55.16141 
L 210.75651 59.659723 
L 212.381408 66.182574 
L 214.981244 77.718939 
L 218.231039 92.04065 
L 220.180917 99.775464 
L 222.130794 106.57301 
L 223.755691 111.475839 
L 225.380589 115.712359 
L 227.005487 119.341156 
L 228.630384 122.42944 
L 230.255282 125.032453 
L 231.880179 127.177756 
L 233.180098 128.559633 
L 234.480016 129.62109 
L 235.454954 130.185459 
L 236.429893 130.529942 
L 237.404831 130.632968 
L 238.37977 130.472155 
L 239.354708 130.025783 
L 240.329647 129.274326 
L 241.304586 128.201959 
L 242.279524 126.797963 
L 243.254463 125.057971 
L 244.554381 122.221674 
L 245.854299 118.824112 
L 247.479197 113.877175 
L 249.429074 107.146384 
L 255.603685 85.007799 
L 257.228582 80.37982 
L 258.5285 77.401767 
L 259.503439 75.659748 
L 260.478378 74.376647 
L 261.128337 73.788321 
L 261.778296 73.419323 
L 262.428255 73.272293 
L 263.078214 73.3479 
L 263.728173 73.644862 
L 264.378132 74.16 
L 265.35307 75.330355 
L 266.328009 76.955831 
L 267.302948 79.004442 
L 268.602866 82.326212 
L 270.227763 87.274069 
L 272.177641 94.066091 
L 276.077395 108.817837 
L 278.677231 118.265238 
L 280.627108 124.620541 
L 282.252006 129.262609 
L 283.876903 133.220708 
L 285.176822 135.859346 
L 286.47674 138.012493 
L 287.776658 139.674003 
L 288.751596 140.597436 
L 289.726535 141.246227 
L 290.701473 141.62342 
L 291.676412 141.732987 
L 292.651351 141.579697 
L 293.626289 141.169064 
L 294.601228 140.507394 
L 295.576166 139.601908 
L 296.876084 138.029902 
L 298.176003 136.062964 
L 299.8009 133.093603 
L 301.425798 129.623904 
L 303.375675 124.92747 
L 306.300491 117.209569 
L 310.200245 106.968686 
L 312.150122 102.498287 
L 313.77502 99.376742 
L 315.074938 97.379201 
L 316.049876 96.214419 
L 317.024815 95.360019 
L 317.999754 94.833376 
L 318.974692 94.646998 
L 319.624651 94.715626 
L 320.27461 94.939713 
L 321.249549 95.566564 
L 322.224487 96.537225 
L 323.199426 97.841136 
L 324.499344 100.070284 
L 325.799262 102.813237 
L 327.42416 106.866595 
L 329.374037 112.448918 
L 332.298853 121.680296 
L 336.198607 133.986654 
L 338.148484 139.500246 
L 339.773382 143.538396 
L 341.398279 146.95964 
L 342.698197 149.200108 
L 343.998116 150.96926 
L 344.973054 151.976598 
L 345.947993 152.706282 
L 346.922931 153.158245 
L 347.89787 153.335305 
L 348.872808 153.24299 
L 349.847747 152.88934 
L 350.822686 152.284725 
L 351.797624 151.441657 
L 353.097542 149.971926 
L 354.39746 148.143452 
L 356.022358 145.421232 
L 357.972235 141.642189 
L 360.572071 136.037008 
L 365.771744 124.670956 
L 367.721621 120.982901 
L 369.346518 118.372047 
L 370.646437 116.65727 
L 371.946355 115.322156 
L 372.921293 114.591932 
L 373.896232 114.10783 
L 374.87117 113.879118 
L 375.846109 113.911995 
L 376.821048 114.209447 
L 377.795986 114.77114 
L 378.770925 115.593366 
L 379.745863 116.669046 
L 381.045781 118.47911 
L 382.345699 120.687456 
L 383.970597 123.941898 
L 385.920474 128.435067 
L 388.52031 135.079452 
L 392.095085 144.499575 
L 392.095085 144.499575 
" clip-path="url(#p537dc33602)" style="fill: none; stroke: #ff7f0e; stroke-width: 1.5; stroke-linecap: square"/>
   </g>
   <g id="line2d_14">
    <path d="M 67.44054 130.652952 
L 100.588451 130.590338 
L 101.56339 130.317046 
L 102.863308 129.711266 
L 104.163226 128.860683 
L 105.463144 127.772335 
L 107.088042 126.085073 
L 108.712939 124.052794 
L 110.662817 121.210933 
L 112.937673 117.476314 
L 118.462325 108.191452 
L 120.087223 105.958975 
L 121.387141 104.510602 
L 122.687059 103.433133 
L 123.661998 102.902544 
L 124.636936 102.631661 
L 125.611875 102.635397 
L 126.586813 102.923712 
L 127.561752 103.501203 
L 128.53669 104.366823 
L 129.511629 105.513741 
L 130.811547 107.457946 
L 132.111465 109.833949 
L 133.736363 113.316123 
L 135.68624 118.043666 
L 141.860851 133.466984 
L 143.485749 136.750089 
L 144.785667 138.931945 
L 146.085585 140.658034 
L 147.060523 141.629561 
L 148.035462 142.312526 
L 149.010401 142.702341 
L 149.985339 142.799794 
L 150.960278 142.61083 
L 151.935216 142.146209 
L 152.910155 141.421066 
L 153.885093 140.454382 
L 155.185012 138.828536 
L 156.809909 136.339614 
L 158.759786 132.852276 
L 161.684602 127.068188 
L 165.584356 119.397922 
L 167.859213 115.407236 
L 169.80909 112.432573 
L 171.433988 110.317063 
L 173.058885 108.555052 
L 174.683783 107.158169 
L 175.983701 106.307402 
L 177.283619 105.695159 
L 178.583537 105.322076 
L 179.883455 105.188595 
L 181.183374 105.295065 
L 182.483292 105.641527 
L 183.78321 106.227195 
L 185.083128 107.049707 
L 186.383046 108.104195 
L 188.007944 109.735332 
L 189.632841 111.688986 
L 191.582718 114.401676 
L 194.182555 118.476048 
L 200.032186 127.859088 
L 201.657084 130.036826 
L 203.281981 131.837203 
L 204.581899 132.946808 
L 205.881817 133.722619 
L 206.856756 134.068727 
L 207.831695 134.203972 
L 208.806633 134.124252 
L 209.781572 133.829129 
L 210.75651 133.321876 
L 211.731449 132.609436 
L 213.031367 131.358948 
L 214.331285 129.796656 
L 215.956183 127.471878 
L 217.90606 124.271547 
L 222.130794 116.718642 
L 224.73063 112.359113 
L 226.680507 109.547175 
L 228.305405 107.61384 
L 229.605323 106.376258 
L 230.905241 105.433858 
L 232.205159 104.796567 
L 233.505077 104.466348 
L 234.804995 104.437903 
L 236.104913 104.699556 
L 237.404831 105.23426 
L 238.704749 106.020659 
L 240.329647 107.319856 
L 241.954545 108.920782 
L 243.904422 111.161271 
L 246.504258 114.528715 
L 254.953726 125.868687 
L 256.903603 128.03288 
L 258.5285 129.572356 
L 260.153398 130.824725 
L 261.453316 131.593571 
L 262.753234 132.136927 
L 264.053152 132.441626 
L 265.35307 132.498752 
L 266.652989 132.304262 
L 267.952907 131.859512 
L 269.252825 131.171644 
L 270.552743 130.253797 
L 272.177641 128.812794 
L 274.127518 126.720601 
L 276.402374 123.920804 
L 282.901965 115.679196 
L 284.851842 113.702603 
L 286.47674 112.395718 
L 287.776658 111.611624 
L 289.076576 111.081781 
L 290.376494 110.819222 
L 291.676412 110.829968 
L 292.97633 111.113022 
L 294.276248 111.660595 
L 295.576166 112.458532 
L 297.201064 113.777228 
L 298.825962 115.406083 
L 300.775839 117.686503 
L 303.375675 121.091179 
L 309.225306 128.900647 
L 311.500163 131.509498 
L 313.45004 133.391182 
L 315.074938 134.661562 
L 316.699835 135.633687 
L 317.999754 136.185303 
L 319.299672 136.531059 
L 320.59959 136.670248 
L 321.899508 136.605655 
L 323.199426 136.343452 
L 324.824324 135.752472 
L 326.449221 134.892907 
L 328.074119 133.797074 
L 330.023996 132.22523 
L 332.623832 129.823309 
L 339.123423 123.627273 
L 341.0733 122.103311 
L 342.698197 121.067417 
L 344.323095 120.288809 
L 345.623013 119.873822 
L 346.922931 119.657616 
L 348.222849 119.648514 
L 349.522767 119.850226 
L 350.822686 120.261671 
L 352.122604 120.87694 
L 353.747501 121.916 
L 355.372399 123.225945 
L 357.322276 125.097829 
L 359.922112 127.959591 
L 367.071662 136.126535 
L 369.021539 137.961674 
L 370.646437 139.244154 
L 372.271334 140.265716 
L 373.896232 141.002321 
L 375.19615 141.376843 
L 376.496068 141.557732 
L 377.795986 141.546898 
L 379.095904 141.350233 
L 380.720802 140.858054 
L 382.345699 140.116907 
L 384.295577 138.946055 
L 386.570433 137.278979 
L 389.820229 134.569242 
L 392.095085 132.623172 
L 392.095085 132.623172 
" clip-path="url(#p537dc33602)" style="fill: none; stroke: #2ca02c; stroke-width: 1.5; stroke-linecap: square"/>
   </g>
   <g id="line2d_15">
    <path d="M 67.44054 130.652952 
L 100.263472 130.623226 
L 100.913431 130.407783 
L 101.888369 129.813235 
L 102.863308 128.974149 
L 104.163226 127.540226 
L 105.788124 125.321784 
L 107.738001 122.177156 
L 110.662817 116.89945 
L 113.912612 111.073551 
L 115.862489 108.02872 
L 117.487387 105.943433 
L 118.787305 104.647818 
L 119.762243 103.922334 
L 120.737182 103.423569 
L 121.71212 103.161338 
L 122.687059 103.141272 
L 123.661998 103.364698 
L 124.636936 103.828622 
L 125.611875 104.525806 
L 126.911793 105.798141 
L 128.211711 107.427499 
L 129.836609 109.893044 
L 131.786486 113.332568 
L 135.036281 119.669115 
L 138.286076 125.897057 
L 140.235953 129.22497 
L 141.860851 131.641748 
L 143.485749 133.678353 
L 144.785667 135.011625 
L 146.085585 136.071693 
L 147.385503 136.855028 
L 148.685421 137.362114 
L 149.985339 137.596151 
L 151.285257 137.561948 
L 152.585175 137.265103 
L 153.885093 136.711521 
L 155.185012 135.907301 
L 156.48493 134.858978 
L 158.109827 133.216954 
L 159.734725 131.224467 
L 161.684602 128.409102 
L 163.634479 125.195292 
L 166.234315 120.462621 
L 171.758967 110.232324 
L 173.708844 107.188502 
L 175.333742 105.115403 
L 176.63366 103.83426 
L 177.608599 103.122216 
L 178.583537 102.639356 
L 179.558476 102.395794 
L 180.533414 102.397365 
L 181.508353 102.645369 
L 182.483292 103.13644 
L 183.45823 103.862544 
L 184.758148 105.173945 
L 186.058066 106.838901 
L 187.682964 109.33524 
L 189.632841 112.77333 
L 196.132432 124.701402 
L 197.757329 127.126523 
L 199.382227 129.135222 
L 200.682145 130.406504 
L 201.982063 131.36355 
L 203.281981 132.002975 
L 204.581899 132.33079 
L 205.881817 132.360891 
L 207.181736 132.113337 
L 208.481654 131.612545 
L 209.781572 130.885535 
L 211.406469 129.701375 
L 213.356346 127.947281 
L 215.631203 125.5496 
L 218.556019 122.092235 
L 228.305405 110.221278 
L 230.255282 108.351328 
L 231.880179 107.08721 
L 233.180098 106.311463 
L 234.480016 105.775854 
L 235.779934 105.504968 
L 237.079852 105.518185 
L 238.05479 105.722491 
L 239.354708 106.258867 
L 240.654627 107.094951 
L 241.954545 108.219977 
L 243.254463 109.613827 
L 244.87936 111.688897 
L 246.829238 114.565582 
L 250.079033 119.869122 
L 253.328828 125.068993 
L 255.278705 127.794291 
L 256.903603 129.70504 
L 258.203521 130.9505 
L 259.503439 131.918757 
L 260.803357 132.595796 
L 262.103275 132.97656 
L 263.403193 133.064551 
L 264.703111 132.87111 
L 266.00303 132.414438 
L 267.302948 131.718447 
L 268.927845 130.555452 
L 270.877722 128.812776 
L 273.152579 126.446027 
L 281.602047 117.306244 
L 283.551924 115.642714 
L 285.176822 114.494508 
L 286.801719 113.594908 
L 288.426617 112.969216 
L 289.726535 112.679801 
L 291.026453 112.586919 
L 292.326371 112.696141 
L 293.626289 113.010246 
L 294.926207 113.528863 
L 296.551105 114.458461 
L 298.176003 115.685234 
L 299.8009 117.183166 
L 301.750777 119.286939 
L 304.350613 122.47481 
L 311.500163 131.531525 
L 313.45004 133.538994 
L 315.074938 134.916213 
L 316.699835 135.97848 
L 317.999754 136.580748 
L 319.299672 136.952629 
L 320.59959 137.090753 
L 321.899508 136.997573 
L 323.199426 136.681187 
L 324.499344 136.154983 
L 326.124242 135.23029 
L 327.749139 134.051016 
L 329.699016 132.374302 
L 332.623832 129.537529 
L 337.173546 125.124853 
L 339.448402 123.258003 
L 341.398279 121.973805 
L 343.023177 121.174627 
L 344.648075 120.650061 
L 345.947993 120.439741 
L 347.247911 120.420395 
L 348.547829 120.592481 
L 349.847747 120.952726 
L 351.472645 121.656856 
L 353.097542 122.623236 
L 355.047419 124.088773 
L 357.322276 126.141748 
L 360.247092 129.144082 
L 366.421703 135.631639 
L 368.696559 137.667 
L 370.646437 139.119368 
L 372.271334 140.080539 
L 373.896232 140.788909 
L 375.521129 141.228003 
L 377.146027 141.389718 
L 378.770925 141.274612 
L 380.395822 140.891928 
L 382.02072 140.259369 
L 383.645618 139.402599 
L 385.595495 138.125265 
L 388.195331 136.113836 
L 392.095085 132.824966 
L 392.095085 132.824966 
" clip-path="url(#p537dc33602)" style="fill: none; stroke: #d62728; stroke-width: 1.5; stroke-linecap: square"/>
   </g>
   <g id="patch_3">
    <path d="M 51.207813 273.312 
L 51.207813 7.2 
" style="fill: none; stroke: #000000; stroke-width: 0.8; stroke-linejoin: miter; stroke-linecap: square"/>
   </g>
   <g id="patch_4">
    <path d="M 408.327813 273.312 
L 408.327813 7.2 
" style="fill: none; stroke: #000000; stroke-width: 0.8; stroke-linejoin: miter; stroke-linecap: square"/>
   </g>
   <g id="patch_5">
    <path d="M 51.207813 273.312 
L 408.327813 273.312 
" style="fill: none; stroke: #000000; stroke-width: 0.8; stroke-linejoin: miter; stroke-linecap: square"/>
   </g>
   <g id="patch_6">
    <path d="M 51.207813 7.2 
L 408.327813 7.2 
" style="fill: none; stroke: #000000; stroke-width: 0.8; stroke-linejoin: miter; stroke-linecap: square"/>
   </g>
   <g id="legend_1">
    <g id="patch_7">
     <path d="M 330.279375 75.025 
L 401.327813 75.025 
Q 403.327813 75.025 403.327813 73.025 
L 403.327813 14.2 
Q 403.327813 12.2 401.327813 12.2 
L 330.279375 12.2 
Q 328.279375 12.2 328.279375 14.2 
L 328.279375 73.025 
Q 328.279375 75.025 330.279375 75.025 
z
" style="fill: #ffffff; opacity: 0.8; stroke: #cccccc; stroke-linejoin: miter"/>
    </g>
    <g id="line2d_16">
     <path d="M 332.279375 20.298437 
L 342.279375 20.298437 
L 352.279375 20.298437 
" style="fill: none; stroke: #1f77b4; stroke-width: 1.5; stroke-linecap: square"/>
    </g>
    <g id="text_12">
     <!-- v_pss_1 -->
     <g transform="translate(360.279375 23.798437)scale(0.1 -0.1)">
      <defs>
       <path id="DejaVuSans-76" d="M 191 3500 
L 800 3500 
L 1894 563 
L 2988 3500 
L 3597 3500 
L 2284 0 
L 1503 0 
L 191 3500 
z
" transform="scale(0.015625)"/>
       <path id="DejaVuSans-5f" d="M 3263 -1063 
L 3263 -1509 
L -63 -1509 
L -63 -1063 
L 3263 -1063 
z
" transform="scale(0.015625)"/>
       <path id="DejaVuSans-70" d="M 1159 525 
L 1159 -1331 
L 581 -1331 
L 581 3500 
L 1159 3500 
L 1159 2969 
Q 1341 3281 1617 3432 
Q 1894 3584 2278 3584 
Q 2916 3584 3314 3078 
Q 3713 2572 3713 1747 
Q 3713 922 3314 415 
Q 2916 -91 2278 -91 
Q 1894 -91 1617 61 
Q 1341 213 1159 525 
z
M 3116 1747 
Q 3116 2381 2855 2742 
Q 2594 3103 2138 3103 
Q 1681 3103 1420 2742 
Q 1159 2381 1159 1747 
Q 1159 1113 1420 752 
Q 1681 391 2138 391 
Q 2594 391 2855 752 
Q 3116 1113 3116 1747 
z
" transform="scale(0.015625)"/>
       <path id="DejaVuSans-73" d="M 2834 3397 
L 2834 2853 
Q 2591 2978 2328 3040 
Q 2066 3103 1784 3103 
Q 1356 3103 1142 2972 
Q 928 2841 928 2578 
Q 928 2378 1081 2264 
Q 1234 2150 1697 2047 
L 1894 2003 
Q 2506 1872 2764 1633 
Q 3022 1394 3022 966 
Q 3022 478 2636 193 
Q 2250 -91 1575 -91 
Q 1294 -91 989 -36 
Q 684 19 347 128 
L 347 722 
Q 666 556 975 473 
Q 1284 391 1588 391 
Q 1994 391 2212 530 
Q 2431 669 2431 922 
Q 2431 1156 2273 1281 
Q 2116 1406 1581 1522 
L 1381 1569 
Q 847 1681 609 1914 
Q 372 2147 372 2553 
Q 372 3047 722 3315 
Q 1072 3584 1716 3584 
Q 2034 3584 2315 3537 
Q 2597 3491 2834 3397 
z
" transform="scale(0.015625)"/>
      </defs>
      <use xlink:href="#DejaVuSans-76"/>
      <use xlink:href="#DejaVuSans-5f" x="59.179688"/>
      <use xlink:href="#DejaVuSans-70" x="109.179688"/>
      <use xlink:href="#DejaVuSans-73" x="172.65625"/>
      <use xlink:href="#DejaVuSans-73" x="224.755859"/>
      <use xlink:href="#DejaVuSans-5f" x="276.855469"/>
      <use xlink:href="#DejaVuSans-31" x="326.855469"/>
     </g>
    </g>
    <g id="line2d_17">
     <path d="M 332.279375 35.254687 
L 342.279375 35.254687 
L 352.279375 35.254687 
" style="fill: none; stroke: #ff7f0e; stroke-width: 1.5; stroke-linecap: square"/>
    </g>
    <g id="text_13">
     <!-- v_pss_2 -->
     <g transform="translate(360.279375 38.754687)scale(0.1 -0.1)">
      <use xlink:href="#DejaVuSans-76"/>
      <use xlink:href="#DejaVuSans-5f" x="59.179688"/>
      <use xlink:href="#DejaVuSans-70" x="109.179688"/>
      <use xlink:href="#DejaVuSans-73" x="172.65625"/>
      <use xlink:href="#DejaVuSans-73" x="224.755859"/>
      <use xlink:href="#DejaVuSans-5f" x="276.855469"/>
      <use xlink:href="#DejaVuSans-32" x="326.855469"/>
     </g>
    </g>
    <g id="line2d_18">
     <path d="M 332.279375 50.210937 
L 342.279375 50.210937 
L 352.279375 50.210937 
" style="fill: none; stroke: #2ca02c; stroke-width: 1.5; stroke-linecap: square"/>
    </g>
    <g id="text_14">
     <!-- v_pss_3 -->
     <g transform="translate(360.279375 53.710937)scale(0.1 -0.1)">
      <defs>
       <path id="DejaVuSans-33" d="M 2597 2516 
Q 3050 2419 3304 2112 
Q 3559 1806 3559 1356 
Q 3559 666 3084 287 
Q 2609 -91 1734 -91 
Q 1441 -91 1130 -33 
Q 819 25 488 141 
L 488 750 
Q 750 597 1062 519 
Q 1375 441 1716 441 
Q 2309 441 2620 675 
Q 2931 909 2931 1356 
Q 2931 1769 2642 2001 
Q 2353 2234 1838 2234 
L 1294 2234 
L 1294 2753 
L 1863 2753 
Q 2328 2753 2575 2939 
Q 2822 3125 2822 3475 
Q 2822 3834 2567 4026 
Q 2313 4219 1838 4219 
Q 1578 4219 1281 4162 
Q 984 4106 628 3988 
L 628 4550 
Q 988 4650 1302 4700 
Q 1616 4750 1894 4750 
Q 2613 4750 3031 4423 
Q 3450 4097 3450 3541 
Q 3450 3153 3228 2886 
Q 3006 2619 2597 2516 
z
" transform="scale(0.015625)"/>
      </defs>
      <use xlink:href="#DejaVuSans-76"/>
      <use xlink:href="#DejaVuSans-5f" x="59.179688"/>
      <use xlink:href="#DejaVuSans-70" x="109.179688"/>
      <use xlink:href="#DejaVuSans-73" x="172.65625"/>
      <use xlink:href="#DejaVuSans-73" x="224.755859"/>
      <use xlink:href="#DejaVuSans-5f" x="276.855469"/>
      <use xlink:href="#DejaVuSans-33" x="326.855469"/>
     </g>
    </g>
    <g id="line2d_19">
     <path d="M 332.279375 65.167187 
L 342.279375 65.167187 
L 352.279375 65.167187 
" style="fill: none; stroke: #d62728; stroke-width: 1.5; stroke-linecap: square"/>
    </g>
    <g id="text_15">
     <!-- v_pss_4 -->
     <g transform="translate(360.279375 68.667187)scale(0.1 -0.1)">
      <use xlink:href="#DejaVuSans-76"/>
      <use xlink:href="#DejaVuSans-5f" x="59.179688"/>
      <use xlink:href="#DejaVuSans-70" x="109.179688"/>
      <use xlink:href="#DejaVuSans-73" x="172.65625"/>
      <use xlink:href="#DejaVuSans-73" x="224.755859"/>
      <use xlink:href="#DejaVuSans-5f" x="276.855469"/>
      <use xlink:href="#DejaVuSans-34" x="326.855469"/>
     </g>
    </g>
   </g>
  </g>
 </g>
 <defs>
  <clipPath id="p537dc33602">
   <rect x="51.207813" y="7.2" width="357.12" height="266.112"/>
  </clipPath>
 </defs>
</svg>
