<?xml version="1.0" encoding="utf-8" standalone="no"?>
<!DOCTYPE svg PUBLIC "-//W3C//DTD SVG 1.1//EN"
  "http://www.w3.org/Graphics/SVG/1.1/DTD/svg11.dtd">
<!-- Created with matplotlib (https://matplotlib.org/) -->
<svg height="248.518125pt" version="1.1" viewBox="0 0 384.828125 248.518125" width="384.828125pt" xmlns="http://www.w3.org/2000/svg" xmlns:xlink="http://www.w3.org/1999/xlink">
 <metadata>
  <rdf:RDF xmlns:cc="http://creativecommons.org/ns#" xmlns:dc="http://purl.org/dc/elements/1.1/" xmlns:rdf="http://www.w3.org/1999/02/22-rdf-syntax-ns#">
   <cc:Work>
    <dc:type rdf:resource="http://purl.org/dc/dcmitype/StillImage"/>
    <dc:date>2021-04-15T22:03:22.372984</dc:date>
    <dc:format>image/svg+xml</dc:format>
    <dc:creator>
     <cc:Agent>
      <dc:title>Matplotlib v3.3.2, https://matplotlib.org/</dc:title>
     </cc:Agent>
    </dc:creator>
   </cc:Work>
  </rdf:RDF>
 </metadata>
 <defs>
  <style type="text/css">*{stroke-linecap:butt;stroke-linejoin:round;}</style>
 </defs>
 <g id="figure_1">
  <g id="patch_1">
   <path d="M 0 248.518125 
L 384.828125 248.518125 
L 384.828125 0 
L 0 0 
z
" style="fill:none;"/>
  </g>
  <g id="axes_1">
   <g id="patch_2">
    <path d="M 42.828125 224.64 
L 377.628125 224.64 
L 377.628125 7.2 
L 42.828125 7.2 
z
" style="fill:#ffffff;"/>
   </g>
   <g id="matplotlib.axis_1">
    <g id="xtick_1">
     <g id="line2d_1">
      <defs>
       <path d="M 0 0 
L 0 3.5 
" id="m34a8846918" style="stroke:#000000;stroke-width:0.8;"/>
      </defs>
      <g>
       <use style="stroke:#000000;stroke-width:0.8;" x="58.046307" xlink:href="#m34a8846918" y="224.64"/>
      </g>
     </g>
     <g id="text_1">
      <!-- 0 -->
      <g transform="translate(54.865057 239.238438)scale(0.1 -0.1)">
       <defs>
        <path d="M 31.78125 66.40625 
Q 24.171875 66.40625 20.328125 58.90625 
Q 16.5 51.421875 16.5 36.375 
Q 16.5 21.390625 20.328125 13.890625 
Q 24.171875 6.390625 31.78125 6.390625 
Q 39.453125 6.390625 43.28125 13.890625 
Q 47.125 21.390625 47.125 36.375 
Q 47.125 51.421875 43.28125 58.90625 
Q 39.453125 66.40625 31.78125 66.40625 
z
M 31.78125 74.21875 
Q 44.046875 74.21875 50.515625 64.515625 
Q 56.984375 54.828125 56.984375 36.375 
Q 56.984375 17.96875 50.515625 8.265625 
Q 44.046875 -1.421875 31.78125 -1.421875 
Q 19.53125 -1.421875 13.0625 8.265625 
Q 6.59375 17.96875 6.59375 36.375 
Q 6.59375 54.828125 13.0625 64.515625 
Q 19.53125 74.21875 31.78125 74.21875 
z
" id="DejaVuSans-48"/>
       </defs>
       <use xlink:href="#DejaVuSans-48"/>
      </g>
     </g>
    </g>
    <g id="xtick_2">
     <g id="line2d_2">
      <g>
       <use style="stroke:#000000;stroke-width:0.8;" x="98.76385" xlink:href="#m34a8846918" y="224.64"/>
      </g>
     </g>
     <g id="text_2">
      <!-- 2 -->
      <g transform="translate(95.5826 239.238438)scale(0.1 -0.1)">
       <defs>
        <path d="M 19.1875 8.296875 
L 53.609375 8.296875 
L 53.609375 0 
L 7.328125 0 
L 7.328125 8.296875 
Q 12.9375 14.109375 22.625 23.890625 
Q 32.328125 33.6875 34.8125 36.53125 
Q 39.546875 41.84375 41.421875 45.53125 
Q 43.3125 49.21875 43.3125 52.78125 
Q 43.3125 58.59375 39.234375 62.25 
Q 35.15625 65.921875 28.609375 65.921875 
Q 23.96875 65.921875 18.8125 64.3125 
Q 13.671875 62.703125 7.8125 59.421875 
L 7.8125 69.390625 
Q 13.765625 71.78125 18.9375 73 
Q 24.125 74.21875 28.421875 74.21875 
Q 39.75 74.21875 46.484375 68.546875 
Q 53.21875 62.890625 53.21875 53.421875 
Q 53.21875 48.921875 51.53125 44.890625 
Q 49.859375 40.875 45.40625 35.40625 
Q 44.1875 33.984375 37.640625 27.21875 
Q 31.109375 20.453125 19.1875 8.296875 
z
" id="DejaVuSans-50"/>
       </defs>
       <use xlink:href="#DejaVuSans-50"/>
      </g>
     </g>
    </g>
    <g id="xtick_3">
     <g id="line2d_3">
      <g>
       <use style="stroke:#000000;stroke-width:0.8;" x="139.481393" xlink:href="#m34a8846918" y="224.64"/>
      </g>
     </g>
     <g id="text_3">
      <!-- 4 -->
      <g transform="translate(136.300143 239.238438)scale(0.1 -0.1)">
       <defs>
        <path d="M 37.796875 64.3125 
L 12.890625 25.390625 
L 37.796875 25.390625 
z
M 35.203125 72.90625 
L 47.609375 72.90625 
L 47.609375 25.390625 
L 58.015625 25.390625 
L 58.015625 17.1875 
L 47.609375 17.1875 
L 47.609375 0 
L 37.796875 0 
L 37.796875 17.1875 
L 4.890625 17.1875 
L 4.890625 26.703125 
z
" id="DejaVuSans-52"/>
       </defs>
       <use xlink:href="#DejaVuSans-52"/>
      </g>
     </g>
    </g>
    <g id="xtick_4">
     <g id="line2d_4">
      <g>
       <use style="stroke:#000000;stroke-width:0.8;" x="180.198937" xlink:href="#m34a8846918" y="224.64"/>
      </g>
     </g>
     <g id="text_4">
      <!-- 6 -->
      <g transform="translate(177.017687 239.238438)scale(0.1 -0.1)">
       <defs>
        <path d="M 33.015625 40.375 
Q 26.375 40.375 22.484375 35.828125 
Q 18.609375 31.296875 18.609375 23.390625 
Q 18.609375 15.53125 22.484375 10.953125 
Q 26.375 6.390625 33.015625 6.390625 
Q 39.65625 6.390625 43.53125 10.953125 
Q 47.40625 15.53125 47.40625 23.390625 
Q 47.40625 31.296875 43.53125 35.828125 
Q 39.65625 40.375 33.015625 40.375 
z
M 52.59375 71.296875 
L 52.59375 62.3125 
Q 48.875 64.0625 45.09375 64.984375 
Q 41.3125 65.921875 37.59375 65.921875 
Q 27.828125 65.921875 22.671875 59.328125 
Q 17.53125 52.734375 16.796875 39.40625 
Q 19.671875 43.65625 24.015625 45.921875 
Q 28.375 48.1875 33.59375 48.1875 
Q 44.578125 48.1875 50.953125 41.515625 
Q 57.328125 34.859375 57.328125 23.390625 
Q 57.328125 12.15625 50.6875 5.359375 
Q 44.046875 -1.421875 33.015625 -1.421875 
Q 20.359375 -1.421875 13.671875 8.265625 
Q 6.984375 17.96875 6.984375 36.375 
Q 6.984375 53.65625 15.1875 63.9375 
Q 23.390625 74.21875 37.203125 74.21875 
Q 40.921875 74.21875 44.703125 73.484375 
Q 48.484375 72.75 52.59375 71.296875 
z
" id="DejaVuSans-54"/>
       </defs>
       <use xlink:href="#DejaVuSans-54"/>
      </g>
     </g>
    </g>
    <g id="xtick_5">
     <g id="line2d_5">
      <g>
       <use style="stroke:#000000;stroke-width:0.8;" x="220.91648" xlink:href="#m34a8846918" y="224.64"/>
      </g>
     </g>
     <g id="text_5">
      <!-- 8 -->
      <g transform="translate(217.73523 239.238438)scale(0.1 -0.1)">
       <defs>
        <path d="M 31.78125 34.625 
Q 24.75 34.625 20.71875 30.859375 
Q 16.703125 27.09375 16.703125 20.515625 
Q 16.703125 13.921875 20.71875 10.15625 
Q 24.75 6.390625 31.78125 6.390625 
Q 38.8125 6.390625 42.859375 10.171875 
Q 46.921875 13.96875 46.921875 20.515625 
Q 46.921875 27.09375 42.890625 30.859375 
Q 38.875 34.625 31.78125 34.625 
z
M 21.921875 38.8125 
Q 15.578125 40.375 12.03125 44.71875 
Q 8.5 49.078125 8.5 55.328125 
Q 8.5 64.0625 14.71875 69.140625 
Q 20.953125 74.21875 31.78125 74.21875 
Q 42.671875 74.21875 48.875 69.140625 
Q 55.078125 64.0625 55.078125 55.328125 
Q 55.078125 49.078125 51.53125 44.71875 
Q 48 40.375 41.703125 38.8125 
Q 48.828125 37.15625 52.796875 32.3125 
Q 56.78125 27.484375 56.78125 20.515625 
Q 56.78125 9.90625 50.3125 4.234375 
Q 43.84375 -1.421875 31.78125 -1.421875 
Q 19.734375 -1.421875 13.25 4.234375 
Q 6.78125 9.90625 6.78125 20.515625 
Q 6.78125 27.484375 10.78125 32.3125 
Q 14.796875 37.15625 21.921875 38.8125 
z
M 18.3125 54.390625 
Q 18.3125 48.734375 21.84375 45.5625 
Q 25.390625 42.390625 31.78125 42.390625 
Q 38.140625 42.390625 41.71875 45.5625 
Q 45.3125 48.734375 45.3125 54.390625 
Q 45.3125 60.0625 41.71875 63.234375 
Q 38.140625 66.40625 31.78125 66.40625 
Q 25.390625 66.40625 21.84375 63.234375 
Q 18.3125 60.0625 18.3125 54.390625 
z
" id="DejaVuSans-56"/>
       </defs>
       <use xlink:href="#DejaVuSans-56"/>
      </g>
     </g>
    </g>
    <g id="xtick_6">
     <g id="line2d_6">
      <g>
       <use style="stroke:#000000;stroke-width:0.8;" x="261.634023" xlink:href="#m34a8846918" y="224.64"/>
      </g>
     </g>
     <g id="text_6">
      <!-- 10 -->
      <g transform="translate(255.271523 239.238438)scale(0.1 -0.1)">
       <defs>
        <path d="M 12.40625 8.296875 
L 28.515625 8.296875 
L 28.515625 63.921875 
L 10.984375 60.40625 
L 10.984375 69.390625 
L 28.421875 72.90625 
L 38.28125 72.90625 
L 38.28125 8.296875 
L 54.390625 8.296875 
L 54.390625 0 
L 12.40625 0 
z
" id="DejaVuSans-49"/>
       </defs>
       <use xlink:href="#DejaVuSans-49"/>
       <use x="63.623047" xlink:href="#DejaVuSans-48"/>
      </g>
     </g>
    </g>
    <g id="xtick_7">
     <g id="line2d_7">
      <g>
       <use style="stroke:#000000;stroke-width:0.8;" x="302.351567" xlink:href="#m34a8846918" y="224.64"/>
      </g>
     </g>
     <g id="text_7">
      <!-- 12 -->
      <g transform="translate(295.989067 239.238438)scale(0.1 -0.1)">
       <use xlink:href="#DejaVuSans-49"/>
       <use x="63.623047" xlink:href="#DejaVuSans-50"/>
      </g>
     </g>
    </g>
    <g id="xtick_8">
     <g id="line2d_8">
      <g>
       <use style="stroke:#000000;stroke-width:0.8;" x="343.06911" xlink:href="#m34a8846918" y="224.64"/>
      </g>
     </g>
     <g id="text_8">
      <!-- 14 -->
      <g transform="translate(336.70661 239.238438)scale(0.1 -0.1)">
       <use xlink:href="#DejaVuSans-49"/>
       <use x="63.623047" xlink:href="#DejaVuSans-52"/>
      </g>
     </g>
    </g>
   </g>
   <g id="matplotlib.axis_2">
    <g id="ytick_1">
     <g id="line2d_9">
      <defs>
       <path d="M 0 0 
L -3.5 0 
" id="m5aa8b5f769" style="stroke:#000000;stroke-width:0.8;"/>
      </defs>
      <g>
       <use style="stroke:#000000;stroke-width:0.8;" x="42.828125" xlink:href="#m5aa8b5f769" y="213.367462"/>
      </g>
     </g>
     <g id="text_9">
      <!-- 0.997 -->
      <g transform="translate(7.2 217.16668)scale(0.1 -0.1)">
       <defs>
        <path d="M 10.6875 12.40625 
L 21 12.40625 
L 21 0 
L 10.6875 0 
z
" id="DejaVuSans-46"/>
        <path d="M 10.984375 1.515625 
L 10.984375 10.5 
Q 14.703125 8.734375 18.5 7.8125 
Q 22.3125 6.890625 25.984375 6.890625 
Q 35.75 6.890625 40.890625 13.453125 
Q 46.046875 20.015625 46.78125 33.40625 
Q 43.953125 29.203125 39.59375 26.953125 
Q 35.25 24.703125 29.984375 24.703125 
Q 19.046875 24.703125 12.671875 31.3125 
Q 6.296875 37.9375 6.296875 49.421875 
Q 6.296875 60.640625 12.9375 67.421875 
Q 19.578125 74.21875 30.609375 74.21875 
Q 43.265625 74.21875 49.921875 64.515625 
Q 56.59375 54.828125 56.59375 36.375 
Q 56.59375 19.140625 48.40625 8.859375 
Q 40.234375 -1.421875 26.421875 -1.421875 
Q 22.703125 -1.421875 18.890625 -0.6875 
Q 15.09375 0.046875 10.984375 1.515625 
z
M 30.609375 32.421875 
Q 37.25 32.421875 41.125 36.953125 
Q 45.015625 41.5 45.015625 49.421875 
Q 45.015625 57.28125 41.125 61.84375 
Q 37.25 66.40625 30.609375 66.40625 
Q 23.96875 66.40625 20.09375 61.84375 
Q 16.21875 57.28125 16.21875 49.421875 
Q 16.21875 41.5 20.09375 36.953125 
Q 23.96875 32.421875 30.609375 32.421875 
z
" id="DejaVuSans-57"/>
        <path d="M 8.203125 72.90625 
L 55.078125 72.90625 
L 55.078125 68.703125 
L 28.609375 0 
L 18.3125 0 
L 43.21875 64.59375 
L 8.203125 64.59375 
z
" id="DejaVuSans-55"/>
       </defs>
       <use xlink:href="#DejaVuSans-48"/>
       <use x="63.623047" xlink:href="#DejaVuSans-46"/>
       <use x="95.410156" xlink:href="#DejaVuSans-57"/>
       <use x="159.033203" xlink:href="#DejaVuSans-57"/>
       <use x="222.65625" xlink:href="#DejaVuSans-55"/>
      </g>
     </g>
    </g>
    <g id="ytick_2">
     <g id="line2d_10">
      <g>
       <use style="stroke:#000000;stroke-width:0.8;" x="42.828125" xlink:href="#m5aa8b5f769" y="174.234886"/>
      </g>
     </g>
     <g id="text_10">
      <!-- 0.998 -->
      <g transform="translate(7.2 178.034104)scale(0.1 -0.1)">
       <use xlink:href="#DejaVuSans-48"/>
       <use x="63.623047" xlink:href="#DejaVuSans-46"/>
       <use x="95.410156" xlink:href="#DejaVuSans-57"/>
       <use x="159.033203" xlink:href="#DejaVuSans-57"/>
       <use x="222.65625" xlink:href="#DejaVuSans-56"/>
      </g>
     </g>
    </g>
    <g id="ytick_3">
     <g id="line2d_11">
      <g>
       <use style="stroke:#000000;stroke-width:0.8;" x="42.828125" xlink:href="#m5aa8b5f769" y="135.10231"/>
      </g>
     </g>
     <g id="text_11">
      <!-- 0.999 -->
      <g transform="translate(7.2 138.901528)scale(0.1 -0.1)">
       <use xlink:href="#DejaVuSans-48"/>
       <use x="63.623047" xlink:href="#DejaVuSans-46"/>
       <use x="95.410156" xlink:href="#DejaVuSans-57"/>
       <use x="159.033203" xlink:href="#DejaVuSans-57"/>
       <use x="222.65625" xlink:href="#DejaVuSans-57"/>
      </g>
     </g>
    </g>
    <g id="ytick_4">
     <g id="line2d_12">
      <g>
       <use style="stroke:#000000;stroke-width:0.8;" x="42.828125" xlink:href="#m5aa8b5f769" y="95.969734"/>
      </g>
     </g>
     <g id="text_12">
      <!-- 1.000 -->
      <g transform="translate(7.2 99.768952)scale(0.1 -0.1)">
       <use xlink:href="#DejaVuSans-49"/>
       <use x="63.623047" xlink:href="#DejaVuSans-46"/>
       <use x="95.410156" xlink:href="#DejaVuSans-48"/>
       <use x="159.033203" xlink:href="#DejaVuSans-48"/>
       <use x="222.65625" xlink:href="#DejaVuSans-48"/>
      </g>
     </g>
    </g>
    <g id="ytick_5">
     <g id="line2d_13">
      <g>
       <use style="stroke:#000000;stroke-width:0.8;" x="42.828125" xlink:href="#m5aa8b5f769" y="56.837158"/>
      </g>
     </g>
     <g id="text_13">
      <!-- 1.001 -->
      <g transform="translate(7.2 60.636377)scale(0.1 -0.1)">
       <use xlink:href="#DejaVuSans-49"/>
       <use x="63.623047" xlink:href="#DejaVuSans-46"/>
       <use x="95.410156" xlink:href="#DejaVuSans-48"/>
       <use x="159.033203" xlink:href="#DejaVuSans-48"/>
       <use x="222.65625" xlink:href="#DejaVuSans-49"/>
      </g>
     </g>
    </g>
    <g id="ytick_6">
     <g id="line2d_14">
      <g>
       <use style="stroke:#000000;stroke-width:0.8;" x="42.828125" xlink:href="#m5aa8b5f769" y="17.704582"/>
      </g>
     </g>
     <g id="text_14">
      <!-- 1.002 -->
      <g transform="translate(7.2 21.503801)scale(0.1 -0.1)">
       <use xlink:href="#DejaVuSans-49"/>
       <use x="63.623047" xlink:href="#DejaVuSans-46"/>
       <use x="95.410156" xlink:href="#DejaVuSans-48"/>
       <use x="159.033203" xlink:href="#DejaVuSans-48"/>
       <use x="222.65625" xlink:href="#DejaVuSans-50"/>
      </g>
     </g>
    </g>
   </g>
   <g id="line2d_15">
    <path clip-path="url(#pd12c00cb8d)" d="M 58.046307 95.930722 
L 78.405078 95.930766 
L 78.608666 96.220163 
L 78.812254 97.367527 
L 79.219429 102.908479 
L 79.830192 117.855295 
L 80.848131 152.061149 
L 82.069657 190.585026 
L 82.680421 203.898337 
L 83.087596 209.890987 
L 83.494771 213.463035 
L 83.698359 214.386682 
L 83.901947 214.756364 
L 84.105535 214.590088 
L 84.309122 213.908652 
L 84.716298 211.107081 
L 85.327061 204.053895 
L 86.141412 190.768248 
L 88.788052 144.636485 
L 89.602403 135.636549 
L 90.213166 131.231057 
L 90.620341 129.400301 
L 91.027517 128.345822 
L 91.434692 127.993703 
L 91.63828 128.043988 
L 92.045455 128.509744 
L 92.656219 129.869026 
L 94.28492 134.272331 
L 94.692096 134.930569 
L 95.099271 135.25429 
L 95.506447 135.184767 
L 95.913622 134.69028 
L 96.320798 133.772787 
L 96.931561 131.592164 
L 97.542324 128.555339 
L 98.356675 123.37853 
L 99.781789 112.559108 
L 101.614078 98.778095 
L 102.632017 92.662405 
L 103.446368 88.917719 
L 104.260718 86.186465 
L 105.075069 84.337146 
L 105.685833 83.411847 
L 106.500183 82.616475 
L 107.518122 82.011276 
L 109.757587 80.803186 
L 111.997052 79.393974 
L 112.811403 79.179292 
L 113.422166 79.244128 
L 114.032929 79.543423 
L 114.643692 80.111923 
L 115.254455 80.945832 
L 116.068806 82.460576 
L 117.086745 84.885923 
L 120.954911 94.937526 
L 121.97285 96.64731 
L 122.787201 97.563279 
L 123.601552 98.085392 
L 124.212315 98.242372 
L 125.026666 98.179982 
L 125.841016 97.859311 
L 126.858955 97.179648 
L 128.080481 96.062066 
L 129.505595 94.436001 
L 131.134297 92.182816 
L 132.762999 89.501592 
L 135.002464 85.281244 
L 137.649104 80.370853 
L 138.87063 78.527609 
L 139.888569 77.33051 
L 140.906507 76.490302 
L 141.720858 76.08863 
L 142.535209 75.92801 
L 143.34956 76.001066 
L 144.163911 76.29185 
L 145.18185 76.929148 
L 146.199788 77.831546 
L 147.421314 79.198068 
L 149.050016 81.377494 
L 155.157648 90.009178 
L 156.379174 91.23091 
L 157.6007 92.131263 
L 158.618639 92.61582 
L 159.636577 92.853109 
L 160.654516 92.849989 
L 161.672455 92.623035 
L 162.893981 92.090453 
L 164.319095 91.176776 
L 166.151384 89.693437 
L 170.630314 85.88041 
L 172.055428 84.968836 
L 173.276954 84.406466 
L 174.498481 84.08189 
L 175.720007 84.014868 
L 176.737946 84.160806 
L 177.959472 84.571312 
L 179.180998 85.22039 
L 180.606112 86.238942 
L 182.438402 87.847774 
L 188.546033 93.540761 
L 190.174735 94.633706 
L 191.599849 95.329874 
L 193.024963 95.767649 
L 194.450077 95.949006 
L 195.875191 95.894235 
L 197.503893 95.589026 
L 199.53977 94.946626 
L 205.443814 92.895635 
L 207.072515 92.62525 
L 208.701217 92.578329 
L 210.329919 92.771975 
L 211.958621 93.197846 
L 213.79091 93.919304 
L 216.233963 95.163855 
L 221.730831 98.097626 
L 223.766708 98.883753 
L 225.598998 99.352678 
L 227.431287 99.579081 
L 229.263577 99.575178 
L 231.299454 99.34352 
L 234.149682 98.757771 
L 239.239375 97.657248 
L 241.682427 97.389153 
L 243.921892 97.374773 
L 246.161357 97.578307 
L 249.011585 98.079262 
L 256.340743 99.496225 
L 258.783795 99.665762 
L 261.226848 99.597211 
L 263.669901 99.305604 
L 266.723716 98.708774 
L 274.867225 96.990347 
L 277.921041 96.64876 
L 281.178444 96.514302 
L 292.986532 96.292063 
L 296.447523 95.832532 
L 300.926453 94.981262 
L 307.848435 93.661988 
L 311.716602 93.176704 
L 315.991944 92.88359 
L 329.428733 92.162909 
L 344.290636 90.832924 
L 349.176742 90.775098 
L 358.134601 90.968983 
L 362.409943 91.03129 
L 362.409943 91.03129 
" style="fill:none;stroke:#1f77b4;stroke-linecap:square;stroke-width:1.5;"/>
   </g>
   <g id="line2d_16">
    <path clip-path="url(#pd12c00cb8d)" d="M 58.046307 95.953414 
L 78.405078 95.953537 
L 78.608666 95.781968 
L 78.812254 95.099494 
L 79.219429 91.767254 
L 79.626605 86.08492 
L 80.237368 74.355368 
L 82.273245 30.58354 
L 82.884008 22.306941 
L 83.291184 18.913508 
L 83.698359 17.26439 
L 83.901947 17.083636 
L 84.105535 17.32294 
L 84.309122 17.97238 
L 84.716298 20.44206 
L 85.327061 26.62697 
L 86.141412 38.4634 
L 88.99164 84.795725 
L 89.602403 91.004213 
L 90.213166 94.960004 
L 90.620341 96.278582 
L 90.823929 96.555781 
L 91.027517 96.581118 
L 91.231105 96.361127 
L 91.63828 95.232152 
L 92.045455 93.271788 
L 92.656219 89.023958 
L 93.47057 81.614106 
L 96.320798 53.796546 
L 97.135148 48.269911 
L 97.745912 45.205715 
L 98.356675 43.069383 
L 98.967438 41.791191 
L 99.374613 41.360337 
L 99.781789 41.225949 
L 100.188964 41.354479 
L 100.59614 41.685894 
L 101.206903 42.524587 
L 102.224841 44.453373 
L 105.278657 51.121972 
L 106.500183 54.26261 
L 107.518122 57.575883 
L 108.536061 61.793909 
L 109.553999 67.027319 
L 110.775525 74.528457 
L 115.254455 103.722401 
L 116.272394 108.278916 
L 117.086745 110.997329 
L 117.901096 112.890883 
L 118.511859 113.801369 
L 119.122622 114.315171 
L 119.733385 114.466479 
L 120.344148 114.304236 
L 120.954911 113.861532 
L 121.769262 112.897881 
L 122.583613 111.564595 
L 123.601552 109.438889 
L 124.823078 106.272668 
L 126.044604 102.482089 
L 127.673306 96.602375 
L 132.355823 78.955044 
L 133.373762 76.152296 
L 134.188113 74.413238 
L 135.002464 73.167195 
L 135.613227 72.568499 
L 136.22399 72.260243 
L 136.834753 72.236817 
L 137.445516 72.488171 
L 138.056279 73.000426 
L 138.87063 74.057655 
L 139.684981 75.498355 
L 140.70292 77.756924 
L 142.128034 81.578944 
L 144.163911 87.84061 
L 147.421314 97.923617 
L 148.846428 101.658582 
L 150.067955 104.263963 
L 151.085893 105.926019 
L 151.900244 106.887663 
L 152.714595 107.504643 
L 153.325358 107.736953 
L 153.936121 107.776608 
L 154.546885 107.623777 
L 155.157648 107.287032 
L 155.971999 106.568911 
L 156.989937 105.276195 
L 158.007876 103.607902 
L 159.43299 100.78781 
L 161.672455 95.731939 
L 164.319095 89.889785 
L 165.744209 87.268225 
L 166.965735 85.492035 
L 167.983674 84.407701 
L 168.798025 83.822862 
L 169.612376 83.49914 
L 170.426726 83.438838 
L 171.241077 83.637859 
L 172.055428 84.085616 
L 172.869779 84.765589 
L 173.887718 85.909234 
L 175.109244 87.643045 
L 176.737946 90.392955 
L 181.827639 99.377568 
L 183.252753 101.282023 
L 184.474279 102.523016 
L 185.492217 103.248894 
L 186.510156 103.680452 
L 187.324507 103.812177 
L 188.138858 103.757319 
L 189.156796 103.439713 
L 190.174735 102.867139 
L 191.396261 101.888687 
L 192.821375 100.431209 
L 195.06084 97.746608 
L 197.911068 94.359759 
L 199.53977 92.7873 
L 200.761296 91.892906 
L 201.982822 91.288182 
L 203.000761 91.022204 
L 204.0187 90.977124 
L 205.036638 91.148433 
L 206.054577 91.523815 
L 207.276103 92.21595 
L 208.701217 93.299144 
L 210.533507 94.991688 
L 215.216024 99.486563 
L 216.844726 100.673729 
L 218.26984 101.422426 
L 219.491366 101.820573 
L 220.712892 101.984254 
L 221.934419 101.916702 
L 223.155945 101.632653 
L 224.581059 101.061591 
L 226.209761 100.160343 
L 228.652813 98.52209 
L 231.910217 96.364079 
L 233.742506 95.424347 
L 235.371208 94.856242 
L 236.796322 94.59658 
L 238.221436 94.563854 
L 239.64655 94.747649 
L 241.275252 95.18784 
L 243.311129 95.996283 
L 250.029524 98.926036 
L 251.861813 99.356011 
L 253.490515 99.509394 
L 255.119217 99.43872 
L 256.747918 99.156187 
L 258.580208 98.623522 
L 261.02326 97.670044 
L 266.520129 95.426932 
L 268.556006 94.85838 
L 270.591883 94.526567 
L 272.62776 94.441533 
L 274.663637 94.577517 
L 277.310278 94.991424 
L 283.825085 96.131721 
L 286.268137 96.259062 
L 288.507602 96.147975 
L 290.950655 95.789383 
L 294.00447 95.084357 
L 300.926453 93.374257 
L 303.573093 92.997155 
L 306.219733 92.852792 
L 309.069961 92.928644 
L 313.548891 93.315421 
L 318.027821 93.638924 
L 321.285224 93.644854 
L 324.542628 93.423047 
L 329.225145 92.84623 
L 334.518426 92.238997 
L 337.979417 92.069534 
L 341.440408 92.122099 
L 346.122926 92.438707 
L 353.248496 92.912483 
L 357.727426 92.95983 
L 362.409943 92.836265 
L 362.409943 92.836265 
" style="fill:none;stroke:#ff7f0e;stroke-linecap:square;stroke-width:1.5;"/>
   </g>
   <g id="line2d_17">
    <path clip-path="url(#pd12c00cb8d)" d="M 58.046307 95.985467 
L 78.608666 95.944072 
L 78.812254 95.780666 
L 79.219429 95.00071 
L 79.830192 92.984613 
L 81.255307 87.682342 
L 81.662482 86.719494 
L 82.069657 86.245047 
L 82.273245 86.205719 
L 82.680421 86.467778 
L 83.087596 87.235429 
L 83.698359 89.203967 
L 84.51271 92.882857 
L 86.141412 100.679097 
L 86.752175 102.756808 
L 87.362938 104.03972 
L 87.770113 104.43426 
L 88.177289 104.459255 
L 88.584464 104.140548 
L 88.99164 103.530339 
L 89.602403 102.178413 
L 91.027517 98.105967 
L 92.045455 95.56302 
L 92.656219 94.539236 
L 93.063394 94.106199 
L 93.47057 93.906696 
L 93.877745 93.919532 
L 94.28492 94.14575 
L 94.895684 94.84485 
L 95.710034 96.306022 
L 96.931561 99.139227 
L 98.560262 102.850324 
L 99.578201 104.600056 
L 100.392552 105.571635 
L 101.206903 106.18166 
L 101.817666 106.422923 
L 102.632017 106.491876 
L 103.649955 106.282026 
L 104.871482 105.77263 
L 106.296596 104.946195 
L 107.518122 103.997592 
L 108.536061 102.956615 
L 109.553999 101.622391 
L 110.775525 99.593347 
L 111.997052 97.127515 
L 114.032929 92.397403 
L 116.475981 86.77748 
L 117.901096 84.031155 
L 119.122622 82.125358 
L 120.344148 80.651846 
L 121.362087 79.745925 
L 122.380025 79.117455 
L 123.397964 78.753933 
L 124.415902 78.646739 
L 125.433841 78.789362 
L 126.45178 79.17313 
L 127.673306 79.930785 
L 128.894832 80.964548 
L 130.523534 82.645994 
L 134.391701 86.852052 
L 135.816815 88.070266 
L 137.038341 88.851009 
L 138.259867 89.35459 
L 139.481393 89.569219 
L 140.499332 89.528751 
L 141.517271 89.29602 
L 142.738797 88.783564 
L 144.163911 87.910772 
L 145.9962 86.468986 
L 151.493069 81.873528 
L 152.918183 81.057902 
L 154.139709 80.58171 
L 155.361235 80.333976 
L 156.582762 80.322271 
L 157.804288 80.542762 
L 159.025814 80.981964 
L 160.450928 81.739399 
L 162.07963 82.86114 
L 164.72627 85.039268 
L 168.390849 88.03687 
L 170.223139 89.225773 
L 171.648253 89.927854 
L 173.073367 90.404228 
L 174.498481 90.658039 
L 175.923595 90.697878 
L 177.552296 90.519715 
L 179.588174 90.050576 
L 185.899393 88.376608 
L 187.731682 88.227932 
L 189.360384 88.316839 
L 190.989086 88.625694 
L 192.617788 89.143976 
L 194.653665 90.04362 
L 197.503893 91.612353 
L 202.18641 94.245682 
L 204.425875 95.226164 
L 206.461752 95.861118 
L 208.497629 96.23296 
L 210.533507 96.361629 
L 212.976559 96.268476 
L 221.730831 95.652562 
L 224.173884 95.859861 
L 226.616936 96.299318 
L 229.670752 97.097488 
L 236.592734 99.012462 
L 239.239375 99.449876 
L 241.682427 99.623618 
L 244.329068 99.573688 
L 247.586471 99.260361 
L 255.933567 98.309618 
L 259.394559 98.218126 
L 263.669901 98.360731 
L 270.388295 98.598633 
L 273.645699 98.476993 
L 276.903102 98.141493 
L 280.974857 97.486009 
L 290.339891 95.886958 
L 294.818821 95.411381 
L 310.291488 94.015714 
L 326.374917 91.861479 
L 331.871786 91.522984 
L 357.523838 90.449956 
L 362.409943 90.50743 
L 362.409943 90.50743 
" style="fill:none;stroke:#2ca02c;stroke-linecap:square;stroke-width:1.5;"/>
   </g>
   <g id="line2d_18">
    <path clip-path="url(#pd12c00cb8d)" d="M 58.046307 96.009332 
L 78.608666 95.932981 
L 78.812254 95.634426 
L 79.219429 94.239573 
L 79.830192 90.728253 
L 83.698359 65.009842 
L 85.123473 57.95757 
L 86.141412 53.887065 
L 86.955763 51.398429 
L 87.566526 50.055975 
L 88.177289 49.262986 
L 88.584464 49.041305 
L 88.99164 49.100603 
L 89.398815 49.396018 
L 89.805991 49.979439 
L 90.416754 51.30782 
L 91.027517 53.19645 
L 91.841868 56.455053 
L 92.859806 61.556033 
L 94.28492 70.105867 
L 96.727973 86.625846 
L 98.76385 99.955307 
L 99.985376 106.797879 
L 101.003315 111.45918 
L 101.817666 114.38652 
L 102.632017 116.5198 
L 103.24278 117.592815 
L 103.853543 118.224996 
L 104.260718 118.40924 
L 104.667894 118.412213 
L 105.075069 118.240156 
L 105.685833 117.674752 
L 106.296596 116.768026 
L 107.110947 115.088596 
L 108.128885 112.335968 
L 109.350411 108.251213 
L 110.775525 102.650657 
L 112.811403 93.615076 
L 116.068806 78.991159 
L 117.290332 74.404081 
L 118.308271 71.299016 
L 119.122622 69.381753 
L 119.936973 68.018487 
L 120.547736 67.375662 
L 121.158499 67.062098 
L 121.769262 67.072324 
L 122.380025 67.398578 
L 122.990788 68.02481 
L 123.805139 69.294691 
L 124.61949 71.012943 
L 125.637429 73.700553 
L 126.858955 77.554186 
L 128.691244 84.164077 
L 132.355823 97.659176 
L 133.780937 102.020397 
L 135.002464 105.008251 
L 136.020402 106.85931 
L 136.834753 107.882164 
L 137.445516 108.373366 
L 138.056279 108.621179 
L 138.667043 108.635818 
L 139.277806 108.417251 
L 139.888569 107.977483 
L 140.70292 107.071415 
L 141.720858 105.472714 
L 142.942385 102.986257 
L 144.367499 99.517167 
L 147.421314 91.263811 
L 149.253604 86.648649 
L 150.678718 83.639298 
L 151.696656 81.918364 
L 152.714595 80.617764 
L 153.528946 79.905796 
L 154.343297 79.499789 
L 155.157648 79.405206 
L 155.768411 79.537602 
L 156.582762 79.974444 
L 157.397113 80.696217 
L 158.415051 81.965203 
L 159.636577 83.948625 
L 161.061691 86.742203 
L 163.504744 92.119214 
L 165.744209 96.872809 
L 167.169323 99.437378 
L 168.390849 101.204708 
L 169.408788 102.322495 
L 170.426726 103.089742 
L 171.241077 103.444546 
L 172.055428 103.567499 
L 172.869779 103.46436 
L 173.68413 103.147242 
L 174.702068 102.474822 
L 175.720007 101.53139 
L 176.941533 100.108833 
L 178.570235 97.870428 
L 182.845577 91.788463 
L 184.270691 90.201679 
L 185.492217 89.166985 
L 186.510156 88.571276 
L 187.528095 88.235722 
L 188.546033 88.166893 
L 189.563972 88.361594 
L 190.58191 88.80722 
L 191.599849 89.482442 
L 192.821375 90.553908 
L 194.450077 92.323571 
L 197.300305 95.8599 
L 199.53977 98.497523 
L 201.168472 100.073816 
L 202.389998 100.986227 
L 203.611524 101.629911 
L 204.629463 101.948506 
L 205.647401 102.067702 
L 206.66534 101.993429 
L 207.886866 101.666934 
L 209.108393 101.112655 
L 210.737094 100.094993 
L 212.976559 98.380934 
L 216.43755 95.737051 
L 218.066252 94.769911 
L 219.491366 94.166152 
L 220.91648 93.825243 
L 222.138006 93.753603 
L 223.359533 93.882844 
L 224.784647 94.268918 
L 226.413348 94.973768 
L 228.449226 96.134735 
L 233.946094 99.442932 
L 235.574796 100.113275 
L 237.203497 100.532628 
L 238.628611 100.674835 
L 240.053725 100.607005 
L 241.682427 100.292138 
L 243.514717 99.685911 
L 245.957769 98.605014 
L 250.843874 96.374207 
L 252.879752 95.728542 
L 254.712041 95.384662 
L 256.544331 95.282868 
L 258.37662 95.409457 
L 260.412497 95.768537 
L 263.466313 96.558336 
L 267.33448 97.526035 
L 269.573944 97.854634 
L 271.609822 97.930091 
L 273.645699 97.777742 
L 275.885164 97.369906 
L 278.531804 96.649735 
L 285.657374 94.562412 
L 288.100427 94.141049 
L 290.543479 93.954796 
L 293.19012 93.994111 
L 296.651111 94.292648 
L 302.147979 94.769747 
L 304.998207 94.781996 
L 307.848435 94.569879 
L 311.105839 94.095353 
L 320.674461 92.54379 
L 323.728277 92.365284 
L 327.189268 92.400152 
L 332.686137 92.733194 
L 337.572242 92.946039 
L 341.440408 92.901425 
L 346.530101 92.600145 
L 353.248496 92.21848 
L 357.32025 92.215091 
L 361.79918 92.435188 
L 362.409943 92.478354 
L 362.409943 92.478354 
" style="fill:none;stroke:#d62728;stroke-linecap:square;stroke-width:1.5;"/>
   </g>
   <g id="patch_3">
    <path d="M 42.828125 224.64 
L 42.828125 7.2 
" style="fill:none;stroke:#000000;stroke-linecap:square;stroke-linejoin:miter;stroke-width:0.8;"/>
   </g>
   <g id="patch_4">
    <path d="M 377.628125 224.64 
L 377.628125 7.2 
" style="fill:none;stroke:#000000;stroke-linecap:square;stroke-linejoin:miter;stroke-width:0.8;"/>
   </g>
   <g id="patch_5">
    <path d="M 42.828125 224.64 
L 377.628125 224.64 
" style="fill:none;stroke:#000000;stroke-linecap:square;stroke-linejoin:miter;stroke-width:0.8;"/>
   </g>
   <g id="patch_6">
    <path d="M 42.828125 7.2 
L 377.628125 7.2 
" style="fill:none;stroke:#000000;stroke-linecap:square;stroke-linejoin:miter;stroke-width:0.8;"/>
   </g>
   <g id="legend_1">
    <g id="patch_7">
     <path d="M 292.776563 75.025 
L 370.628125 75.025 
Q 372.628125 75.025 372.628125 73.025 
L 372.628125 14.2 
Q 372.628125 12.2 370.628125 12.2 
L 292.776563 12.2 
Q 290.776563 12.2 290.776563 14.2 
L 290.776563 73.025 
Q 290.776563 75.025 292.776563 75.025 
z
" style="fill:#ffffff;opacity:0.8;stroke:#cccccc;stroke-linejoin:miter;"/>
    </g>
    <g id="line2d_19">
     <path d="M 294.776563 20.298438 
L 314.776563 20.298438 
" style="fill:none;stroke:#1f77b4;stroke-linecap:square;stroke-width:1.5;"/>
    </g>
    <g id="line2d_20"/>
    <g id="text_15">
     <!-- omega_1 -->
     <g transform="translate(322.776563 23.798438)scale(0.1 -0.1)">
      <defs>
       <path d="M 30.609375 48.390625 
Q 23.390625 48.390625 19.1875 42.75 
Q 14.984375 37.109375 14.984375 27.296875 
Q 14.984375 17.484375 19.15625 11.84375 
Q 23.34375 6.203125 30.609375 6.203125 
Q 37.796875 6.203125 41.984375 11.859375 
Q 46.1875 17.53125 46.1875 27.296875 
Q 46.1875 37.015625 41.984375 42.703125 
Q 37.796875 48.390625 30.609375 48.390625 
z
M 30.609375 56 
Q 42.328125 56 49.015625 48.375 
Q 55.71875 40.765625 55.71875 27.296875 
Q 55.71875 13.875 49.015625 6.21875 
Q 42.328125 -1.421875 30.609375 -1.421875 
Q 18.84375 -1.421875 12.171875 6.21875 
Q 5.515625 13.875 5.515625 27.296875 
Q 5.515625 40.765625 12.171875 48.375 
Q 18.84375 56 30.609375 56 
z
" id="DejaVuSans-111"/>
       <path d="M 52 44.1875 
Q 55.375 50.25 60.0625 53.125 
Q 64.75 56 71.09375 56 
Q 79.640625 56 84.28125 50.015625 
Q 88.921875 44.046875 88.921875 33.015625 
L 88.921875 0 
L 79.890625 0 
L 79.890625 32.71875 
Q 79.890625 40.578125 77.09375 44.375 
Q 74.3125 48.1875 68.609375 48.1875 
Q 61.625 48.1875 57.5625 43.546875 
Q 53.515625 38.921875 53.515625 30.90625 
L 53.515625 0 
L 44.484375 0 
L 44.484375 32.71875 
Q 44.484375 40.625 41.703125 44.40625 
Q 38.921875 48.1875 33.109375 48.1875 
Q 26.21875 48.1875 22.15625 43.53125 
Q 18.109375 38.875 18.109375 30.90625 
L 18.109375 0 
L 9.078125 0 
L 9.078125 54.6875 
L 18.109375 54.6875 
L 18.109375 46.1875 
Q 21.1875 51.21875 25.484375 53.609375 
Q 29.78125 56 35.6875 56 
Q 41.65625 56 45.828125 52.96875 
Q 50 49.953125 52 44.1875 
z
" id="DejaVuSans-109"/>
       <path d="M 56.203125 29.59375 
L 56.203125 25.203125 
L 14.890625 25.203125 
Q 15.484375 15.921875 20.484375 11.0625 
Q 25.484375 6.203125 34.421875 6.203125 
Q 39.59375 6.203125 44.453125 7.46875 
Q 49.3125 8.734375 54.109375 11.28125 
L 54.109375 2.78125 
Q 49.265625 0.734375 44.1875 -0.34375 
Q 39.109375 -1.421875 33.890625 -1.421875 
Q 20.796875 -1.421875 13.15625 6.1875 
Q 5.515625 13.8125 5.515625 26.8125 
Q 5.515625 40.234375 12.765625 48.109375 
Q 20.015625 56 32.328125 56 
Q 43.359375 56 49.78125 48.890625 
Q 56.203125 41.796875 56.203125 29.59375 
z
M 47.21875 32.234375 
Q 47.125 39.59375 43.09375 43.984375 
Q 39.0625 48.390625 32.421875 48.390625 
Q 24.90625 48.390625 20.390625 44.140625 
Q 15.875 39.890625 15.1875 32.171875 
z
" id="DejaVuSans-101"/>
       <path d="M 45.40625 27.984375 
Q 45.40625 37.75 41.375 43.109375 
Q 37.359375 48.484375 30.078125 48.484375 
Q 22.859375 48.484375 18.828125 43.109375 
Q 14.796875 37.75 14.796875 27.984375 
Q 14.796875 18.265625 18.828125 12.890625 
Q 22.859375 7.515625 30.078125 7.515625 
Q 37.359375 7.515625 41.375 12.890625 
Q 45.40625 18.265625 45.40625 27.984375 
z
M 54.390625 6.78125 
Q 54.390625 -7.171875 48.1875 -13.984375 
Q 42 -20.796875 29.203125 -20.796875 
Q 24.46875 -20.796875 20.265625 -20.09375 
Q 16.0625 -19.390625 12.109375 -17.921875 
L 12.109375 -9.1875 
Q 16.0625 -11.328125 19.921875 -12.34375 
Q 23.78125 -13.375 27.78125 -13.375 
Q 36.625 -13.375 41.015625 -8.765625 
Q 45.40625 -4.15625 45.40625 5.171875 
L 45.40625 9.625 
Q 42.625 4.78125 38.28125 2.390625 
Q 33.9375 0 27.875 0 
Q 17.828125 0 11.671875 7.65625 
Q 5.515625 15.328125 5.515625 27.984375 
Q 5.515625 40.671875 11.671875 48.328125 
Q 17.828125 56 27.875 56 
Q 33.9375 56 38.28125 53.609375 
Q 42.625 51.21875 45.40625 46.390625 
L 45.40625 54.6875 
L 54.390625 54.6875 
z
" id="DejaVuSans-103"/>
       <path d="M 34.28125 27.484375 
Q 23.390625 27.484375 19.1875 25 
Q 14.984375 22.515625 14.984375 16.5 
Q 14.984375 11.71875 18.140625 8.90625 
Q 21.296875 6.109375 26.703125 6.109375 
Q 34.1875 6.109375 38.703125 11.40625 
Q 43.21875 16.703125 43.21875 25.484375 
L 43.21875 27.484375 
z
M 52.203125 31.203125 
L 52.203125 0 
L 43.21875 0 
L 43.21875 8.296875 
Q 40.140625 3.328125 35.546875 0.953125 
Q 30.953125 -1.421875 24.3125 -1.421875 
Q 15.921875 -1.421875 10.953125 3.296875 
Q 6 8.015625 6 15.921875 
Q 6 25.140625 12.171875 29.828125 
Q 18.359375 34.515625 30.609375 34.515625 
L 43.21875 34.515625 
L 43.21875 35.40625 
Q 43.21875 41.609375 39.140625 45 
Q 35.0625 48.390625 27.6875 48.390625 
Q 23 48.390625 18.546875 47.265625 
Q 14.109375 46.140625 10.015625 43.890625 
L 10.015625 52.203125 
Q 14.9375 54.109375 19.578125 55.046875 
Q 24.21875 56 28.609375 56 
Q 40.484375 56 46.34375 49.84375 
Q 52.203125 43.703125 52.203125 31.203125 
z
" id="DejaVuSans-97"/>
       <path d="M 50.984375 -16.609375 
L 50.984375 -23.578125 
L -0.984375 -23.578125 
L -0.984375 -16.609375 
z
" id="DejaVuSans-95"/>
      </defs>
      <use xlink:href="#DejaVuSans-111"/>
      <use x="61.181641" xlink:href="#DejaVuSans-109"/>
      <use x="158.59375" xlink:href="#DejaVuSans-101"/>
      <use x="220.117188" xlink:href="#DejaVuSans-103"/>
      <use x="283.59375" xlink:href="#DejaVuSans-97"/>
      <use x="344.873047" xlink:href="#DejaVuSans-95"/>
      <use x="394.873047" xlink:href="#DejaVuSans-49"/>
     </g>
    </g>
    <g id="line2d_21">
     <path d="M 294.776563 35.254688 
L 314.776563 35.254688 
" style="fill:none;stroke:#ff7f0e;stroke-linecap:square;stroke-width:1.5;"/>
    </g>
    <g id="line2d_22"/>
    <g id="text_16">
     <!-- omega_2 -->
     <g transform="translate(322.776563 38.754688)scale(0.1 -0.1)">
      <use xlink:href="#DejaVuSans-111"/>
      <use x="61.181641" xlink:href="#DejaVuSans-109"/>
      <use x="158.59375" xlink:href="#DejaVuSans-101"/>
      <use x="220.117188" xlink:href="#DejaVuSans-103"/>
      <use x="283.59375" xlink:href="#DejaVuSans-97"/>
      <use x="344.873047" xlink:href="#DejaVuSans-95"/>
      <use x="394.873047" xlink:href="#DejaVuSans-50"/>
     </g>
    </g>
    <g id="line2d_23">
     <path d="M 294.776563 50.210938 
L 314.776563 50.210938 
" style="fill:none;stroke:#2ca02c;stroke-linecap:square;stroke-width:1.5;"/>
    </g>
    <g id="line2d_24"/>
    <g id="text_17">
     <!-- omega_3 -->
     <g transform="translate(322.776563 53.710938)scale(0.1 -0.1)">
      <defs>
       <path d="M 40.578125 39.3125 
Q 47.65625 37.796875 51.625 33 
Q 55.609375 28.21875 55.609375 21.1875 
Q 55.609375 10.40625 48.1875 4.484375 
Q 40.765625 -1.421875 27.09375 -1.421875 
Q 22.515625 -1.421875 17.65625 -0.515625 
Q 12.796875 0.390625 7.625 2.203125 
L 7.625 11.71875 
Q 11.71875 9.328125 16.59375 8.109375 
Q 21.484375 6.890625 26.8125 6.890625 
Q 36.078125 6.890625 40.9375 10.546875 
Q 45.796875 14.203125 45.796875 21.1875 
Q 45.796875 27.640625 41.28125 31.265625 
Q 36.765625 34.90625 28.71875 34.90625 
L 20.21875 34.90625 
L 20.21875 43.015625 
L 29.109375 43.015625 
Q 36.375 43.015625 40.234375 45.921875 
Q 44.09375 48.828125 44.09375 54.296875 
Q 44.09375 59.90625 40.109375 62.90625 
Q 36.140625 65.921875 28.71875 65.921875 
Q 24.65625 65.921875 20.015625 65.03125 
Q 15.375 64.15625 9.8125 62.3125 
L 9.8125 71.09375 
Q 15.4375 72.65625 20.34375 73.4375 
Q 25.25 74.21875 29.59375 74.21875 
Q 40.828125 74.21875 47.359375 69.109375 
Q 53.90625 64.015625 53.90625 55.328125 
Q 53.90625 49.265625 50.4375 45.09375 
Q 46.96875 40.921875 40.578125 39.3125 
z
" id="DejaVuSans-51"/>
      </defs>
      <use xlink:href="#DejaVuSans-111"/>
      <use x="61.181641" xlink:href="#DejaVuSans-109"/>
      <use x="158.59375" xlink:href="#DejaVuSans-101"/>
      <use x="220.117188" xlink:href="#DejaVuSans-103"/>
      <use x="283.59375" xlink:href="#DejaVuSans-97"/>
      <use x="344.873047" xlink:href="#DejaVuSans-95"/>
      <use x="394.873047" xlink:href="#DejaVuSans-51"/>
     </g>
    </g>
    <g id="line2d_25">
     <path d="M 294.776563 65.167188 
L 314.776563 65.167188 
" style="fill:none;stroke:#d62728;stroke-linecap:square;stroke-width:1.5;"/>
    </g>
    <g id="line2d_26"/>
    <g id="text_18">
     <!-- omega_4 -->
     <g transform="translate(322.776563 68.667188)scale(0.1 -0.1)">
      <use xlink:href="#DejaVuSans-111"/>
      <use x="61.181641" xlink:href="#DejaVuSans-109"/>
      <use x="158.59375" xlink:href="#DejaVuSans-101"/>
      <use x="220.117188" xlink:href="#DejaVuSans-103"/>
      <use x="283.59375" xlink:href="#DejaVuSans-97"/>
      <use x="344.873047" xlink:href="#DejaVuSans-95"/>
      <use x="394.873047" xlink:href="#DejaVuSans-52"/>
     </g>
    </g>
   </g>
  </g>
 </g>
 <defs>
  <clipPath id="pd12c00cb8d">
   <rect height="217.44" width="334.8" x="42.828125" y="7.2"/>
  </clipPath>
 </defs>
</svg>
